<?xml version="1.0" encoding="utf-8"?>
<!-- Generator: Adobe Illustrator 17.1.0, SVG Export Plug-In . SVG Version: 6.00 Build 0)  -->
<!DOCTYPE svg PUBLIC "-//W3C//DTD SVG 1.1//EN" "http://www.w3.org/Graphics/SVG/1.1/DTD/svg11.dtd">
<svg version="1.1" id="Layer_1" xmlns="http://www.w3.org/2000/svg" xmlns:xlink="http://www.w3.org/1999/xlink" x="0px" y="0px"
	 viewBox="0 0 1180 1180" enable-background="new 0 0 1180 1180" xml:space="preserve">
<rect x="-25.2" y="-31.1" width="1248.1" height="1256.9"/>
<g>
	<g>
		<linearGradient id="SVGID_1_" gradientUnits="userSpaceOnUse" x1="158.9189" y1="746.0052" x2="227.5781" y2="746.0052">
			<stop  offset="2.150540e-002" style="stop-color:#BF8D33"/>
			<stop  offset="0.5054" style="stop-color:#F7E679"/>
			<stop  offset="1" style="stop-color:#BF8D33"/>
		</linearGradient>
		<path fill="url(#SVGID_1_)" d="M171.8,776.1c0.5,0,2.2,0,5.1,0.1c2.9,0.1,5.4,0.1,7.4,0.1c1.1,0,1.6-0.3,1.6-0.8
			c0-0.4-0.4-0.6-1.3-0.6c-1.2,0-2.5-0.1-4.1-0.3c-1.8-0.3-2.8-1.7-3.1-4.3c-0.3-2.4-0.4-8.1-0.4-17.2V746c0-0.3,0.2-0.5,0.5-0.5
			h30.6c0.3,0,0.5,0.2,0.5,0.5v7.1c0,9.3-0.1,15-0.4,17.1c-0.3,2.7-1.1,4.1-2.3,4.4c-0.8,0.1-1.6,0.1-2.4,0.2
			c-1.2,0.1-1.8,0.3-1.8,0.7c0,0.5,0.6,0.8,1.7,0.8c1.2,0,3,0,5.5-0.1c2.5-0.1,4-0.1,4.5-0.1s2.2,0,5.1,0.1c2.9,0.1,5.4,0.1,7.4,0.1
			c1.1,0,1.6-0.3,1.6-0.8c0-0.4-0.4-0.6-1.3-0.6c-1.2,0-2.5-0.1-4.1-0.3c-1.8-0.3-2.8-1.7-3.1-4.3c-0.3-2.4-0.4-8.1-0.4-17.2v-14.1
			c0-9.6,0.1-15.2,0.2-17c0.2-2.7,1.1-4.3,3-4.6c0.9-0.2,1.7-0.2,2.3-0.2c1,0,1.4-0.2,1.4-0.7s-0.6-0.7-1.7-0.7s-3,0-5.5,0.1
			c-2.5,0.1-4.1,0.1-4.6,0.1c-0.5,0-2.2,0-5-0.1c-2.8-0.1-5-0.1-6.6-0.1c-1.1,0-1.7,0.2-1.7,0.7s0.5,0.7,1.4,0.7
			c1.3,0,2.4,0.1,3.1,0.2c2.1,0.5,3.3,2,3.4,4.6c0.1,1.8,0.2,7.4,0.2,17v1.7c0,0.4-0.2,0.6-0.5,0.6h-30.6c-0.3,0-0.5-0.2-0.5-0.6
			v-1.7c0-9.6,0.1-15.2,0.2-17c0.2-2.7,1.1-4.3,3-4.6c0.9-0.2,1.7-0.2,2.3-0.2c1,0,1.4-0.2,1.4-0.7s-0.6-0.7-1.7-0.7
			c-1.1,0-3,0-5.5,0.1c-2.5,0.1-4.1,0.1-4.6,0.1c-0.5,0-2.2,0-5-0.1c-2.8-0.1-5-0.1-6.6-0.1c-1.1,0-1.7,0.2-1.7,0.7s0.5,0.7,1.4,0.7
			c1.3,0,2.4,0.1,3.1,0.2c2.1,0.5,3.3,2,3.4,4.6c0.1,1.8,0.2,7.4,0.2,17v14.1c0,9.3-0.1,15-0.4,17.1c-0.3,2.7-1.1,4.1-2.3,4.4
			c-0.8,0.1-1.6,0.1-2.4,0.2c-1.2,0.1-1.8,0.3-1.8,0.7c0,0.5,0.5,0.8,1.6,0.8c1.2,0,3,0,5.6-0.1
			C169.8,776.1,171.4,776.1,171.8,776.1z"/>
		<linearGradient id="SVGID_2_" gradientUnits="userSpaceOnUse" x1="236.2397" y1="746.0052" x2="301.771" y2="746.0052">
			<stop  offset="2.150540e-002" style="stop-color:#BF8D33"/>
			<stop  offset="0.5054" style="stop-color:#F7E679"/>
			<stop  offset="1" style="stop-color:#BF8D33"/>
		</linearGradient>
		<path fill="url(#SVGID_2_)" d="M268.6,777.4c10,0,18.1-3.2,24.2-9.5c6-6.1,9-13.9,9-23.3c0-9.2-2.9-16.5-8.7-21.9
			c-5.8-5.4-13.7-8.1-23.7-8.1c-11,0-19.5,3.5-25.6,10.6c-5,5.8-7.5,12.8-7.5,20.9c0,8.2,2.5,15.2,7.5,21
			C249.7,774,258,777.4,268.6,777.4z M253.7,723.5c3.4-3.4,7.8-5.1,13.3-5.1c6.7,0,12.3,2.6,16.7,7.8c4.5,5.5,6.8,12.6,6.8,21.3
			c0,10.1-2.4,17.3-7.2,21.7c-3.1,2.8-6.9,4.3-11.4,4.3c-7.5,0-13.5-2.9-18-8.7c-4.4-5.5-6.6-12.6-6.6-21.2
			C247.3,734.4,249.4,727.7,253.7,723.5z"/>
		<g>
			<linearGradient id="SVGID_3_" gradientUnits="userSpaceOnUse" x1="311.7163" y1="746.1258" x2="353.7461" y2="746.1258">
				<stop  offset="2.150540e-002" style="stop-color:#BF8D33"/>
				<stop  offset="0.5054" style="stop-color:#F7E679"/>
				<stop  offset="1" style="stop-color:#BF8D33"/>
			</linearGradient>
			<path fill="url(#SVGID_3_)" d="M311.7,716.4c0,0.5,0.5,0.7,1.4,0.7c2,0,3.5,0.3,4.3,0.8c1.1,0.7,1.7,2,1.8,4
				c0.1,1.8,0.2,7.4,0.2,17v14.1c0,9.3-0.1,15-0.4,17.1c-0.3,2.7-1.1,4.1-2.3,4.4c-0.8,0.1-1.6,0.1-2.4,0.2
				c-1.2,0.1-1.8,0.3-1.8,0.7c0,0.5,0.5,0.8,1.6,0.8c1.2,0,3,0,5.6-0.1c2.5-0.1,4.1-0.1,4.5-0.1c1.8,0,5,0.1,9.8,0.2
				c4.8,0.2,9.3,0.2,13.6,0.2c1.7,0,2.8-0.1,3.1-0.2c1-0.2,1.6-0.9,1.9-2c0.8-2.9,1.2-6,1.2-9.2c0-0.9-0.2-1.4-0.6-1.4
				c-0.5,0-0.8,0.4-0.9,1.2c-0.2,1.9-0.9,3.5-2.1,4.8c-1.4,1.5-4.5,2.2-9.4,2.2c-5.1,0-8.4-0.6-9.7-1.8c-0.7-0.6-1.2-2.4-1.4-5.3
				c-0.2-1.9-0.2-5.9-0.2-12v-14.1c0-9.6,0.1-15.2,0.2-17c0.2-2.7,1.1-4.3,3-4.6c0.9-0.2,2-0.2,3.1-0.2c1,0,1.4-0.2,1.4-0.7
				s-0.6-0.7-1.7-0.7s-3.1,0-5.9,0.1c-2.8,0.1-4.5,0.1-5,0.1c-0.6,0-2.2,0-4.9-0.1c-2.7-0.1-4.7-0.1-6.1-0.1
				C312.3,715.7,311.7,715.9,311.7,716.4z"/>
			<linearGradient id="SVGID_4_" gradientUnits="userSpaceOnUse" x1="360.2427" y1="746.1258" x2="402.2725" y2="746.1258">
				<stop  offset="2.150540e-002" style="stop-color:#BF8D33"/>
				<stop  offset="0.5054" style="stop-color:#F7E679"/>
				<stop  offset="1" style="stop-color:#BF8D33"/>
			</linearGradient>
			<path fill="url(#SVGID_4_)" d="M373,715.9c-0.6,0-2.2,0-4.9-0.1c-2.7-0.1-4.7-0.1-6.1-0.1c-1.2,0-1.8,0.2-1.8,0.7
				s0.5,0.7,1.4,0.7c2,0,3.5,0.3,4.3,0.8c1.1,0.7,1.7,2,1.8,4c0.1,1.8,0.2,7.4,0.2,17v14.1c0,9.3-0.1,15-0.4,17.1
				c-0.3,2.7-1.1,4.1-2.3,4.4c-0.8,0.1-1.6,0.1-2.4,0.2c-1.2,0.1-1.8,0.3-1.8,0.7c0,0.5,0.5,0.8,1.6,0.8c1.2,0,3,0,5.6-0.1
				c2.5-0.1,4.1-0.1,4.5-0.1c1.8,0,5,0.1,9.8,0.2c4.8,0.2,9.3,0.2,13.6,0.2c1.7,0,2.8-0.1,3.1-0.2c1-0.2,1.6-0.9,1.9-2
				c0.8-2.9,1.2-6,1.2-9.2c0-0.9-0.2-1.4-0.6-1.4c-0.5,0-0.8,0.4-0.9,1.2c-0.2,1.9-0.9,3.5-2.1,4.8c-1.4,1.5-4.5,2.2-9.4,2.2
				c-5.1,0-8.4-0.6-9.7-1.8c-0.7-0.6-1.2-2.4-1.4-5.3c-0.2-1.9-0.2-5.9-0.2-12v-14.1c0-9.6,0.1-15.2,0.2-17c0.2-2.7,1.1-4.3,3-4.6
				c0.9-0.2,2-0.2,3.1-0.2c1,0,1.4-0.2,1.4-0.7s-0.6-0.7-1.7-0.7s-3.1,0-5.9,0.1C375.2,715.9,373.5,715.9,373,715.9z"/>
			<linearGradient id="SVGID_5_" gradientUnits="userSpaceOnUse" x1="399.3042" y1="746.0052" x2="461.3862" y2="746.0052">
				<stop  offset="2.150540e-002" style="stop-color:#BF8D33"/>
				<stop  offset="0.5054" style="stop-color:#F7E679"/>
				<stop  offset="1" style="stop-color:#BF8D33"/>
			</linearGradient>
			<path fill="url(#SVGID_5_)" d="M400.5,717.1c1,0,2.1,0.3,3.4,1c1.7,1,3.6,2.9,5.5,5.9c1.3,2,3.9,6.2,7.8,12.6
				c3.9,6.4,6,9.9,6.3,10.5c1.2,2.8,1.8,5.6,1.8,8.4v6.6c0,3-0.1,5.7-0.2,8c-0.2,2.6-1,4.1-2.5,4.4c-0.8,0.1-1.6,0.1-2.3,0.2
				c-1.2,0.2-1.8,0.4-1.8,0.7c0,0.5,0.6,0.8,1.8,0.8c1.1,0,2.9,0,5.4-0.1c2.5-0.1,4.1-0.1,4.7-0.1c0.5,0,2.2,0,5.1,0.1
				s5.3,0.1,7.2,0.1c1.1,0,1.7-0.3,1.7-0.8c0-0.4-0.4-0.6-1.3-0.6c-1.1,0-2.5-0.1-4-0.3c-1.8-0.2-2.8-1.3-3.2-3.3
				c-0.3-1.4-0.4-4.4-0.4-9.1v-6.6c0-3.4,0.4-6.1,1.2-8c0.8-1.8,3.2-6.1,7.3-12.9c4.1-6.8,6.8-11,8.1-12.6c1.7-2,3.1-3.3,4.4-3.9
				s2.4-1,3.5-1c1,0,1.6-0.3,1.6-0.8c0-0.4-0.5-0.6-1.4-0.6c-0.5,0-1.9,0-4.2,0.1s-3.8,0.1-4.4,0.1c-0.7,0-2,0-3.6-0.1
				c-1.7-0.1-3-0.1-3.9-0.1c-0.9,0-1.4,0.2-1.4,0.7c0,0.3,0.5,0.6,1.6,0.8c1,0.2,1.6,0.9,1.6,2c0,1.1-0.4,2.5-1.1,4.2
				c-4.4,8.2-8.4,15.5-12,22.1c-8.9-15.5-13.4-23.5-13.6-24c-0.6-1.3-1-2.2-1-2.7c0-0.8,0.4-1.3,1.1-1.4c1.2-0.3,1.8-0.6,1.8-0.9
				c0-0.5-0.4-0.7-1.2-0.7c-1.3,0-3,0-5,0.1c-2,0.1-3.2,0.1-3.6,0.1c-1,0-2.8,0-5.5-0.1c-2.7-0.1-4.2-0.1-4.6-0.1
				c-1,0-1.5,0.2-1.5,0.7S399.7,717.1,400.5,717.1z"/>
			<linearGradient id="SVGID_6_" gradientUnits="userSpaceOnUse" x1="460.4238" y1="721.1404" x2="471.0112" y2="721.1404">
				<stop  offset="2.150540e-002" style="stop-color:#BF8D33"/>
				<stop  offset="0.5054" style="stop-color:#F7E679"/>
				<stop  offset="1" style="stop-color:#BF8D33"/>
			</linearGradient>
			<path fill="url(#SVGID_6_)" d="M460.4,731.5c0,0.3,0.2,0.5,0.5,0.5c0.4,0,0.9-0.2,1.3-0.6c2-2,4-4.7,5.8-8.1c2-3.7,3-6.8,3-9.1
				c0-1.1-0.8-1.8-2.3-2.3c-3.4-1-5.6-1.5-6.7-1.5c-0.6,0-0.9,0.2-0.9,0.6c0,0.4,0.3,0.9,0.9,1.4c1.3,1.3,1.9,3.1,1.9,5.5
				c0,4.3-1,8.5-3.1,12.5C460.6,731,460.4,731.3,460.4,731.5z"/>
			<linearGradient id="SVGID_7_" gradientUnits="userSpaceOnUse" x1="481.6782" y1="746.0052" x2="515.2061" y2="746.0052">
				<stop  offset="2.150540e-002" style="stop-color:#BF8D33"/>
				<stop  offset="0.5054" style="stop-color:#F7E679"/>
				<stop  offset="1" style="stop-color:#BF8D33"/>
			</linearGradient>
			<path fill="url(#SVGID_7_)" d="M507.7,774.2c5-3.3,7.5-7.9,7.5-14c0-3.8-1-7.3-3-10.4c-2-3.1-5.4-6.4-10.2-10.1l-2.2-1.7
				c-3.3-2.5-5.5-4.5-6.7-6.2s-1.8-3.5-1.8-5.3c0-2.5,0.9-4.5,2.6-6c1.7-1.5,4-2.3,7-2.3c3.7,0,6.7,1.3,8.7,3.9
				c1.4,1.8,2.1,3.5,2.1,5.3c0,1,0.3,1.4,0.8,1.4c0.6,0,0.9-0.8,0.9-2.4c0-2.5,0.1-4.8,0.2-6.8c0.1-2,0.2-3,0.2-2.8
				c0-0.4-0.4-0.7-1.1-1c-3.6-0.9-7.2-1.4-10.7-1.4c-5.5,0-10,1.4-13.4,4.3c-3.4,2.8-5.1,6.5-5.1,10.9c0,6.5,4,12.8,11.9,19l3.7,2.9
				c5.2,4.1,7.9,8.4,7.9,12.8c0,2.4-0.9,4.4-2.6,6.2c-2,2-4.7,3-8.1,3c-6,0-9.9-2.7-11.5-8.1c-0.5-1.6-0.7-3-0.7-4.1
				c0-0.9-0.3-1.4-0.8-1.4c-0.5,0-0.9,0.7-1,2.1c-0.3,4.1-0.4,7.6-0.4,10.5c0,1.4,0.5,2.3,1.5,2.7c3.2,1.4,7.1,2.1,11.7,2.1
				C500,777.4,504.3,776.4,507.7,774.2z"/>
			<linearGradient id="SVGID_8_" gradientUnits="userSpaceOnUse" x1="549.6138" y1="746.0052" x2="605.3594" y2="746.0052">
				<stop  offset="2.150540e-002" style="stop-color:#BF8D33"/>
				<stop  offset="0.5054" style="stop-color:#F7E679"/>
				<stop  offset="1" style="stop-color:#BF8D33"/>
			</linearGradient>
			<path fill="url(#SVGID_8_)" d="M568.3,723.5c3.6-3.3,8.7-5,15.1-5c3.6,0,6.9,0.5,9.9,1.4c2.8,0.9,4.9,2.1,6.3,3.5
				c2,2.1,3.1,4.6,3.1,7.4c0,1.2,0.3,1.8,0.8,1.8c0.5,0,0.9-0.6,1-1.8c0.1-3.4,0.2-6.3,0.3-8.7c0.1-1.1,0.2-2.1,0.3-3
				c0.1-0.7,0.2-1.2,0.2-1.4c0-0.6-0.4-0.9-1.2-1c-3.5-0.5-6.2-1-8-1.4c-4.1-0.5-8-0.8-11.7-0.8c-10.7,0-19.2,2.8-25.5,8.5
				c-6.2,5.7-9.4,13-9.4,21.9c0,10,3.3,17.9,10,23.7c6.7,5.8,15.8,8.7,27.5,8.7c6.6,0,11.4-0.6,14.4-1.8c1.1-0.4,1.8-1.2,2.1-2.4
				c0.3-1.2,0.7-3.2,1.2-5.9c0.4-2.5,0.6-4.1,0.6-4.7c0-0.8-0.2-1.2-0.7-1.2s-0.8,0.5-1,1.6c-0.4,1.9-1.3,3.7-2.7,5.3
				c-1.7,1.9-3.9,3.2-6.7,3.8c-1.9,0.4-4.5,0.6-7.9,0.6c-6.1,0-11.7-2.4-16.7-7.1c-5.7-5.5-8.6-12.6-8.6-21.4
				C560.9,734.9,563.4,728,568.3,723.5z"/>
			<linearGradient id="SVGID_9_" gradientUnits="userSpaceOnUse" x1="614.9033" y1="746.1258" x2="656.9336" y2="746.1258">
				<stop  offset="2.150540e-002" style="stop-color:#BF8D33"/>
				<stop  offset="0.5054" style="stop-color:#F7E679"/>
				<stop  offset="1" style="stop-color:#BF8D33"/>
			</linearGradient>
			<path fill="url(#SVGID_9_)" d="M622.1,770.1c-0.3,2.7-1.1,4.1-2.3,4.4c-0.8,0.1-1.6,0.1-2.4,0.2c-1.2,0.1-1.8,0.3-1.8,0.7
				c0,0.5,0.5,0.8,1.6,0.8c1.2,0,3,0,5.6-0.1c2.5-0.1,4-0.1,4.5-0.1c1.8,0,5,0.1,9.8,0.2c4.8,0.2,9.3,0.2,13.6,0.2
				c1.7,0,2.8-0.1,3.1-0.2c1-0.2,1.6-0.9,1.9-2c0.8-2.9,1.2-6,1.2-9.2c0-0.9-0.2-1.4-0.6-1.4c-0.5,0-0.8,0.4-0.9,1.2
				c-0.2,1.9-0.9,3.5-2.1,4.8c-1.4,1.5-4.5,2.2-9.4,2.2c-5.1,0-8.4-0.6-9.7-1.8c-0.8-0.6-1.2-2.4-1.4-5.3c-0.2-1.9-0.2-5.9-0.2-12
				v-14.1c0-9.6,0.1-15.2,0.2-17c0.2-2.7,1.1-4.3,3-4.6c0.9-0.2,2-0.2,3.1-0.2c1,0,1.4-0.2,1.4-0.7s-0.6-0.7-1.7-0.7s-3.1,0-5.9,0.1
				s-4.5,0.1-5,0.1c-0.6,0-2.2,0-4.9-0.1s-4.7-0.1-6.1-0.1c-1.2,0-1.8,0.2-1.8,0.7s0.5,0.7,1.4,0.7c2,0,3.5,0.3,4.3,0.8
				c1.1,0.7,1.7,2,1.8,4c0.1,1.8,0.2,7.4,0.2,17v14.1C622.5,762.4,622.4,768.1,622.1,770.1z"/>
			<linearGradient id="SVGID_10_" gradientUnits="userSpaceOnUse" x1="662.9482" y1="745.805" x2="703.4541" y2="745.805">
				<stop  offset="2.150540e-002" style="stop-color:#BF8D33"/>
				<stop  offset="0.5054" style="stop-color:#F7E679"/>
				<stop  offset="1" style="stop-color:#BF8D33"/>
			</linearGradient>
			<path fill="url(#SVGID_10_)" d="M670.6,770.1c-0.3,2.7-1.1,4.1-2.3,4.4c-0.8,0.1-1.6,0.1-2.4,0.2c-1.2,0.1-1.8,0.3-1.8,0.7
				c0,0.5,0.5,0.8,1.6,0.8c1.2,0,3,0,5.6-0.1c2.5-0.1,4-0.1,4.5-0.1c1,0,3.7,0.1,8.3,0.2c4.6,0.2,9.2,0.2,13.9,0.2
				c1.7,0,2.7-0.1,3.2-0.3s0.9-0.8,1.1-1.8c0.7-2.7,1-5.6,1-8.9c0-1-0.2-1.4-0.6-1.4c-0.4,0-0.7,0.4-0.9,1.2
				c-0.5,3.1-1.7,5.1-3.6,5.9c-1.4,0.6-3.9,1-7.6,1c-4,0-6.6-0.4-7.8-1.2c-1.2-0.8-1.8-2.7-1.9-5.5v-18.8c0-0.5,0.2-0.8,0.5-0.8
				c6.1,0,9.9,0.1,11.4,0.2c2.6,0.3,4.1,1.3,4.5,3.1c0.2,1.3,0.3,2.2,0.3,2.8s0.2,0.8,0.7,0.8c0.5,0,0.7-0.5,0.7-1.5
				c0-0.5,0.1-2.3,0.3-5.4c0.1-1.6,0.2-3,0.4-4.3c0.2-1,0.2-1.5,0.2-1.6c0-0.4-0.2-0.6-0.6-0.6c-0.2,0-0.6,0.3-1.3,1
				c-0.4,0.4-1,0.8-1.8,1c-0.5,0.1-1.2,0.2-2.1,0.2c-1.2,0.1-5.5,0.2-12.9,0.2c-0.4,0-0.6-0.3-0.6-0.9v-20.3c0-0.5,0.2-0.8,0.6-0.8
				c5.8,0,9.6,0.1,11.4,0.3c3,0.4,4.8,1.3,5.4,2.9c0.2,0.4,0.3,0.9,0.3,1.4c0.1,0.5,0.1,1.1,0.2,1.7c0.1,0.6,0.3,0.9,0.7,0.9
				c0.4,0,0.7-0.3,0.8-0.9c0.2-2.1,0.4-3.8,0.4-5.3c0.1-1.4,0.2-2.7,0.4-3.8c0.2-0.9,0.2-1.4,0.2-1.4c0-0.5-0.2-0.7-0.5-0.7
				c0.1,0-0.4,0.1-1.3,0.3c-0.9,0.2-2.1,0.4-3.4,0.5c-0.7,0.1-7.4,0.1-20.1,0.1c-0.6,0-2.3,0-5-0.1s-4.9-0.1-6.5-0.1
				c-1.2,0-1.8,0.2-1.8,0.7s0.5,0.7,1.4,0.7c1.3,0,2.4,0.1,3.1,0.2c2.1,0.5,3.3,2,3.4,4.6c0.1,1.8,0.2,7.4,0.2,17v14.1
				C671,762.4,670.9,768.1,670.6,770.1z"/>
			<linearGradient id="SVGID_11_" gradientUnits="userSpaceOnUse" x1="703.5342" y1="745.6043" x2="836.04" y2="745.6043">
				<stop  offset="2.150540e-002" style="stop-color:#BF8D33"/>
				<stop  offset="0.5054" style="stop-color:#F7E679"/>
				<stop  offset="1" style="stop-color:#BF8D33"/>
			</linearGradient>
			<path fill="url(#SVGID_11_)" d="M723,776.3c0.9,0,1.4-0.3,1.4-0.8c0-0.4-0.4-0.6-1.2-0.6H722c-2.1,0-3.2-0.8-3.2-2.5
				c0-1.1,0.4-2.8,1.2-4.9l4.3-11.5c0.2-0.4,0.4-0.6,0.7-0.6h17.9c0.4,0,0.6,0.2,0.8,0.6l6.4,17c0.4,1,0.1,1.6-0.7,1.8
				c-0.8,0.1-1.1,0.3-1.1,0.7c0,0.4,0.8,0.6,2.4,0.6c3.5,0.1,8.5,0.2,15.2,0.2c1.4,0,2.4-0.1,2.9-0.2c0.1,0,0.2,0,0.2-0.1
				c0.3,0.1,0.7,0.2,1.4,0.2c1.7,0,3.5,0,5.6-0.1c2.1-0.1,3.1-0.1,3-0.1c0.2,0,1.4,0,3.6,0.1c2.2,0.1,4.3,0.1,6.3,0.1
				c1.2,0,1.8-0.3,1.8-0.8c0-0.3-0.8-0.6-2.4-0.8c-1.9-0.2-3-0.3-3.1-0.4c-1.7-0.6-2.6-3.6-2.8-8.9l-0.9-33.7h0.2
				c2.2,2.5,4.5,4.9,6.8,7.5c4.5,4.9,8.6,9.2,12.3,12.8c10.6,10.6,18.5,18.5,23.7,23.6c1.2,1.2,2.1,1.8,2.7,1.8c0.6,0,1-0.8,1-2.5
				l0.9-50.6c0.1-2,0.2-3.4,0.5-4.4c0.6-1.8,2.2-2.6,4.9-2.6c1,0,1.4-0.2,1.4-0.7s-0.6-0.7-1.8-0.7c-1.6,0-3.2,0-5.1,0.1
				c-1.8,0.1-2.8,0.1-2.8,0.1c-0.4,0-1.7,0-3.9-0.1s-4.2-0.1-5.8-0.1c-1.4,0-2.1,0.2-2.1,0.7s0.4,0.7,1.3,0.7c2,0,3.4,0.2,4.3,0.5
				c1.2,0.5,2,1.5,2.4,3.1c0.2,0.8,0.3,2.1,0.3,4.1l0.8,36h-0.4c-6.3-6.5-12.2-12.6-17.6-18.3c-12.2-12.5-20.5-21-24.9-25.7
				c-1.6-1.7-2.5-2.5-3-2.5c-0.6,0-1,0.9-1,2.7l-0.7,47.5c-0.1,3.7-0.2,6.1-0.5,7.4c-0.3,1.4-1,2.2-2,2.6c-0.9,0.1-1.8,0.2-2.8,0.3
				c-0.6,0-1.1,0.1-1.4,0.2c-0.2-0.1-0.4-0.1-0.7-0.1c-1.3,0-2.4-0.1-3.4-0.3c-2.5-0.5-4.8-3.4-7.1-8.7c-8.3-20.5-15-36.9-19.9-49.3
				c-0.8-1.7-1.4-2.6-2-2.6c-0.6,0-1.4,1.1-2.2,3.2l-20.1,50.4c-0.9,2.3-1.8,4-2.6,5c-1.1,1.3-2.5,2-4.2,2.2
				c-0.8,0.1-1.6,0.2-2.5,0.2c-0.6,0-1,0.2-1,0.6c0,0.5,0.5,0.8,1.5,0.8c1.7,0,4.8-0.1,9.5-0.2c0.8,0,2.2,0,4.2,0.1
				S722.2,776.3,723,776.3z M726.3,750.8l7.4-19.7c0.1-0.5,0.3-0.7,0.5-0.7c0.2,0,0.3,0.2,0.4,0.7l7.2,19.8c0.1,0.3,0,0.5-0.4,0.5
				h-14.8C726.3,751.4,726.2,751.2,726.3,750.8z"/>
			<linearGradient id="SVGID_12_" gradientUnits="userSpaceOnUse" x1="846.7871" y1="746.0052" x2="872.6953" y2="746.0052">
				<stop  offset="2.150540e-002" style="stop-color:#BF8D33"/>
				<stop  offset="0.5054" style="stop-color:#F7E679"/>
				<stop  offset="1" style="stop-color:#BF8D33"/>
			</linearGradient>
			<path fill="url(#SVGID_12_)" d="M859.1,715.9c-0.7,0-2.3,0-4.9-0.1c-2.6-0.1-4.4-0.1-5.5-0.1c-1.3,0-1.9,0.2-1.9,0.6
				c0,0.5,0.5,0.8,1.4,0.8c0.9,0,1.9,0.1,2.8,0.3c1.7,0.4,2.6,1.9,2.7,4.5c0.1,1.8,0.2,7.4,0.2,17v14.1c0,9.3-0.1,15.1-0.4,17.5
				c-0.3,2.4-1,3.7-2.3,4c-0.8,0.1-1.6,0.1-2.4,0.2c-1.2,0.1-1.8,0.3-1.8,0.7c0,0.5,0.5,0.8,1.6,0.8c1.2,0,3,0,5.6-0.1
				c2.5-0.1,4-0.1,4.5-0.1s2.2,0,5.1,0.1c2.9,0.1,5.4,0.1,7.4,0.1c1,0,1.5-0.3,1.5-0.8c0-0.4-0.4-0.6-1.3-0.6
				c-1.2,0-2.5-0.1-4.1-0.3c-1.9-0.3-3-1.6-3.2-3.9c-0.2-2.1-0.3-8-0.3-17.6v-14.1c0-9.6,0.1-15.2,0.2-17c0.2-2.7,1.1-4.3,2.9-4.6
				c0.9-0.2,1.7-0.2,2.5-0.2s1.1-0.3,1.1-0.8c0-0.4-0.6-0.6-1.7-0.6c-1.1,0-2.9,0-5.3,0.1C861.2,715.9,859.7,715.9,859.1,715.9z"/>
			<linearGradient id="SVGID_13_" gradientUnits="userSpaceOnUse" x1="880.7949" y1="745.8045" x2="948.252" y2="745.8045">
				<stop  offset="2.150540e-002" style="stop-color:#BF8D33"/>
				<stop  offset="0.5054" style="stop-color:#F7E679"/>
				<stop  offset="1" style="stop-color:#BF8D33"/>
			</linearGradient>
			<path fill="url(#SVGID_13_)" d="M888.9,717l-0.7,47.5c-0.1,3.7-0.2,6.1-0.5,7.4c-0.3,1.4-1,2.2-2,2.6c-0.9,0.1-1.8,0.2-2.8,0.3
				c-1.4,0.1-2.1,0.3-2.1,0.7c0,0.5,0.6,0.8,1.8,0.8c1.7,0,3.5,0,5.6-0.1c2.1-0.1,3.1-0.1,3-0.1c0.2,0,1.4,0,3.6,0.1
				c2.2,0.1,4.3,0.1,6.3,0.1c1.2,0,1.8-0.3,1.8-0.8c0-0.3-0.8-0.6-2.4-0.8c-1.9-0.2-3-0.3-3.1-0.4c-1.7-0.6-2.6-3.6-2.8-8.9
				l-0.9-33.7h0.2c2.2,2.5,4.5,4.9,6.8,7.5c4.5,4.9,8.6,9.2,12.3,12.8c10.6,10.6,18.5,18.5,23.7,23.6c1.2,1.2,2.1,1.8,2.7,1.8
				c0.6,0,1-0.8,1-2.5l0.9-50.6c0.1-2,0.2-3.4,0.5-4.4c0.6-1.8,2.2-2.6,4.9-2.6c1,0,1.4-0.2,1.4-0.7s-0.6-0.7-1.8-0.7
				c-1.6,0-3.2,0-5.1,0.1c-1.8,0.1-2.8,0.1-2.8,0.1c-0.4,0-1.7,0-3.9-0.1s-4.2-0.1-5.8-0.1c-1.4,0-2.1,0.2-2.1,0.7s0.4,0.7,1.3,0.7
				c2,0,3.4,0.2,4.3,0.5c1.2,0.5,2,1.5,2.4,3.1c0.2,0.8,0.3,2.1,0.3,4.1l0.8,36h-0.4c-6.3-6.5-12.2-12.6-17.6-18.3
				c-12.2-12.5-20.5-21-24.9-25.7c-1.6-1.7-2.5-2.5-3-2.5C889.3,714.3,888.9,715.2,888.9,717z"/>
			<linearGradient id="SVGID_14_" gradientUnits="userSpaceOnUse" x1="957.3145" y1="746.0052" x2="1021.0811" y2="746.0052">
				<stop  offset="2.150540e-002" style="stop-color:#BF8D33"/>
				<stop  offset="0.5054" style="stop-color:#F7E679"/>
				<stop  offset="1" style="stop-color:#BF8D33"/>
			</linearGradient>
			<path fill="url(#SVGID_14_)" d="M1019.5,746.2c-0.9,0-2.5,0-4.8,0.1c-2.3,0.1-3.8,0.1-4.6,0.1c-0.6,0-2.4,0-5.1-0.1
				s-4.9-0.1-6.5-0.1c-1.1,0-1.7,0.3-1.7,0.8c0,0.4,0.4,0.6,1.2,0.6c1.3,0,2.4,0.1,3.1,0.2c2.2,0.5,3.4,2,3.4,4.6
				c0.1,1.7,0.1,4.9,0.1,9.4v7.5c0,1-0.2,1.7-0.6,2.2c-0.8,1.1-3.3,1.7-7.8,1.7c-8.3,0-15.1-2.8-20.2-8.5
				c-5.1-5.7-7.7-12.9-7.7-21.6c0-9,2.5-15.5,7.4-19.6c4-3.3,9.3-5,15.9-5c4.1,0,7.9,0.7,11.5,2.2c2.8,1.2,5,2.5,6.4,4.1
				c1.4,1.6,2.4,3.8,2.7,6.7c0.1,0.7,0.4,1,0.8,1c0.6,0,0.9-0.6,0.9-1.7c0-4.1,0.1-7.5,0.3-10c0.1-2,0.2-3.1,0.3-3.2
				c0-0.5-0.4-0.8-1.1-0.9c-1.7-0.1-3.8-0.4-6.3-0.9c-4.4-0.9-9.1-1.3-14.2-1.3c-8.6,0-15.8,1.7-21.6,5.2c-4,2.4-7.2,5.7-9.7,9.9
				c-2.8,4.8-4.3,10.2-4.3,16.3c0,10.4,3.7,18.4,11.1,24c6.6,5,15.2,7.5,25.9,7.5c8.3,0,14.8-1.2,19.3-3.6c0.7-0.4,1-1.3,1-2.9v-8.8
				c0-4.7,0-7.9,0.1-9.6c0.1-2.7,1.1-4.2,3.1-4.6c0.9-0.2,1.7-0.2,2.3-0.2s0.9-0.2,0.9-0.6C1021.1,746.5,1020.5,746.2,1019.5,746.2z
				"/>
			<linearGradient id="SVGID_15_" gradientUnits="userSpaceOnUse" x1="1014.4891" y1="717.6389" x2="1014.5039" y2="717.6389">
				<stop  offset="2.150540e-002" style="stop-color:#BF8D33"/>
				<stop  offset="0.5054" style="stop-color:#F7E679"/>
				<stop  offset="1" style="stop-color:#BF8D33"/>
			</linearGradient>
			<path fill="url(#SVGID_15_)" d="M1014.5,717.6C1014.5,717.6,1014.5,717.7,1014.5,717.6C1014.5,717.6,1014.5,717.6,1014.5,717.6z"
				/>
			<linearGradient id="SVGID_16_" gradientUnits="userSpaceOnUse" x1="469.1523" y1="809.5281" x2="487.9629" y2="809.5281">
				<stop  offset="2.150540e-002" style="stop-color:#BF8D33"/>
				<stop  offset="0.5054" style="stop-color:#F7E679"/>
				<stop  offset="1" style="stop-color:#BF8D33"/>
			</linearGradient>
			<path fill="url(#SVGID_16_)" d="M470,826c1.8,0.8,4,1.2,6.6,1.2c2.9,0,5.3-0.6,7.2-1.8c2.8-1.8,4.2-4.4,4.2-7.8
				c0-2.2-0.6-4.1-1.7-5.8c-1.1-1.7-3-3.6-5.7-5.6l-1.3-0.9c-1.8-1.4-3.1-2.5-3.8-3.5c-0.7-0.9-1-1.9-1-3c0-1.4,0.5-2.5,1.4-3.4
				c1-0.9,2.3-1.3,3.9-1.3c2.1,0,3.7,0.7,4.9,2.2c0.8,1,1.2,2,1.2,3c0,0.5,0.1,0.8,0.5,0.8c0.3,0,0.5-0.5,0.5-1.3
				c0-1.4,0-2.7,0.1-3.8c0.1-1.1,0.1-1.7,0.1-1.6c0-0.2-0.2-0.4-0.6-0.5c-2-0.5-4-0.8-6-0.8c-3.1,0-5.6,0.8-7.5,2.4
				c-1.9,1.6-2.9,3.6-2.9,6.1c0,3.6,2.2,7.2,6.7,10.7l2.1,1.6c2.9,2.3,4.4,4.7,4.4,7.2c0,1.3-0.5,2.5-1.5,3.5
				c-1.1,1.1-2.7,1.7-4.5,1.7c-3.4,0-5.5-1.5-6.4-4.5c-0.3-0.9-0.4-1.7-0.4-2.3c0-0.5-0.2-0.8-0.4-0.8c-0.3,0-0.5,0.4-0.5,1.2
				c-0.2,2.3-0.2,4.3-0.2,5.9C469.2,825.2,469.4,825.8,470,826z"/>
			<linearGradient id="SVGID_17_" gradientUnits="userSpaceOnUse" x1="494.127" y1="809.4153" x2="516.8516" y2="809.4153">
				<stop  offset="2.150540e-002" style="stop-color:#BF8D33"/>
				<stop  offset="0.5054" style="stop-color:#F7E679"/>
				<stop  offset="1" style="stop-color:#BF8D33"/>
			</linearGradient>
			<path fill="url(#SVGID_17_)" d="M498.4,823.1c-0.2,1.5-0.6,2.3-1.3,2.5c-0.4,0-0.9,0.1-1.3,0.1c-0.7,0.1-1,0.2-1,0.4
				c0,0.3,0.3,0.4,0.9,0.4c0.7,0,1.7,0,3.1-0.1s2.3-0.1,2.5-0.1c0.5,0,2.1,0,4.7,0.1s5.2,0.1,7.8,0.1c0.9,0,1.5-0.1,1.8-0.2
				c0.3-0.1,0.5-0.4,0.6-1c0.4-1.5,0.6-3.2,0.6-5c0-0.5-0.1-0.8-0.4-0.8c-0.2,0-0.4,0.2-0.5,0.7c-0.3,1.7-1,2.8-2,3.3
				c-0.8,0.4-2.2,0.5-4.2,0.5c-2.3,0-3.7-0.2-4.4-0.7c-0.6-0.5-1-1.5-1.1-3.1v-10.5c0-0.3,0.1-0.5,0.3-0.5c3.4,0,5.6,0,6.4,0.1
				c1.4,0.2,2.3,0.7,2.5,1.8c0.1,0.7,0.2,1.2,0.2,1.6c0,0.3,0.1,0.5,0.4,0.5s0.4-0.3,0.4-0.9c0-0.3,0.1-1.3,0.2-3
				c0.1-0.9,0.1-1.7,0.2-2.4c0.1-0.6,0.1-0.9,0.1-0.9c0-0.2-0.1-0.4-0.3-0.4c-0.1,0-0.4,0.2-0.7,0.6c-0.2,0.2-0.5,0.4-1,0.5
				c-0.3,0.1-0.7,0.1-1.2,0.1c-0.7,0.1-3.1,0.1-7.2,0.1c-0.2,0-0.3-0.2-0.3-0.5v-11.4c0-0.3,0.1-0.5,0.3-0.5c3.3,0,5.4,0.1,6.4,0.2
				c1.7,0.2,2.7,0.8,3,1.6c0.1,0.2,0.2,0.5,0.2,0.8s0.1,0.6,0.1,0.9s0.2,0.5,0.4,0.5c0.2,0,0.4-0.2,0.5-0.5c0.1-1.2,0.2-2.2,0.2-3
				c0-0.8,0.1-1.5,0.2-2.1c0.1-0.5,0.1-0.8,0.1-0.8c0-0.3-0.1-0.4-0.3-0.4c0,0-0.2,0.1-0.7,0.2c-0.5,0.1-1.2,0.2-1.9,0.3
				c-0.4,0-4.1,0-11.3,0c-0.3,0-1.3,0-2.8-0.1s-2.8-0.1-3.7-0.1c-0.7,0-1,0.1-1,0.4c0,0.3,0.3,0.4,0.8,0.4c0.8,0,1.3,0,1.8,0.1
				c1.2,0.3,1.8,1.1,1.9,2.6c0.1,1,0.1,4.2,0.1,9.5v7.9C498.7,818.7,498.6,821.9,498.4,823.1z"/>
			<linearGradient id="SVGID_18_" gradientUnits="userSpaceOnUse" x1="522.5664" y1="809.5281" x2="558.0713" y2="809.5281">
				<stop  offset="2.150540e-002" style="stop-color:#BF8D33"/>
				<stop  offset="0.5054" style="stop-color:#F7E679"/>
				<stop  offset="1" style="stop-color:#BF8D33"/>
			</linearGradient>
			<path fill="url(#SVGID_18_)" d="M532.8,812.5h3.9c0.4,0,0.6,0.1,0.8,0.3c1.7,2.3,3.2,4.4,4.5,6.2c2.6,3.6,4.7,5.8,6.2,6.6
				c1,0.6,2.7,0.9,4.8,0.9h4.3c0.6,0,0.9-0.1,0.9-0.4c0-0.2-0.3-0.3-0.8-0.4c-0.3,0-0.7-0.1-1-0.1c-1.7-0.3-3.4-1.4-5-3.1
				c-1.2-1.2-2.6-2.9-4.4-5.1c-0.3-0.4-2.1-2.6-5.4-6.8c4-3.2,5.9-6.6,5.9-10.1c0-1.4-0.4-2.7-1.1-3.9c-0.6-1-1.2-1.8-2-2.3
				c-1.9-1.3-4.7-1.9-8.3-1.9c-0.5,0-1.5,0-3.1,0.1s-2.7,0.1-3.2,0.1c-0.2,0-1,0-2.5-0.1s-2.7-0.1-3.6-0.1c-0.7,0-1,0.1-1,0.4
				c0,0.3,0.3,0.4,0.8,0.4c0.8,0,1.3,0,1.8,0.1c1.2,0.3,1.8,1.1,1.9,2.6c0.1,1,0.1,4.2,0.1,9.5v7.9c0,5.2-0.1,8.4-0.2,9.6
				c-0.2,1.5-0.6,2.3-1.3,2.5c-0.4,0-0.9,0.1-1.3,0.1c-0.7,0.1-1,0.2-1,0.4c0,0.3,0.3,0.4,0.9,0.4c0.7,0,1.7,0,3.1-0.1
				s2.2-0.1,2.4-0.1c0.1,0,0.9,0,2.6,0.1s3,0.1,4,0.1c0.6,0,0.9-0.1,0.9-0.4c0-0.2-0.2-0.4-0.5-0.4c-0.6,0-1.3-0.1-2.2-0.2
				c-1-0.1-1.6-0.9-1.8-2.5c-0.2-1.3-0.2-4.5-0.2-9.6v-0.6C532.4,812.7,532.5,812.5,532.8,812.5z M532.4,795.4
				c0-0.3,0.1-0.5,0.2-0.5c0.3-0.2,1.1-0.3,2.6-0.3c1.7,0,3.2,0.6,4.5,1.7c1.6,1.5,2.4,3.7,2.4,6.5c0,3.2-0.9,5.5-2.7,6.8
				c-0.7,0.5-1.8,0.8-3.2,0.8c-1.4,0-2.6-0.2-3.4-0.5c-0.3-0.1-0.4-0.4-0.4-0.8V795.4z"/>
			<linearGradient id="SVGID_19_" gradientUnits="userSpaceOnUse" x1="551.2314" y1="809.8431" x2="588.8506" y2="809.8431">
				<stop  offset="2.150540e-002" style="stop-color:#BF8D33"/>
				<stop  offset="0.5054" style="stop-color:#F7E679"/>
				<stop  offset="1" style="stop-color:#BF8D33"/>
			</linearGradient>
			<path fill="url(#SVGID_19_)" d="M588.9,792.9c0-0.3-0.3-0.4-0.9-0.4c-0.5,0-1.3,0-2.3,0.1c-1.1,0-1.7,0.1-1.9,0.1
				c-0.1,0-0.6,0-1.7-0.1c-1.1,0-2.1-0.1-3-0.1c-0.8,0-1.3,0.2-1.3,0.5c0,0.2,0.3,0.4,0.8,0.4c0.8,0,1.3,0.1,1.8,0.2
				s0.6,0.4,0.6,0.9c0,0.4-0.1,0.9-0.4,1.7c-3.3,8.5-6.3,15.9-8.9,22.4h-0.2l-7.7-20.4c-0.7-1.8-1-3-1-3.5c0-0.4,0.1-0.7,0.5-0.9
				c0.3-0.2,0.9-0.3,1.8-0.3c0.5,0,0.7-0.1,0.7-0.4c0-0.3-0.3-0.4-1-0.4c-0.8,0-1.9,0-3.2,0.1s-2.1,0.1-2.3,0.1
				c-0.5,0-1.4,0-2.9-0.1c-1.5,0-2.7-0.1-3.6-0.1c-0.8,0-1.2,0.1-1.2,0.4c0,0.3,0.2,0.4,0.5,0.4c0.7,0,1.3,0.1,1.8,0.2
				c0.9,0.2,1.5,0.6,1.9,0.9c0.5,0.5,1,1.3,1.5,2.5l11.3,27.5c0.5,1.2,0.8,1.9,0.9,2.2c0.2,0.4,0.5,0.6,0.8,0.6
				c0.3,0,0.6-0.2,0.9-0.7c0.2-0.3,0.6-1.2,1.2-2.7l6-13.7c2.6-5.9,4.4-10,5.4-12.2c1-2.2,1.8-3.6,2.5-4.1c0.5-0.4,1.3-0.5,2.2-0.5
				C588.6,793.3,588.9,793.2,588.9,792.9z"/>
			<linearGradient id="SVGID_20_" gradientUnits="userSpaceOnUse" x1="589.7061" y1="809.5281" x2="604.2412" y2="809.5281">
				<stop  offset="2.150540e-002" style="stop-color:#BF8D33"/>
				<stop  offset="0.5054" style="stop-color:#F7E679"/>
				<stop  offset="1" style="stop-color:#BF8D33"/>
			</linearGradient>
			<path fill="url(#SVGID_20_)" d="M603.5,825.7c-0.7,0-1.4-0.1-2.3-0.2c-1.1-0.2-1.7-0.9-1.8-2.2c-0.1-1.2-0.2-4.5-0.2-9.9v-7.9
				c0-5.4,0-8.5,0.1-9.5c0.1-1.5,0.6-2.4,1.6-2.6c0.5-0.1,1-0.1,1.4-0.1c0.4,0,0.6-0.1,0.6-0.4c0-0.2-0.3-0.4-0.9-0.4s-1.6,0-3,0.1
				c-1.4,0-2.2,0.1-2.5,0.1c-0.4,0-1.3,0-2.8-0.1s-2.5-0.1-3.1-0.1c-0.7,0-1.1,0.1-1.1,0.4c0,0.3,0.3,0.4,0.8,0.4
				c0.5,0,1,0.1,1.6,0.2c0.9,0.2,1.4,1.1,1.5,2.5c0.1,1,0.1,4.2,0.1,9.5v7.9c0,5.2-0.1,8.5-0.2,9.8c-0.2,1.3-0.6,2.1-1.3,2.2
				c-0.4,0-0.9,0.1-1.3,0.1c-0.7,0.1-1,0.2-1,0.4c0,0.3,0.3,0.4,0.9,0.4c0.7,0,1.7,0,3.1-0.1s2.3-0.1,2.5-0.1c0.3,0,1.2,0,2.9,0.1
				c1.6,0,3,0.1,4.2,0.1c0.6,0,0.9-0.1,0.9-0.4C604.2,825.8,604,825.7,603.5,825.7z"/>
			<linearGradient id="SVGID_21_" gradientUnits="userSpaceOnUse" x1="609.1006" y1="809.5281" x2="640.376" y2="809.5281">
				<stop  offset="2.150540e-002" style="stop-color:#BF8D33"/>
				<stop  offset="0.5054" style="stop-color:#F7E679"/>
				<stop  offset="1" style="stop-color:#BF8D33"/>
			</linearGradient>
			<path fill="url(#SVGID_21_)" d="M639.4,824.8c0.2-0.7,0.4-1.8,0.7-3.3c0.2-1.4,0.3-2.3,0.3-2.6c0-0.5-0.1-0.7-0.4-0.7
				c-0.3,0-0.5,0.3-0.6,0.9c-0.2,1.1-0.7,2.1-1.5,3c-0.9,1.1-2.2,1.8-3.8,2.2c-1.1,0.2-2.5,0.4-4.5,0.4c-3.5,0-6.6-1.3-9.4-4
				c-3.2-3.1-4.8-7.1-4.8-12c0-5.2,1.4-9.1,4.1-11.7c2-1.9,4.9-2.8,8.5-2.8c2,0,3.9,0.3,5.6,0.8c1.6,0.5,2.8,1.2,3.6,2
				c1.1,1.2,1.7,2.6,1.8,4.1c0,0.7,0.2,1,0.5,1s0.5-0.3,0.5-1c0.1-1.9,0.1-3.5,0.2-4.9c0-0.6,0.1-1.2,0.2-1.7
				c0.1-0.4,0.1-0.7,0.1-0.8c0-0.3-0.2-0.5-0.7-0.5c-2-0.3-3.5-0.6-4.5-0.8c-2.3-0.3-4.5-0.5-6.5-0.5c-6,0-10.8,1.6-14.3,4.8
				c-3.5,3.2-5.3,7.3-5.3,12.3c0,5.6,1.9,10,5.6,13.3c3.7,3.3,8.9,4.9,15.4,4.9c3.7,0,6.4-0.3,8.1-1
				C638.8,825.9,639.2,825.4,639.4,824.8z"/>
			<linearGradient id="SVGID_22_" gradientUnits="userSpaceOnUse" x1="645.46" y1="809.4153" x2="668.1846" y2="809.4153">
				<stop  offset="2.150540e-002" style="stop-color:#BF8D33"/>
				<stop  offset="0.5054" style="stop-color:#F7E679"/>
				<stop  offset="1" style="stop-color:#BF8D33"/>
			</linearGradient>
			<path fill="url(#SVGID_22_)" d="M668.2,820.5c0-0.5-0.1-0.8-0.4-0.8c-0.2,0-0.4,0.2-0.5,0.7c-0.3,1.7-1,2.8-2,3.3
				c-0.8,0.4-2.2,0.5-4.2,0.5c-2.3,0-3.7-0.2-4.4-0.7c-0.6-0.5-1-1.5-1.1-3.1v-10.5c0-0.3,0.1-0.5,0.3-0.5c3.4,0,5.6,0,6.4,0.1
				c1.4,0.2,2.3,0.7,2.5,1.8c0.1,0.7,0.2,1.2,0.2,1.6c0,0.3,0.1,0.5,0.4,0.5s0.4-0.3,0.4-0.9c0-0.3,0.1-1.3,0.2-3
				c0.1-0.9,0.1-1.7,0.2-2.4c0.1-0.6,0.1-0.9,0.1-0.9c0-0.2-0.1-0.4-0.3-0.4c-0.1,0-0.4,0.2-0.7,0.6c-0.2,0.2-0.5,0.4-1,0.5
				c-0.3,0.1-0.7,0.1-1.2,0.1c-0.7,0.1-3.1,0.1-7.2,0.1c-0.2,0-0.3-0.2-0.3-0.5v-11.4c0-0.3,0.1-0.5,0.3-0.5c3.3,0,5.4,0.1,6.4,0.2
				c1.7,0.2,2.7,0.8,3,1.6c0.1,0.2,0.2,0.5,0.2,0.8s0.1,0.6,0.1,0.9s0.2,0.5,0.4,0.5c0.2,0,0.4-0.2,0.5-0.5c0.1-1.2,0.2-2.2,0.2-3
				c0-0.8,0.1-1.5,0.2-2.1c0.1-0.5,0.1-0.8,0.1-0.8c0-0.3-0.1-0.4-0.3-0.4c0,0-0.2,0.1-0.7,0.2c-0.5,0.1-1.2,0.2-1.9,0.3
				c-0.4,0-4.1,0-11.3,0c-0.3,0-1.3,0-2.8-0.1s-2.8-0.1-3.7-0.1c-0.7,0-1,0.1-1,0.4c0,0.3,0.3,0.4,0.8,0.4c0.8,0,1.3,0,1.8,0.1
				c1.2,0.3,1.8,1.1,1.9,2.6c0.1,1,0.1,4.2,0.1,9.5v7.9c0,5.2-0.1,8.4-0.2,9.6c-0.2,1.5-0.6,2.3-1.3,2.5c-0.4,0-0.9,0.1-1.3,0.1
				c-0.7,0.1-1,0.2-1,0.4c0,0.3,0.3,0.4,0.9,0.4c0.7,0,1.7,0,3.1-0.1s2.3-0.1,2.5-0.1c0.5,0,2.1,0,4.7,0.1s5.2,0.1,7.8,0.1
				c0.9,0,1.5-0.1,1.8-0.2c0.3-0.1,0.5-0.4,0.6-1C668,824,668.2,822.3,668.2,820.5z"/>
			<linearGradient id="SVGID_23_" gradientUnits="userSpaceOnUse" x1="675.1143" y1="809.5281" x2="693.9248" y2="809.5281">
				<stop  offset="2.150540e-002" style="stop-color:#BF8D33"/>
				<stop  offset="0.5054" style="stop-color:#F7E679"/>
				<stop  offset="1" style="stop-color:#BF8D33"/>
			</linearGradient>
			<path fill="url(#SVGID_23_)" d="M692.3,811.7c-1.1-1.7-3-3.6-5.7-5.6l-1.3-0.9c-1.8-1.4-3.1-2.5-3.8-3.5c-0.7-0.9-1-1.9-1-3
				c0-1.4,0.5-2.5,1.4-3.4c1-0.9,2.3-1.3,3.9-1.3c2.1,0,3.7,0.7,4.9,2.2c0.8,1,1.2,2,1.2,3c0,0.5,0.1,0.8,0.5,0.8
				c0.3,0,0.5-0.5,0.5-1.3c0-1.4,0-2.7,0.1-3.8c0.1-1.1,0.1-1.7,0.1-1.6c0-0.2-0.2-0.4-0.6-0.5c-2-0.5-4-0.8-6-0.8
				c-3.1,0-5.6,0.8-7.5,2.4c-1.9,1.6-2.9,3.6-2.9,6.1c0,3.6,2.2,7.2,6.7,10.7l2.1,1.6c2.9,2.3,4.4,4.7,4.4,7.2
				c0,1.3-0.5,2.5-1.5,3.5c-1.1,1.1-2.7,1.7-4.5,1.7c-3.4,0-5.5-1.5-6.4-4.5c-0.3-0.9-0.4-1.7-0.4-2.3c0-0.5-0.2-0.8-0.4-0.8
				c-0.3,0-0.5,0.4-0.5,1.2c-0.2,2.3-0.2,4.3-0.2,5.9c0,0.8,0.3,1.3,0.9,1.5c1.8,0.8,4,1.2,6.6,1.2c2.9,0,5.3-0.6,7.2-1.8
				c2.8-1.8,4.2-4.4,4.2-7.8C693.9,815.3,693.4,813.4,692.3,811.7z"/>
			<linearGradient id="SVGID_24_" gradientUnits="userSpaceOnUse" x1="162.8064" y1="808.5587" x2="447.1989" y2="808.5587">
				<stop  offset="2.150540e-002" style="stop-color:#BF8D33"/>
				<stop  offset="0.5054" style="stop-color:#F7E679"/>
				<stop  offset="1" style="stop-color:#BF8D33"/>
			</linearGradient>
			<rect x="162.8" y="807.5" fill="url(#SVGID_24_)" width="284.4" height="2.2"/>
			<linearGradient id="SVGID_25_" gradientUnits="userSpaceOnUse" x1="717.545" y1="806.8431" x2="1001.9374" y2="806.8431">
				<stop  offset="2.150540e-002" style="stop-color:#BF8D33"/>
				<stop  offset="0.5054" style="stop-color:#F7E679"/>
				<stop  offset="1" style="stop-color:#BF8D33"/>
			</linearGradient>
			<rect x="717.5" y="805.8" fill="url(#SVGID_25_)" width="284.4" height="2.2"/>
			<g>
				<linearGradient id="SVGID_26_" gradientUnits="userSpaceOnUse" x1="283.8231" y1="669.376" x2="300.8799" y2="669.376">
					<stop  offset="2.150540e-002" style="stop-color:#BF8D33"/>
					<stop  offset="0.5054" style="stop-color:#F7E679"/>
					<stop  offset="1" style="stop-color:#BF8D33"/>
				</linearGradient>
				<path fill="url(#SVGID_26_)" d="M300.6,677.1c-0.2,0-0.3,0.2-0.4,0.5c-0.2,1.3-0.7,2.1-1.5,2.5c-0.6,0.3-1.6,0.4-3.2,0.4
					c-1.7,0-2.8-0.2-3.3-0.5c-0.5-0.3-0.8-1.1-0.8-2.3v-7.9c0-0.2,0.1-0.3,0.2-0.3c2.6,0,4.2,0,4.8,0.1c1.1,0.1,1.7,0.6,1.9,1.3
					c0.1,0.5,0.1,0.9,0.1,1.2c0,0.2,0.1,0.4,0.3,0.4c0.2,0,0.3-0.2,0.3-0.6c0-0.2,0-1,0.1-2.3c0-0.7,0.1-1.3,0.2-1.8
					c0.1-0.4,0.1-0.7,0.1-0.7c0-0.2-0.1-0.3-0.2-0.3c-0.1,0-0.3,0.1-0.5,0.4c-0.2,0.2-0.4,0.3-0.7,0.4c-0.2,0-0.5,0.1-0.9,0.1
					c-0.5,0-2.3,0.1-5.4,0.1c-0.2,0-0.2-0.1-0.2-0.4v-8.5c0-0.2,0.1-0.3,0.2-0.3c2.4,0,4,0,4.8,0.1c1.2,0.2,2,0.6,2.3,1.2
					c0.1,0.2,0.1,0.4,0.1,0.6c0,0.2,0.1,0.5,0.1,0.7c0,0.2,0.1,0.4,0.3,0.4c0.2,0,0.3-0.1,0.3-0.4c0.1-0.9,0.2-1.6,0.2-2.2
					c0-0.6,0.1-1.1,0.2-1.6c0.1-0.4,0.1-0.6,0.1-0.6c0-0.2-0.1-0.3-0.2-0.3c0,0-0.2,0-0.5,0.1c-0.4,0.1-0.9,0.2-1.5,0.2
					c-0.3,0-3.1,0-8.4,0c-0.2,0-1,0-2.1-0.1c-1.2,0-2.1-0.1-2.8-0.1c-0.5,0-0.7,0.1-0.7,0.3c0,0.2,0.2,0.3,0.6,0.3
					c0.6,0,1,0,1.3,0.1c0.9,0.2,1.4,0.8,1.5,1.9c0,0.7,0.1,3.1,0.1,7.2v5.9c0,3.9-0.1,6.3-0.2,7.2c-0.1,1.1-0.5,1.7-1,1.9
					c-0.3,0-0.7,0.1-1,0.1c-0.5,0-0.7,0.1-0.7,0.3c0,0.2,0.2,0.3,0.7,0.3c0.5,0,1.3,0,2.3-0.1c1.1,0,1.7-0.1,1.9-0.1
					c0.4,0,1.6,0,3.5,0.1c1.9,0.1,3.9,0.1,5.8,0.1c0.7,0,1.1,0,1.4-0.1c0.2-0.1,0.4-0.3,0.5-0.7c0.3-1.1,0.4-2.4,0.4-3.7
					C300.9,677.3,300.8,677.1,300.6,677.1z"/>
				<linearGradient id="SVGID_27_" gradientUnits="userSpaceOnUse" x1="306.0812" y1="669.4603" x2="320.2001" y2="669.4603">
					<stop  offset="2.150540e-002" style="stop-color:#BF8D33"/>
					<stop  offset="0.5054" style="stop-color:#F7E679"/>
					<stop  offset="1" style="stop-color:#BF8D33"/>
				</linearGradient>
				<path fill="url(#SVGID_27_)" d="M314.7,666.8l-0.9-0.7c-1.4-1-2.3-1.9-2.8-2.6c-0.5-0.7-0.8-1.5-0.8-2.2c0-1,0.4-1.9,1.1-2.5
					c0.7-0.6,1.7-1,2.9-1c1.6,0,2.8,0.6,3.7,1.7c0.6,0.7,0.9,1.5,0.9,2.2c0,0.4,0.1,0.6,0.3,0.6c0.2,0,0.4-0.3,0.4-1
					c0-1.1,0-2,0.1-2.9c0-0.8,0.1-1.2,0.1-1.2c0-0.2-0.2-0.3-0.5-0.4c-1.5-0.4-3-0.6-4.5-0.6c-2.3,0-4.2,0.6-5.6,1.8
					c-1.4,1.2-2.2,2.7-2.2,4.6c0,2.7,1.7,5.4,5,8l1.6,1.2c2.2,1.7,3.3,3.5,3.3,5.4c0,1-0.4,1.9-1.1,2.6c-0.9,0.8-2,1.2-3.4,1.2
					c-2.5,0-4.2-1.1-4.8-3.4c-0.2-0.7-0.3-1.2-0.3-1.7c0-0.4-0.1-0.6-0.3-0.6c-0.2,0-0.4,0.3-0.4,0.9c-0.1,1.7-0.2,3.2-0.2,4.4
					c0,0.6,0.2,1,0.6,1.1c1.3,0.6,3,0.9,4.9,0.9c2.2,0,4-0.5,5.4-1.4c2.1-1.4,3.2-3.3,3.2-5.9c0-1.6-0.4-3.1-1.2-4.4
					C318.1,669.8,316.7,668.4,314.7,666.8z"/>
				<linearGradient id="SVGID_28_" gradientUnits="userSpaceOnUse" x1="323.2054" y1="669.2239" x2="346.0382" y2="669.2239">
					<stop  offset="2.150540e-002" style="stop-color:#BF8D33"/>
					<stop  offset="0.5054" style="stop-color:#F7E679"/>
					<stop  offset="1" style="stop-color:#BF8D33"/>
				</linearGradient>
				<path fill="url(#SVGID_28_)" d="M345.8,656.5c0.1,0-0.2,0.1-0.9,0.2c-0.7,0.1-1.5,0.2-2.3,0.2h-13.4c-1,0-2.2-0.1-3.4-0.2
					c-0.3,0-0.6-0.1-0.9-0.2c-0.3-0.1-0.5-0.2-0.5-0.2c-0.2,0-0.3,0.2-0.4,0.6c-0.5,2-0.7,3.3-0.7,3.9c0,0.4,0.1,0.5,0.3,0.5
					c0.2,0,0.3-0.1,0.4-0.4c0.1-0.4,0.3-0.8,0.6-1.2c0.4-0.6,1.5-0.9,3.3-1l5-0.1v13.8c0,3.8-0.1,6.2-0.2,7.2
					c-0.1,1.1-0.5,1.7-1,1.9c-0.3,0-0.7,0.1-1,0.1c-0.5,0-0.7,0.1-0.7,0.3c0,0.2,0.2,0.3,0.7,0.3c0.5,0,1.3,0,2.3-0.1
					c1.1,0,1.7-0.1,1.9-0.1c0.2,0,0.9,0,2.2,0.1c1.2,0,2.3,0.1,3.1,0.1c0.4,0,0.6-0.1,0.6-0.3c0-0.2-0.2-0.3-0.5-0.3
					c-0.5,0-1.1,0-1.7-0.1c-0.7-0.1-1.2-0.7-1.3-1.8c-0.1-1-0.2-3.4-0.2-7.2v-13.8l4.3,0.1c2.5,0.1,3.9,0.7,4,1.9l0,0.4
					c0,0.5,0.2,0.7,0.4,0.7c0.2,0,0.2-0.2,0.3-0.5c0-0.3,0.1-1,0.1-2c0-1,0.1-1.7,0.1-1.9C346,656.7,345.9,656.5,345.8,656.5z"/>
				<linearGradient id="SVGID_29_" gradientUnits="userSpaceOnUse" x1="348.8075" y1="669.6127" x2="376.4362" y2="669.6127">
					<stop  offset="2.150540e-002" style="stop-color:#BF8D33"/>
					<stop  offset="0.5054" style="stop-color:#F7E679"/>
					<stop  offset="1" style="stop-color:#BF8D33"/>
				</linearGradient>
				<path fill="url(#SVGID_29_)" d="M366.6,657.2c-1.6-0.3-3.9-0.5-7-0.5c-0.8,0-1.8,0-3,0.1c-1.2,0-2,0.1-2.2,0.1
					c-0.2,0-1,0-2.1-0.1s-2.1-0.1-2.8-0.1c-0.5,0-0.7,0.1-0.7,0.3c0,0.2,0.2,0.3,0.6,0.3c0.6,0,1,0,1.3,0.1c0.9,0.2,1.4,0.8,1.5,1.9
					c0,0.7,0.1,3.1,0.1,7.2v5.9c0,3.9-0.1,6.3-0.2,7.2c-0.1,1.1-0.5,1.7-1,1.9c-0.3,0-0.7,0.1-1,0.1c-0.5,0-0.7,0.1-0.7,0.3
					c0,0.2,0.2,0.3,0.7,0.3c0.5,0,1.3,0,2.3-0.1c1.1,0,1.7-0.1,1.9-0.1c0.5,0,1.6,0.1,3.3,0.2c1.7,0.1,3,0.2,3.9,0.2
					c4.9,0,8.7-1.3,11.3-4c2.5-2.5,3.7-5.6,3.7-9.4c0-3.4-1.1-6.3-3.3-8.6C371.5,658.9,369.3,657.7,366.6,657.2z M369.1,678.5
					c-1.9,1.6-4.5,2.4-7.8,2.4c-2.3,0-3.8-0.5-4.4-1.4c-0.2-0.3-0.3-1.1-0.4-2.6c0-1-0.1-3.3-0.1-6.8v-4.3c0-3.5,0-5.7,0-6.8
					c0-0.3,0.2-0.6,0.5-0.7c0.3-0.1,1-0.2,2.1-0.2c4,0,7.2,1.1,9.6,3.4c2.2,2.1,3.2,4.9,3.2,8.4C371.9,674.1,371,676.9,369.1,678.5z
					"/>
				<linearGradient id="SVGID_30_" gradientUnits="userSpaceOnUse" x1="380.4559" y1="680.0663" x2="384.5768" y2="680.0663">
					<stop  offset="2.150540e-002" style="stop-color:#BF8D33"/>
					<stop  offset="0.5054" style="stop-color:#F7E679"/>
					<stop  offset="1" style="stop-color:#BF8D33"/>
				</linearGradient>
				<path fill="url(#SVGID_30_)" d="M384,678.5c-0.4-0.4-0.9-0.5-1.5-0.5c-0.7,0-1.2,0.2-1.6,0.7c-0.3,0.4-0.5,0.9-0.5,1.4
					c0,0.5,0.2,1,0.5,1.4c0.4,0.5,0.9,0.7,1.6,0.7c0.6,0,1.1-0.2,1.5-0.6c0.4-0.4,0.6-0.9,0.6-1.5
					C384.6,679.4,384.4,678.9,384,678.5z"/>
			</g>
			<g>
				<linearGradient id="SVGID_31_" gradientUnits="userSpaceOnUse" x1="806.2887" y1="670.1548" x2="823.9201" y2="670.1548">
					<stop  offset="2.150540e-002" style="stop-color:#BF8D33"/>
					<stop  offset="0.5054" style="stop-color:#F7E679"/>
					<stop  offset="1" style="stop-color:#BF8D33"/>
				</linearGradient>
				<path fill="url(#SVGID_31_)" d="M823.6,676.6c-0.2,0-0.3,0.2-0.4,0.5c-0.5,1.7-1.7,2.7-3.9,3c-1.1,0.1-3,0.2-5.8,0.2h-2.3
					c-0.2,0-0.3-0.1-0.1-0.2c3.4-2.7,5.9-5,7.4-6.7c2.8-3.2,4.2-6.2,4.2-9c0-2.1-0.7-3.8-2-5.1c-1.5-1.4-3.7-2.1-6.5-2.1
					c-2.4,0-4.4,0.4-6.1,1.3c-0.3,0.2-0.4,0.4-0.4,0.7c0,1.3,0.1,2.7,0.2,4.1c0,0.4,0.1,0.6,0.3,0.6c0.3,0,0.4-0.2,0.4-0.7
					c0-0.5,0.1-1,0.4-1.7c0.3-0.7,0.6-1.2,1-1.5c0.9-0.8,2-1.2,3.6-1.2c1.1,0,2.1,0.4,2.9,1.2c1.1,1.1,1.7,2.8,1.7,5.2
					c0,3.1-1.3,6.2-4,9.4c-1.2,1.4-3.7,3.8-7.5,7.2c-0.5,0.4-0.7,0.7-0.7,0.9c0,0.3,0.2,0.5,0.5,0.5H820c1.1,0,1.8-0.1,2.2-0.2
					c0.4-0.1,0.6-0.4,0.7-0.8c0.2-0.6,0.4-1.5,0.6-2.7c0.2-1.2,0.4-1.9,0.4-2.2C823.9,676.8,823.8,676.6,823.6,676.6z"/>
				<linearGradient id="SVGID_32_" gradientUnits="userSpaceOnUse" x1="827.5001" y1="670.4418" x2="846.2127" y2="670.4418">
					<stop  offset="2.150540e-002" style="stop-color:#BF8D33"/>
					<stop  offset="0.5054" style="stop-color:#F7E679"/>
					<stop  offset="1" style="stop-color:#BF8D33"/>
				</linearGradient>
				<path fill="url(#SVGID_32_)" d="M837.1,657.2c-3.2,0-5.6,1.3-7.3,4c-1.6,2.5-2.3,5.8-2.3,10c0,3.2,0.6,6,1.8,8.2
					c1.6,2.9,4,4.3,7.3,4.3c3.2,0,5.6-1.3,7.3-4c1.6-2.5,2.4-5.8,2.4-10c0-3.3-0.6-6-1.8-8.2C842.8,658.6,840.4,657.2,837.1,657.2z
					 M840.8,679.2c-0.9,2-2.1,2.9-3.6,2.9c-1.9,0-3.4-1.3-4.4-3.9c-0.9-2.2-1.3-5-1.3-8.3c0-3.6,0.4-6.3,1.3-8.3s2.1-2.9,3.5-2.9
					c1.9,0,3.4,1.3,4.4,4c0.9,2.3,1.4,5,1.4,8.3C842.2,674.5,841.7,677.3,840.8,679.2z"/>
				<linearGradient id="SVGID_33_" gradientUnits="userSpaceOnUse" x1="849.454" y1="670.2054" x2="862.6611" y2="670.2054">
					<stop  offset="2.150540e-002" style="stop-color:#BF8D33"/>
					<stop  offset="0.5054" style="stop-color:#F7E679"/>
					<stop  offset="1" style="stop-color:#BF8D33"/>
				</linearGradient>
				<path fill="url(#SVGID_33_)" d="M862.4,682.6c-0.9,0-1.6-0.1-2.2-0.2c-0.5-0.1-0.9-0.3-1-0.6c-0.2-0.2-0.3-0.6-0.3-1.2
					c-0.1-1-0.1-3.5-0.1-7.6v-6.2c0-2.1,0-4.2,0.1-6.2c0-1.6,0.1-2.5,0.1-2.6c0-0.4-0.1-0.7-0.4-0.7c-0.2,0-0.5,0.1-0.9,0.4
					c-0.5,0.4-2,1.4-4.3,2.9c-2.2,1.5-3.4,2.2-3.5,2.3c-0.2,0.1-0.3,0.3-0.3,0.5c0,0.2,0.1,0.4,0.2,0.4c0.1,0,0.2,0,0.5-0.1
					c0.7-0.3,1.3-0.6,2-0.9c1-0.5,1.7-0.7,1.9-0.7c0.3,0,0.5,0.4,0.5,1.2c0,0.3,0,1,0,2c0,1,0,1.8,0,2.5v5.4c0,4.1,0,6.6-0.1,7.6
					c0,0.6-0.2,1-0.3,1.2c-0.2,0.2-0.5,0.4-1,0.5c-0.7,0.2-1.6,0.2-2.7,0.2c-0.2,0-0.3,0.1-0.3,0.3c0,0.2,0.2,0.3,0.5,0.3
					c0.8,0,2,0,3.4-0.1c1.4,0,2.2-0.1,2.4-0.1c0.2,0,0.9,0,2.2,0.1c1.3,0,2.5,0.1,3.4,0.1c0.4,0,0.5-0.1,0.5-0.3
					C862.7,682.7,862.6,682.6,862.4,682.6z"/>
				<linearGradient id="SVGID_34_" gradientUnits="userSpaceOnUse" x1="858.8412" y1="657.8842" x2="858.8444" y2="657.8842">
					<stop  offset="2.150540e-002" style="stop-color:#BF8D33"/>
					<stop  offset="0.5054" style="stop-color:#F7E679"/>
					<stop  offset="1" style="stop-color:#BF8D33"/>
				</linearGradient>
				<path fill="url(#SVGID_34_)" d="M858.8,657.9C858.8,657.9,858.8,657.9,858.8,657.9C858.8,657.9,858.8,657.8,858.8,657.9z"/>
				<linearGradient id="SVGID_35_" gradientUnits="userSpaceOnUse" x1="866.0494" y1="657.4767" x2="866.1054" y2="657.4767">
					<stop  offset="2.150540e-002" style="stop-color:#BF8D33"/>
					<stop  offset="0.5054" style="stop-color:#F7E679"/>
					<stop  offset="1" style="stop-color:#BF8D33"/>
				</linearGradient>
				<path fill="url(#SVGID_35_)" d="M866.1,657.5C866.1,657.5,866.1,657.5,866.1,657.5C866.1,657.5,866,657.5,866.1,657.5z"/>
				<linearGradient id="SVGID_36_" gradientUnits="userSpaceOnUse" x1="865.261" y1="670.5818" x2="882.2841" y2="670.5818">
					<stop  offset="2.150540e-002" style="stop-color:#BF8D33"/>
					<stop  offset="0.5054" style="stop-color:#F7E679"/>
					<stop  offset="1" style="stop-color:#BF8D33"/>
				</linearGradient>
				<path fill="url(#SVGID_36_)" d="M881.5,657.8h-10.8c-1.5,0-2.6-0.1-3.5-0.2c-0.7-0.1-1-0.1-1.1-0.1c-0.2,0-0.3,0.2-0.3,0.5
					c0,0-0.1,0.9-0.3,2.4c-0.2,1.6-0.3,2.6-0.3,3.1c0,0.3,0.1,0.5,0.3,0.5c0.2,0,0.3-0.1,0.3-0.4c0.1-0.9,0.5-1.6,1.1-2
					c0.6-0.4,1.7-0.6,3.2-0.6h8.7c-2.1,3.6-4.3,7.7-6.3,12.2c-1.8,4-3,6.9-3.6,8.8c-0.2,0.5-0.2,1-0.2,1.4c0,0.3,0.2,0.4,0.5,0.4
					c0.7,0,1.6-0.3,2.7-0.8c1-0.5,1.6-0.9,1.6-1.3v-1.2c0.2-2.2,1.4-5.9,3.4-11c2-5.2,3.8-8.7,5.2-10.7c0.2-0.2,0.2-0.4,0.2-0.6
					C882.3,657.9,882,657.8,881.5,657.8z"/>
			</g>
			<g>
				<linearGradient id="SVGID_37_" gradientUnits="userSpaceOnUse" x1="483.2662" y1="528.6798" x2="752.6468" y2="528.6798">
					<stop  offset="2.150540e-002" style="stop-color:#BF8D33"/>
					<stop  offset="0.5054" style="stop-color:#F7E679"/>
					<stop  offset="1" style="stop-color:#BF8D33"/>
				</linearGradient>
				<path fill="url(#SVGID_37_)" d="M747.8,477.7c-2.7,0-4.8,2.2-4.8,4.8v98.6c-9.2,1-18.4,2.2-27.4,3.6
					c-38-42.6-45.9-151.8,28.6-178c0.4-0.1,0.2-0.7-0.2-0.7c-30.4,4.8-51.5,20.6-64.9,45.7c-0.3,0.6-1.2,0.8-1.7,0.3
					c-10.4-10.4-8.9-29.4-0.7-47.4c0.3-0.6-0.5-1.1-0.9-0.6c-9.1,11.1-12.3,23.5-13.3,38.8c-0.1,1-1.3,1.4-1.9,0.6
					c-11.9-15.3-12.6-48.4,2-70.4c0.3-0.4-0.3-0.8-0.6-0.5c-21.3,22-16.1,55.5-13.2,68c0.3,1.1-1.2,1.8-1.9,1
					c-20-23.8-42.4-27.8-51.4-28.4c-0.6,0-0.7,0.8-0.2,0.9c35.5,10.1,55.3,50.3,55.3,50.3c26.7,57.4,11.5,106.7-41.4,150
					c-44.3,17.8-86.2,41.6-125.9,70.6h45.3C573.4,645.7,642,613,743,589.3v17.8c-71.3,7.6-132.9,35.6-187.7,77.8h71.9
					c32.3-26.8,70-47.3,115.8-58.7v15.6c-29.5,8.3-59.4,23.1-89.6,43.1H743h1.6h3.2v-0.7c2.8-1.2,4.8-4.1,4.8-7.4V482.5
					C752.6,479.9,750.5,477.7,747.8,477.7z"/>
				<linearGradient id="SVGID_38_" gradientUnits="userSpaceOnUse" x1="405.5654" y1="510.9248" x2="602.2855" y2="510.9248">
					<stop  offset="2.150540e-002" style="stop-color:#BF8D33"/>
					<stop  offset="0.5054" style="stop-color:#F7E679"/>
					<stop  offset="1" style="stop-color:#BF8D33"/>
				</linearGradient>
				<path fill="url(#SVGID_38_)" d="M578.7,347.2l15.3,15.3c1.9,1.9,4.9,1.9,6.8,0c1.9-1.9,1.9-4.9,0-6.8l-15.3-15.3
					c-2.2-2.2-5.2-3.5-8.3-3.5c-3.1,0-6.1,1.2-8.4,3.3L434.3,469.6l-4.2,4l-21.6,20.8c-1.9,1.8-2.9,4.3-2.9,6.9l0.2,5.3
					c0.1,1.5,1.8,2.2,2.8,1.2l21.5-20.6v190.1c0,4.3,3.5,7.8,7.8,7.8h1.8V477.8l135.8-130.5C576.4,346.3,577.9,346.3,578.7,347.2z"
					/>
				<linearGradient id="SVGID_39_" gradientUnits="userSpaceOnUse" x1="561.9251" y1="437.033" x2="590.0004" y2="437.033">
					<stop  offset="2.150540e-002" style="stop-color:#BF8D33"/>
					<stop  offset="0.5054" style="stop-color:#F7E679"/>
					<stop  offset="1" style="stop-color:#BF8D33"/>
				</linearGradient>
				<path fill="url(#SVGID_39_)" d="M586.5,445.7c0.3-0.1,0.5-0.5,0.3-0.8c-4.6-6.1-9.9-9.2-16.1-9.2c7.7-1.7,13.7,0.4,18.4,4.9
					c0.4,0.3,1,0,0.8-0.5c-3.8-14.4-15.6-15.7-27.5-9c-0.5,0.3-0.7,0.9-0.4,1.4C567.3,442.4,573.9,449.6,586.5,445.7z"/>
				<linearGradient id="SVGID_40_" gradientUnits="userSpaceOnUse" x1="557.5264" y1="410.2769" x2="590.393" y2="410.2769">
					<stop  offset="2.150540e-002" style="stop-color:#BF8D33"/>
					<stop  offset="0.5054" style="stop-color:#F7E679"/>
					<stop  offset="1" style="stop-color:#BF8D33"/>
				</linearGradient>
				<path fill="url(#SVGID_40_)" d="M589.6,408.7c0.5,0.2,1-0.5,0.6-0.9c-10.6-13.1-23.3-9-32.5,3.4c-0.4,0.5-0.3,1.3,0.2,1.7
					c9.9,7.7,20.1,12.1,31.3,2.3c0.3-0.3,0.2-0.7-0.1-0.9c-7.5-4.2-14.4-4.9-20.8-2.1C575.5,406.8,582.7,406.2,589.6,408.7z"/>
				<linearGradient id="SVGID_41_" gradientUnits="userSpaceOnUse" x1="588.2034" y1="390.5524" x2="613.7171" y2="390.5524">
					<stop  offset="2.150540e-002" style="stop-color:#BF8D33"/>
					<stop  offset="0.5054" style="stop-color:#F7E679"/>
					<stop  offset="1" style="stop-color:#BF8D33"/>
				</linearGradient>
				<path fill="url(#SVGID_41_)" d="M589.3,377.5c-0.6,0.1-1.1,0.6-1.1,1.3c0.7,12.5,4.1,23.1,18.9,25.1c0.4,0.1,0.7-0.3,0.6-0.7
					c-1.8-8.4-5.8-14.1-12.1-17.1c8.7,1.9,13.8,6.9,16.6,13.8c0.2,0.5,1,0.5,1.1-0.1C616.2,383.1,604.7,376.2,589.3,377.5z"/>
				<linearGradient id="SVGID_42_" gradientUnits="userSpaceOnUse" x1="614.5164" y1="368.3064" x2="637.6113" y2="368.3064">
					<stop  offset="2.150540e-002" style="stop-color:#BF8D33"/>
					<stop  offset="0.5054" style="stop-color:#F7E679"/>
					<stop  offset="1" style="stop-color:#BF8D33"/>
				</linearGradient>
				<path fill="url(#SVGID_42_)" d="M629.2,382.8c0.4,0.1,0.8-0.2,0.7-0.6c-0.3-8.6-3.3-14.9-8.9-18.9c8.2,3.4,12.4,9.2,13.9,16.5
					c0.1,0.6,0.9,0.6,1.1,0.1c5.7-15.8-4.3-24.6-19.7-26.1c-0.6-0.1-1.2,0.4-1.3,1.1C613.5,367.3,614.9,378.3,629.2,382.8z"/>
				<linearGradient id="SVGID_43_" gradientUnits="userSpaceOnUse" x1="639.7773" y1="352.6528" x2="660.8686" y2="352.6528">
					<stop  offset="2.150540e-002" style="stop-color:#BF8D33"/>
					<stop  offset="0.5054" style="stop-color:#F7E679"/>
					<stop  offset="1" style="stop-color:#BF8D33"/>
				</linearGradient>
				<path fill="url(#SVGID_43_)" d="M646.8,368c4-7.7,4.4-14.6,1.4-20.9c5.5,6.9,6.4,14.1,4.1,21.2c-0.2,0.5,0.5,1,0.9,0.6
					c12.7-11,8.2-23.6-4.5-32.4c-0.5-0.4-1.3-0.2-1.7,0.3c-7.4,10.2-11.4,20.5-1.2,31.3C646.2,368.4,646.7,368.4,646.8,368z"/>
				<linearGradient id="SVGID_44_" gradientUnits="userSpaceOnUse" x1="665.3925" y1="356.252" x2="689.0947" y2="356.252">
					<stop  offset="2.150540e-002" style="stop-color:#BF8D33"/>
					<stop  offset="0.5054" style="stop-color:#F7E679"/>
					<stop  offset="1" style="stop-color:#BF8D33"/>
				</linearGradient>
				<path fill="url(#SVGID_44_)" d="M666.3,366.1c7.9-3.5,12.5-8.7,14.1-15.5c0,8.9-3.8,15-9.9,19.1c-0.5,0.3-0.2,1.1,0.3,1
					c16.8-0.7,21.1-13.4,16.6-28.2c-0.2-0.6-0.8-1-1.5-0.8c-12.1,3.4-21.7,8.9-20.4,23.8C665.5,366,665.9,366.2,666.3,366.1z"/>
				<linearGradient id="SVGID_45_" gradientUnits="userSpaceOnUse" x1="672.7817" y1="390.5524" x2="695.7408" y2="390.5524">
					<stop  offset="2.150540e-002" style="stop-color:#BF8D33"/>
					<stop  offset="0.5054" style="stop-color:#F7E679"/>
					<stop  offset="1" style="stop-color:#BF8D33"/>
				</linearGradient>
				<path fill="url(#SVGID_45_)" d="M673.2,400.9c0.1,0.4,0.5,0.6,0.8,0.4c7.5-4.2,11.8-9.7,12.8-16.6c0.8,8.8-2.5,15.3-8.3,19.9
					c-0.4,0.4-0.1,1.1,0.4,1c16.7-2.1,19.9-15.1,14.2-29.4c-0.2-0.6-0.9-0.9-1.5-0.7C679.8,379.9,670.7,386.2,673.2,400.9z"/>
				<linearGradient id="SVGID_46_" gradientUnits="userSpaceOnUse" x1="746.796" y1="401.5135" x2="777.8926" y2="401.5135">
					<stop  offset="2.150540e-002" style="stop-color:#BF8D33"/>
					<stop  offset="0.5054" style="stop-color:#F7E679"/>
					<stop  offset="1" style="stop-color:#BF8D33"/>
				</linearGradient>
				<path fill="url(#SVGID_46_)" d="M777.1,393.9c-11.7-4.4-22.6-5.6-30.2,7c-0.2,0.3,0,0.8,0.4,0.9c8.4,1.8,15.1,0.4,20.3-4.1
					c-5.1,7.1-11.8,9.7-19.1,9.4c-0.6,0-0.8,0.7-0.3,1c13.9,9.3,24.7,1.7,29.7-12.7C778,394.8,777.7,394.1,777.1,393.9z"/>
				<linearGradient id="SVGID_47_" gradientUnits="userSpaceOnUse" x1="737.0336" y1="371.2233" x2="765.9122" y2="371.2233">
					<stop  offset="2.150540e-002" style="stop-color:#BF8D33"/>
					<stop  offset="0.5054" style="stop-color:#F7E679"/>
					<stop  offset="1" style="stop-color:#BF8D33"/>
				</linearGradient>
				<path fill="url(#SVGID_47_)" d="M737.6,375.3c8.6-0.4,14.8-3.5,18.8-9.2c-3.2,8.2-9.1,12.5-16.3,14.1c-0.6,0.1-0.6,0.9-0.1,1.1
					c15.9,5.5,24.6-4.7,25.8-20.1c0.1-0.6-0.4-1.2-1.1-1.3c-12.5-1.3-23.4,0.3-27.8,14.6C736.9,374.9,737.2,375.3,737.6,375.3z"/>
				<linearGradient id="SVGID_48_" gradientUnits="userSpaceOnUse" x1="699.4806" y1="401.3746" x2="723.2629" y2="401.3746">
					<stop  offset="2.150540e-002" style="stop-color:#BF8D33"/>
					<stop  offset="0.5054" style="stop-color:#F7E679"/>
					<stop  offset="1" style="stop-color:#BF8D33"/>
				</linearGradient>
				<path fill="url(#SVGID_48_)" d="M700,406.2c7.4-1,12.5-4.2,15.5-9.4c-2.1,7.3-6.8,11.5-12.9,13.4c-0.5,0.1-0.4,0.8,0,0.9
					c14.1,3.5,20.8-5.9,20.6-19.3c0-0.6-0.5-1-1-1c-10.8-0.2-20.1,2.1-22.7,14.7C699.4,405.9,699.7,406.2,700,406.2z"/>
				<linearGradient id="SVGID_49_" gradientUnits="userSpaceOnUse" x1="704.2886" y1="456.594" x2="735.8173" y2="456.594">
					<stop  offset="2.150540e-002" style="stop-color:#BF8D33"/>
					<stop  offset="0.5054" style="stop-color:#F7E679"/>
					<stop  offset="1" style="stop-color:#BF8D33"/>
				</linearGradient>
				<path fill="url(#SVGID_49_)" d="M705.8,462c-0.6,0-0.8,0.7-0.4,1c13.8,9.6,24.9,2.2,30.3-12.3c0.2-0.6-0.1-1.3-0.7-1.5
					c-11.7-4.6-22.6-6-30.7,6.5c-0.2,0.3,0,0.8,0.4,0.9c8.4,2,15.2,0.7,20.6-3.8C720,459.9,713.2,462.4,705.8,462z"/>
				<linearGradient id="SVGID_50_" gradientUnits="userSpaceOnUse" x1="738.8425" y1="428.101" x2="770.3712" y2="428.101">
					<stop  offset="2.150540e-002" style="stop-color:#BF8D33"/>
					<stop  offset="0.5054" style="stop-color:#F7E679"/>
					<stop  offset="1" style="stop-color:#BF8D33"/>
				</linearGradient>
				<path fill="url(#SVGID_50_)" d="M740.4,433.5c-0.6,0-0.8,0.7-0.4,1c13.8,9.6,24.9,2.2,30.3-12.3c0.2-0.6-0.1-1.3-0.7-1.5
					c-11.7-4.6-22.6-6-30.7,6.5c-0.2,0.3,0,0.8,0.4,0.9c8.4,2,15.2,0.7,20.6-3.8C754.5,431.4,747.8,433.9,740.4,433.5z"/>
				<linearGradient id="SVGID_51_" gradientUnits="userSpaceOnUse" x1="742.9127" y1="459.1026" x2="774.4413" y2="459.1026">
					<stop  offset="2.150540e-002" style="stop-color:#BF8D33"/>
					<stop  offset="0.5054" style="stop-color:#F7E679"/>
					<stop  offset="1" style="stop-color:#BF8D33"/>
				</linearGradient>
				<path fill="url(#SVGID_51_)" d="M773.7,451.7c-11.7-4.6-22.6-6-30.7,6.5c-0.2,0.3,0,0.8,0.4,0.9c8.4,2,15.2,0.7,20.6-3.8
					c-5.3,7.1-12.1,9.6-19.5,9.2c-0.6,0-0.8,0.7-0.4,1c13.8,9.6,24.9,2.2,30.3-12.3C774.6,452.6,774.3,451.9,773.7,451.7z"/>
				<linearGradient id="SVGID_52_" gradientUnits="userSpaceOnUse" x1="706.5651" y1="368.3063" x2="728.7408" y2="368.3063">
					<stop  offset="2.150540e-002" style="stop-color:#BF8D33"/>
					<stop  offset="0.5054" style="stop-color:#F7E679"/>
					<stop  offset="1" style="stop-color:#BF8D33"/>
				</linearGradient>
				<path fill="url(#SVGID_52_)" d="M708.5,380.4c7-5,10.5-11,10.7-18c1.8,8.7-0.7,15.4-5.9,20.7c-0.4,0.4,0,1.1,0.5,1
					c16.3-4.1,18-17.3,10.6-30.9c-0.3-0.6-1-0.8-1.6-0.5c-11.2,5.7-19.5,13.1-15.3,27.4C707.8,380.4,708.2,380.6,708.5,380.4z"/>
				<linearGradient id="SVGID_53_" gradientUnits="userSpaceOnUse" x1="621.3176" y1="405.9337" x2="642.1711" y2="405.9337">
					<stop  offset="2.150540e-002" style="stop-color:#BF8D33"/>
					<stop  offset="0.5054" style="stop-color:#F7E679"/>
					<stop  offset="1" style="stop-color:#BF8D33"/>
				</linearGradient>
				<path fill="url(#SVGID_53_)" d="M621.7,393.8c-1.4,11.3,0,21.2,12.8,25.3c0.3,0.1,0.7-0.2,0.7-0.5c-0.2-7.8-2.9-13.4-8-17.1
					c7.4,3,11.2,8.3,12.5,14.9c0.1,0.5,0.8,0.6,1,0.1c5.2-14.3-3.9-22.3-17.8-23.6C622.3,392.8,621.8,393.2,621.7,393.8z"/>
				<linearGradient id="SVGID_54_" gradientUnits="userSpaceOnUse" x1="570.6746" y1="463.7952" x2="603.6829" y2="463.7952">
					<stop  offset="2.150540e-002" style="stop-color:#BF8D33"/>
					<stop  offset="0.5054" style="stop-color:#F7E679"/>
					<stop  offset="1" style="stop-color:#BF8D33"/>
				</linearGradient>
				<path fill="url(#SVGID_54_)" d="M570.9,463.9c-0.4,0.5-0.3,1.3,0.2,1.7c9.5,8.1,19.5,13,31.1,3.7c0.3-0.2,0.3-0.7-0.1-0.9
					c-7.3-4.6-14.2-5.5-20.7-3.1c7.3-5,14.6-5.2,21.4-2.4c0.5,0.2,1-0.4,0.7-0.9C593.6,448.4,580.7,451.9,570.9,463.9z"/>
				<linearGradient id="SVGID_55_" gradientUnits="userSpaceOnUse" x1="599.2166" y1="443.7432" x2="628.2175" y2="443.7432">
					<stop  offset="2.150540e-002" style="stop-color:#BF8D33"/>
					<stop  offset="0.5054" style="stop-color:#F7E679"/>
					<stop  offset="1" style="stop-color:#BF8D33"/>
				</linearGradient>
				<path fill="url(#SVGID_55_)" d="M599.5,442.5c-0.4,0.4-0.4,1.1,0,1.5c7.8,7.8,16.1,12.7,26.9,5.4c0.3-0.2,0.3-0.6,0-0.8
					c-6.1-4.5-12-5.8-17.9-4.2c6.8-3.8,13.1-3.5,18.9-0.6c0.4,0.2,0.9-0.3,0.6-0.7C620.4,430.6,608.9,432.7,599.5,442.5z"/>
				<linearGradient id="SVGID_56_" gradientUnits="userSpaceOnUse" x1="613.717" y1="473.1538" x2="641.582" y2="473.1538">
					<stop  offset="2.150540e-002" style="stop-color:#BF8D33"/>
					<stop  offset="0.5054" style="stop-color:#F7E679"/>
					<stop  offset="1" style="stop-color:#BF8D33"/>
				</linearGradient>
				<path fill="url(#SVGID_56_)" d="M640.5,469.1c0.5,0.1,0.8-0.6,0.4-0.9c-11.6-9.1-21.7-3.1-27.1,9.3c-0.2,0.5,0,1.1,0.5,1.4
					c10,4.6,19.5,6.4,27.2-4.2c0.2-0.3,0.1-0.7-0.3-0.8c-7.2-2.1-13.3-1.3-18.2,2.3C628,470.2,634.1,468.3,640.5,469.1z"/>
				<linearGradient id="SVGID_57_" gradientUnits="userSpaceOnUse" x1="541.0038" y1="481.6844" x2="570.6746" y2="481.6844">
					<stop  offset="2.150540e-002" style="stop-color:#BF8D33"/>
					<stop  offset="0.5054" style="stop-color:#F7E679"/>
					<stop  offset="1" style="stop-color:#BF8D33"/>
				</linearGradient>
				<path fill="url(#SVGID_57_)" d="M570.7,470c0-1.8-1.4-3.2-3.2-3.2h-23.3c-1.8,0-3.2,1.4-3.2,3.2v23.3c0,1.8,1.4,3.2,3.2,3.2
					h23.3c1.8,0,3.2-1.4,3.2-3.2V470z"/>
				<linearGradient id="SVGID_58_" gradientUnits="userSpaceOnUse" x1="541.0038" y1="520.1213" x2="570.6746" y2="520.1213">
					<stop  offset="2.150540e-002" style="stop-color:#BF8D33"/>
					<stop  offset="0.5054" style="stop-color:#F7E679"/>
					<stop  offset="1" style="stop-color:#BF8D33"/>
				</linearGradient>
				<path fill="url(#SVGID_58_)" d="M567.5,505.3h-23.3c-1.8,0-3.2,1.4-3.2,3.2v23.3c0,1.8,1.4,3.2,3.2,3.2h23.3
					c1.8,0,3.2-1.4,3.2-3.2v-23.3C570.7,506.7,569.2,505.3,567.5,505.3z"/>
				<linearGradient id="SVGID_59_" gradientUnits="userSpaceOnUse" x1="581.4791" y1="481.6844" x2="611.1503" y2="481.6844">
					<stop  offset="2.150540e-002" style="stop-color:#BF8D33"/>
					<stop  offset="0.5054" style="stop-color:#F7E679"/>
					<stop  offset="1" style="stop-color:#BF8D33"/>
				</linearGradient>
				<path fill="url(#SVGID_59_)" d="M611.2,468.9c0-1.1-0.9-2.1-2.1-2.1h-3.2c0.3,0.5,0.4,1.1,0.5,1.7c0.1,1.4-0.5,2.8-1.7,3.7
					c-4.9,3.9-10,5.9-15.2,5.9c-2.8,0-5.5-0.6-8-1.5v17.8c0,1.1,0.9,2.1,2.1,2.1h25.5c1.1,0,2.1-0.9,2.1-2.1V468.9z"/>
				<linearGradient id="SVGID_60_" gradientUnits="userSpaceOnUse" x1="581.479" y1="520.1213" x2="611.1498" y2="520.1213">
					<stop  offset="2.150540e-002" style="stop-color:#BF8D33"/>
					<stop  offset="0.5054" style="stop-color:#F7E679"/>
					<stop  offset="1" style="stop-color:#BF8D33"/>
				</linearGradient>
				<path fill="url(#SVGID_60_)" d="M608,505.3h-23.3c-1.8,0-3.2,1.4-3.2,3.2v23.3c0,1.8,1.4,3.2,3.2,3.2H608c1.8,0,3.2-1.4,3.2-3.2
					v-23.3C611.1,506.7,609.7,505.3,608,505.3z"/>
				<linearGradient id="SVGID_61_" gradientUnits="userSpaceOnUse" x1="788.5057" y1="331.2809" x2="788.5599" y2="331.2809">
					<stop  offset="2.150540e-002" style="stop-color:#BF8D33"/>
					<stop  offset="0.5054" style="stop-color:#F7E679"/>
					<stop  offset="1" style="stop-color:#BF8D33"/>
				</linearGradient>
				<path fill="url(#SVGID_61_)" d="M788.6,331.2c0,0.1,0,0.1-0.1,0.2c0,0,0,0,0,0C788.5,331.3,788.6,331.3,788.6,331.2z"/>
				<linearGradient id="SVGID_62_" gradientUnits="userSpaceOnUse" x1="771.9243" y1="325.4247" x2="786.2858" y2="325.4247">
					<stop  offset="2.150540e-002" style="stop-color:#BF8D33"/>
					<stop  offset="0.5054" style="stop-color:#F7E679"/>
					<stop  offset="1" style="stop-color:#BF8D33"/>
				</linearGradient>
				<path fill="url(#SVGID_62_)" d="M772.2,337.4c0.5,0.8,1.2,1.2,1.9,1.4c2.6,0.7,6.4-1.5,10.8-5l0,0c0.5-0.5,0.9-1,1.1-1.7
					c0,0,0,0,0,0c0-0.1,0-0.1,0.1-0.2c0,0,0,0,0,0c0.2-0.7,0.3-1.5,0.3-2.4c-0.4,0.5-7.8,6.4-10,7.4c0,0,8.7-8,8.9-8.2l0,0h0l0,0
					c1-0.8,1.2-2.3,0.9-4.5c-0.4,0.5-0.9,1-1.3,1.5c-1.9,2.1-7.6,7.7-9.5,9.3c0,0,9.7-10.7,10.1-13.4c0,0,0-0.1,0-0.1
					c0.1-0.3,0.1-0.7,0-1c0-0.8-0.2-1.5-0.6-2.2c-0.3,0.6-0.7,1.3-1,1.9c-1.7,3.2-3.6,6-5.6,8.4c4.2-6.8,7.5-13.1,4.1-16.5
					c-1,2.9-2.2,5.9-3.5,8.9c0,0,0,0,0,0.1c-0.3,0.6-0.5,1.2-0.8,1.9c-1.6,3.8-3.4,7.7-5.3,11.6c-0.3,0.5-0.5,1.1-0.8,1.6
					c-0.2,0.4-0.2,0.8,0,1.1L772.2,337.4z"/>
				<linearGradient id="SVGID_63_" gradientUnits="userSpaceOnUse" x1="758.676" y1="351.4814" x2="805.4103" y2="351.4814">
					<stop  offset="2.150540e-002" style="stop-color:#BF8D33"/>
					<stop  offset="0.5054" style="stop-color:#F7E679"/>
					<stop  offset="1" style="stop-color:#BF8D33"/>
				</linearGradient>
				<path fill="url(#SVGID_63_)" d="M787.9,358.5l11.2,7.2l6.3,4.7l-1.7-3.1c0,0-0.3-0.6-0.7-1.3c-0.9-1.7-2.3-3.2-3.8-4.3
					c-3.8-2.7-10.5-7.4-12.9-8.9c-1.5-1-3.1-1.6-4.6-2.5c-1-0.6-1.9-1.4-2.9-2.1c-0.2-0.2-0.3-0.5-0.5-0.7c0,0,0,0,0-0.1
					c0,0,0,0,0,0c2.6,1.1,6.5,1.5,11.2,1.6l0,0c0.8-0.1,1.6-0.3,2.3-0.8c0,0,0,0,0,0c0.1,0,0.1-0.1,0.2-0.1c0,0,0,0,0,0
					c0.7-0.5,1.4-1.1,2-2c-0.7,0.1-12,0-14.8-0.7c0,0,14.1-0.8,14.4-0.9l0,0l0,0l0,0c1.5,0,2.9-1.2,4.3-3.5
					c-0.8,0.1-1.5,0.2-2.3,0.4c-3.3,0.5-12.9,1.4-15.8,1.5c0,0,17-2.5,19.5-4.7c0,0,0.1,0,0.1-0.1c0.3-0.2,0.6-0.5,0.8-0.9
					c0.6-0.7,1-1.6,1.1-2.5c-0.8,0.3-1.6,0.7-2.3,1c-4,1.6-7.9,2.9-11.6,3.5c9-3.1,16.9-6.5,16.2-12.2c-3.2,1.9-6.5,3.8-10,5.6
					c0,0,0,0-0.1,0c-0.7,0.4-1.4,0.7-2.1,1.1c-4.4,2.3-9,4.5-13.7,6.7c-0.7,0.3-1.4,0.6-2.1,1c-0.8-0.2-1.6-0.7-2.4-1.4
					c-1.5-1.4-3.1-2.5-5.2-2.5c-2.1,0-4,0.6-5.2,2.4c-0.3,0.6-4.2,1.6-4.2,1.7c0.7,0.3,1.4,0.6,2.1,0.8c2.9,1,4.8,3.2,6.1,5.9
					c1.6,3.3,4,5.5,7.6,6.4c2.4,0.6,4.7,1.6,6.8,3.1c1.8,1.3,3.2,2.8,4.5,4.6c0.4,0.6,0.8,1.2,1.2,1.9c1.6,2.8,2.7,5.8,3.3,9
					c0.2,0.8,0.2,1.7,0.4,2.5c0,0,2.1-6.5,0.4-8.9c-1.5-2.2-6-7.6-5.9-8.6c0.9,0.7,6.8,6.8,8.8,9.4c1.1,1.5,4.3,6.8,4.3,6.8
					c0.7-0.7,1.2-4.3,0.5-5.4c-2-3.1-7.9-8.1-10.8-10.5C787.7,358.6,787.8,358.4,787.9,358.5z M766.7,342.7c-0.4,0-0.8-0.3-0.8-0.9
					c0-0.5,0.6-1,1-1c0.5,0,0.9,0.3,1,0.9C767.9,342.2,767.3,342.7,766.7,342.7z"/>
			</g>
		</g>
	</g>
	<g>
		<linearGradient id="SVGID_64_" gradientUnits="userSpaceOnUse" x1="241.6921" y1="858.5628" x2="254.8201" y2="858.5628">
			<stop  offset="2.150540e-002" style="stop-color:#BF8D33"/>
			<stop  offset="0.5054" style="stop-color:#F7E679"/>
			<stop  offset="1" style="stop-color:#BF8D33"/>
		</linearGradient>
		<path fill="url(#SVGID_64_)" d="M249.2,849.5c-0.4,0-1,0-1.8,0c-0.8,0-1.4,0-1.7,0c-0.2,0-0.7,0-1.5,0c-0.8,0-1.5,0-2,0
			c-0.4,0-0.5,0.1-0.5,0.2c0,0.1,0.1,0.2,0.4,0.2c0.4,0,0.7,0,0.9,0.1c0.6,0.1,1,0.6,1,1.4c0,0.5,0,2.2,0,5.1v4.2
			c0,2.8,0,4.5-0.1,5.1c-0.1,0.8-0.3,1.2-0.7,1.3c-0.2,0-0.5,0-0.7,0.1c-0.4,0-0.5,0.1-0.5,0.2c0,0.2,0.2,0.2,0.5,0.2
			c0.4,0,0.9,0,1.7,0c0.8,0,1.2,0,1.4,0c0.1,0,0.6,0,1.5,0c0.9,0,1.6,0,2.2,0c0.3,0,0.5-0.1,0.5-0.2c0-0.1-0.1-0.2-0.4-0.2
			c-0.4,0-0.8,0-1.2-0.1c-0.5-0.1-0.8-0.5-0.9-1.3c-0.1-0.7-0.1-2.4-0.1-5.1v-9.6c0-0.3,0.1-0.4,0.2-0.5c0.2-0.1,0.5-0.1,0.9-0.1
			c0.9,0,1.7,0.3,2.4,0.9c0.9,0.8,1.4,2,1.4,3.6c0,1.1-0.4,2.1-1.1,2.9c-0.7,0.7-1.4,1.1-2.1,1.1c-0.4,0-0.7,0.1-0.7,0.3
			c0,0.1,0.1,0.2,0.3,0.2c0.1,0,0.2,0,0.5,0c1.7,0,3.1-0.5,4.2-1.6c1.1-1.1,1.7-2.5,1.7-4.2c0-1.2-0.4-2.1-1.2-2.9
			C252.7,849.9,251.2,849.5,249.2,849.5z"/>
		<linearGradient id="SVGID_65_" gradientUnits="userSpaceOnUse" x1="257.22" y1="858.5623" x2="276.8284" y2="858.5623">
			<stop  offset="2.150540e-002" style="stop-color:#BF8D33"/>
			<stop  offset="0.5054" style="stop-color:#F7E679"/>
			<stop  offset="1" style="stop-color:#BF8D33"/>
		</linearGradient>
		<path fill="url(#SVGID_65_)" d="M267.1,849.2c-3.3,0-5.8,1.1-7.7,3.2c-1.5,1.7-2.3,3.8-2.3,6.2c0,2.4,0.8,4.5,2.3,6.3
			c1.8,2.1,4.2,3.1,7.4,3.1c3,0,5.4-1,7.2-2.9c1.8-1.8,2.7-4.2,2.7-7c0-2.8-0.9-4.9-2.6-6.6C272.5,850,270.1,849.2,267.1,849.2z
			 M271.3,865.5c-0.9,0.8-2.1,1.3-3.4,1.3c-2.2,0-4-0.9-5.4-2.6c-1.3-1.6-2-3.8-2-6.3c0-2.7,0.6-4.7,1.9-6c1-1,2.3-1.5,4-1.5
			c2,0,3.7,0.8,5,2.3c1.4,1.6,2,3.8,2,6.4C273.5,862,272.7,864.2,271.3,865.5z"/>
		<linearGradient id="SVGID_66_" gradientUnits="userSpaceOnUse" x1="280.3079" y1="858.5623" x2="290.3396" y2="858.5623">
			<stop  offset="2.150540e-002" style="stop-color:#BF8D33"/>
			<stop  offset="0.5054" style="stop-color:#F7E679"/>
			<stop  offset="1" style="stop-color:#BF8D33"/>
		</linearGradient>
		<path fill="url(#SVGID_66_)" d="M286.4,856.7l-0.7-0.5c-1-0.7-1.6-1.4-2-1.9c-0.4-0.5-0.5-1-0.5-1.6c0-0.7,0.3-1.3,0.8-1.8
			c0.5-0.5,1.2-0.7,2.1-0.7c1.1,0,2,0.4,2.6,1.2c0.4,0.5,0.6,1.1,0.6,1.6c0,0.3,0.1,0.4,0.2,0.4c0.2,0,0.3-0.2,0.3-0.7
			c0-0.8,0-1.4,0-2c0-0.6,0-0.9,0-0.9c0-0.1-0.1-0.2-0.3-0.3c-1.1-0.3-2.2-0.4-3.2-0.4c-1.6,0-3,0.4-4,1.3c-1,0.8-1.5,1.9-1.5,3.3
			c0,1.9,1.2,3.8,3.6,5.7l1.1,0.9c1.6,1.2,2.4,2.5,2.4,3.8c0,0.7-0.3,1.3-0.8,1.8c-0.6,0.6-1.4,0.9-2.4,0.9c-1.8,0-3-0.8-3.4-2.4
			c-0.1-0.5-0.2-0.9-0.2-1.2c0-0.3-0.1-0.4-0.2-0.4c-0.2,0-0.3,0.2-0.3,0.6c-0.1,1.2-0.1,2.3-0.1,3.1c0,0.4,0.2,0.7,0.5,0.8
			c0.9,0.4,2.1,0.6,3.5,0.6c1.5,0,2.8-0.3,3.8-1c1.5-1,2.3-2.4,2.3-4.2c0-1.2-0.3-2.2-0.9-3.1C288.9,858.8,287.8,857.8,286.4,856.7z
			"/>
		<linearGradient id="SVGID_67_" gradientUnits="userSpaceOnUse" x1="292.4753" y1="858.3943" x2="308.699" y2="858.3943">
			<stop  offset="2.150540e-002" style="stop-color:#BF8D33"/>
			<stop  offset="0.5054" style="stop-color:#F7E679"/>
			<stop  offset="1" style="stop-color:#BF8D33"/>
		</linearGradient>
		<path fill="url(#SVGID_67_)" d="M308.5,849.3c-0.2,0-0.6,0-1.1,0.1c-0.5,0.1-0.9,0.1-1.2,0.1h-9.5c-0.7,0-1.5,0-2.4-0.1
			c-0.2,0-0.4-0.1-0.6-0.2s-0.3-0.1-0.4-0.1c-0.1,0-0.2,0.2-0.3,0.5c-0.3,1.4-0.5,2.3-0.5,2.8c0,0.3,0.1,0.4,0.2,0.4
			c0.1,0,0.2-0.1,0.3-0.3c0.1-0.3,0.2-0.5,0.4-0.8c0.3-0.4,1.1-0.7,2.3-0.7l3.6-0.1v9.8c0,2.7,0,4.4-0.1,5.1
			c-0.1,0.8-0.3,1.2-0.7,1.3c-0.2,0-0.5,0-0.7,0.1c-0.4,0-0.5,0.1-0.5,0.2c0,0.2,0.2,0.2,0.5,0.2c0.4,0,0.9,0,1.7,0
			c0.8,0,1.2,0,1.4,0c0.1,0,0.7,0,1.5,0c0.9,0,1.6,0,2.2,0c0.3,0,0.5-0.1,0.5-0.2c0-0.1-0.1-0.2-0.4-0.2c-0.4,0-0.8,0-1.2-0.1
			c-0.5-0.1-0.8-0.5-0.9-1.3c-0.1-0.7-0.1-2.4-0.1-5.1v-9.8l3,0.1c1.8,0,2.8,0.5,2.8,1.3l0,0.3c0,0.3,0.1,0.5,0.3,0.5
			c0.1,0,0.2-0.1,0.2-0.4c0-0.2,0-0.7,0.1-1.5c0-0.7,0-1.2,0-1.3C308.7,849.5,308.6,849.3,308.5,849.3z"/>
		<linearGradient id="SVGID_68_" gradientUnits="userSpaceOnUse" x1="309.9951" y1="858.3226" x2="318.5388" y2="858.3226">
			<stop  offset="2.150540e-002" style="stop-color:#BF8D33"/>
			<stop  offset="0.5054" style="stop-color:#F7E679"/>
			<stop  offset="1" style="stop-color:#BF8D33"/>
		</linearGradient>
		<path fill="url(#SVGID_68_)" d="M317.8,857.1H311c-0.3,0-0.5,0.1-0.6,0.3l-0.4,1.7c-0.1,0.3,0,0.4,0.2,0.4c0.1,0,0.2-0.1,0.5-0.2
			c0.2-0.1,0.4-0.2,0.6-0.2c0.9-0.2,3-0.6,6.2-1.2c0.7-0.1,1.1-0.3,1.1-0.5C318.5,857.2,318.3,857.1,317.8,857.1z"/>
		<linearGradient id="SVGID_69_" gradientUnits="userSpaceOnUse" x1="320.6746" y1="858.5623" x2="337.3542" y2="858.5623">
			<stop  offset="2.150540e-002" style="stop-color:#BF8D33"/>
			<stop  offset="0.5054" style="stop-color:#F7E679"/>
			<stop  offset="1" style="stop-color:#BF8D33"/>
		</linearGradient>
		<path fill="url(#SVGID_69_)" d="M330.8,850.3c1.1,0,2.1,0.1,3,0.4c0.8,0.3,1.5,0.6,1.9,1.1c0.6,0.6,0.9,1.4,0.9,2.2
			c0,0.4,0.1,0.5,0.2,0.5s0.3-0.2,0.3-0.6c0-1,0.1-1.9,0.1-2.6c0-0.3,0-0.6,0.1-0.9c0-0.2,0.1-0.4,0.1-0.4c0-0.2-0.1-0.3-0.4-0.3
			c-1-0.2-1.8-0.3-2.4-0.4c-1.2-0.2-2.4-0.2-3.5-0.2c-3.2,0-5.7,0.9-7.6,2.6s-2.8,3.9-2.8,6.6c0,3,1,5.4,3,7.1
			c2,1.7,4.7,2.6,8.2,2.6c2,0,3.4-0.2,4.3-0.6c0.3-0.1,0.5-0.4,0.6-0.7c0.1-0.4,0.2-0.9,0.3-1.8c0.1-0.8,0.2-1.2,0.2-1.4
			c0-0.2-0.1-0.4-0.2-0.4c-0.1,0-0.2,0.2-0.3,0.5c-0.1,0.6-0.4,1.1-0.8,1.6c-0.5,0.6-1.2,1-2,1.2c-0.6,0.1-1.4,0.2-2.4,0.2
			c-1.8,0-3.5-0.7-5-2.1c-1.7-1.6-2.6-3.8-2.6-6.4c0-2.8,0.7-4.9,2.2-6.2C327.4,850.8,328.9,850.3,330.8,850.3z"/>
		<linearGradient id="SVGID_70_" gradientUnits="userSpaceOnUse" x1="339.8748" y1="858.5623" x2="359.4822" y2="858.5623">
			<stop  offset="2.150540e-002" style="stop-color:#BF8D33"/>
			<stop  offset="0.5054" style="stop-color:#F7E679"/>
			<stop  offset="1" style="stop-color:#BF8D33"/>
		</linearGradient>
		<path fill="url(#SVGID_70_)" d="M349.8,849.2c-3.3,0-5.8,1.1-7.7,3.2c-1.5,1.7-2.3,3.8-2.3,6.2c0,2.4,0.8,4.5,2.3,6.3
			c1.8,2.1,4.2,3.1,7.4,3.1c3,0,5.4-1,7.2-2.9c1.8-1.8,2.7-4.2,2.7-7c0-2.8-0.9-4.9-2.6-6.6C355.1,850,352.8,849.2,349.8,849.2z
			 M354,865.5c-0.9,0.8-2.1,1.3-3.4,1.3c-2.2,0-4-0.9-5.4-2.6c-1.3-1.6-2-3.8-2-6.3c0-2.7,0.6-4.7,1.9-6c1-1,2.3-1.5,4-1.5
			c2,0,3.7,0.8,5,2.3c1.4,1.6,2,3.8,2,6.4C356.1,862,355.4,864.2,354,865.5z"/>
		<linearGradient id="SVGID_71_" gradientUnits="userSpaceOnUse" x1="361.9548" y1="858.5027" x2="382.1384" y2="858.5027">
			<stop  offset="2.150540e-002" style="stop-color:#BF8D33"/>
			<stop  offset="0.5054" style="stop-color:#F7E679"/>
			<stop  offset="1" style="stop-color:#BF8D33"/>
		</linearGradient>
		<path fill="url(#SVGID_71_)" d="M381.6,849.5c-0.5,0-1,0-1.5,0c-0.5,0-0.8,0-0.8,0c-0.1,0-0.5,0-1.2,0c-0.7,0-1.2,0-1.7,0
			c-0.4,0-0.6,0.1-0.6,0.2c0,0.1,0.1,0.2,0.4,0.2c0.6,0,1,0,1.3,0.1c0.4,0.1,0.6,0.5,0.7,0.9c0,0.2,0.1,0.6,0.1,1.2l0.2,10.8h-0.1
			c-1.9-2-3.6-3.8-5.3-5.5c-3.6-3.7-6.1-6.3-7.4-7.7c-0.5-0.5-0.8-0.7-0.9-0.7c-0.2,0-0.3,0.3-0.3,0.8l-0.2,14.2
			c0,1.1-0.1,1.8-0.1,2.2c-0.1,0.4-0.3,0.7-0.6,0.8c-0.3,0-0.6,0.1-0.8,0.1c-0.4,0-0.6,0.1-0.6,0.2c0,0.2,0.2,0.2,0.5,0.2
			c0.5,0,1.1,0,1.7,0c0.6,0,0.9,0,0.9,0c0.1,0,0.4,0,1.1,0c0.7,0,1.3,0,1.9,0c0.4,0,0.6-0.1,0.6-0.2c0-0.1-0.2-0.2-0.7-0.2
			c-0.6-0.1-0.9-0.1-0.9-0.1c-0.5-0.2-0.8-1.1-0.8-2.7l-0.3-10.1h0.1c0.7,0.7,1.4,1.5,2,2.2c1.4,1.5,2.6,2.7,3.7,3.8
			c3.2,3.2,5.5,5.5,7.1,7.1c0.4,0.4,0.6,0.5,0.8,0.5c0.2,0,0.3-0.2,0.3-0.7l0.3-15.1c0-0.6,0.1-1,0.1-1.3c0.2-0.5,0.7-0.8,1.5-0.8
			c0.3,0,0.4-0.1,0.4-0.2C382.1,849.6,382,849.5,381.6,849.5z"/>
		<linearGradient id="SVGID_72_" gradientUnits="userSpaceOnUse" x1="385.6902" y1="858.5623" x2="395.7224" y2="858.5623">
			<stop  offset="2.150540e-002" style="stop-color:#BF8D33"/>
			<stop  offset="0.5054" style="stop-color:#F7E679"/>
			<stop  offset="1" style="stop-color:#BF8D33"/>
		</linearGradient>
		<path fill="url(#SVGID_72_)" d="M391.8,856.7l-0.7-0.5c-1-0.7-1.6-1.4-2-1.9c-0.4-0.5-0.5-1-0.5-1.6c0-0.7,0.3-1.3,0.8-1.8
			c0.5-0.5,1.2-0.7,2.1-0.7c1.1,0,2,0.4,2.6,1.2c0.4,0.5,0.6,1.1,0.6,1.6c0,0.3,0.1,0.4,0.2,0.4c0.2,0,0.3-0.2,0.3-0.7
			c0-0.8,0-1.4,0-2c0-0.6,0-0.9,0-0.9c0-0.1-0.1-0.2-0.3-0.3c-1.1-0.3-2.2-0.4-3.2-0.4c-1.6,0-3,0.4-4,1.3c-1,0.8-1.5,1.9-1.5,3.3
			c0,1.9,1.2,3.8,3.6,5.7l1.1,0.9c1.6,1.2,2.4,2.5,2.4,3.8c0,0.7-0.3,1.3-0.8,1.8c-0.6,0.6-1.4,0.9-2.4,0.9c-1.8,0-3-0.8-3.4-2.4
			c-0.1-0.5-0.2-0.9-0.2-1.2c0-0.3-0.1-0.4-0.2-0.4c-0.2,0-0.3,0.2-0.3,0.6c-0.1,1.2-0.1,2.3-0.1,3.1c0,0.4,0.2,0.7,0.5,0.8
			c0.9,0.4,2.1,0.6,3.5,0.6c1.5,0,2.8-0.3,3.8-1c1.5-1,2.3-2.4,2.3-4.2c0-1.2-0.3-2.2-0.9-3.1S393.2,857.8,391.8,856.7z"/>
		<linearGradient id="SVGID_73_" gradientUnits="userSpaceOnUse" x1="397.8582" y1="858.3943" x2="414.0818" y2="858.3943">
			<stop  offset="2.150540e-002" style="stop-color:#BF8D33"/>
			<stop  offset="0.5054" style="stop-color:#F7E679"/>
			<stop  offset="1" style="stop-color:#BF8D33"/>
		</linearGradient>
		<path fill="url(#SVGID_73_)" d="M413.9,849.3c-0.2,0-0.6,0-1.1,0.1c-0.5,0.1-0.9,0.1-1.2,0.1h-9.5c-0.7,0-1.5,0-2.4-0.1
			c-0.2,0-0.4-0.1-0.6-0.2s-0.3-0.1-0.4-0.1c-0.1,0-0.2,0.2-0.3,0.5c-0.3,1.4-0.5,2.3-0.5,2.8c0,0.3,0.1,0.4,0.2,0.4
			c0.1,0,0.2-0.1,0.3-0.3c0.1-0.3,0.2-0.5,0.4-0.8c0.3-0.4,1.1-0.7,2.3-0.7l3.6-0.1v9.8c0,2.7,0,4.4-0.1,5.1
			c-0.1,0.8-0.3,1.2-0.7,1.3c-0.2,0-0.5,0-0.7,0.1c-0.4,0-0.5,0.1-0.5,0.2c0,0.2,0.2,0.2,0.5,0.2c0.4,0,0.9,0,1.7,0
			c0.8,0,1.2,0,1.4,0c0.1,0,0.7,0,1.5,0c0.9,0,1.6,0,2.2,0c0.3,0,0.5-0.1,0.5-0.2c0-0.1-0.1-0.2-0.4-0.2c-0.4,0-0.8,0-1.2-0.1
			c-0.5-0.1-0.8-0.5-0.9-1.3c-0.1-0.7-0.1-2.4-0.1-5.1v-9.8l3,0.1c1.8,0,2.8,0.5,2.8,1.3l0,0.3c0,0.3,0.1,0.5,0.3,0.5
			c0.1,0,0.2-0.1,0.2-0.4c0-0.2,0-0.7,0.1-1.5c0-0.7,0-1.2,0-1.3C414.1,849.5,414,849.3,413.9,849.3z"/>
		<linearGradient id="SVGID_74_" gradientUnits="userSpaceOnUse" x1="416.0496" y1="858.5628" x2="434.9861" y2="858.5628">
			<stop  offset="2.150540e-002" style="stop-color:#BF8D33"/>
			<stop  offset="0.5054" style="stop-color:#F7E679"/>
			<stop  offset="1" style="stop-color:#BF8D33"/>
		</linearGradient>
		<path fill="url(#SVGID_74_)" d="M434.6,867.2c-0.2,0-0.4,0-0.6,0c-0.9-0.2-1.8-0.7-2.7-1.6c-0.6-0.6-1.4-1.5-2.3-2.7
			c-0.2-0.2-1.1-1.4-2.9-3.6c2.1-1.7,3.2-3.5,3.2-5.4c0-0.7-0.2-1.4-0.6-2.1c-0.3-0.5-0.7-1-1.1-1.2c-1-0.7-2.5-1-4.4-1
			c-0.2,0-0.8,0-1.7,0c-0.9,0-1.4,0-1.7,0c-0.1,0-0.5,0-1.3,0c-0.8,0-1.4,0-1.9,0c-0.4,0-0.5,0.1-0.5,0.2c0,0.1,0.1,0.2,0.4,0.2
			c0.4,0,0.7,0,0.9,0.1c0.6,0.1,1,0.6,1,1.4c0,0.5,0,2.2,0,5.1v4.2c0,2.8,0,4.5-0.1,5.1c-0.1,0.8-0.3,1.2-0.7,1.3
			c-0.2,0-0.5,0-0.7,0.1c-0.4,0-0.5,0.1-0.5,0.2c0,0.2,0.2,0.2,0.5,0.2c0.4,0,0.9,0,1.7,0c0.7,0,1.2,0,1.3,0c0,0,0.5,0,1.4,0
			c0.9,0,1.6,0,2.1,0c0.3,0,0.5-0.1,0.5-0.2c0-0.1-0.1-0.2-0.3-0.2c-0.3,0-0.7,0-1.2-0.1c-0.5-0.1-0.8-0.5-0.9-1.3
			c-0.1-0.7-0.1-2.4-0.1-5.1v-0.3c0-0.1,0.1-0.2,0.2-0.2h2.1c0.2,0,0.3,0.1,0.4,0.2c0.9,1.2,1.7,2.3,2.4,3.3
			c1.4,1.9,2.5,3.1,3.3,3.5c0.6,0.3,1.4,0.5,2.6,0.5h2.3c0.3,0,0.5-0.1,0.5-0.2C435,867.3,434.8,867.2,434.6,867.2z M425,858.6
			c-0.4,0.3-0.9,0.4-1.7,0.4c-0.8,0-1.4-0.1-1.8-0.2c-0.1,0-0.2-0.2-0.2-0.4v-7.3c0-0.1,0-0.2,0.1-0.3c0.1-0.1,0.6-0.1,1.4-0.1
			c0.9,0,1.7,0.3,2.4,0.9c0.9,0.8,1.3,2,1.3,3.5C426.5,856.7,426,857.9,425,858.6z"/>
		<linearGradient id="SVGID_75_" gradientUnits="userSpaceOnUse" x1="433.1609" y1="858.7308" x2="452.3845" y2="858.7308">
			<stop  offset="2.150540e-002" style="stop-color:#BF8D33"/>
			<stop  offset="0.5054" style="stop-color:#F7E679"/>
			<stop  offset="1" style="stop-color:#BF8D33"/>
		</linearGradient>
		<path fill="url(#SVGID_75_)" d="M451.9,849.5c-0.4,0-0.9,0-1.6,0c-0.7,0-1.1,0-1.1,0c-1.1,0-2.1-0.1-2.8-0.1
			c-0.3,0-0.5,0.1-0.5,0.2c0,0.1,0.1,0.2,0.4,0.2c0.4,0,0.6,0,0.9,0.1c0.6,0.1,1,0.6,1,1.4c0,0.5,0,2.2,0,5.1v3
			c0,1.5-0.1,2.7-0.2,3.4c-0.2,1.1-0.6,2-1.2,2.5c-0.9,0.9-2,1.3-3.3,1.3c-1.2,0-2.2-0.3-3-1c-1.2-1-1.9-3-1.9-5.9v-3.4
			c0-2.9,0-4.6,0-5.1c0-0.8,0.3-1.3,0.9-1.4c0.3,0,0.5-0.1,0.7-0.1c0.3,0,0.4-0.1,0.4-0.2c0-0.1-0.2-0.2-0.5-0.2c-0.3,0-0.8,0-1.6,0
			c-0.7,0-1.2,0-1.4,0c-0.2,0-0.7,0-1.5,0c-0.8,0-1.5,0-2,0c-0.4,0-0.5,0.1-0.5,0.2c0,0.1,0.1,0.2,0.4,0.2c0.4,0,0.7,0,0.9,0.1
			c0.6,0.1,1,0.6,1,1.4c0,0.5,0,2.2,0,5.1v3.5c0,3,0.7,5.1,2.1,6.4c1.2,1.1,3,1.7,5.3,1.7c2,0,3.6-0.6,5-1.7
			c0.9-0.8,1.5-1.9,1.9-3.3c0.3-1,0.4-2.3,0.4-4v-2.6c0-2.9,0-4.6,0-5.1c0-0.8,0.3-1.3,0.9-1.4c0.3,0,0.5-0.1,0.7-0.1
			c0.3,0,0.4-0.1,0.4-0.2C452.4,849.6,452.2,849.5,451.9,849.5z"/>
		<linearGradient id="SVGID_76_" gradientUnits="userSpaceOnUse" x1="454.4255" y1="858.5623" x2="471.1052" y2="858.5623">
			<stop  offset="2.150540e-002" style="stop-color:#BF8D33"/>
			<stop  offset="0.5054" style="stop-color:#F7E679"/>
			<stop  offset="1" style="stop-color:#BF8D33"/>
		</linearGradient>
		<path fill="url(#SVGID_76_)" d="M464.5,850.3c1.1,0,2.1,0.1,3,0.4c0.8,0.3,1.5,0.6,1.9,1.1c0.6,0.6,0.9,1.4,0.9,2.2
			c0,0.4,0.1,0.5,0.2,0.5s0.3-0.2,0.3-0.6c0-1,0.1-1.9,0.1-2.6c0-0.3,0-0.6,0.1-0.9c0-0.2,0.1-0.4,0.1-0.4c0-0.2-0.1-0.3-0.4-0.3
			c-1-0.2-1.8-0.3-2.4-0.4c-1.2-0.2-2.4-0.2-3.5-0.2c-3.2,0-5.7,0.9-7.6,2.6s-2.8,3.9-2.8,6.6c0,3,1,5.4,3,7.1
			c2,1.7,4.7,2.6,8.2,2.6c2,0,3.4-0.2,4.3-0.6c0.3-0.1,0.5-0.4,0.6-0.7c0.1-0.4,0.2-0.9,0.3-1.8c0.1-0.8,0.2-1.2,0.2-1.4
			c0-0.2-0.1-0.4-0.2-0.4c-0.1,0-0.2,0.2-0.3,0.5c-0.1,0.6-0.4,1.1-0.8,1.6c-0.5,0.6-1.2,1-2,1.2c-0.6,0.1-1.4,0.2-2.4,0.2
			c-1.8,0-3.5-0.7-5-2.1c-1.7-1.6-2.6-3.8-2.6-6.4c0-2.8,0.7-4.9,2.2-6.2C461.1,850.8,462.6,850.3,464.5,850.3z"/>
		<linearGradient id="SVGID_77_" gradientUnits="userSpaceOnUse" x1="472.6648" y1="858.3943" x2="488.8884" y2="858.3943">
			<stop  offset="2.150540e-002" style="stop-color:#BF8D33"/>
			<stop  offset="0.5054" style="stop-color:#F7E679"/>
			<stop  offset="1" style="stop-color:#BF8D33"/>
		</linearGradient>
		<path fill="url(#SVGID_77_)" d="M488.7,849.3c-0.2,0-0.6,0-1.1,0.1c-0.5,0.1-0.9,0.1-1.2,0.1h-9.5c-0.7,0-1.5,0-2.4-0.1
			c-0.2,0-0.4-0.1-0.6-0.2s-0.3-0.1-0.4-0.1c-0.1,0-0.2,0.2-0.3,0.5c-0.3,1.4-0.5,2.3-0.5,2.8c0,0.3,0.1,0.4,0.2,0.4
			c0.1,0,0.2-0.1,0.3-0.3c0.1-0.3,0.2-0.5,0.4-0.8c0.3-0.4,1.1-0.7,2.3-0.7l3.6-0.1v9.8c0,2.7,0,4.4-0.1,5.1
			c-0.1,0.8-0.3,1.2-0.7,1.3c-0.2,0-0.5,0-0.7,0.1c-0.4,0-0.5,0.1-0.5,0.2c0,0.2,0.2,0.2,0.5,0.2c0.4,0,0.9,0,1.7,0
			c0.8,0,1.2,0,1.4,0c0.1,0,0.7,0,1.5,0c0.9,0,1.6,0,2.2,0c0.3,0,0.5-0.1,0.5-0.2c0-0.1-0.1-0.2-0.4-0.2c-0.4,0-0.8,0-1.2-0.1
			c-0.5-0.1-0.8-0.5-0.9-1.3c-0.1-0.7-0.1-2.4-0.1-5.1v-9.8l3,0.1c1.8,0,2.8,0.5,2.8,1.3l0,0.3c0,0.3,0.1,0.5,0.3,0.5
			c0.1,0,0.2-0.1,0.2-0.4c0-0.2,0-0.7,0.1-1.5c0-0.7,0-1.2,0-1.3C488.9,849.5,488.8,849.3,488.7,849.3z"/>
		<linearGradient id="SVGID_78_" gradientUnits="userSpaceOnUse" x1="491.1687" y1="858.5628" x2="498.9207" y2="858.5628">
			<stop  offset="2.150540e-002" style="stop-color:#BF8D33"/>
			<stop  offset="0.5054" style="stop-color:#F7E679"/>
			<stop  offset="1" style="stop-color:#BF8D33"/>
		</linearGradient>
		<path fill="url(#SVGID_78_)" d="M498.5,867.2c-0.3,0-0.8,0-1.2-0.1c-0.6-0.1-0.9-0.5-1-1.2c-0.1-0.6-0.1-2.4-0.1-5.3v-4.2
			c0-2.9,0-4.6,0-5.1c0-0.8,0.3-1.3,0.9-1.4c0.3,0,0.5-0.1,0.7-0.1c0.2,0,0.3-0.1,0.3-0.2c0-0.1-0.2-0.2-0.5-0.2s-0.9,0-1.6,0
			c-0.7,0-1.2,0-1.3,0c-0.2,0-0.7,0-1.5,0c-0.8,0-1.3,0-1.6,0c-0.4,0-0.6,0.1-0.6,0.2c0,0.2,0.1,0.2,0.4,0.2c0.3,0,0.6,0,0.8,0.1
			c0.5,0.1,0.8,0.6,0.8,1.3c0,0.5,0,2.2,0,5.1v4.2c0,2.8,0,4.5-0.1,5.2c-0.1,0.7-0.3,1.1-0.7,1.2c-0.2,0-0.5,0-0.7,0.1
			c-0.4,0-0.5,0.1-0.5,0.2c0,0.2,0.2,0.2,0.5,0.2c0.4,0,0.9,0,1.7,0c0.8,0,1.2,0,1.4,0s0.7,0,1.5,0c0.9,0,1.6,0,2.2,0
			c0.3,0,0.5-0.1,0.5-0.2C498.9,867.3,498.8,867.2,498.5,867.2z"/>
		<linearGradient id="SVGID_79_" gradientUnits="userSpaceOnUse" x1="501.5125" y1="858.5623" x2="521.1199" y2="858.5623">
			<stop  offset="2.150540e-002" style="stop-color:#BF8D33"/>
			<stop  offset="0.5054" style="stop-color:#F7E679"/>
			<stop  offset="1" style="stop-color:#BF8D33"/>
		</linearGradient>
		<path fill="url(#SVGID_79_)" d="M511.4,849.2c-3.3,0-5.8,1.1-7.7,3.2c-1.5,1.7-2.3,3.8-2.3,6.2c0,2.4,0.8,4.5,2.3,6.3
			c1.8,2.1,4.2,3.1,7.4,3.1c3,0,5.4-1,7.2-2.9c1.8-1.8,2.7-4.2,2.7-7c0-2.8-0.9-4.9-2.6-6.6C516.8,850,514.4,849.2,511.4,849.2z
			 M515.6,865.5c-0.9,0.8-2.1,1.3-3.4,1.3c-2.2,0-4-0.9-5.4-2.6c-1.3-1.6-2-3.8-2-6.3c0-2.7,0.6-4.7,1.9-6c1-1,2.3-1.5,4-1.5
			c2,0,3.7,0.8,5,2.3c1.4,1.6,2,3.8,2,6.4C517.8,862,517,864.2,515.6,865.5z"/>
		<linearGradient id="SVGID_80_" gradientUnits="userSpaceOnUse" x1="523.5925" y1="858.5027" x2="543.7761" y2="858.5027">
			<stop  offset="2.150540e-002" style="stop-color:#BF8D33"/>
			<stop  offset="0.5054" style="stop-color:#F7E679"/>
			<stop  offset="1" style="stop-color:#BF8D33"/>
		</linearGradient>
		<path fill="url(#SVGID_80_)" d="M543.2,849.5c-0.5,0-1,0-1.5,0c-0.5,0-0.8,0-0.8,0c-0.1,0-0.5,0-1.2,0c-0.7,0-1.2,0-1.7,0
			c-0.4,0-0.6,0.1-0.6,0.2c0,0.1,0.1,0.2,0.4,0.2c0.6,0,1,0,1.3,0.1c0.4,0.1,0.6,0.5,0.7,0.9c0,0.2,0.1,0.6,0.1,1.2l0.2,10.8h-0.1
			c-1.9-2-3.6-3.8-5.3-5.5c-3.6-3.7-6.1-6.3-7.4-7.7c-0.5-0.5-0.8-0.7-0.9-0.7c-0.2,0-0.3,0.3-0.3,0.8l-0.2,14.2
			c0,1.1-0.1,1.8-0.1,2.2c-0.1,0.4-0.3,0.7-0.6,0.8c-0.3,0-0.6,0.1-0.8,0.1c-0.4,0-0.6,0.1-0.6,0.2c0,0.2,0.2,0.2,0.5,0.2
			c0.5,0,1.1,0,1.7,0c0.6,0,0.9,0,0.9,0c0.1,0,0.4,0,1.1,0c0.7,0,1.3,0,1.9,0c0.4,0,0.6-0.1,0.6-0.2c0-0.1-0.2-0.2-0.7-0.2
			c-0.6-0.1-0.9-0.1-0.9-0.1c-0.5-0.2-0.8-1.1-0.8-2.7l-0.3-10.1h0.1c0.7,0.7,1.4,1.5,2,2.2c1.4,1.5,2.6,2.7,3.7,3.8
			c3.2,3.2,5.5,5.5,7.1,7.1c0.4,0.4,0.6,0.5,0.8,0.5c0.2,0,0.3-0.2,0.3-0.7l0.3-15.1c0-0.6,0.1-1,0.1-1.3c0.2-0.5,0.7-0.8,1.5-0.8
			c0.3,0,0.4-0.1,0.4-0.2C543.8,849.6,543.6,849.5,543.2,849.5z"/>
		<linearGradient id="SVGID_81_" gradientUnits="userSpaceOnUse" x1="545.5159" y1="858.592" x2="557.8221" y2="858.592">
			<stop  offset="2.150540e-002" style="stop-color:#BF8D33"/>
			<stop  offset="0.5054" style="stop-color:#F7E679"/>
			<stop  offset="1" style="stop-color:#BF8D33"/>
		</linearGradient>
		<path fill="url(#SVGID_81_)" d="M556.9,849.2c-0.1-0.1-0.2,0-0.3,0.1l-10.9,17.8c-0.1,0.2-0.1,0.3,0,0.4l0.8,0.6
			c0.1,0.1,0.2,0,0.3-0.1l11-17.9c0.1-0.1,0.1-0.2,0-0.3L556.9,849.2z"/>
		<linearGradient id="SVGID_82_" gradientUnits="userSpaceOnUse" x1="559.6873" y1="858.5027" x2="589.9275" y2="858.5027">
			<stop  offset="2.150540e-002" style="stop-color:#BF8D33"/>
			<stop  offset="0.5054" style="stop-color:#F7E679"/>
			<stop  offset="1" style="stop-color:#BF8D33"/>
		</linearGradient>
		<path fill="url(#SVGID_82_)" d="M589.7,864c-0.1,0-0.2,0.1-0.3,0.4c-0.2,0.9-0.5,1.5-1.1,1.8c-0.4,0.2-1.2,0.3-2.3,0.3
			c-1.2,0-2-0.1-2.3-0.4s-0.5-0.8-0.6-1.6v-5.6c0-0.2,0-0.2,0.1-0.2c1.8,0,3,0,3.4,0.1c0.8,0.1,1.2,0.4,1.3,0.9
			c0.1,0.4,0.1,0.7,0.1,0.8s0.1,0.3,0.2,0.3s0.2-0.2,0.2-0.5c0-0.2,0-0.7,0.1-1.6c0-0.5,0.1-0.9,0.1-1.3c0-0.3,0.1-0.5,0.1-0.5
			c0-0.1-0.1-0.2-0.2-0.2c-0.1,0-0.2,0.1-0.4,0.3c-0.1,0.1-0.3,0.2-0.5,0.3c-0.1,0-0.4,0.1-0.6,0.1c-0.4,0-1.7,0-3.9,0
			c-0.1,0-0.2-0.1-0.2-0.3V851c0-0.2,0.1-0.2,0.2-0.2c1.7,0,2.9,0,3.4,0.1c0.9,0.1,1.4,0.4,1.6,0.9c0,0.1,0.1,0.3,0.1,0.4
			c0,0.2,0,0.3,0.1,0.5c0,0.2,0.1,0.3,0.2,0.3c0.1,0,0.2-0.1,0.2-0.3c0.1-0.6,0.1-1.2,0.1-1.6c0-0.4,0.1-0.8,0.1-1.1
			c0-0.3,0.1-0.4,0.1-0.4c0-0.1,0-0.2-0.1-0.2c0,0-0.1,0-0.4,0.1c-0.3,0.1-0.6,0.1-1,0.1c-0.2,0-2.2,0-6,0c-0.2,0-0.7,0-1.5,0
			c-0.8,0-1.5,0-2,0c-0.4,0-0.5,0.1-0.5,0.2c0,0.1,0.1,0.2,0.4,0.2c0.4,0,0.7,0,0.9,0.1c0.6,0.1,1,0.6,1,1.4c0,0.5,0,2.2,0,5.1v4.2
			c0,2.8,0,4.5-0.1,5.1c-0.1,0.8-0.3,1.2-0.7,1.3c-0.2,0-0.5,0-0.7,0.1c-0.1,0-0.2,0-0.3,0c-0.1,0-0.1,0-0.2,0c-0.2,0-0.4,0-0.6,0
			c-0.9-0.2-1.8-0.7-2.7-1.6c-0.6-0.6-1.4-1.5-2.3-2.7c-0.2-0.2-1.1-1.4-2.9-3.6c2.1-1.7,3.2-3.5,3.2-5.4c0-0.7-0.2-1.4-0.6-2.1
			c-0.3-0.5-0.7-1-1.1-1.2c-1-0.7-2.5-1-4.4-1c-0.2,0-0.8,0-1.7,0c-0.9,0-1.4,0-1.7,0c-0.1,0-0.5,0-1.3,0c-0.8,0-1.4,0-1.9,0
			c-0.4,0-0.5,0.1-0.5,0.2c0,0.1,0.1,0.2,0.4,0.2c0.4,0,0.7,0,0.9,0.1c0.6,0.1,1,0.6,1,1.4c0,0.5,0,2.2,0,5.1v4.2
			c0,2.8,0,4.5-0.1,5.1c-0.1,0.8-0.3,1.2-0.7,1.3c-0.2,0-0.5,0-0.7,0.1c-0.4,0-0.5,0.1-0.5,0.2c0,0.2,0.2,0.2,0.5,0.2
			c0.4,0,0.9,0,1.7,0c0.7,0,1.2,0,1.3,0c0,0,0.5,0,1.4,0c0.9,0,1.6,0,2.1,0c0.3,0,0.5-0.1,0.5-0.2c0-0.1-0.1-0.2-0.3-0.2
			c-0.3,0-0.7,0-1.2-0.1c-0.5-0.1-0.8-0.5-0.9-1.3c-0.1-0.7-0.1-2.4-0.1-5.1v-0.3c0-0.1,0.1-0.2,0.2-0.2h2.1c0.2,0,0.3,0.1,0.4,0.2
			c0.9,1.2,1.7,2.3,2.4,3.3c1.4,1.9,2.5,3.1,3.3,3.5c0.6,0.3,1.4,0.5,2.6,0.5h2.3c0.1,0,0.2,0,0.2,0c0.1,0,0.1,0,0.2,0
			c0.4,0,0.9,0,1.7,0c0.8,0,1.2,0,1.4,0c0.3,0,1.1,0,2.5,0.1s2.8,0.1,4.2,0.1c0.5,0,0.8,0,1-0.1c0.1-0.1,0.3-0.2,0.3-0.5
			c0.2-0.8,0.3-1.7,0.3-2.7C589.9,864.1,589.9,864,589.7,864z M568.7,858.6c-0.4,0.3-0.9,0.4-1.7,0.4c-0.8,0-1.4-0.1-1.8-0.2
			c-0.1,0-0.2-0.2-0.2-0.4v-7.3c0-0.1,0-0.2,0.1-0.3c0.1-0.1,0.6-0.1,1.4-0.1c0.9,0,1.7,0.3,2.4,0.9c0.9,0.8,1.3,2,1.3,3.5
			C570.1,856.7,569.6,857.9,568.7,858.6z"/>
		<linearGradient id="SVGID_83_" gradientUnits="userSpaceOnUse" x1="592.615" y1="858.5027" x2="612.7991" y2="858.5027">
			<stop  offset="2.150540e-002" style="stop-color:#BF8D33"/>
			<stop  offset="0.5054" style="stop-color:#F7E679"/>
			<stop  offset="1" style="stop-color:#BF8D33"/>
		</linearGradient>
		<path fill="url(#SVGID_83_)" d="M612.2,849.5c-0.5,0-1,0-1.5,0c-0.5,0-0.8,0-0.8,0c-0.1,0-0.5,0-1.2,0c-0.7,0-1.2,0-1.7,0
			c-0.4,0-0.6,0.1-0.6,0.2c0,0.1,0.1,0.2,0.4,0.2c0.6,0,1,0,1.3,0.1c0.4,0.1,0.6,0.5,0.7,0.9c0,0.2,0.1,0.6,0.1,1.2l0.2,10.8H609
			c-1.9-2-3.6-3.8-5.3-5.5c-3.6-3.7-6.1-6.3-7.4-7.7c-0.5-0.5-0.8-0.7-0.9-0.7c-0.2,0-0.3,0.3-0.3,0.8l-0.2,14.2
			c0,1.1-0.1,1.8-0.1,2.2c-0.1,0.4-0.3,0.7-0.6,0.8c-0.3,0-0.6,0.1-0.8,0.1c-0.4,0-0.6,0.1-0.6,0.2c0,0.2,0.2,0.2,0.5,0.2
			c0.5,0,1.1,0,1.7,0c0.6,0,0.9,0,0.9,0c0.1,0,0.4,0,1.1,0c0.7,0,1.3,0,1.9,0c0.4,0,0.6-0.1,0.6-0.2c0-0.1-0.2-0.2-0.7-0.2
			c-0.6-0.1-0.9-0.1-0.9-0.1c-0.5-0.2-0.8-1.1-0.8-2.7l-0.3-10.1h0.1c0.7,0.7,1.4,1.5,2,2.2c1.4,1.5,2.6,2.7,3.7,3.8
			c3.2,3.2,5.5,5.5,7.1,7.1c0.4,0.4,0.6,0.5,0.8,0.5c0.2,0,0.3-0.2,0.3-0.7l0.3-15.1c0-0.6,0.1-1,0.1-1.3c0.2-0.5,0.7-0.8,1.5-0.8
			c0.3,0,0.4-0.1,0.4-0.2C612.8,849.6,612.6,849.5,612.2,849.5z"/>
		<linearGradient id="SVGID_84_" gradientUnits="userSpaceOnUse" x1="615.512" y1="858.5623" x2="635.1194" y2="858.5623">
			<stop  offset="2.150540e-002" style="stop-color:#BF8D33"/>
			<stop  offset="0.5054" style="stop-color:#F7E679"/>
			<stop  offset="1" style="stop-color:#BF8D33"/>
		</linearGradient>
		<path fill="url(#SVGID_84_)" d="M625.4,849.2c-3.3,0-5.8,1.1-7.7,3.2c-1.5,1.7-2.3,3.8-2.3,6.2c0,2.4,0.8,4.5,2.3,6.3
			c1.8,2.1,4.2,3.1,7.4,3.1c3,0,5.4-1,7.2-2.9c1.8-1.8,2.7-4.2,2.7-7c0-2.8-0.9-4.9-2.6-6.6C630.8,850,628.4,849.2,625.4,849.2z
			 M629.6,865.5c-0.9,0.8-2.1,1.3-3.4,1.3c-2.2,0-4-0.9-5.4-2.6c-1.3-1.6-2-3.8-2-6.3c0-2.7,0.6-4.7,1.9-6c1-1,2.3-1.5,4-1.5
			c2,0,3.7,0.8,5,2.3c1.4,1.6,2,3.8,2,6.4C631.8,862,631,864.2,629.6,865.5z"/>
		<linearGradient id="SVGID_85_" gradientUnits="userSpaceOnUse" x1="635.1184" y1="858.7308" x2="655.1829" y2="858.7308">
			<stop  offset="2.150540e-002" style="stop-color:#BF8D33"/>
			<stop  offset="0.5054" style="stop-color:#F7E679"/>
			<stop  offset="1" style="stop-color:#BF8D33"/>
		</linearGradient>
		<path fill="url(#SVGID_85_)" d="M653.6,850.2c0.3-0.2,0.7-0.3,1.2-0.3c0.3,0,0.4-0.1,0.4-0.2c0-0.1-0.2-0.2-0.5-0.2
			c-0.3,0-0.7,0-1.2,0c-0.6,0-0.9,0-1,0c0,0-0.3,0-0.9,0c-0.6,0-1.1,0-1.6,0c-0.4,0-0.7,0.1-0.7,0.2c0,0.1,0.1,0.2,0.4,0.2
			c0.4,0,0.7,0,0.9,0.1c0.2,0.1,0.3,0.2,0.3,0.5c0,0.2-0.1,0.5-0.2,0.9c-1.8,4.5-3.4,8.5-4.7,12h-0.1l-4.1-10.9
			c-0.4-1-0.6-1.6-0.6-1.8c0-0.2,0.1-0.4,0.2-0.5c0.2-0.1,0.5-0.2,0.9-0.2c0.2,0,0.4-0.1,0.4-0.2c0-0.1-0.2-0.2-0.6-0.2
			c-0.4,0-1,0-1.7,0c-0.7,0-1.1,0-1.2,0c-0.2,0-0.8,0-1.6,0c-0.8,0-1.4,0-1.9,0c-0.4,0-0.6,0.1-0.6,0.2c0,0.1,0.1,0.2,0.3,0.2
			c0.4,0,0.7,0,0.9,0.1c0.5,0.1,0.8,0.3,1,0.5c0.3,0.3,0.5,0.7,0.8,1.3l6,14.7c0.3,0.6,0.4,1,0.5,1.2c0.1,0.2,0.3,0.3,0.4,0.3
			c0.2,0,0.3-0.1,0.5-0.4c0.1-0.2,0.3-0.6,0.6-1.4l3.2-7.3c1.4-3.2,2.3-5.3,2.9-6.5C652.8,851.2,653.2,850.5,653.6,850.2z"/>
		<linearGradient id="SVGID_86_" gradientUnits="userSpaceOnUse" x1="652.303" y1="858.2986" x2="672.0549" y2="858.2986">
			<stop  offset="2.150540e-002" style="stop-color:#BF8D33"/>
			<stop  offset="0.5054" style="stop-color:#F7E679"/>
			<stop  offset="1" style="stop-color:#BF8D33"/>
		</linearGradient>
		<path fill="url(#SVGID_86_)" d="M671.7,867.2c-0.4,0-0.7,0-1-0.1c-0.7-0.2-1.4-1-2.1-2.6c-2.5-6.1-4.5-11-6-14.8
			c-0.2-0.5-0.4-0.8-0.6-0.8c-0.2,0-0.4,0.3-0.7,1l-6,15.1c-0.3,0.7-0.5,1.2-0.8,1.5c-0.3,0.4-0.7,0.6-1.2,0.7c-0.2,0-0.5,0-0.7,0
			c-0.2,0-0.3,0.1-0.3,0.2c0,0.2,0.2,0.2,0.5,0.2c0.5,0,1.4,0,2.8-0.1c0.2,0,0.7,0,1.3,0c0.6,0,1,0,1.3,0c0.3,0,0.4-0.1,0.4-0.2
			c0-0.1-0.1-0.2-0.4-0.2h-0.4c-0.6,0-1-0.2-1-0.7c0-0.3,0.1-0.8,0.4-1.5l1.3-3.4c0-0.1,0.1-0.2,0.2-0.2h5.4c0.1,0,0.2,0.1,0.2,0.2
			l1.9,5.1c0.1,0.3,0,0.5-0.2,0.6c-0.2,0-0.3,0.1-0.3,0.2c0,0.1,0.2,0.2,0.7,0.2c1,0,2.6,0,4.5,0c0.4,0,0.7,0,0.9,0
			c0.2,0,0.2-0.1,0.2-0.2C672.1,867.3,672,867.2,671.7,867.2z M663.6,860.2h-4.4c-0.1,0-0.1-0.1-0.1-0.2l2.2-5.9
			c0-0.1,0.1-0.2,0.1-0.2c0,0,0.1,0.1,0.1,0.2l2.2,5.9C663.8,860.1,663.7,860.2,663.6,860.2z"/>
		<linearGradient id="SVGID_87_" gradientUnits="userSpaceOnUse" x1="670.9749" y1="858.3943" x2="687.1985" y2="858.3943">
			<stop  offset="2.150540e-002" style="stop-color:#BF8D33"/>
			<stop  offset="0.5054" style="stop-color:#F7E679"/>
			<stop  offset="1" style="stop-color:#BF8D33"/>
		</linearGradient>
		<path fill="url(#SVGID_87_)" d="M687,849.3c-0.2,0-0.6,0-1.1,0.1c-0.5,0.1-0.9,0.1-1.2,0.1h-9.5c-0.7,0-1.5,0-2.4-0.1
			c-0.2,0-0.4-0.1-0.6-0.2s-0.3-0.1-0.4-0.1c-0.1,0-0.2,0.2-0.3,0.5c-0.3,1.4-0.5,2.3-0.5,2.8c0,0.3,0.1,0.4,0.2,0.4
			c0.1,0,0.2-0.1,0.3-0.3c0.1-0.3,0.2-0.5,0.4-0.8c0.3-0.4,1.1-0.7,2.3-0.7l3.6-0.1v9.8c0,2.7,0,4.4-0.1,5.1
			c-0.1,0.8-0.3,1.2-0.7,1.3c-0.2,0-0.5,0-0.7,0.1c-0.4,0-0.5,0.1-0.5,0.2c0,0.2,0.2,0.2,0.5,0.2c0.4,0,0.9,0,1.7,0
			c0.8,0,1.2,0,1.4,0c0.1,0,0.7,0,1.5,0c0.9,0,1.6,0,2.2,0c0.3,0,0.5-0.1,0.5-0.2c0-0.1-0.1-0.2-0.4-0.2c-0.4,0-0.8,0-1.2-0.1
			c-0.5-0.1-0.8-0.5-0.9-1.3c-0.1-0.7-0.1-2.4-0.1-5.1v-9.8l3,0.1c1.8,0,2.8,0.5,2.8,1.3l0,0.3c0,0.3,0.1,0.5,0.3,0.5
			c0.1,0,0.2-0.1,0.2-0.4c0-0.2,0-0.7,0.1-1.5c0-0.7,0-1.2,0-1.3C687.2,849.5,687.1,849.3,687,849.3z"/>
		<linearGradient id="SVGID_88_" gradientUnits="userSpaceOnUse" x1="689.4788" y1="858.5628" x2="697.2307" y2="858.5628">
			<stop  offset="2.150540e-002" style="stop-color:#BF8D33"/>
			<stop  offset="0.5054" style="stop-color:#F7E679"/>
			<stop  offset="1" style="stop-color:#BF8D33"/>
		</linearGradient>
		<path fill="url(#SVGID_88_)" d="M696.8,867.2c-0.3,0-0.8,0-1.2-0.1c-0.6-0.1-0.9-0.5-1-1.2c-0.1-0.6-0.1-2.4-0.1-5.3v-4.2
			c0-2.9,0-4.6,0-5.1c0-0.8,0.3-1.3,0.9-1.4c0.3,0,0.5-0.1,0.7-0.1c0.2,0,0.3-0.1,0.3-0.2c0-0.1-0.2-0.2-0.5-0.2s-0.9,0-1.6,0
			c-0.7,0-1.2,0-1.3,0c-0.2,0-0.7,0-1.5,0c-0.8,0-1.3,0-1.6,0c-0.4,0-0.6,0.1-0.6,0.2c0,0.2,0.1,0.2,0.4,0.2c0.3,0,0.6,0,0.8,0.1
			c0.5,0.1,0.8,0.6,0.8,1.3c0,0.5,0,2.2,0,5.1v4.2c0,2.8,0,4.5-0.1,5.2c-0.1,0.7-0.3,1.1-0.7,1.2c-0.2,0-0.5,0-0.7,0.1
			c-0.4,0-0.5,0.1-0.5,0.2c0,0.2,0.2,0.2,0.5,0.2c0.4,0,0.9,0,1.7,0c0.8,0,1.2,0,1.4,0s0.7,0,1.5,0c0.9,0,1.6,0,2.2,0
			c0.3,0,0.5-0.1,0.5-0.2C697.2,867.3,697.1,867.2,696.8,867.2z"/>
		<linearGradient id="SVGID_89_" gradientUnits="userSpaceOnUse" x1="699.8225" y1="858.5623" x2="719.4299" y2="858.5623">
			<stop  offset="2.150540e-002" style="stop-color:#BF8D33"/>
			<stop  offset="0.5054" style="stop-color:#F7E679"/>
			<stop  offset="1" style="stop-color:#BF8D33"/>
		</linearGradient>
		<path fill="url(#SVGID_89_)" d="M709.7,849.2c-3.3,0-5.8,1.1-7.7,3.2c-1.5,1.7-2.3,3.8-2.3,6.2c0,2.4,0.8,4.5,2.3,6.3
			c1.8,2.1,4.2,3.1,7.4,3.1c3,0,5.4-1,7.2-2.9c1.8-1.8,2.7-4.2,2.7-7c0-2.8-0.9-4.9-2.6-6.6C715.1,850,712.7,849.2,709.7,849.2z
			 M713.9,865.5c-0.9,0.8-2.1,1.3-3.4,1.3c-2.2,0-4-0.9-5.4-2.6c-1.3-1.6-2-3.8-2-6.3c0-2.7,0.6-4.7,1.9-6c1-1,2.3-1.5,4-1.5
			c2,0,3.7,0.8,5,2.3c1.4,1.6,2,3.8,2,6.4C716.1,862,715.3,864.2,713.9,865.5z"/>
		<linearGradient id="SVGID_90_" gradientUnits="userSpaceOnUse" x1="721.9026" y1="858.5027" x2="742.0862" y2="858.5027">
			<stop  offset="2.150540e-002" style="stop-color:#BF8D33"/>
			<stop  offset="0.5054" style="stop-color:#F7E679"/>
			<stop  offset="1" style="stop-color:#BF8D33"/>
		</linearGradient>
		<path fill="url(#SVGID_90_)" d="M741.5,849.5c-0.5,0-1,0-1.5,0c-0.5,0-0.8,0-0.8,0c-0.1,0-0.5,0-1.2,0c-0.7,0-1.2,0-1.7,0
			c-0.4,0-0.6,0.1-0.6,0.2c0,0.1,0.1,0.2,0.4,0.2c0.6,0,1,0,1.3,0.1c0.4,0.1,0.6,0.5,0.7,0.9c0,0.2,0.1,0.6,0.1,1.2l0.2,10.8h-0.1
			c-1.9-2-3.6-3.8-5.3-5.5c-3.6-3.7-6.1-6.3-7.4-7.7c-0.5-0.5-0.8-0.7-0.9-0.7c-0.2,0-0.3,0.3-0.3,0.8l-0.2,14.2
			c0,1.1-0.1,1.8-0.1,2.2c-0.1,0.4-0.3,0.7-0.6,0.8c-0.3,0-0.6,0.1-0.8,0.1c-0.4,0-0.6,0.1-0.6,0.2c0,0.2,0.2,0.2,0.5,0.2
			c0.5,0,1.1,0,1.7,0c0.6,0,0.9,0,0.9,0c0.1,0,0.4,0,1.1,0c0.7,0,1.3,0,1.9,0c0.4,0,0.6-0.1,0.6-0.2c0-0.1-0.2-0.2-0.7-0.2
			c-0.6-0.1-0.9-0.1-0.9-0.1c-0.5-0.2-0.8-1.1-0.8-2.7l-0.3-10.1h0.1c0.7,0.7,1.4,1.5,2,2.2c1.4,1.5,2.6,2.7,3.7,3.8
			c3.2,3.2,5.5,5.5,7.1,7.1c0.4,0.4,0.6,0.5,0.8,0.5c0.2,0,0.3-0.2,0.3-0.7L740,852c0-0.6,0.1-1,0.1-1.3c0.2-0.5,0.7-0.8,1.5-0.8
			c0.3,0,0.4-0.1,0.4-0.2C742.1,849.6,741.9,849.5,741.5,849.5z"/>
		<linearGradient id="SVGID_91_" gradientUnits="userSpaceOnUse" x1="752.1897" y1="858.4666" x2="764.0696" y2="858.4666">
			<stop  offset="2.150540e-002" style="stop-color:#BF8D33"/>
			<stop  offset="0.5054" style="stop-color:#F7E679"/>
			<stop  offset="1" style="stop-color:#BF8D33"/>
		</linearGradient>
		<path fill="url(#SVGID_91_)" d="M763.9,849.3c0,0-0.1,0-0.4,0.1c-0.4,0.1-0.7,0.1-1,0.1c-0.3,0-2.4,0-6.3,0c-0.2,0-0.7,0-1.5,0
			c-0.8,0-1.5,0-1.9,0c-0.4,0-0.6,0.1-0.6,0.2c0,0.1,0.1,0.2,0.4,0.2c0.4,0,0.7,0,0.9,0.1c0.6,0.1,1,0.6,1,1.4c0,0.5,0,2.2,0,5.1
			v4.2c0,2.8,0,4.5-0.1,5.1c-0.1,0.8-0.3,1.2-0.7,1.3c-0.2,0-0.5,0-0.7,0.1c-0.4,0-0.5,0.1-0.5,0.2c0,0.2,0.2,0.2,0.5,0.2
			s0.9,0,1.6,0c0.8,0,1.2,0,1.4,0c0.1,0,0.6,0,1.5,0c0.9,0,1.6,0,2.2,0c0.4,0,0.5-0.1,0.5-0.2c0-0.1-0.1-0.2-0.4-0.2
			c-0.3,0-0.7,0-1.2-0.1c-0.5-0.1-0.8-0.5-0.9-1.3c-0.1-0.7-0.1-2.4-0.1-5.1v-1.9c0-0.1,0.1-0.2,0.2-0.2c2,0,3.2,0,3.6,0.1
			c0.6,0.1,1.1,0.4,1.2,0.9c0,0.2,0.1,0.4,0.1,0.6c0,0.3,0.1,0.5,0.2,0.5c0.2,0,0.2-0.2,0.2-0.5c0-0.5,0-1.1,0.1-1.8
			c0-0.3,0.1-0.6,0.1-1c0-0.3,0.1-0.5,0.1-0.5c0-0.1,0-0.2-0.1-0.2c-0.1,0-0.2,0.1-0.3,0.2c-0.2,0.2-0.5,0.4-1,0.4
			c-0.1,0-0.5,0-1.1,0h-3.1c-0.1,0-0.2-0.1-0.2-0.2v-6c0-0.2,0.1-0.3,0.2-0.3l3.7,0.1c0.9,0,1.4,0.3,1.6,0.7
			c0.1,0.2,0.1,0.5,0.1,0.9c0,0.3,0.1,0.4,0.2,0.4c0.1,0,0.2-0.1,0.2-0.3c0-0.8,0.1-1.4,0.1-1.9c0-0.2,0.1-0.5,0.1-0.7
			c0-0.2,0.1-0.3,0.1-0.4C764.1,849.4,764,849.3,763.9,849.3z"/>
		<linearGradient id="SVGID_92_" gradientUnits="userSpaceOnUse" x1="767.4299" y1="858.5628" x2="775.1819" y2="858.5628">
			<stop  offset="2.150540e-002" style="stop-color:#BF8D33"/>
			<stop  offset="0.5054" style="stop-color:#F7E679"/>
			<stop  offset="1" style="stop-color:#BF8D33"/>
		</linearGradient>
		<path fill="url(#SVGID_92_)" d="M774.8,867.2c-0.3,0-0.8,0-1.2-0.1c-0.6-0.1-0.9-0.5-1-1.2c-0.1-0.6-0.1-2.4-0.1-5.3v-4.2
			c0-2.9,0-4.6,0-5.1c0-0.8,0.3-1.3,0.9-1.4c0.3,0,0.5-0.1,0.7-0.1c0.2,0,0.3-0.1,0.3-0.2c0-0.1-0.2-0.2-0.5-0.2s-0.9,0-1.6,0
			c-0.7,0-1.2,0-1.3,0c-0.2,0-0.7,0-1.5,0c-0.8,0-1.3,0-1.6,0c-0.4,0-0.6,0.1-0.6,0.2c0,0.2,0.1,0.2,0.4,0.2c0.3,0,0.6,0,0.8,0.1
			c0.5,0.1,0.8,0.6,0.8,1.3c0,0.5,0,2.2,0,5.1v4.2c0,2.8,0,4.5-0.1,5.2c-0.1,0.7-0.3,1.1-0.7,1.2c-0.2,0-0.5,0-0.7,0.1
			c-0.4,0-0.5,0.1-0.5,0.2c0,0.2,0.2,0.2,0.5,0.2c0.4,0,0.9,0,1.7,0c0.8,0,1.2,0,1.4,0s0.7,0,1.5,0c0.9,0,1.6,0,2.2,0
			c0.3,0,0.5-0.1,0.5-0.2C775.2,867.3,775.1,867.2,774.8,867.2z"/>
		<linearGradient id="SVGID_93_" gradientUnits="userSpaceOnUse" x1="777.6057" y1="858.5027" x2="797.7893" y2="858.5027">
			<stop  offset="2.150540e-002" style="stop-color:#BF8D33"/>
			<stop  offset="0.5054" style="stop-color:#F7E679"/>
			<stop  offset="1" style="stop-color:#BF8D33"/>
		</linearGradient>
		<path fill="url(#SVGID_93_)" d="M797.8,849.7c0-0.1-0.2-0.2-0.6-0.2c-0.5,0-1,0-1.5,0c-0.5,0-0.8,0-0.8,0c-0.1,0-0.5,0-1.2,0
			c-0.7,0-1.2,0-1.7,0c-0.4,0-0.6,0.1-0.6,0.2c0,0.1,0.1,0.2,0.4,0.2c0.6,0,1,0,1.3,0.1c0.4,0.1,0.6,0.5,0.7,0.9
			c0,0.2,0.1,0.6,0.1,1.2l0.2,10.8h-0.1c-1.9-2-3.6-3.8-5.3-5.5c-3.6-3.7-6.1-6.3-7.4-7.7c-0.5-0.5-0.8-0.7-0.9-0.7
			c-0.2,0-0.3,0.3-0.3,0.8l-0.2,14.2c0,1.1-0.1,1.8-0.1,2.2c-0.1,0.4-0.3,0.7-0.6,0.8c-0.3,0-0.6,0.1-0.8,0.1
			c-0.4,0-0.6,0.1-0.6,0.2c0,0.2,0.2,0.2,0.5,0.2c0.5,0,1.1,0,1.7,0c0.6,0,0.9,0,0.9,0c0.1,0,0.4,0,1.1,0c0.7,0,1.3,0,1.9,0
			c0.4,0,0.6-0.1,0.6-0.2c0-0.1-0.2-0.2-0.7-0.2c-0.6-0.1-0.9-0.1-0.9-0.1c-0.5-0.2-0.8-1.1-0.8-2.7l-0.3-10.1h0.1
			c0.7,0.7,1.4,1.5,2,2.2c1.4,1.5,2.6,2.7,3.7,3.8c3.2,3.2,5.5,5.5,7.1,7.1c0.4,0.4,0.6,0.5,0.8,0.5c0.2,0,0.3-0.2,0.3-0.7l0.3-15.1
			c0-0.6,0.1-1,0.1-1.3c0.2-0.5,0.7-0.8,1.5-0.8C797.6,849.9,797.8,849.9,797.8,849.7z"/>
		<linearGradient id="SVGID_94_" gradientUnits="userSpaceOnUse" x1="797.6692" y1="858.2986" x2="817.4211" y2="858.2986">
			<stop  offset="2.150540e-002" style="stop-color:#BF8D33"/>
			<stop  offset="0.5054" style="stop-color:#F7E679"/>
			<stop  offset="1" style="stop-color:#BF8D33"/>
		</linearGradient>
		<path fill="url(#SVGID_94_)" d="M817.1,867.2c-0.4,0-0.7,0-1-0.1c-0.7-0.2-1.4-1-2.1-2.6c-2.5-6.1-4.5-11-6-14.8
			c-0.2-0.5-0.4-0.8-0.6-0.8c-0.2,0-0.4,0.3-0.7,1l-6,15.1c-0.3,0.7-0.5,1.2-0.8,1.5c-0.3,0.4-0.7,0.6-1.2,0.7c-0.2,0-0.5,0-0.7,0
			c-0.2,0-0.3,0.1-0.3,0.2c0,0.2,0.2,0.2,0.5,0.2c0.5,0,1.4,0,2.8-0.1c0.2,0,0.7,0,1.3,0c0.6,0,1,0,1.3,0c0.3,0,0.4-0.1,0.4-0.2
			c0-0.1-0.1-0.2-0.4-0.2h-0.4c-0.6,0-1-0.2-1-0.7c0-0.3,0.1-0.8,0.4-1.5l1.3-3.4c0-0.1,0.1-0.2,0.2-0.2h5.4c0.1,0,0.2,0.1,0.2,0.2
			l1.9,5.1c0.1,0.3,0,0.5-0.2,0.6c-0.2,0-0.3,0.1-0.3,0.2c0,0.1,0.2,0.2,0.7,0.2c1,0,2.6,0,4.5,0c0.4,0,0.7,0,0.9,0
			c0.2,0,0.2-0.1,0.2-0.2C817.4,867.3,817.3,867.2,817.1,867.2z M809,860.2h-4.4c-0.1,0-0.1-0.1-0.1-0.2l2.2-5.9
			c0-0.1,0.1-0.2,0.1-0.2c0,0,0.1,0.1,0.1,0.2l2.2,5.9C809.1,860.1,809.1,860.2,809,860.2z"/>
		<linearGradient id="SVGID_95_" gradientUnits="userSpaceOnUse" x1="817.6379" y1="858.5989" x2="830.2141" y2="858.5989">
			<stop  offset="2.150540e-002" style="stop-color:#BF8D33"/>
			<stop  offset="0.5054" style="stop-color:#F7E679"/>
			<stop  offset="1" style="stop-color:#BF8D33"/>
		</linearGradient>
		<path fill="url(#SVGID_95_)" d="M830,863.9c-0.1,0-0.2,0.1-0.3,0.4c-0.1,0.6-0.3,1.1-0.6,1.4c-0.4,0.4-1.4,0.7-2.8,0.7
			c-1.5,0-2.5-0.2-2.9-0.5c-0.2-0.2-0.4-0.7-0.4-1.6c0-0.6-0.1-1.8-0.1-3.6v-4.2c0-2.9,0-4.6,0-5.1c0-0.8,0.3-1.3,0.9-1.4
			c0.3,0,0.6-0.1,0.9-0.1c0.3,0,0.4-0.1,0.4-0.2c0-0.1-0.2-0.2-0.5-0.2s-0.9,0-1.8,0c-0.8,0-1.3,0-1.5,0c-0.2,0-0.7,0-1.5,0
			c-0.8,0-1.4,0-1.8,0c-0.4,0-0.5,0.1-0.5,0.2c0,0.1,0.1,0.2,0.4,0.2c0.6,0,1,0.1,1.3,0.2c0.3,0.2,0.5,0.6,0.5,1.2
			c0,0.5,0,2.2,0,5.1v4.2c0,2.8,0,4.5-0.1,5.1c-0.1,0.8-0.3,1.2-0.7,1.3c-0.2,0-0.5,0-0.7,0.1c-0.4,0-0.5,0.1-0.5,0.2
			c0,0.2,0.2,0.2,0.5,0.2c0.4,0,0.9,0,1.7,0c0.8,0,1.2,0,1.4,0c0.5,0,1.5,0,2.9,0.1s2.8,0.1,4.1,0.1c0.5,0,0.8,0,0.9,0
			c0.3-0.1,0.5-0.3,0.6-0.6c0.2-0.9,0.4-1.8,0.4-2.8C830.2,864,830.1,863.9,830,863.9z"/>
		<linearGradient id="SVGID_96_" gradientUnits="userSpaceOnUse" x1="839.0208" y1="858.5623" x2="855.7004" y2="858.5623">
			<stop  offset="2.150540e-002" style="stop-color:#BF8D33"/>
			<stop  offset="0.5054" style="stop-color:#F7E679"/>
			<stop  offset="1" style="stop-color:#BF8D33"/>
		</linearGradient>
		<path fill="url(#SVGID_96_)" d="M849.1,850.3c1.1,0,2.1,0.1,3,0.4c0.8,0.3,1.5,0.6,1.9,1.1c0.6,0.6,0.9,1.4,0.9,2.2
			c0,0.4,0.1,0.5,0.2,0.5s0.3-0.2,0.3-0.6c0-1,0.1-1.9,0.1-2.6c0-0.3,0-0.6,0.1-0.9c0-0.2,0.1-0.4,0.1-0.4c0-0.2-0.1-0.3-0.4-0.3
			c-1-0.2-1.8-0.3-2.4-0.4c-1.2-0.2-2.4-0.2-3.5-0.2c-3.2,0-5.7,0.9-7.6,2.6s-2.8,3.9-2.8,6.6c0,3,1,5.4,3,7.1
			c2,1.7,4.7,2.6,8.2,2.6c2,0,3.4-0.2,4.3-0.6c0.3-0.1,0.5-0.4,0.6-0.7c0.1-0.4,0.2-0.9,0.3-1.8c0.1-0.8,0.2-1.2,0.2-1.4
			c0-0.2-0.1-0.4-0.2-0.4c-0.1,0-0.2,0.2-0.3,0.5c-0.1,0.6-0.4,1.1-0.8,1.6c-0.5,0.6-1.2,1-2,1.2c-0.6,0.1-1.4,0.2-2.4,0.2
			c-1.8,0-3.5-0.7-5-2.1c-1.7-1.6-2.6-3.8-2.6-6.4c0-2.8,0.7-4.9,2.2-6.2C845.7,850.8,847.2,850.3,849.1,850.3z"/>
		<linearGradient id="SVGID_97_" gradientUnits="userSpaceOnUse" x1="858.5569" y1="858.5989" x2="871.1331" y2="858.5989">
			<stop  offset="2.150540e-002" style="stop-color:#BF8D33"/>
			<stop  offset="0.5054" style="stop-color:#F7E679"/>
			<stop  offset="1" style="stop-color:#BF8D33"/>
		</linearGradient>
		<path fill="url(#SVGID_97_)" d="M870.9,863.9c-0.1,0-0.2,0.1-0.3,0.4c-0.1,0.6-0.3,1.1-0.6,1.4c-0.4,0.4-1.4,0.7-2.8,0.7
			c-1.5,0-2.5-0.2-2.9-0.5c-0.2-0.2-0.4-0.7-0.4-1.6c0-0.6-0.1-1.8-0.1-3.6v-4.2c0-2.9,0-4.6,0-5.1c0-0.8,0.3-1.3,0.9-1.4
			c0.3,0,0.6-0.1,0.9-0.1c0.3,0,0.4-0.1,0.4-0.2c0-0.1-0.2-0.2-0.5-0.2s-0.9,0-1.8,0c-0.8,0-1.3,0-1.5,0c-0.2,0-0.7,0-1.5,0
			c-0.8,0-1.4,0-1.8,0c-0.4,0-0.5,0.1-0.5,0.2c0,0.1,0.1,0.2,0.4,0.2c0.6,0,1,0.1,1.3,0.2c0.3,0.2,0.5,0.6,0.5,1.2
			c0,0.5,0,2.2,0,5.1v4.2c0,2.8,0,4.5-0.1,5.1c-0.1,0.8-0.3,1.2-0.7,1.3c-0.2,0-0.5,0-0.7,0.1c-0.4,0-0.5,0.1-0.5,0.2
			c0,0.2,0.2,0.2,0.5,0.2c0.4,0,0.9,0,1.7,0c0.8,0,1.2,0,1.4,0c0.5,0,1.5,0,2.9,0.1s2.8,0.1,4.1,0.1c0.5,0,0.8,0,0.9,0
			c0.3-0.1,0.5-0.3,0.6-0.6c0.2-0.9,0.4-1.8,0.4-2.8C871.1,864,871.1,863.9,870.9,863.9z"/>
		<linearGradient id="SVGID_98_" gradientUnits="userSpaceOnUse" x1="872.9319" y1="858.5027" x2="885.052" y2="858.5027">
			<stop  offset="2.150540e-002" style="stop-color:#BF8D33"/>
			<stop  offset="0.5054" style="stop-color:#F7E679"/>
			<stop  offset="1" style="stop-color:#BF8D33"/>
		</linearGradient>
		<path fill="url(#SVGID_98_)" d="M884.9,864c-0.1,0-0.2,0.1-0.3,0.4c-0.2,0.9-0.5,1.5-1.1,1.8c-0.4,0.2-1.2,0.3-2.3,0.3
			c-1.2,0-2-0.1-2.3-0.4s-0.5-0.8-0.6-1.6v-5.6c0-0.2,0-0.2,0.1-0.2c1.8,0,3,0,3.4,0.1c0.8,0.1,1.2,0.4,1.3,0.9
			c0.1,0.4,0.1,0.7,0.1,0.8s0.1,0.3,0.2,0.3s0.2-0.2,0.2-0.5c0-0.2,0-0.7,0.1-1.6c0-0.5,0.1-0.9,0.1-1.3c0-0.3,0.1-0.5,0.1-0.5
			c0-0.1-0.1-0.2-0.2-0.2c-0.1,0-0.2,0.1-0.4,0.3c-0.1,0.1-0.3,0.2-0.5,0.3c-0.1,0-0.4,0.1-0.6,0.1c-0.4,0-1.7,0-3.9,0
			c-0.1,0-0.2-0.1-0.2-0.3V851c0-0.2,0.1-0.2,0.2-0.2c1.7,0,2.9,0,3.4,0.1c0.9,0.1,1.4,0.4,1.6,0.9c0,0.1,0.1,0.3,0.1,0.4
			c0,0.2,0,0.3,0.1,0.5c0,0.2,0.1,0.3,0.2,0.3c0.1,0,0.2-0.1,0.2-0.3c0.1-0.6,0.1-1.2,0.1-1.6c0-0.4,0.1-0.8,0.1-1.1
			c0-0.3,0.1-0.4,0.1-0.4c0-0.1,0-0.2-0.1-0.2c0,0-0.1,0-0.4,0.1c-0.3,0.1-0.6,0.1-1,0.1c-0.2,0-2.2,0-6,0c-0.2,0-0.7,0-1.5,0
			c-0.8,0-1.5,0-2,0c-0.4,0-0.5,0.1-0.5,0.2c0,0.1,0.1,0.2,0.4,0.2c0.4,0,0.7,0,0.9,0.1c0.6,0.1,1,0.6,1,1.4c0,0.5,0,2.2,0,5.1v4.2
			c0,2.8,0,4.5-0.1,5.1c-0.1,0.8-0.3,1.2-0.7,1.3c-0.2,0-0.5,0-0.7,0.1c-0.4,0-0.5,0.1-0.5,0.2c0,0.2,0.2,0.2,0.5,0.2
			c0.4,0,0.9,0,1.7,0c0.8,0,1.2,0,1.4,0c0.3,0,1.1,0,2.5,0.1s2.8,0.1,4.2,0.1c0.5,0,0.8,0,1-0.1c0.1-0.1,0.3-0.2,0.3-0.5
			c0.2-0.8,0.3-1.7,0.3-2.7C885.1,864.1,885,864,884.9,864z"/>
		<linearGradient id="SVGID_99_" gradientUnits="userSpaceOnUse" x1="885.0764" y1="858.4427" x2="924.7239" y2="858.4427">
			<stop  offset="2.150540e-002" style="stop-color:#BF8D33"/>
			<stop  offset="0.5054" style="stop-color:#F7E679"/>
			<stop  offset="1" style="stop-color:#BF8D33"/>
		</linearGradient>
		<path fill="url(#SVGID_99_)" d="M924.2,849.5c-0.5,0-1,0-1.5,0c-0.5,0-0.8,0-0.8,0c-0.1,0-0.5,0-1.2,0c-0.7,0-1.2,0-1.7,0
			c-0.4,0-0.6,0.1-0.6,0.2c0,0.1,0.1,0.2,0.4,0.2c0.6,0,1,0,1.3,0.1c0.4,0.1,0.6,0.5,0.7,0.9c0,0.2,0.1,0.6,0.1,1.2L921,863h-0.1
			c-1.9-2-3.6-3.8-5.3-5.5c-3.6-3.7-6.1-6.3-7.4-7.7c-0.5-0.5-0.8-0.7-0.9-0.7c-0.2,0-0.3,0.3-0.3,0.8l-0.2,14.2
			c0,1.1-0.1,1.8-0.1,2.2c-0.1,0.4-0.3,0.7-0.6,0.8c-0.3,0-0.6,0.1-0.8,0.1c-0.2,0-0.3,0-0.4,0.1c-0.1,0-0.1,0-0.2,0
			c-0.4,0-0.7,0-1-0.1c-0.7-0.2-1.4-1-2.1-2.6c-2.5-6.1-4.5-11-6-14.8c-0.2-0.5-0.4-0.8-0.6-0.8c-0.2,0-0.4,0.3-0.7,1l-6,15.1
			c-0.3,0.7-0.5,1.2-0.8,1.5c-0.3,0.4-0.7,0.6-1.2,0.7c-0.2,0-0.5,0-0.7,0c-0.2,0-0.3,0.1-0.3,0.2c0,0.2,0.2,0.2,0.5,0.2
			c0.5,0,1.4,0,2.8-0.1c0.2,0,0.7,0,1.3,0c0.6,0,1,0,1.3,0c0.3,0,0.4-0.1,0.4-0.2c0-0.1-0.1-0.2-0.4-0.2h-0.4c-0.6,0-1-0.2-1-0.7
			c0-0.3,0.1-0.8,0.4-1.5l1.3-3.4c0-0.1,0.1-0.2,0.2-0.2h5.4c0.1,0,0.2,0.1,0.2,0.2l1.9,5.1c0.1,0.3,0,0.5-0.2,0.6
			c-0.2,0-0.3,0.1-0.3,0.2c0,0.1,0.2,0.2,0.7,0.2c1,0,2.6,0,4.5,0c0.4,0,0.7,0,0.9,0c0,0,0,0,0.1,0c0.1,0,0.2,0.1,0.4,0.1
			c0.5,0,1.1,0,1.7,0c0.6,0,0.9,0,0.9,0c0.1,0,0.4,0,1.1,0c0.7,0,1.3,0,1.9,0c0.4,0,0.6-0.1,0.6-0.2c0-0.1-0.2-0.2-0.7-0.2
			c-0.6-0.1-0.9-0.1-0.9-0.1c-0.5-0.2-0.8-1.1-0.8-2.7l-0.3-10.1h0.1c0.7,0.7,1.4,1.5,2,2.2c1.4,1.5,2.6,2.7,3.7,3.8
			c3.2,3.2,5.5,5.5,7.1,7.1c0.4,0.4,0.6,0.5,0.8,0.5c0.2,0,0.3-0.2,0.3-0.7l0.3-15.1c0-0.6,0.1-1,0.1-1.3c0.2-0.5,0.7-0.8,1.5-0.8
			c0.3,0,0.4-0.1,0.4-0.2C924.7,849.6,924.5,849.5,924.2,849.5z M896.4,860.2H892c-0.1,0-0.1-0.1-0.1-0.2l2.2-5.9
			c0-0.1,0.1-0.2,0.1-0.2c0,0,0.1,0.1,0.1,0.2l2.2,5.9C896.6,860.1,896.5,860.2,896.4,860.2z"/>
		<linearGradient id="SVGID_100_" gradientUnits="userSpaceOnUse" x1="928.2756" y1="858.5623" x2="938.3079" y2="858.5623">
			<stop  offset="2.150540e-002" style="stop-color:#BF8D33"/>
			<stop  offset="0.5054" style="stop-color:#F7E679"/>
			<stop  offset="1" style="stop-color:#BF8D33"/>
		</linearGradient>
		<path fill="url(#SVGID_100_)" d="M937.4,859.7c-0.6-0.9-1.6-1.9-3-3l-0.7-0.5c-1-0.7-1.6-1.4-2-1.9c-0.4-0.5-0.5-1-0.5-1.6
			c0-0.7,0.3-1.3,0.8-1.8c0.5-0.5,1.2-0.7,2.1-0.7c1.1,0,2,0.4,2.6,1.2c0.4,0.5,0.6,1.1,0.6,1.6c0,0.3,0.1,0.4,0.2,0.4
			c0.2,0,0.3-0.2,0.3-0.7c0-0.8,0-1.4,0-2c0-0.6,0-0.9,0-0.9c0-0.1-0.1-0.2-0.3-0.3c-1.1-0.3-2.2-0.4-3.2-0.4c-1.6,0-3,0.4-4,1.3
			c-1,0.8-1.5,1.9-1.5,3.3c0,1.9,1.2,3.8,3.6,5.7l1.1,0.9c1.6,1.2,2.4,2.5,2.4,3.8c0,0.7-0.3,1.3-0.8,1.8c-0.6,0.6-1.4,0.9-2.4,0.9
			c-1.8,0-3-0.8-3.4-2.4c-0.1-0.5-0.2-0.9-0.2-1.2c0-0.3-0.1-0.4-0.2-0.4c-0.2,0-0.3,0.2-0.3,0.6c-0.1,1.2-0.1,2.3-0.1,3.1
			c0,0.4,0.2,0.7,0.5,0.8c0.9,0.4,2.1,0.6,3.5,0.6c1.5,0,2.8-0.3,3.8-1c1.5-1,2.3-2.4,2.3-4.2C938.3,861.7,938,860.6,937.4,859.7z"
			/>
	</g>
</g>
</svg>
