<?xml version="1.0" encoding="utf-8"?>
<!-- Generator: Adobe Illustrator 17.1.0, SVG Export Plug-In . SVG Version: 6.00 Build 0)  -->
<!DOCTYPE svg PUBLIC "-//W3C//DTD SVG 1.1//EN" "http://www.w3.org/Graphics/SVG/1.1/DTD/svg11.dtd">
<svg version="1.1" id="Layer_1" xmlns="http://www.w3.org/2000/svg" xmlns:xlink="http://www.w3.org/1999/xlink" x="0px" y="0px"
	 viewBox="0 0 1180 1180" enable-background="new 0 0 1180 1180" xml:space="preserve">
<rect x="-38.6" y="-44.6" width="1257.1" height="1269.1"/>
<g>
	<linearGradient id="SVGID_1_" gradientUnits="userSpaceOnUse" x1="539.0779" y1="432.1552" x2="568.3191" y2="432.1552">
		<stop  offset="2.150540e-002" style="stop-color:#BF8D33"/>
		<stop  offset="0.5054" style="stop-color:#F7E679"/>
		<stop  offset="1" style="stop-color:#BF8D33"/>
	</linearGradient>
	<rect x="539.1" y="417.5" fill="url(#SVGID_1_)" width="29.2" height="29.2"/>
	<linearGradient id="SVGID_2_" gradientUnits="userSpaceOnUse" x1="498.6683" y1="432.1552" x2="527.9094" y2="432.1552">
		<stop  offset="2.150540e-002" style="stop-color:#BF8D33"/>
		<stop  offset="0.5054" style="stop-color:#F7E679"/>
		<stop  offset="1" style="stop-color:#BF8D33"/>
	</linearGradient>
	<rect x="498.7" y="417.5" fill="url(#SVGID_2_)" width="29.2" height="29.2"/>
	<linearGradient id="SVGID_3_" gradientUnits="userSpaceOnUse" x1="539.0779" y1="393.5731" x2="568.3191" y2="393.5731">
		<stop  offset="2.150540e-002" style="stop-color:#BF8D33"/>
		<stop  offset="0.5054" style="stop-color:#F7E679"/>
		<stop  offset="1" style="stop-color:#BF8D33"/>
	</linearGradient>
	<rect x="539.1" y="379" fill="url(#SVGID_3_)" width="29.2" height="29.2"/>
	<linearGradient id="SVGID_4_" gradientUnits="userSpaceOnUse" x1="498.6683" y1="393.5731" x2="527.9094" y2="393.5731">
		<stop  offset="2.150540e-002" style="stop-color:#BF8D33"/>
		<stop  offset="0.5054" style="stop-color:#F7E679"/>
		<stop  offset="1" style="stop-color:#BF8D33"/>
	</linearGradient>
	<rect x="498.7" y="379" fill="url(#SVGID_4_)" width="29.2" height="29.2"/>
	<linearGradient id="SVGID_5_" gradientUnits="userSpaceOnUse" x1="630.2919" y1="492.6137" x2="653.1821" y2="492.6137">
		<stop  offset="2.150540e-002" style="stop-color:#BF8D33"/>
		<stop  offset="0.5054" style="stop-color:#F7E679"/>
		<stop  offset="1" style="stop-color:#BF8D33"/>
	</linearGradient>
	<rect x="630.3" y="481.2" fill="url(#SVGID_5_)" width="22.9" height="22.9"/>
	<linearGradient id="SVGID_6_" gradientUnits="userSpaceOnUse" x1="661.9249" y1="492.6137" x2="684.8151" y2="492.6137">
		<stop  offset="2.150540e-002" style="stop-color:#BF8D33"/>
		<stop  offset="0.5054" style="stop-color:#F7E679"/>
		<stop  offset="1" style="stop-color:#BF8D33"/>
	</linearGradient>
	<rect x="661.9" y="481.2" fill="url(#SVGID_6_)" width="22.9" height="22.9"/>
	<linearGradient id="SVGID_7_" gradientUnits="userSpaceOnUse" x1="630.2919" y1="462.4113" x2="653.1821" y2="462.4113">
		<stop  offset="2.150540e-002" style="stop-color:#BF8D33"/>
		<stop  offset="0.5054" style="stop-color:#F7E679"/>
		<stop  offset="1" style="stop-color:#BF8D33"/>
	</linearGradient>
	<rect x="630.3" y="451" fill="url(#SVGID_7_)" width="22.9" height="22.9"/>
	<linearGradient id="SVGID_8_" gradientUnits="userSpaceOnUse" x1="661.9249" y1="462.4113" x2="684.8151" y2="462.4113">
		<stop  offset="2.150540e-002" style="stop-color:#BF8D33"/>
		<stop  offset="0.5054" style="stop-color:#F7E679"/>
		<stop  offset="1" style="stop-color:#BF8D33"/>
	</linearGradient>
	<rect x="661.9" y="451" fill="url(#SVGID_8_)" width="22.9" height="22.9"/>
	<linearGradient id="SVGID_9_" gradientUnits="userSpaceOnUse" x1="573.6381" y1="292.5982" x2="693.7439" y2="292.5982">
		<stop  offset="2.150540e-002" style="stop-color:#BF8D33"/>
		<stop  offset="0.5054" style="stop-color:#F7E679"/>
		<stop  offset="1" style="stop-color:#BF8D33"/>
	</linearGradient>
	<path fill="url(#SVGID_9_)" d="M627,328.3c-4.7-1.4-17.5-5-25.7-6c1.2,0,19.1-0.7,28.9,2.5c0.1,0,0.2,0.1,0.3,0.1
		c0.1-0.3,0.3-0.6,0.5-1c17-35.3,43.1-48.9,43.1-48.9c-27,21.3-34.4,40.8-36.4,49.9c34.1-2.9,44.7-18.8,50.1-32.4
		c8.6-21.8,5.2-40.7,5.2-40.7c-16.1,16.4-31.5,15.5-45,26.1c-14.3,11.3-18.5,22.9-19.1,31.8c-4.9-19-15.9-49.4-36.5-52.8
		c-2.1-0.8-2.9,8.3,2.6,6c0.9-0.4,1.9-2.1,4-1.2c2,0.8,18.4,6.8,30.6,60.4c-4.4-4.3-14.3-11.9-28.2-10c-19.2,2.6-19.7,3.9-27.8,0.6
		C573.6,312.5,597,346,627,328.3z"/>
	<linearGradient id="SVGID_10_" gradientUnits="userSpaceOnUse" x1="562.4568" y1="772.8233" x2="562.4632" y2="772.8233">
		<stop  offset="2.150540e-002" style="stop-color:#BF8D33"/>
		<stop  offset="0.5054" style="stop-color:#F7E679"/>
		<stop  offset="1" style="stop-color:#BF8D33"/>
	</linearGradient>
	<path fill="url(#SVGID_10_)" d="M562.5,772.8C562.5,772.8,562.5,772.8,562.5,772.8C562.5,772.8,562.5,772.8,562.5,772.8z"/>
	<g>
		<linearGradient id="SVGID_11_" gradientUnits="userSpaceOnUse" x1="352.1747" y1="790.0381" x2="377.6687" y2="790.0381">
			<stop  offset="2.150540e-002" style="stop-color:#BF8D33"/>
			<stop  offset="0.5054" style="stop-color:#F7E679"/>
			<stop  offset="1" style="stop-color:#BF8D33"/>
		</linearGradient>
		<path fill="url(#SVGID_11_)" d="M367.6,777.5c1.6,0,3.2,0.2,4.5,0.7c1.3,0.4,2.3,1,2.9,1.6c0.9,1,1.4,2.1,1.4,3.4
			c0,0.5,0.1,0.8,0.4,0.8c0.2,0,0.4-0.3,0.4-0.8c0.1-1.6,0.1-2.9,0.1-4c0-0.5,0.1-1,0.1-1.4c0.1-0.3,0.1-0.6,0.1-0.6
			c0-0.3-0.2-0.4-0.6-0.4c-1.6-0.2-2.8-0.5-3.7-0.6c-1.9-0.2-3.6-0.4-5.3-0.4c-4.9,0-8.8,1.3-11.6,3.9c-2.9,2.6-4.3,5.9-4.3,10
			c0,4.6,1.5,8.2,4.6,10.8c3,2.7,7.2,4,12.6,4c3,0,5.2-0.3,6.6-0.8c0.5-0.2,0.8-0.6,1-1.1c0.2-0.5,0.3-1.4,0.5-2.7
			c0.2-1.1,0.3-1.9,0.3-2.1c0-0.4-0.1-0.6-0.3-0.6c-0.2,0-0.4,0.2-0.5,0.7c-0.2,0.9-0.6,1.7-1.2,2.4c-0.8,0.9-1.8,1.5-3.1,1.8
			c-0.9,0.2-2.1,0.3-3.6,0.3c-2.8,0-5.4-1.1-7.6-3.3c-2.6-2.5-3.9-5.8-3.9-9.8c0-4.3,1.1-7.4,3.4-9.5
			C362.4,778.2,364.7,777.5,367.6,777.5z"/>
		<linearGradient id="SVGID_12_" gradientUnits="userSpaceOnUse" x1="382.0334" y1="790.0935" x2="401.2545" y2="790.0935">
			<stop  offset="2.150540e-002" style="stop-color:#BF8D33"/>
			<stop  offset="0.5054" style="stop-color:#F7E679"/>
			<stop  offset="1" style="stop-color:#BF8D33"/>
		</linearGradient>
		<path fill="url(#SVGID_12_)" d="M401,798.2c-0.2,0-0.4,0.2-0.4,0.6c-0.1,0.9-0.4,1.6-1,2.2c-0.6,0.7-2.1,1-4.3,1
			c-2.3,0-3.8-0.3-4.4-0.8c-0.3-0.3-0.6-1.1-0.7-2.4c-0.1-0.9-0.1-2.7-0.1-5.5v-6.5c0-4.4,0-7,0.1-7.8c0.1-1.2,0.5-1.9,1.4-2.1
			c0.4-0.1,0.9-0.1,1.4-0.1c0.4,0,0.7-0.1,0.7-0.3s-0.3-0.3-0.8-0.3c-0.5,0-1.4,0-2.7,0.1c-1.3,0-2,0.1-2.3,0.1c-0.3,0-1,0-2.2-0.1
			c-1.2,0-2.2-0.1-2.8-0.1c-0.5,0-0.8,0.1-0.8,0.3s0.2,0.3,0.6,0.3c0.9,0,1.6,0.1,2,0.4c0.5,0.3,0.8,0.9,0.8,1.8
			c0,0.8,0.1,3.4,0.1,7.8v6.5c0,4.3-0.1,6.9-0.2,7.8c-0.1,1.2-0.5,1.9-1.1,2c-0.4,0-0.7,0.1-1.1,0.1c-0.5,0-0.8,0.2-0.8,0.3
			c0,0.2,0.2,0.4,0.7,0.4c0.5,0,1.4,0,2.5-0.1c1.2,0,1.9-0.1,2.1-0.1c0.8,0,2.3,0,4.5,0.1c2.2,0.1,4.2,0.1,6.2,0.1
			c0.8,0,1.3,0,1.4-0.1c0.4-0.1,0.7-0.4,0.9-0.9c0.4-1.3,0.6-2.8,0.6-4.2C401.3,798.4,401.2,798.2,401,798.2z"/>
		<linearGradient id="SVGID_13_" gradientUnits="userSpaceOnUse" x1="404.0053" y1="789.9466" x2="422.5299" y2="789.9466">
			<stop  offset="2.150540e-002" style="stop-color:#BF8D33"/>
			<stop  offset="0.5054" style="stop-color:#F7E679"/>
			<stop  offset="1" style="stop-color:#BF8D33"/>
		</linearGradient>
		<path fill="url(#SVGID_13_)" d="M422.2,798.3c-0.2,0-0.3,0.2-0.4,0.6c-0.2,1.4-0.8,2.3-1.7,2.7c-0.6,0.3-1.8,0.4-3.5,0.4
			c-1.8,0-3-0.2-3.6-0.6c-0.5-0.4-0.8-1.2-0.9-2.5v-8.6c0-0.2,0.1-0.4,0.2-0.4c2.8,0,4.5,0,5.2,0.1c1.2,0.1,1.9,0.6,2.1,1.4
			c0.1,0.6,0.1,1,0.1,1.3c0,0.3,0.1,0.4,0.3,0.4c0.2,0,0.3-0.2,0.3-0.7c0-0.2,0-1.1,0.1-2.5c0-0.7,0.1-1.4,0.2-1.9
			c0.1-0.5,0.1-0.7,0.1-0.7c0-0.2-0.1-0.3-0.3-0.3c-0.1,0-0.3,0.2-0.6,0.5c-0.2,0.2-0.4,0.3-0.8,0.4c-0.2,0-0.5,0.1-1,0.1
			c-0.6,0-2.5,0.1-5.9,0.1c-0.2,0-0.3-0.1-0.3-0.4v-9.3c0-0.2,0.1-0.4,0.3-0.4c2.7,0,4.4,0,5.2,0.1c1.3,0.2,2.2,0.6,2.5,1.3
			c0.1,0.2,0.1,0.4,0.1,0.7c0,0.2,0.1,0.5,0.1,0.8c0,0.3,0.1,0.4,0.3,0.4c0.2,0,0.3-0.1,0.4-0.4c0.1-1,0.2-1.8,0.2-2.4
			c0-0.7,0.1-1.2,0.2-1.7c0.1-0.4,0.1-0.6,0.1-0.7c0-0.2-0.1-0.3-0.2-0.3c0,0-0.2,0-0.6,0.1c-0.4,0.1-0.9,0.2-1.6,0.2
			c-0.3,0-3.4,0-9.2,0c-0.3,0-1,0-2.3-0.1c-1.3,0-2.3-0.1-3-0.1c-0.5,0-0.8,0.1-0.8,0.3s0.2,0.3,0.6,0.3c0.6,0,1.1,0,1.4,0.1
			c1,0.2,1.5,0.9,1.6,2.1c0,0.8,0.1,3.4,0.1,7.8v6.5c0,4.3-0.1,6.9-0.2,7.8c-0.1,1.2-0.5,1.9-1.1,2c-0.4,0-0.7,0.1-1.1,0.1
			c-0.5,0-0.8,0.2-0.8,0.3c0,0.2,0.2,0.4,0.7,0.4c0.5,0,1.4,0,2.5-0.1c1.2,0,1.9-0.1,2.1-0.1c0.4,0,1.7,0,3.8,0.1
			c2.1,0.1,4.2,0.1,6.3,0.1c0.8,0,1.2,0,1.5-0.1c0.2-0.1,0.4-0.4,0.5-0.8c0.3-1.2,0.5-2.6,0.5-4.1
			C422.5,798.5,422.4,798.3,422.2,798.3z"/>
		<linearGradient id="SVGID_14_" gradientUnits="userSpaceOnUse" x1="422.5661" y1="789.8548" x2="483.1648" y2="789.8548">
			<stop  offset="2.150540e-002" style="stop-color:#BF8D33"/>
			<stop  offset="0.5054" style="stop-color:#F7E679"/>
			<stop  offset="1" style="stop-color:#BF8D33"/>
		</linearGradient>
		<path fill="url(#SVGID_14_)" d="M482.3,776.2c-0.7,0-1.5,0-2.3,0.1c-0.8,0-1.3,0.1-1.3,0.1c-0.2,0-0.8,0-1.8-0.1
			c-1,0-1.9-0.1-2.6-0.1c-0.6,0-1,0.1-1,0.3s0.2,0.3,0.6,0.3c0.9,0,1.6,0.1,1.9,0.2c0.5,0.2,0.9,0.7,1.1,1.4c0.1,0.3,0.1,1,0.1,1.9
			l0.4,16.5h-0.2c-2.9-3-5.6-5.8-8.1-8.4c-5.6-5.7-9.4-9.6-11.4-11.8c-0.7-0.8-1.2-1.1-1.4-1.1c-0.3,0-0.5,0.4-0.5,1.2l-0.3,21.7
			c0,1.7-0.1,2.8-0.2,3.4c-0.1,0.6-0.5,1-0.9,1.2c-0.4,0-0.8,0.1-1.3,0.1c-0.3,0-0.5,0.1-0.7,0.1c-0.1,0-0.2-0.1-0.3-0.1
			c-0.6,0-1.1,0-1.5-0.1c-1.1-0.2-2.2-1.6-3.2-4c-3.8-9.4-6.8-16.9-9.1-22.6c-0.3-0.8-0.6-1.2-0.9-1.2c-0.3,0-0.6,0.5-1,1.5l-9.2,23
			c-0.4,1.1-0.8,1.8-1.2,2.3c-0.5,0.6-1.1,0.9-1.9,1c-0.4,0-0.7,0.1-1.1,0.1c-0.3,0-0.4,0.1-0.4,0.3c0,0.2,0.2,0.4,0.7,0.4
			c0.8,0,2.2,0,4.3-0.1c0.4,0,1,0,1.9,0.1c0.9,0,1.6,0.1,2,0.1c0.4,0,0.6-0.1,0.6-0.4c0-0.2-0.2-0.3-0.6-0.3H431
			c-1,0-1.5-0.4-1.5-1.1c0-0.5,0.2-1.3,0.6-2.2l2-5.2c0.1-0.2,0.2-0.3,0.3-0.3h8.2c0.2,0,0.3,0.1,0.4,0.3l2.9,7.8
			c0.2,0.4,0.1,0.7-0.3,0.8c-0.3,0-0.5,0.1-0.5,0.3c0,0.2,0.4,0.3,1.1,0.3c1.6,0,3.9,0.1,6.9,0.1c0.6,0,1.1,0,1.3-0.1
			c0,0,0.1,0,0.1,0c0.1,0.1,0.3,0.1,0.6,0.1c0.8,0,1.6,0,2.6-0.1c1,0,1.4-0.1,1.4-0.1c0.1,0,0.6,0,1.7,0.1c1,0,2,0.1,2.9,0.1
			c0.6,0,0.8-0.1,0.8-0.4c0-0.1-0.4-0.3-1.1-0.4c-0.9-0.1-1.4-0.2-1.4-0.2c-0.8-0.3-1.2-1.6-1.3-4.1l-0.4-15.4h0.1
			c1,1.1,2.1,2.3,3.1,3.4c2.1,2.3,3.9,4.2,5.6,5.8c4.9,4.9,8.5,8.5,10.8,10.8c0.6,0.5,1,0.8,1.2,0.8c0.3,0,0.5-0.4,0.5-1.1l0.4-23.1
			c0-0.9,0.1-1.6,0.2-2c0.3-0.8,1-1.2,2.2-1.2c0.4,0,0.7-0.1,0.7-0.3S482.9,776.2,482.3,776.2z M439.9,792.5h-6.7
			c-0.1,0-0.2-0.1-0.1-0.3l3.4-9c0-0.2,0.1-0.3,0.2-0.3c0.1,0,0.1,0.1,0.2,0.3l3.3,9.1C440.1,792.4,440.1,792.5,439.9,792.5z"/>
		<linearGradient id="SVGID_15_" gradientUnits="userSpaceOnUse" x1="488.0792" y1="790.0384" x2="499.9274" y2="790.0384">
			<stop  offset="2.150540e-002" style="stop-color:#BF8D33"/>
			<stop  offset="0.5054" style="stop-color:#F7E679"/>
			<stop  offset="1" style="stop-color:#BF8D33"/>
		</linearGradient>
		<path fill="url(#SVGID_15_)" d="M499.3,803.2c-0.5,0-1.2,0-1.9-0.1c-0.9-0.1-1.4-0.7-1.5-1.8c-0.1-1-0.1-3.7-0.1-8v-6.5
			c0-4.4,0-7,0.1-7.8c0.1-1.2,0.5-1.9,1.3-2.1c0.4-0.1,0.8-0.1,1.1-0.1c0.4,0,0.5-0.1,0.5-0.4c0-0.2-0.3-0.3-0.8-0.3
			c-0.5,0-1.3,0-2.4,0.1c-1.1,0-1.8,0.1-2.1,0.1c-0.3,0-1.1,0-2.3-0.1c-1.2,0-2-0.1-2.5-0.1c-0.6,0-0.9,0.1-0.9,0.3
			c0,0.2,0.2,0.4,0.6,0.4c0.4,0,0.8,0,1.3,0.1c0.8,0.2,1.2,0.9,1.2,2.1c0,0.8,0.1,3.4,0.1,7.8v6.5c0,4.3-0.1,6.9-0.2,8
			c-0.1,1.1-0.5,1.7-1.1,1.8c-0.4,0-0.7,0.1-1.1,0.1c-0.5,0-0.8,0.2-0.8,0.3c0,0.2,0.2,0.4,0.7,0.4c0.5,0,1.4,0,2.5-0.1
			c1.2,0,1.9-0.1,2.1-0.1c0.2,0,1,0,2.3,0.1c1.3,0,2.5,0.1,3.4,0.1c0.5,0,0.7-0.1,0.7-0.4C499.9,803.3,499.7,803.2,499.3,803.2z"/>
		<linearGradient id="SVGID_16_" gradientUnits="userSpaceOnUse" x1="503.6325" y1="789.9466" x2="534.482" y2="789.9466">
			<stop  offset="2.150540e-002" style="stop-color:#BF8D33"/>
			<stop  offset="0.5054" style="stop-color:#F7E679"/>
			<stop  offset="1" style="stop-color:#BF8D33"/>
		</linearGradient>
		<path fill="url(#SVGID_16_)" d="M533.6,776.2c-0.7,0-1.5,0-2.3,0.1c-0.8,0-1.3,0.1-1.3,0.1c-0.2,0-0.8,0-1.8-0.1
			c-1,0-1.9-0.1-2.6-0.1c-0.6,0-1,0.1-1,0.3s0.2,0.3,0.6,0.3c0.9,0,1.6,0.1,1.9,0.2c0.5,0.2,0.9,0.7,1.1,1.4c0.1,0.3,0.1,1,0.1,1.9
			l0.4,16.5h-0.2c-2.9-3-5.6-5.8-8.1-8.4c-5.6-5.7-9.4-9.6-11.4-11.8c-0.7-0.8-1.2-1.1-1.4-1.1c-0.3,0-0.5,0.4-0.5,1.2l-0.3,21.7
			c0,1.7-0.1,2.8-0.2,3.4c-0.1,0.6-0.5,1-0.9,1.2c-0.4,0-0.8,0.1-1.3,0.1c-0.6,0-1,0.2-1,0.3c0,0.2,0.3,0.4,0.8,0.4
			c0.8,0,1.6,0,2.6-0.1c1,0,1.4-0.1,1.4-0.1c0.1,0,0.6,0,1.7,0.1c1,0,2,0.1,2.9,0.1c0.6,0,0.8-0.1,0.8-0.4c0-0.1-0.4-0.3-1.1-0.4
			c-0.9-0.1-1.4-0.2-1.4-0.2c-0.8-0.3-1.2-1.6-1.3-4.1l-0.4-15.4h0.1c1,1.1,2.1,2.3,3.1,3.4c2.1,2.3,3.9,4.2,5.6,5.8
			c4.9,4.9,8.5,8.5,10.8,10.8c0.6,0.5,1,0.8,1.2,0.8c0.3,0,0.5-0.4,0.5-1.1l0.4-23.1c0-0.9,0.1-1.6,0.2-2c0.3-0.8,1-1.2,2.2-1.2
			c0.4,0,0.7-0.1,0.7-0.3S534.2,776.2,533.6,776.2z"/>
		<linearGradient id="SVGID_17_" gradientUnits="userSpaceOnUse" x1="538.6271" y1="790.0381" x2="567.7887" y2="790.0381">
			<stop  offset="2.150540e-002" style="stop-color:#BF8D33"/>
			<stop  offset="0.5054" style="stop-color:#F7E679"/>
			<stop  offset="1" style="stop-color:#BF8D33"/>
		</linearGradient>
		<path fill="url(#SVGID_17_)" d="M567.1,790.1c-0.4,0-1.1,0-2.2,0.1c-1,0-1.7,0.1-2.1,0.1c-0.3,0-1.1,0-2.3-0.1
			c-1.3,0-2.3-0.1-3-0.1c-0.5,0-0.8,0.1-0.8,0.4c0,0.2,0.2,0.3,0.6,0.3c0.6,0,1.1,0,1.4,0.1c1,0.2,1.6,0.9,1.6,2.1
			c0,0.8,0,2.2,0,4.3v3.4c0,0.4-0.1,0.8-0.3,1c-0.3,0.5-1.5,0.8-3.6,0.8c-3.8,0-6.9-1.3-9.2-3.9c-2.3-2.6-3.5-5.9-3.5-9.9
			c0-4.1,1.1-7.1,3.4-9c1.8-1.5,4.2-2.3,7.3-2.3c1.9,0,3.6,0.3,5.2,1c1.3,0.5,2.3,1.2,2.9,1.9c0.7,0.7,1.1,1.7,1.2,3
			c0,0.3,0.2,0.5,0.4,0.5c0.3,0,0.4-0.3,0.4-0.8c0-1.9,0-3.4,0.1-4.6c0.1-0.9,0.1-1.4,0.1-1.5c0-0.2-0.2-0.4-0.5-0.4
			c-0.8,0-1.7-0.2-2.9-0.4c-2-0.4-4.2-0.6-6.5-0.6c-3.9,0-7.2,0.8-9.9,2.4c-1.8,1.1-3.3,2.6-4.4,4.5c-1.3,2.2-1.9,4.7-1.9,7.4
			c0,4.8,1.7,8.4,5.1,11c3,2.3,7,3.4,11.8,3.4c3.8,0,6.8-0.6,8.8-1.7c0.3-0.2,0.5-0.6,0.5-1.3v-4c0-2.2,0-3.6,0-4.4
			c0-1.2,0.5-1.9,1.4-2.1c0.4-0.1,0.8-0.1,1.1-0.1s0.4-0.1,0.4-0.3C567.8,790.3,567.5,790.1,567.1,790.1z"/>
		<linearGradient id="SVGID_18_" gradientUnits="userSpaceOnUse" x1="583.4142" y1="790.0381" x2="598.7479" y2="790.0381">
			<stop  offset="2.150540e-002" style="stop-color:#BF8D33"/>
			<stop  offset="0.5054" style="stop-color:#F7E679"/>
			<stop  offset="1" style="stop-color:#BF8D33"/>
		</linearGradient>
		<path fill="url(#SVGID_18_)" d="M592.7,787.2l-1-0.8c-1.5-1.1-2.5-2.1-3.1-2.8c-0.6-0.8-0.8-1.6-0.8-2.4c0-1.1,0.4-2,1.2-2.7
			c0.8-0.7,1.8-1,3.2-1c1.7,0,3,0.6,4,1.8c0.6,0.8,1,1.6,1,2.4c0,0.4,0.1,0.7,0.4,0.7c0.3,0,0.4-0.4,0.4-1.1c0-1.1,0-2.2,0.1-3.1
			c0-0.9,0.1-1.4,0.1-1.3c0-0.2-0.2-0.3-0.5-0.4c-1.7-0.4-3.3-0.6-4.9-0.6c-2.5,0-4.6,0.6-6.1,1.9c-1.6,1.3-2.3,3-2.3,5
			c0,3,1.8,5.9,5.4,8.7l1.7,1.3c2.4,1.9,3.6,3.8,3.6,5.9c0,1.1-0.4,2-1.2,2.8c-0.9,0.9-2.2,1.4-3.7,1.4c-2.8,0-4.5-1.2-5.2-3.7
			c-0.2-0.7-0.3-1.4-0.3-1.9c0-0.4-0.1-0.6-0.4-0.6c-0.2,0-0.4,0.3-0.4,1c-0.1,1.9-0.2,3.5-0.2,4.8c0,0.6,0.2,1.1,0.7,1.2
			c1.4,0.6,3.2,1,5.4,1c2.3,0,4.3-0.5,5.8-1.5c2.3-1.5,3.4-3.6,3.4-6.4c0-1.8-0.5-3.3-1.4-4.8C596.5,790.4,594.9,788.8,592.7,787.2z
			"/>
		<linearGradient id="SVGID_19_" gradientUnits="userSpaceOnUse" x1="603.7723" y1="789.9466" x2="622.2969" y2="789.9466">
			<stop  offset="2.150540e-002" style="stop-color:#BF8D33"/>
			<stop  offset="0.5054" style="stop-color:#F7E679"/>
			<stop  offset="1" style="stop-color:#BF8D33"/>
		</linearGradient>
		<path fill="url(#SVGID_19_)" d="M622,798.3c-0.2,0-0.3,0.2-0.4,0.6c-0.2,1.4-0.8,2.3-1.7,2.7c-0.6,0.3-1.8,0.4-3.5,0.4
			c-1.8,0-3-0.2-3.6-0.6c-0.5-0.4-0.8-1.2-0.9-2.5v-8.6c0-0.2,0.1-0.4,0.2-0.4c2.8,0,4.5,0,5.2,0.1c1.2,0.1,1.9,0.6,2.1,1.4
			c0.1,0.6,0.1,1,0.1,1.3c0,0.3,0.1,0.4,0.3,0.4c0.2,0,0.3-0.2,0.3-0.7c0-0.2,0-1.1,0.1-2.5c0-0.7,0.1-1.4,0.2-1.9
			c0.1-0.5,0.1-0.7,0.1-0.7c0-0.2-0.1-0.3-0.3-0.3c-0.1,0-0.3,0.2-0.6,0.5c-0.2,0.2-0.4,0.3-0.8,0.4c-0.2,0-0.5,0.1-1,0.1
			c-0.6,0-2.5,0.1-5.9,0.1c-0.2,0-0.3-0.1-0.3-0.4v-9.3c0-0.2,0.1-0.4,0.3-0.4c2.7,0,4.4,0,5.2,0.1c1.3,0.2,2.2,0.6,2.5,1.3
			c0.1,0.2,0.1,0.4,0.1,0.7c0,0.2,0.1,0.5,0.1,0.8c0,0.3,0.1,0.4,0.3,0.4c0.2,0,0.3-0.1,0.4-0.4c0.1-1,0.2-1.8,0.2-2.4
			c0-0.7,0.1-1.2,0.2-1.7c0.1-0.4,0.1-0.6,0.1-0.7c0-0.2-0.1-0.3-0.2-0.3c0,0-0.2,0-0.6,0.1c-0.4,0.1-0.9,0.2-1.6,0.2
			c-0.3,0-3.4,0-9.2,0c-0.3,0-1,0-2.3-0.1c-1.3,0-2.3-0.1-3-0.1c-0.5,0-0.8,0.1-0.8,0.3s0.2,0.3,0.6,0.3c0.6,0,1.1,0,1.4,0.1
			c1,0.2,1.5,0.9,1.6,2.1c0,0.8,0.1,3.4,0.1,7.8v6.5c0,4.3-0.1,6.9-0.2,7.8c-0.1,1.2-0.5,1.9-1.1,2c-0.4,0-0.7,0.1-1.1,0.1
			c-0.5,0-0.8,0.2-0.8,0.3c0,0.2,0.2,0.4,0.7,0.4c0.5,0,1.4,0,2.5-0.1c1.2,0,1.9-0.1,2.1-0.1c0.4,0,1.7,0,3.8,0.1
			c2.1,0.1,4.2,0.1,6.3,0.1c0.8,0,1.2,0,1.5-0.1c0.2-0.1,0.4-0.4,0.5-0.8c0.3-1.2,0.5-2.6,0.5-4.1
			C622.3,798.5,622.2,798.3,622,798.3z"/>
		<linearGradient id="SVGID_20_" gradientUnits="userSpaceOnUse" x1="626.9549" y1="790.0384" x2="655.8968" y2="790.0384">
			<stop  offset="2.150540e-002" style="stop-color:#BF8D33"/>
			<stop  offset="0.5054" style="stop-color:#F7E679"/>
			<stop  offset="1" style="stop-color:#BF8D33"/>
		</linearGradient>
		<path fill="url(#SVGID_20_)" d="M655.3,803.2c-0.3,0-0.6,0-0.8-0.1c-1.4-0.3-2.8-1.1-4.1-2.5c-1-1-2.1-2.4-3.6-4.1
			c-0.3-0.3-1.7-2.1-4.4-5.5c3.2-2.6,4.8-5.4,4.8-8.2c0-1.1-0.3-2.2-0.9-3.2c-0.5-0.8-1-1.5-1.6-1.9c-1.5-1.1-3.8-1.6-6.7-1.6
			c-0.4,0-1.2,0-2.5,0.1c-1.3,0-2.2,0.1-2.6,0.1c-0.1,0-0.8,0-2.1-0.1c-1.2,0-2.2-0.1-3-0.1c-0.5,0-0.8,0.1-0.8,0.3s0.2,0.3,0.6,0.3
			c0.6,0,1.1,0,1.4,0.1c1,0.2,1.5,0.9,1.6,2.1c0,0.8,0.1,3.4,0.1,7.8v6.5c0,4.3-0.1,6.9-0.2,7.8c-0.1,1.2-0.5,1.9-1.1,2
			c-0.4,0-0.7,0.1-1.1,0.1c-0.5,0-0.8,0.2-0.8,0.3c0,0.2,0.2,0.4,0.7,0.4c0.6,0,1.4,0,2.5-0.1c1.1,0,1.8-0.1,1.9-0.1
			c0,0,0.8,0,2.1,0.1c1.4,0,2.5,0.1,3.3,0.1c0.5,0,0.7-0.1,0.7-0.4c0-0.2-0.1-0.3-0.4-0.3c-0.5,0-1.1,0-1.8-0.1
			c-0.8-0.1-1.3-0.8-1.4-2c-0.1-1.1-0.2-3.7-0.2-7.8v-0.5c0-0.2,0.1-0.3,0.3-0.3h3.2c0.3,0,0.5,0.1,0.7,0.3c1.4,1.9,2.6,3.6,3.6,5.1
			c2.2,3,3.8,4.8,5,5.4c0.9,0.5,2.2,0.7,3.9,0.7h3.5c0.5,0,0.7-0.1,0.7-0.4C655.9,803.4,655.7,803.3,655.3,803.2z M640.7,790.1
			c-0.6,0.4-1.4,0.6-2.6,0.6c-1.2,0-2.1-0.1-2.8-0.4c-0.2-0.1-0.3-0.3-0.3-0.7v-11.2c0-0.2,0.1-0.4,0.2-0.4c0.2-0.1,0.9-0.2,2.1-0.2
			c1.4,0,2.6,0.5,3.6,1.4c1.3,1.2,2,3,2,5.3C642.9,787.2,642.2,789.1,640.7,790.1z"/>
		<linearGradient id="SVGID_21_" gradientUnits="userSpaceOnUse" x1="650.3209" y1="790.2951" x2="680.9875" y2="790.2951">
			<stop  offset="2.150540e-002" style="stop-color:#BF8D33"/>
			<stop  offset="0.5054" style="stop-color:#F7E679"/>
			<stop  offset="1" style="stop-color:#BF8D33"/>
		</linearGradient>
		<path fill="url(#SVGID_21_)" d="M680.2,776.2c-0.4,0-1.1,0-1.9,0.1c-0.9,0-1.4,0.1-1.5,0.1c0,0-0.5,0-1.4-0.1
			c-0.9,0-1.7-0.1-2.4-0.1c-0.7,0-1,0.1-1,0.4c0,0.2,0.2,0.3,0.6,0.3c0.6,0,1.1,0.1,1.4,0.2c0.3,0.1,0.5,0.3,0.5,0.7
			c0,0.3-0.1,0.7-0.3,1.4c-2.7,6.9-5.1,13-7.2,18.3h-0.1l-6.3-16.7c-0.6-1.5-0.8-2.4-0.8-2.8c0-0.3,0.1-0.6,0.4-0.8
			c0.2-0.2,0.7-0.3,1.4-0.3c0.4,0,0.6-0.1,0.6-0.3s-0.3-0.3-0.8-0.3c-0.7,0-1.6,0-2.6,0.1c-1.1,0-1.7,0.1-1.9,0.1
			c-0.4,0-1.2,0-2.4-0.1c-1.2,0-2.2-0.1-2.9-0.1c-0.6,0-1,0.1-1,0.3s0.1,0.3,0.4,0.3c0.6,0,1.1,0,1.4,0.1c0.7,0.2,1.2,0.5,1.6,0.8
			c0.4,0.4,0.8,1.1,1.2,2l9.2,22.4c0.4,1,0.6,1.5,0.8,1.8c0.2,0.3,0.4,0.5,0.6,0.5c0.2,0,0.5-0.2,0.7-0.6c0.1-0.2,0.5-1,1-2.2
			l4.9-11.2c2.1-4.8,3.6-8.1,4.4-9.9c0.8-1.8,1.5-2.9,2.1-3.3c0.4-0.3,1-0.4,1.8-0.4c0.4,0,0.6-0.1,0.6-0.3S680.7,776.2,680.2,776.2
			z"/>
		<linearGradient id="SVGID_22_" gradientUnits="userSpaceOnUse" x1="681.6839" y1="790.0384" x2="693.5322" y2="790.0384">
			<stop  offset="2.150540e-002" style="stop-color:#BF8D33"/>
			<stop  offset="0.5054" style="stop-color:#F7E679"/>
			<stop  offset="1" style="stop-color:#BF8D33"/>
		</linearGradient>
		<path fill="url(#SVGID_22_)" d="M693,803.2c-0.5,0-1.2,0-1.9-0.1c-0.9-0.1-1.4-0.7-1.5-1.8c-0.1-1-0.1-3.7-0.1-8v-6.5
			c0-4.4,0-7,0.1-7.8c0.1-1.2,0.5-1.9,1.3-2.1c0.4-0.1,0.8-0.1,1.1-0.1c0.4,0,0.5-0.1,0.5-0.4c0-0.2-0.3-0.3-0.8-0.3
			c-0.5,0-1.3,0-2.4,0.1c-1.1,0-1.8,0.1-2.1,0.1c-0.3,0-1.1,0-2.3-0.1c-1.2,0-2-0.1-2.5-0.1c-0.6,0-0.9,0.1-0.9,0.3
			c0,0.2,0.2,0.4,0.6,0.4c0.4,0,0.8,0,1.3,0.1c0.8,0.2,1.2,0.9,1.2,2.1c0,0.8,0.1,3.4,0.1,7.8v6.5c0,4.3-0.1,6.9-0.2,8
			c-0.1,1.1-0.5,1.7-1.1,1.8c-0.4,0-0.7,0.1-1.1,0.1c-0.5,0-0.8,0.2-0.8,0.3c0,0.2,0.2,0.4,0.7,0.4c0.5,0,1.4,0,2.5-0.1
			c1.2,0,1.9-0.1,2.1-0.1c0.2,0,1,0,2.3,0.1c1.3,0,2.5,0.1,3.4,0.1c0.5,0,0.7-0.1,0.7-0.4C693.5,803.3,693.3,803.2,693,803.2z"/>
		<linearGradient id="SVGID_23_" gradientUnits="userSpaceOnUse" x1="697.4943" y1="790.0381" x2="722.9883" y2="790.0381">
			<stop  offset="2.150540e-002" style="stop-color:#BF8D33"/>
			<stop  offset="0.5054" style="stop-color:#F7E679"/>
			<stop  offset="1" style="stop-color:#BF8D33"/>
		</linearGradient>
		<path fill="url(#SVGID_23_)" d="M712.9,777.5c1.6,0,3.2,0.2,4.5,0.7c1.3,0.4,2.3,1,2.9,1.6c0.9,1,1.4,2.1,1.4,3.4
			c0,0.5,0.1,0.8,0.4,0.8c0.2,0,0.4-0.3,0.4-0.8c0.1-1.6,0.1-2.9,0.1-4c0-0.5,0.1-1,0.1-1.4c0.1-0.3,0.1-0.6,0.1-0.6
			c0-0.3-0.2-0.4-0.6-0.4c-1.6-0.2-2.8-0.5-3.7-0.6c-1.9-0.2-3.6-0.4-5.3-0.4c-4.9,0-8.8,1.3-11.6,3.9c-2.9,2.6-4.3,5.9-4.3,10
			c0,4.6,1.5,8.2,4.6,10.8c3,2.7,7.2,4,12.6,4c3,0,5.2-0.3,6.6-0.8c0.5-0.2,0.8-0.6,1-1.1c0.2-0.5,0.3-1.4,0.5-2.7
			c0.2-1.1,0.3-1.9,0.3-2.1c0-0.4-0.1-0.6-0.3-0.6c-0.2,0-0.4,0.2-0.5,0.7c-0.2,0.9-0.6,1.7-1.2,2.4c-0.8,0.9-1.8,1.5-3.1,1.8
			c-0.9,0.2-2.1,0.3-3.6,0.3c-2.8,0-5.4-1.1-7.6-3.3c-2.6-2.5-3.9-5.8-3.9-9.8c0-4.3,1.1-7.4,3.4-9.5
			C707.7,778.2,710,777.5,712.9,777.5z"/>
		<linearGradient id="SVGID_24_" gradientUnits="userSpaceOnUse" x1="727.1321" y1="789.9466" x2="745.6566" y2="789.9466">
			<stop  offset="2.150540e-002" style="stop-color:#BF8D33"/>
			<stop  offset="0.5054" style="stop-color:#F7E679"/>
			<stop  offset="1" style="stop-color:#BF8D33"/>
		</linearGradient>
		<path fill="url(#SVGID_24_)" d="M745.4,798.3c-0.2,0-0.3,0.2-0.4,0.6c-0.2,1.4-0.8,2.3-1.7,2.7c-0.6,0.3-1.8,0.4-3.5,0.4
			c-1.8,0-3-0.2-3.6-0.6c-0.5-0.4-0.8-1.2-0.9-2.5v-8.6c0-0.2,0.1-0.4,0.2-0.4c2.8,0,4.5,0,5.2,0.1c1.2,0.1,1.9,0.6,2.1,1.4
			c0.1,0.6,0.1,1,0.1,1.3c0,0.3,0.1,0.4,0.3,0.4c0.2,0,0.3-0.2,0.3-0.7c0-0.2,0-1.1,0.1-2.5c0-0.7,0.1-1.4,0.2-1.9
			c0.1-0.5,0.1-0.7,0.1-0.7c0-0.2-0.1-0.3-0.3-0.3c-0.1,0-0.3,0.2-0.6,0.5c-0.2,0.2-0.4,0.3-0.8,0.4c-0.2,0-0.5,0.1-1,0.1
			c-0.6,0-2.5,0.1-5.9,0.1c-0.2,0-0.3-0.1-0.3-0.4v-9.3c0-0.2,0.1-0.4,0.3-0.4c2.7,0,4.4,0,5.2,0.1c1.3,0.2,2.2,0.6,2.5,1.3
			c0.1,0.2,0.1,0.4,0.1,0.7c0,0.2,0.1,0.5,0.1,0.8c0,0.3,0.1,0.4,0.3,0.4c0.2,0,0.3-0.1,0.4-0.4c0.1-1,0.2-1.8,0.2-2.4
			c0-0.7,0.1-1.2,0.2-1.7c0.1-0.4,0.1-0.6,0.1-0.7c0-0.2-0.1-0.3-0.2-0.3c0,0-0.2,0-0.6,0.1c-0.4,0.1-0.9,0.2-1.6,0.2
			c-0.3,0-3.4,0-9.2,0c-0.3,0-1,0-2.3-0.1c-1.3,0-2.3-0.1-3-0.1c-0.5,0-0.8,0.1-0.8,0.3s0.2,0.3,0.6,0.3c0.6,0,1.1,0,1.4,0.1
			c1,0.2,1.5,0.9,1.6,2.1c0,0.8,0.1,3.4,0.1,7.8v6.5c0,4.3-0.1,6.9-0.2,7.8c-0.1,1.2-0.5,1.9-1.1,2c-0.4,0-0.7,0.1-1.1,0.1
			c-0.5,0-0.8,0.2-0.8,0.3c0,0.2,0.2,0.4,0.7,0.4c0.5,0,1.4,0,2.5-0.1c1.2,0,1.9-0.1,2.1-0.1c0.4,0,1.7,0,3.8,0.1
			c2.1,0.1,4.2,0.1,6.3,0.1c0.8,0,1.2,0,1.5-0.1c0.2-0.1,0.4-0.4,0.5-0.8c0.3-1.2,0.5-2.6,0.5-4.1
			C745.7,798.5,745.6,798.3,745.4,798.3z"/>
		<linearGradient id="SVGID_25_" gradientUnits="userSpaceOnUse" x1="751.3054" y1="790.0381" x2="766.6384" y2="790.0381">
			<stop  offset="2.150540e-002" style="stop-color:#BF8D33"/>
			<stop  offset="0.5054" style="stop-color:#F7E679"/>
			<stop  offset="1" style="stop-color:#BF8D33"/>
		</linearGradient>
		<path fill="url(#SVGID_25_)" d="M765.3,791.8c-0.9-1.4-2.5-2.9-4.7-4.6l-1-0.8c-1.5-1.1-2.5-2.1-3.1-2.8c-0.6-0.8-0.8-1.6-0.8-2.4
			c0-1.1,0.4-2,1.2-2.7c0.8-0.7,1.8-1,3.2-1c1.7,0,3,0.6,4,1.8c0.6,0.8,1,1.6,1,2.4c0,0.4,0.1,0.7,0.4,0.7c0.3,0,0.4-0.4,0.4-1.1
			c0-1.1,0-2.2,0.1-3.1c0-0.9,0.1-1.4,0.1-1.3c0-0.2-0.2-0.3-0.5-0.4c-1.7-0.4-3.3-0.6-4.9-0.6c-2.5,0-4.6,0.6-6.1,1.9
			c-1.6,1.3-2.3,3-2.3,5c0,3,1.8,5.9,5.4,8.7l1.7,1.3c2.4,1.9,3.6,3.8,3.6,5.9c0,1.1-0.4,2-1.2,2.8c-0.9,0.9-2.2,1.4-3.7,1.4
			c-2.8,0-4.5-1.2-5.2-3.7c-0.2-0.7-0.3-1.4-0.3-1.9c0-0.4-0.1-0.6-0.4-0.6c-0.2,0-0.4,0.3-0.4,1c-0.1,1.9-0.2,3.5-0.2,4.8
			c0,0.6,0.2,1.1,0.7,1.2c1.4,0.6,3.2,1,5.4,1c2.3,0,4.3-0.5,5.8-1.5c2.3-1.5,3.4-3.6,3.4-6.4C766.6,794.8,766.2,793.2,765.3,791.8z
			"/>
	</g>
	<linearGradient id="SVGID_26_" gradientUnits="userSpaceOnUse" x1="797.9252" y1="682.4985" x2="815.3722" y2="682.4985">
		<stop  offset="2.150540e-002" style="stop-color:#BF8D33"/>
		<stop  offset="0.5054" style="stop-color:#F7E679"/>
		<stop  offset="1" style="stop-color:#BF8D33"/>
	</linearGradient>
	<path fill="url(#SVGID_26_)" d="M800.5,687.7l-0.2,0.1c-2,1.5-3.2,4.9-1.7,7.1l0.3,0.4c0.8,0.8,1.8,1.2,3,1.2
		c5.4,0,12.6-10.2,13.4-17.1c0.4-3.4-0.4-6.6-2.2-8.7c-1.3-1.5-3.1-2.3-5-2.3c-1.6,0-3.2,0.6-4.9,1.9l-0.2,0.2
		c-2.6,2.3-3.5,6.1-2.3,9.4c0.6,1.8,1.8,3.2,3.3,3.9C802.6,685.4,801.1,687.3,800.5,687.7z"/>
	<linearGradient id="SVGID_27_" gradientUnits="userSpaceOnUse" x1="854.778" y1="707.4307" x2="931.3329" y2="707.4307">
		<stop  offset="2.150540e-002" style="stop-color:#BF8D33"/>
		<stop  offset="0.5054" style="stop-color:#F7E679"/>
		<stop  offset="1" style="stop-color:#BF8D33"/>
	</linearGradient>
	<path fill="url(#SVGID_27_)" d="M878.7,677.7l-0.3,0.1c-1.7,0.9-2.8,2.4-2.8,4c-0.1,1.5,0.7,2.9,2.1,3.7l0.2,0.1
		c0.8,0.4,1.7,0.6,2.7,0.6c3.1,0,7-2.1,10.4-5.7c1.7-1.7,5.5-6.3,5.5-11.3c-0.1-6.4-4.9-10.3-12.5-10.3c-9.5,0-22.3,6.2-27.3,16.7
		c-5.8,13,2.4,20.1,19.5,28.7c6.9,3.5,12.1,6.6,14.8,8.5c-18.1,5.2-31.5,17-32,28.2c-0.2,3.6,1,10.1,10.5,13.6
		c2.3,0.8,5,1.2,7.9,1.2c9.2,0,19.2-4,25.5-10.3c7.6-7.6,9.1-17,4.5-27.5c4.7-1.3,12.8-4.4,14.6-5.3l0.2-0.1
		c5.3-3.2,10.2-9,9.2-13.2c-0.5-1.9-2.1-3.2-4.3-3.3c-0.5-0.1-0.9-0.1-1.3-0.1c-2.4,0-3.3,1.6-4.1,3l-0.3,0.6
		c-1.6,3.4-7.3,6.5-17.3,9.4l-0.1,0c-1,0.3-1.9,0.7-2.4,0.8c-0.3-0.2-0.9-0.9-1.4-1.5l-0.2-0.2c-4.2-3.8-9.4-7.1-19.5-12
		c-10.1-5.2-15-9.4-15.6-13.2c-0.4-2.6,1.4-5.8,5.4-9.5c4.3-3.9,8.9-5.3,11.9-5.3c1.8,0,3.1,0.5,3.5,1.2c0.3,0.7,0,2.3-1.8,4.6
		C881.8,676.5,881.3,676.7,878.7,677.7z M899.4,731.9c-2.1,6.5-8.7,11.9-17.2,14c-2.1,0.5-4,0.8-5.7,0.8c-2.3,0-6.3-0.5-7.1-4.1
		c-1-4.5,3.2-11.8,13.1-16.6c6.7-3.4,12.8-5.2,15.1-5.2C900.8,724.9,900.4,729.1,899.4,731.9z"/>
	<linearGradient id="SVGID_28_" gradientUnits="userSpaceOnUse" x1="448.0178" y1="885.9517" x2="461.2044" y2="885.9517">
		<stop  offset="2.150540e-002" style="stop-color:#BF8D33"/>
		<stop  offset="0.5054" style="stop-color:#F7E679"/>
		<stop  offset="1" style="stop-color:#BF8D33"/>
	</linearGradient>
	<path fill="url(#SVGID_28_)" d="M460.5,882c-0.2-11.8-0.4-24.5-0.5-35.9l0-2.5H448l0,2.5c0.6,44.3,1.3,67.7,2.2,73.5
		c0.7,4.8,3.6,8.6,6.7,8.6c1.1,0,2.1-0.4,2.8-1.3c1.1-1.3,1.6-3.3,1.4-5.9C461,919.6,460.8,901.3,460.5,882z"/>
	<linearGradient id="SVGID_29_" gradientUnits="userSpaceOnUse" x1="492.0062" y1="706.0364" x2="830.2048" y2="706.0364">
		<stop  offset="2.150540e-002" style="stop-color:#BF8D33"/>
		<stop  offset="0.5054" style="stop-color:#F7E679"/>
		<stop  offset="1" style="stop-color:#BF8D33"/>
	</linearGradient>
	<path fill="url(#SVGID_29_)" d="M829.6,694.6c-0.7-1.1-1.9-1.8-3.3-1.8c-2,0-3.9,1.3-5.3,3.7c-2.6,3.9-7.4,9.6-12,14.2
		c-5.1,4.6-17.4,14.2-22.6,17.9c-0.2-0.7-0.4-1.5-0.7-2.3c-3.2-13.1-9.9-28.8-17-40.2l-0.2-0.3c-2.8-4.4-4.6-7.1-7.6-7.1
		c-4.2,0-6.9,5.3-13.3,18.1c-3.3,6.7-13.3,27.1-16.9,27.4c-0.2-0.2-1.4-1.2-2.8-5.9c-3.4-10.5-0.2-50.6,5-61.4l0.1-0.2
		c1-2.7,0.4-4.4-0.2-5.3c-0.8-1.1-2-1.7-3.5-1.7c-4.4,0-5.7,5.1-7.5,14.1c-2.4,11.3-3.9,21.7-4.5,30.9c-0.6,0.9-1.3,2.2-2.3,4
		c-14,26.8-28.7,42.1-40.1,42.1c-11.6,0-20.1-15.6-23.8-42.5c0.2,0,0.4,0,0.7,0c8.1,0,18.1-19,25.1-34.9
		c9.3-21.4,17.7-47.8,22.3-70.7c6.1-30.5,4.9-55.6-3.3-65.6c-2.6-3.2-5.9-4.8-9.6-4.8c-1.9,0-4.1,0.5-6.7,1.7
		c-14.1,6.7-23.9,35.1-28.4,51.4c-7.6,27.2-11.9,60-11.9,90.1c0,10.4,0.5,20.3,1.5,29.2c-0.6,0.9-1.3,2.2-2.3,4.1
		c-14,26.8-28.7,42.1-40.1,42.1c-11.6,0-20.1-15.6-23.8-42.5c0.2,0,0.4,0,0.7,0c8.1,0,18.1-19,25.1-34.9
		c9.3-21.4,17.7-47.8,22.3-70.7c6.1-30.5,4.9-55.6-3.3-65.6c-2.6-3.2-5.9-4.8-9.6-4.8c-1.9,0-4.1,0.5-6.7,1.7
		c-14.1,6.7-23.9,35.1-28.4,51.4c-7.6,27.2-11.9,60-11.9,90.1c0,10.7,0.5,20.7,1.6,29.8c-5.8,5.4-16.7,9.8-27,10.9
		c-0.7,0.1-1.3,0.1-1.8,0.2c-0.1,0-0.3,0-0.4,0c0.1-0.4,0.2-0.9,0.3-1.5c2.5-14.3-0.7-29.4-8.4-38.5c-4.5-5.4-10.1-8.1-16-7.6
		c-5.2,0.4-9.9,3.2-13.3,7.8c-4.5,6.1-6,14.6-4.2,22.5c0.3,1.3,0.2,3.2-0.3,6.2c-3,18.9,2.8,37,13.5,41.1c1.4,0.5,2.9,0.8,4.4,0.8
		c8.3,0,16.2-7.7,20.5-20c0.2-0.4,0.4-0.9,0.5-1.2c0.5-0.2,2.2-0.2,4.1-0.3c9.8-0.5,22.1-5,29.5-9.6c6.5,37.2,21.9,45.2,33.8,45.2
		c12.4,0,24.3-10.4,41-35.8c1.1-1.6,2-3.1,2.9-4.4c5.6,26.7,16.7,40.2,32.9,40.2c12.4,0,24.3-10.4,41-35.8c0.2-0.3,0.4-0.6,0.6-0.9
		c1.8,13.1,6.8,17.3,11,18.3c1.1,0.3,2.1,0.5,3.1,0.5c6.9,0,11.7-7.1,23.2-30c2.6-5.4,4.8-9.7,6.2-12.3c3.9,6.9,12.5,27.1,15.4,38.1
		l0.4,1.3c0.5,1.8,0.9,3.2,0.6,3.6c-0.5,0.8-2.7,2.2-5.7,4.1l-1.5,1c-10.9,7-20.2,13.4-28.6,19.5l-6.2,4.5h15.9l0.7-0.5
		c6-4.3,12.7-8.8,19.8-13.4l2.6-1.7c2.2-1.5,4.2-2.8,5.5-3.5c0,0.4,0.1,0.9,0.1,1.3l0.1,1c3.6,27.3-2,57.4-15.3,82.6
		c-13.2,25-32.8,43.1-53.9,49.6c-4,1.2-7.7,1.9-11.1,1.9c-6.5,0-11.3-2.3-14.4-6.9c-4.5-6.6-4.7-17.7-1-30.4h-9.8
		c-3.3,13.3-2.8,25.3,1.8,33.8c3.5,6.5,9.3,10.8,16.6,12.4c2.1,0.4,4.3,0.7,6.6,0.7c0,0,0,0,0,0c22.6,0,52.1-20.7,68.6-48.1
		c18.3-30.6,26.8-74.8,19.9-103.2c0.8-0.7,2.7-2.1,4.8-3.6c18.1-12.7,31.6-25.5,36.1-34.2C830.8,697.5,830.1,695.5,829.6,694.6z
		 M521,717.4c-2.4,5.1-5.5,8.5-7.4,9.6c-0.8,0.4-1.6,0.6-2.3,0.6c-4.9,0-10.1-8.7-10.1-22.7c0-0.1,0-0.3,0-0.5
		c5,5,11.8,8.4,20.9,10.3l0.2,0L521,717.4z M525.3,704.9c-0.1,0.2-0.2,0.6-0.3,0.9c-0.7-0.1-1.7-0.3-2.7-0.5
		c-8.2-1.9-15.6-6.9-18.1-12.1c-0.9-2-1-3.7-0.3-5.1c1.3-2.3,1.5-4.5,0.5-6.1c-0.6-1-1.6-1.7-2.8-1.8c0.4-2.3,1.7-6.2,3.3-8.5
		c2-2.9,4.2-4.4,6.5-4.4c2.4,0,5.1,1.7,7.5,4.7C524.1,678.2,528.2,691.3,525.3,704.9z M573.1,688.4c-0.2-2.5-0.4-5.1-0.5-7.7
		c-2.5-42.1,7.2-101.4,21.2-129.5c8.7-17.4,13.8-18.8,15.2-18.8c0.3,0,1.3,0,2.5,1.6c6.4,8.5,6.1,41.2-5.4,81.5
		c-10.2,35.6-26.5,70-31.5,73c-0.3-0.1-0.7-0.1-1-0.1C573.4,688.4,573.3,688.4,573.1,688.4z M649.9,688.4c-0.2-2.5-0.4-5.1-0.5-7.7
		c-2.5-42.1,7.2-101.4,21.2-129.5c8.7-17.4,13.8-18.8,15.2-18.8c0.3,0,1.3,0,2.5,1.6c6.4,8.5,6.1,41.2-5.4,81.5
		c-10.2,35.6-26.5,70-31.5,73c-0.3-0.1-0.7-0.1-1-0.1C650.2,688.4,650.1,688.4,649.9,688.4z"/>
	<g>
		<linearGradient id="SVGID_30_" gradientUnits="userSpaceOnUse" x1="228.6043" y1="823.3965" x2="238.4675" y2="823.3965">
			<stop  offset="2.150540e-002" style="stop-color:#BF8D33"/>
			<stop  offset="0.5054" style="stop-color:#F7E679"/>
			<stop  offset="1" style="stop-color:#BF8D33"/>
		</linearGradient>
		<path fill="url(#SVGID_30_)" d="M234.2,816.6c-0.3,0-0.7,0-1.3,0c-0.6,0-1,0-1.3,0c-0.1,0-0.5,0-1.1,0c-0.6,0-1.1,0-1.5,0
			c-0.3,0-0.4,0.1-0.4,0.2c0,0.1,0.1,0.2,0.3,0.2c0.3,0,0.5,0,0.7,0.1c0.5,0.1,0.7,0.5,0.8,1c0,0.4,0,1.7,0,3.8v3.2
			c0,2.1,0,3.4-0.1,3.8c-0.1,0.6-0.2,0.9-0.5,1c-0.2,0-0.4,0-0.5,0.1c-0.3,0-0.4,0.1-0.4,0.2c0,0.1,0.1,0.2,0.4,0.2
			c0.3,0,0.7,0,1.3,0c0.6,0,0.9,0,1,0c0.1,0,0.5,0,1.1,0c0.7,0,1.2,0,1.7,0c0.2,0,0.3-0.1,0.3-0.2c0-0.1-0.1-0.1-0.3-0.1
			c-0.3,0-0.6,0-0.9-0.1c-0.4-0.1-0.6-0.4-0.7-1c-0.1-0.5-0.1-1.8-0.1-3.9v-7.2c0-0.2,0.1-0.3,0.2-0.4c0.1,0,0.3-0.1,0.7-0.1
			c0.7,0,1.3,0.2,1.8,0.7c0.7,0.6,1.1,1.5,1.1,2.7c0,0.9-0.3,1.6-0.8,2.2c-0.5,0.5-1,0.8-1.6,0.8c-0.3,0-0.5,0.1-0.5,0.2
			c0,0.1,0.1,0.1,0.2,0.2c0.1,0,0.2,0,0.4,0c1.3,0,2.3-0.4,3.2-1.2c0.8-0.8,1.3-1.9,1.3-3.1c0-0.9-0.3-1.6-0.9-2.1
			C236.8,816.9,235.7,816.6,234.2,816.6z"/>
		<linearGradient id="SVGID_31_" gradientUnits="userSpaceOnUse" x1="240.2703" y1="823.3965" x2="255.0017" y2="823.3965">
			<stop  offset="2.150540e-002" style="stop-color:#BF8D33"/>
			<stop  offset="0.5054" style="stop-color:#F7E679"/>
			<stop  offset="1" style="stop-color:#BF8D33"/>
		</linearGradient>
		<path fill="url(#SVGID_31_)" d="M247.7,816.3c-2.5,0-4.4,0.8-5.8,2.4c-1.1,1.3-1.7,2.9-1.7,4.7c0,1.8,0.6,3.4,1.7,4.7
			c1.3,1.6,3.2,2.3,5.6,2.3c2.2,0,4.1-0.7,5.4-2.1c1.3-1.4,2-3.1,2-5.2c0-2.1-0.7-3.7-2-4.9C251.7,816.9,250,816.3,247.7,816.3z
			 M250.9,828.6c-0.7,0.6-1.6,1-2.6,1c-1.7,0-3-0.7-4.1-2c-1-1.2-1.5-2.8-1.5-4.8c0-2,0.5-3.5,1.4-4.5c0.8-0.8,1.8-1.1,3-1.1
			c1.5,0,2.8,0.6,3.8,1.7c1,1.2,1.5,2.8,1.5,4.8C252.5,826,251.9,827.6,250.9,828.6z"/>
		<linearGradient id="SVGID_32_" gradientUnits="userSpaceOnUse" x1="257.6155" y1="823.3965" x2="265.1529" y2="823.3965">
			<stop  offset="2.150540e-002" style="stop-color:#BF8D33"/>
			<stop  offset="0.5054" style="stop-color:#F7E679"/>
			<stop  offset="1" style="stop-color:#BF8D33"/>
		</linearGradient>
		<path fill="url(#SVGID_32_)" d="M262.2,822l-0.5-0.4c-0.7-0.6-1.2-1-1.5-1.4c-0.3-0.4-0.4-0.8-0.4-1.2c0-0.6,0.2-1,0.6-1.3
			c0.4-0.3,0.9-0.5,1.6-0.5c0.8,0,1.5,0.3,2,0.9c0.3,0.4,0.5,0.8,0.5,1.2c0,0.2,0.1,0.3,0.2,0.3c0.1,0,0.2-0.2,0.2-0.5
			c0-0.6,0-1.1,0-1.5c0-0.5,0-0.7,0-0.6c0-0.1-0.1-0.2-0.3-0.2c-0.8-0.2-1.6-0.3-2.4-0.3c-1.2,0-2.2,0.3-3,1
			c-0.8,0.6-1.2,1.5-1.2,2.5c0,1.5,0.9,2.9,2.7,4.3l0.8,0.6c1.2,0.9,1.8,1.9,1.8,2.9c0,0.5-0.2,1-0.6,1.4c-0.5,0.4-1.1,0.7-1.8,0.7
			c-1.4,0-2.2-0.6-2.6-1.8c-0.1-0.4-0.2-0.7-0.2-0.9c0-0.2-0.1-0.3-0.2-0.3c-0.1,0-0.2,0.2-0.2,0.5c-0.1,0.9-0.1,1.7-0.1,2.4
			c0,0.3,0.1,0.5,0.3,0.6c0.7,0.3,1.6,0.5,2.6,0.5c1.2,0,2.1-0.2,2.9-0.7c1.1-0.7,1.7-1.8,1.7-3.1c0-0.9-0.2-1.6-0.7-2.3
			C264,823.6,263.3,822.8,262.2,822z"/>
		<linearGradient id="SVGID_33_" gradientUnits="userSpaceOnUse" x1="266.7573" y1="823.2701" x2="278.9464" y2="823.2701">
			<stop  offset="2.150540e-002" style="stop-color:#BF8D33"/>
			<stop  offset="0.5054" style="stop-color:#F7E679"/>
			<stop  offset="1" style="stop-color:#BF8D33"/>
		</linearGradient>
		<path fill="url(#SVGID_33_)" d="M278.8,816.5c-0.2,0-0.5,0-0.8,0.1c-0.4,0.1-0.7,0.1-0.9,0.1h-7.1c-0.6,0-1.2,0-1.8-0.1
			c-0.2,0-0.3-0.1-0.5-0.1c-0.2-0.1-0.3-0.1-0.3-0.1c-0.1,0-0.2,0.1-0.2,0.3c-0.3,1.1-0.4,1.7-0.4,2.1c0,0.2,0.1,0.3,0.2,0.3
			c0.1,0,0.2-0.1,0.2-0.2c0-0.2,0.2-0.4,0.3-0.6c0.2-0.3,0.8-0.5,1.7-0.5l2.7-0.1v7.4c0,2,0,3.3-0.1,3.8c-0.1,0.6-0.2,0.9-0.5,1
			c-0.2,0-0.4,0-0.5,0.1c-0.3,0-0.4,0.1-0.4,0.2c0,0.1,0.1,0.2,0.4,0.2c0.3,0,0.7,0,1.3,0c0.6,0,0.9,0,1,0s0.5,0,1.2,0
			c0.7,0,1.2,0,1.7,0c0.2,0,0.3-0.1,0.3-0.2c0-0.1-0.1-0.1-0.3-0.1c-0.3,0-0.6,0-0.9-0.1c-0.4-0.1-0.6-0.4-0.7-1
			c-0.1-0.5-0.1-1.8-0.1-3.9v-7.4l2.3,0.1c1.4,0,2.1,0.4,2.1,1l0,0.2c0,0.2,0.1,0.4,0.2,0.4c0.1,0,0.1-0.1,0.1-0.3
			c0-0.2,0-0.5,0-1.1c0-0.5,0-0.9,0-1C278.9,816.6,278.9,816.5,278.8,816.5z"/>
		<linearGradient id="SVGID_34_" gradientUnits="userSpaceOnUse" x1="279.9196" y1="823.2162" x2="286.3387" y2="823.2162">
			<stop  offset="2.150540e-002" style="stop-color:#BF8D33"/>
			<stop  offset="0.5054" style="stop-color:#F7E679"/>
			<stop  offset="1" style="stop-color:#BF8D33"/>
		</linearGradient>
		<path fill="url(#SVGID_34_)" d="M285.8,822.3h-5.1c-0.3,0-0.4,0.1-0.4,0.2l-0.3,1.2c0,0.2,0,0.3,0.1,0.3c0,0,0.2,0,0.3-0.1
			c0.2-0.1,0.3-0.1,0.5-0.2c0.7-0.2,2.2-0.5,4.7-0.9c0.5-0.1,0.8-0.2,0.8-0.4C286.3,822.4,286.1,822.3,285.8,822.3z"/>
		<linearGradient id="SVGID_35_" gradientUnits="userSpaceOnUse" x1="287.9432" y1="823.3965" x2="300.4745" y2="823.3965">
			<stop  offset="2.150540e-002" style="stop-color:#BF8D33"/>
			<stop  offset="0.5054" style="stop-color:#F7E679"/>
			<stop  offset="1" style="stop-color:#BF8D33"/>
		</linearGradient>
		<path fill="url(#SVGID_35_)" d="M295.5,817.2c0.8,0,1.6,0.1,2.2,0.3c0.6,0.2,1.1,0.5,1.4,0.8c0.5,0.5,0.7,1,0.7,1.7
			c0,0.3,0.1,0.4,0.2,0.4c0.1,0,0.2-0.1,0.2-0.4c0-0.8,0.1-1.4,0.1-1.9c0-0.2,0-0.5,0.1-0.7c0-0.2,0-0.3,0-0.3
			c0-0.1-0.1-0.2-0.3-0.2c-0.8-0.1-1.4-0.2-1.8-0.3c-0.9-0.1-1.8-0.2-2.6-0.2c-2.4,0-4.3,0.6-5.7,1.9c-1.4,1.3-2.1,2.9-2.1,4.9
			c0,2.2,0.7,4,2.2,5.3c1.5,1.3,3.6,2,6.2,2c1.5,0,2.6-0.1,3.2-0.4c0.2-0.1,0.4-0.3,0.5-0.5c0.1-0.3,0.2-0.7,0.3-1.3
			c0.1-0.6,0.1-0.9,0.1-1c0-0.2-0.1-0.3-0.2-0.3c-0.1,0-0.2,0.1-0.2,0.4c-0.1,0.4-0.3,0.8-0.6,1.2c-0.4,0.4-0.9,0.7-1.5,0.9
			c-0.4,0.1-1,0.1-1.8,0.1c-1.4,0-2.6-0.5-3.8-1.6c-1.3-1.2-1.9-2.8-1.9-4.8c0-2.1,0.6-3.7,1.7-4.7
			C293,817.6,294.1,817.2,295.5,817.2z"/>
		<linearGradient id="SVGID_36_" gradientUnits="userSpaceOnUse" x1="302.368" y1="823.3965" x2="317.0994" y2="823.3965">
			<stop  offset="2.150540e-002" style="stop-color:#BF8D33"/>
			<stop  offset="0.5054" style="stop-color:#F7E679"/>
			<stop  offset="1" style="stop-color:#BF8D33"/>
		</linearGradient>
		<path fill="url(#SVGID_36_)" d="M309.8,816.3c-2.5,0-4.4,0.8-5.8,2.4c-1.1,1.3-1.7,2.9-1.7,4.7c0,1.8,0.6,3.4,1.7,4.7
			c1.3,1.6,3.2,2.3,5.6,2.3c2.2,0,4.1-0.7,5.4-2.1c1.3-1.4,2-3.1,2-5.2c0-2.1-0.7-3.7-2-4.9C313.8,816.9,312.1,816.3,309.8,816.3z
			 M313,828.6c-0.7,0.6-1.6,1-2.6,1c-1.7,0-3-0.7-4.1-2c-1-1.2-1.5-2.8-1.5-4.8c0-2,0.5-3.5,1.4-4.5c0.8-0.8,1.8-1.1,3-1.1
			c1.5,0,2.8,0.6,3.8,1.7c1,1.2,1.5,2.8,1.5,4.8C314.6,826,314,827.6,313,828.6z"/>
		<linearGradient id="SVGID_37_" gradientUnits="userSpaceOnUse" x1="318.9561" y1="823.3514" x2="334.1199" y2="823.3514">
			<stop  offset="2.150540e-002" style="stop-color:#BF8D33"/>
			<stop  offset="0.5054" style="stop-color:#F7E679"/>
			<stop  offset="1" style="stop-color:#BF8D33"/>
		</linearGradient>
		<path fill="url(#SVGID_37_)" d="M333.7,816.6c-0.3,0-0.7,0-1.1,0c-0.4,0-0.6,0-0.6,0c-0.1,0-0.4,0-0.9,0c-0.5,0-0.9,0-1.3,0
			c-0.3,0-0.5,0.1-0.5,0.2c0,0.1,0.1,0.2,0.3,0.2c0.5,0,0.8,0,1,0.1c0.3,0.1,0.4,0.3,0.5,0.7c0,0.2,0.1,0.5,0.1,0.9l0.2,8.1h-0.1
			c-1.4-1.5-2.7-2.8-4-4.1c-2.7-2.8-4.6-4.7-5.6-5.8c-0.3-0.4-0.6-0.6-0.7-0.6c-0.1,0-0.2,0.2-0.2,0.6l-0.2,10.7
			c0,0.8,0,1.4-0.1,1.7c-0.1,0.3-0.2,0.5-0.5,0.6c-0.2,0-0.4,0-0.6,0.1c-0.3,0-0.5,0.1-0.5,0.2c0,0.1,0.1,0.2,0.4,0.2
			c0.4,0,0.8,0,1.3,0c0.5,0,0.7,0,0.7,0c0,0,0.3,0,0.8,0c0.5,0,1,0,1.4,0c0.3,0,0.4-0.1,0.4-0.2c0-0.1-0.2-0.1-0.5-0.2
			c-0.4,0-0.7-0.1-0.7-0.1c-0.4-0.1-0.6-0.8-0.6-2l-0.2-7.6h0.1c0.5,0.6,1,1.1,1.5,1.7c1,1.1,1.9,2.1,2.8,2.9
			c2.4,2.4,4.2,4.2,5.3,5.3c0.3,0.3,0.5,0.4,0.6,0.4c0.1,0,0.2-0.2,0.2-0.6l0.2-11.4c0-0.4,0-0.8,0.1-1c0.1-0.4,0.5-0.6,1.1-0.6
			c0.2,0,0.3-0.1,0.3-0.2C334.1,816.6,334,816.6,333.7,816.6z"/>
		<linearGradient id="SVGID_38_" gradientUnits="userSpaceOnUse" x1="336.788" y1="823.3965" x2="344.3254" y2="823.3965">
			<stop  offset="2.150540e-002" style="stop-color:#BF8D33"/>
			<stop  offset="0.5054" style="stop-color:#F7E679"/>
			<stop  offset="1" style="stop-color:#BF8D33"/>
		</linearGradient>
		<path fill="url(#SVGID_38_)" d="M341.4,822l-0.5-0.4c-0.7-0.6-1.2-1-1.5-1.4c-0.3-0.4-0.4-0.8-0.4-1.2c0-0.6,0.2-1,0.6-1.3
			c0.4-0.3,0.9-0.5,1.6-0.5c0.8,0,1.5,0.3,2,0.9c0.3,0.4,0.5,0.8,0.5,1.2c0,0.2,0.1,0.3,0.2,0.3c0.1,0,0.2-0.2,0.2-0.5
			c0-0.6,0-1.1,0-1.5c0-0.5,0-0.7,0-0.6c0-0.1-0.1-0.2-0.3-0.2c-0.8-0.2-1.6-0.3-2.4-0.3c-1.2,0-2.2,0.3-3,1
			c-0.8,0.6-1.2,1.5-1.2,2.5c0,1.5,0.9,2.9,2.7,4.3l0.8,0.6c1.2,0.9,1.8,1.9,1.8,2.9c0,0.5-0.2,1-0.6,1.4c-0.5,0.4-1.1,0.7-1.8,0.7
			c-1.4,0-2.2-0.6-2.6-1.8c-0.1-0.4-0.2-0.7-0.2-0.9c0-0.2-0.1-0.3-0.2-0.3c-0.1,0-0.2,0.2-0.2,0.5c-0.1,0.9-0.1,1.7-0.1,2.4
			c0,0.3,0.1,0.5,0.3,0.6c0.7,0.3,1.6,0.5,2.6,0.5c1.2,0,2.1-0.2,2.9-0.7c1.1-0.7,1.7-1.8,1.7-3.1c0-0.9-0.2-1.6-0.7-2.3
			C343.2,823.6,342.5,822.8,341.4,822z"/>
		<linearGradient id="SVGID_39_" gradientUnits="userSpaceOnUse" x1="345.9293" y1="823.2701" x2="358.1184" y2="823.2701">
			<stop  offset="2.150540e-002" style="stop-color:#BF8D33"/>
			<stop  offset="0.5054" style="stop-color:#F7E679"/>
			<stop  offset="1" style="stop-color:#BF8D33"/>
		</linearGradient>
		<path fill="url(#SVGID_39_)" d="M358,816.5c-0.2,0-0.5,0-0.8,0.1c-0.4,0.1-0.7,0.1-0.9,0.1h-7.1c-0.6,0-1.2,0-1.8-0.1
			c-0.2,0-0.3-0.1-0.5-0.1c-0.2-0.1-0.3-0.1-0.3-0.1c-0.1,0-0.2,0.1-0.2,0.3c-0.3,1.1-0.4,1.7-0.4,2.1c0,0.2,0.1,0.3,0.2,0.3
			c0.1,0,0.2-0.1,0.2-0.2c0-0.2,0.2-0.4,0.3-0.6c0.2-0.3,0.8-0.5,1.7-0.5l2.7-0.1v7.4c0,2,0,3.3-0.1,3.8c-0.1,0.6-0.2,0.9-0.5,1
			c-0.2,0-0.4,0-0.5,0.1c-0.3,0-0.4,0.1-0.4,0.2c0,0.1,0.1,0.2,0.4,0.2c0.3,0,0.7,0,1.3,0c0.6,0,0.9,0,1,0c0.1,0,0.5,0,1.2,0
			c0.7,0,1.2,0,1.7,0c0.2,0,0.3-0.1,0.3-0.2c0-0.1-0.1-0.1-0.3-0.1c-0.3,0-0.6,0-0.9-0.1c-0.4-0.1-0.6-0.4-0.7-1
			c-0.1-0.5-0.1-1.8-0.1-3.9v-7.4l2.3,0.1c1.4,0,2.1,0.4,2.1,1l0,0.2c0,0.2,0.1,0.4,0.2,0.4c0.1,0,0.1-0.1,0.1-0.3
			c0-0.2,0-0.5,0-1.1c0-0.5,0-0.9,0-1C358.1,816.6,358.1,816.5,358,816.5z"/>
		<linearGradient id="SVGID_40_" gradientUnits="userSpaceOnUse" x1="359.5964" y1="823.3965" x2="373.8229" y2="823.3965">
			<stop  offset="2.150540e-002" style="stop-color:#BF8D33"/>
			<stop  offset="0.5054" style="stop-color:#F7E679"/>
			<stop  offset="1" style="stop-color:#BF8D33"/>
		</linearGradient>
		<path fill="url(#SVGID_40_)" d="M373.5,829.9c-0.1,0-0.3,0-0.4,0c-0.7-0.1-1.4-0.5-2-1.2c-0.5-0.5-1.1-1.2-1.7-2
			c-0.1-0.1-0.9-1-2.2-2.7c1.6-1.3,2.4-2.6,2.4-4c0-0.6-0.1-1.1-0.4-1.6c-0.2-0.4-0.5-0.7-0.8-0.9c-0.8-0.5-1.9-0.8-3.3-0.8
			c-0.2,0-0.6,0-1.3,0c-0.7,0-1.1,0-1.3,0c-0.1,0-0.4,0-1,0c-0.6,0-1.1,0-1.5,0c-0.3,0-0.4,0.1-0.4,0.2c0,0.1,0.1,0.2,0.3,0.2
			c0.3,0,0.5,0,0.7,0.1c0.5,0.1,0.7,0.5,0.8,1c0,0.4,0,1.7,0,3.8v3.2c0,2.1,0,3.4-0.1,3.8c-0.1,0.6-0.2,0.9-0.5,1
			c-0.2,0-0.4,0-0.5,0.1c-0.3,0-0.4,0.1-0.4,0.2c0,0.1,0.1,0.2,0.4,0.2c0.3,0,0.7,0,1.2,0c0.6,0,0.9,0,1,0c0,0,0.4,0,1,0
			c0.7,0,1.2,0,1.6,0c0.2,0,0.4-0.1,0.4-0.2c0-0.1-0.1-0.1-0.2-0.1c-0.2,0-0.5,0-0.9-0.1c-0.4,0-0.6-0.4-0.7-1
			c-0.1-0.5-0.1-1.8-0.1-3.8v-0.3c0-0.1,0-0.1,0.1-0.1h1.6c0.1,0,0.3,0,0.3,0.1c0.7,0.9,1.3,1.8,1.8,2.5c1.1,1.5,1.9,2.3,2.5,2.7
			c0.4,0.2,1.1,0.3,1.9,0.3h1.7c0.2,0,0.3-0.1,0.3-0.2C373.8,829.9,373.7,829.9,373.5,829.9z M366.4,823.4c-0.3,0.2-0.7,0.3-1.3,0.3
			c-0.6,0-1-0.1-1.4-0.2c-0.1,0-0.2-0.1-0.2-0.3v-5.5c0-0.1,0-0.2,0.1-0.2c0.1-0.1,0.5-0.1,1-0.1c0.7,0,1.3,0.2,1.8,0.7
			c0.6,0.6,1,1.5,1,2.6C367.4,822,367.1,822.9,366.4,823.4z"/>
		<linearGradient id="SVGID_41_" gradientUnits="userSpaceOnUse" x1="372.4526" y1="823.5228" x2="386.8955" y2="823.5228">
			<stop  offset="2.150540e-002" style="stop-color:#BF8D33"/>
			<stop  offset="0.5054" style="stop-color:#F7E679"/>
			<stop  offset="1" style="stop-color:#BF8D33"/>
		</linearGradient>
		<path fill="url(#SVGID_41_)" d="M386.5,816.6c-0.3,0-0.7,0-1.2,0c-0.5,0-0.8,0-0.8,0c-0.9,0-1.5-0.1-2.1-0.1
			c-0.3,0-0.4,0.1-0.4,0.2c0,0.1,0.1,0.2,0.3,0.2c0.3,0,0.5,0,0.6,0.1c0.5,0.1,0.7,0.5,0.8,1c0,0.4,0,1.7,0,3.8v2.3
			c0,1.2,0,2-0.1,2.6c-0.2,0.8-0.5,1.5-0.9,1.9c-0.6,0.7-1.5,1-2.5,1c-0.9,0-1.7-0.2-2.3-0.7c-0.9-0.8-1.4-2.3-1.4-4.4v-2.5
			c0-2.2,0-3.4,0-3.8c0-0.6,0.3-1,0.7-1c0.2,0,0.4-0.1,0.5-0.1c0.2,0,0.3-0.1,0.3-0.2c0-0.1-0.1-0.2-0.4-0.2c-0.2,0-0.6,0-1.2,0
			c-0.6,0-0.9,0-1,0c-0.1,0-0.5,0-1.2,0c-0.6,0-1.1,0-1.5,0c-0.3,0-0.4,0.1-0.4,0.2c0,0.1,0.1,0.2,0.3,0.2c0.3,0,0.5,0,0.7,0.1
			c0.5,0.1,0.7,0.5,0.8,1c0,0.4,0,1.7,0,3.8v2.6c0,2.2,0.5,3.8,1.6,4.8c0.9,0.8,2.2,1.2,4,1.2c1.5,0,2.7-0.4,3.8-1.3
			c0.7-0.6,1.2-1.4,1.4-2.5c0.2-0.8,0.3-1.7,0.3-3v-1.9c0-2.2,0-3.4,0-3.8c0-0.6,0.3-1,0.7-1c0.2,0,0.4-0.1,0.5-0.1
			c0.2,0,0.3-0.1,0.3-0.2C386.9,816.6,386.8,816.6,386.5,816.6z"/>
		<linearGradient id="SVGID_42_" gradientUnits="userSpaceOnUse" x1="388.428" y1="823.3965" x2="400.9594" y2="823.3965">
			<stop  offset="2.150540e-002" style="stop-color:#BF8D33"/>
			<stop  offset="0.5054" style="stop-color:#F7E679"/>
			<stop  offset="1" style="stop-color:#BF8D33"/>
		</linearGradient>
		<path fill="url(#SVGID_42_)" d="M396,817.2c0.8,0,1.6,0.1,2.2,0.3c0.6,0.2,1.1,0.5,1.4,0.8c0.5,0.5,0.7,1,0.7,1.7
			c0,0.3,0.1,0.4,0.2,0.4c0.1,0,0.2-0.1,0.2-0.4c0-0.8,0.1-1.4,0.1-1.9c0-0.2,0-0.5,0.1-0.7c0-0.2,0-0.3,0-0.3
			c0-0.1-0.1-0.2-0.3-0.2c-0.8-0.1-1.4-0.2-1.8-0.3c-0.9-0.1-1.8-0.2-2.6-0.2c-2.4,0-4.3,0.6-5.7,1.9c-1.4,1.3-2.1,2.9-2.1,4.9
			c0,2.2,0.7,4,2.2,5.3c1.5,1.3,3.6,2,6.2,2c1.5,0,2.6-0.1,3.2-0.4c0.2-0.1,0.4-0.3,0.5-0.5c0.1-0.3,0.2-0.7,0.3-1.3
			c0.1-0.6,0.1-0.9,0.1-1c0-0.2-0.1-0.3-0.2-0.3c-0.1,0-0.2,0.1-0.2,0.4c-0.1,0.4-0.3,0.8-0.6,1.2c-0.4,0.4-0.9,0.7-1.5,0.9
			c-0.4,0.1-1,0.1-1.8,0.1c-1.4,0-2.6-0.5-3.8-1.6c-1.3-1.2-1.9-2.8-1.9-4.8c0-2.1,0.6-3.7,1.7-4.7
			C393.4,817.6,394.6,817.2,396,817.2z"/>
		<linearGradient id="SVGID_43_" gradientUnits="userSpaceOnUse" x1="402.1308" y1="823.2701" x2="414.3199" y2="823.2701">
			<stop  offset="2.150540e-002" style="stop-color:#BF8D33"/>
			<stop  offset="0.5054" style="stop-color:#F7E679"/>
			<stop  offset="1" style="stop-color:#BF8D33"/>
		</linearGradient>
		<path fill="url(#SVGID_43_)" d="M414.2,816.5c-0.2,0-0.5,0-0.8,0.1c-0.4,0.1-0.7,0.1-0.9,0.1h-7.1c-0.6,0-1.2,0-1.8-0.1
			c-0.2,0-0.3-0.1-0.5-0.1c-0.2-0.1-0.3-0.1-0.3-0.1c-0.1,0-0.2,0.1-0.2,0.3c-0.3,1.1-0.4,1.7-0.4,2.1c0,0.2,0.1,0.3,0.2,0.3
			c0.1,0,0.2-0.1,0.2-0.2c0-0.2,0.2-0.4,0.3-0.6c0.2-0.3,0.8-0.5,1.7-0.5l2.7-0.1v7.4c0,2,0,3.3-0.1,3.8c-0.1,0.6-0.2,0.9-0.5,1
			c-0.2,0-0.4,0-0.5,0.1c-0.3,0-0.4,0.1-0.4,0.2c0,0.1,0.1,0.2,0.4,0.2c0.3,0,0.7,0,1.3,0c0.6,0,0.9,0,1,0c0.1,0,0.5,0,1.2,0
			c0.7,0,1.2,0,1.7,0c0.2,0,0.3-0.1,0.3-0.2c0-0.1-0.1-0.1-0.3-0.1c-0.3,0-0.6,0-0.9-0.1c-0.4-0.1-0.6-0.4-0.7-1
			c-0.1-0.5-0.1-1.8-0.1-3.9v-7.4l2.3,0.1c1.4,0,2.1,0.4,2.1,1l0,0.2c0,0.2,0.1,0.4,0.2,0.4c0.1,0,0.1-0.1,0.1-0.3
			c0-0.2,0-0.5,0-1.1c0-0.5,0-0.9,0-1C414.3,816.6,414.3,816.5,414.2,816.5z"/>
		<linearGradient id="SVGID_44_" gradientUnits="userSpaceOnUse" x1="416.0331" y1="823.3965" x2="421.8573" y2="823.3965">
			<stop  offset="2.150540e-002" style="stop-color:#BF8D33"/>
			<stop  offset="0.5054" style="stop-color:#F7E679"/>
			<stop  offset="1" style="stop-color:#BF8D33"/>
		</linearGradient>
		<path fill="url(#SVGID_44_)" d="M421.6,829.9c-0.3,0-0.6,0-0.9-0.1c-0.4-0.1-0.7-0.4-0.7-0.9c0-0.5-0.1-1.8-0.1-3.9v-3.2
			c0-2.2,0-3.4,0-3.8c0-0.6,0.3-1,0.7-1c0.2,0,0.4-0.1,0.6-0.1c0.2,0,0.3-0.1,0.3-0.2c0-0.1-0.1-0.1-0.4-0.1c-0.3,0-0.6,0-1.2,0
			c-0.5,0-0.9,0-1,0c-0.2,0-0.5,0-1.1,0c-0.6,0-1,0-1.2,0c-0.3,0-0.4,0-0.4,0.1c0,0.1,0.1,0.2,0.3,0.2c0.2,0,0.4,0,0.6,0.1
			c0.4,0.1,0.6,0.4,0.6,1c0,0.4,0,1.7,0,3.8v3.2c0,2.1,0,3.4-0.1,3.9c-0.1,0.5-0.2,0.8-0.5,0.9c-0.2,0-0.4,0-0.5,0.1
			c-0.3,0-0.4,0.1-0.4,0.2c0,0.1,0.1,0.2,0.4,0.2c0.3,0,0.7,0,1.3,0c0.6,0,0.9,0,1,0c0.1,0,0.5,0,1.1,0c0.7,0,1.2,0,1.7,0
			c0.2,0,0.3-0.1,0.3-0.2C421.9,829.9,421.8,829.9,421.6,829.9z"/>
		<linearGradient id="SVGID_45_" gradientUnits="userSpaceOnUse" x1="423.804" y1="823.3965" x2="438.5355" y2="823.3965">
			<stop  offset="2.150540e-002" style="stop-color:#BF8D33"/>
			<stop  offset="0.5054" style="stop-color:#F7E679"/>
			<stop  offset="1" style="stop-color:#BF8D33"/>
		</linearGradient>
		<path fill="url(#SVGID_45_)" d="M431.3,816.3c-2.5,0-4.4,0.8-5.8,2.4c-1.1,1.3-1.7,2.9-1.7,4.7c0,1.8,0.6,3.4,1.7,4.7
			c1.3,1.6,3.2,2.3,5.6,2.3c2.2,0,4.1-0.7,5.4-2.1c1.3-1.4,2-3.1,2-5.2c0-2.1-0.7-3.7-2-4.9C435.3,816.9,433.5,816.3,431.3,816.3z
			 M434.4,828.6c-0.7,0.6-1.6,1-2.6,1c-1.7,0-3-0.7-4.1-2c-1-1.2-1.5-2.8-1.5-4.8c0-2,0.5-3.5,1.4-4.5c0.8-0.8,1.8-1.1,3-1.1
			c1.5,0,2.8,0.6,3.8,1.7c1,1.2,1.5,2.8,1.5,4.8C436,826,435.5,827.6,434.4,828.6z"/>
		<linearGradient id="SVGID_46_" gradientUnits="userSpaceOnUse" x1="440.3921" y1="823.3514" x2="455.5559" y2="823.3514">
			<stop  offset="2.150540e-002" style="stop-color:#BF8D33"/>
			<stop  offset="0.5054" style="stop-color:#F7E679"/>
			<stop  offset="1" style="stop-color:#BF8D33"/>
		</linearGradient>
		<path fill="url(#SVGID_46_)" d="M455.1,816.6c-0.3,0-0.7,0-1.1,0c-0.4,0-0.6,0-0.6,0c-0.1,0-0.4,0-0.9,0c-0.5,0-0.9,0-1.3,0
			c-0.3,0-0.5,0.1-0.5,0.2c0,0.1,0.1,0.2,0.3,0.2c0.5,0,0.8,0,1,0.1c0.3,0.1,0.4,0.3,0.5,0.7c0,0.2,0.1,0.5,0.1,0.9l0.2,8.1h-0.1
			c-1.4-1.5-2.7-2.8-4-4.1c-2.7-2.8-4.6-4.7-5.6-5.8c-0.3-0.4-0.6-0.6-0.7-0.6c-0.1,0-0.2,0.2-0.2,0.6l-0.2,10.7
			c0,0.8,0,1.4-0.1,1.7c-0.1,0.3-0.2,0.5-0.5,0.6c-0.2,0-0.4,0-0.6,0.1c-0.3,0-0.5,0.1-0.5,0.2c0,0.1,0.1,0.2,0.4,0.2
			c0.4,0,0.8,0,1.3,0c0.5,0,0.7,0,0.7,0c0,0,0.3,0,0.8,0c0.5,0,1,0,1.4,0c0.3,0,0.4-0.1,0.4-0.2c0-0.1-0.2-0.1-0.5-0.2
			c-0.4,0-0.7-0.1-0.7-0.1c-0.4-0.1-0.6-0.8-0.6-2l-0.2-7.6h0.1c0.5,0.6,1,1.1,1.5,1.7c1,1.1,1.9,2.1,2.8,2.9
			c2.4,2.4,4.2,4.2,5.3,5.3c0.3,0.3,0.5,0.4,0.6,0.4c0.1,0,0.2-0.2,0.2-0.6l0.2-11.4c0-0.4,0-0.8,0.1-1c0.1-0.4,0.5-0.6,1.1-0.6
			c0.2,0,0.3-0.1,0.3-0.2C455.6,816.6,455.4,816.6,455.1,816.6z"/>
		<linearGradient id="SVGID_47_" gradientUnits="userSpaceOnUse" x1="456.8635" y1="823.4189" x2="466.1092" y2="823.4189">
			<stop  offset="2.150540e-002" style="stop-color:#BF8D33"/>
			<stop  offset="0.5054" style="stop-color:#F7E679"/>
			<stop  offset="1" style="stop-color:#BF8D33"/>
		</linearGradient>
		<path fill="url(#SVGID_47_)" d="M465.4,816.3c-0.1-0.1-0.2,0-0.3,0.1l-8.2,13.3c-0.1,0.1-0.1,0.2,0,0.3l0.6,0.4
			c0.1,0,0.2,0,0.2-0.1l8.3-13.4c0.1-0.1,0.1-0.2,0-0.2L465.4,816.3z"/>
		<linearGradient id="SVGID_48_" gradientUnits="userSpaceOnUse" x1="467.5104" y1="823.3514" x2="490.2287" y2="823.3514">
			<stop  offset="2.150540e-002" style="stop-color:#BF8D33"/>
			<stop  offset="0.5054" style="stop-color:#F7E679"/>
			<stop  offset="1" style="stop-color:#BF8D33"/>
		</linearGradient>
		<path fill="url(#SVGID_48_)" d="M490.1,827.5c-0.1,0-0.2,0.1-0.2,0.3c-0.1,0.7-0.4,1.1-0.8,1.3c-0.3,0.1-0.9,0.2-1.7,0.2
			c-0.9,0-1.5-0.1-1.7-0.3c-0.3-0.2-0.4-0.6-0.4-1.2v-4.2c0-0.1,0-0.2,0.1-0.2c1.4,0,2.2,0,2.6,0.1c0.6,0.1,0.9,0.3,1,0.7
			c0,0.3,0.1,0.5,0.1,0.6c0,0.1,0.1,0.2,0.2,0.2s0.2-0.1,0.2-0.3c0-0.1,0-0.5,0.1-1.2c0-0.4,0.1-0.7,0.1-1c0-0.2,0.1-0.3,0.1-0.4
			c0-0.1,0-0.1-0.1-0.1c0,0-0.1,0.1-0.3,0.2c-0.1,0.1-0.2,0.2-0.4,0.2c-0.1,0-0.3,0-0.5,0.1c-0.3,0-1.2,0-2.9,0
			c-0.1,0-0.1-0.1-0.1-0.2v-4.6c0-0.1,0-0.2,0.1-0.2c1.3,0,2.2,0,2.6,0.1c0.7,0.1,1.1,0.3,1.2,0.6c0,0.1,0.1,0.2,0.1,0.3
			c0,0.1,0,0.2,0,0.4c0,0.1,0.1,0.2,0.2,0.2c0.1,0,0.2-0.1,0.2-0.2c0-0.5,0.1-0.9,0.1-1.2c0-0.3,0-0.6,0.1-0.8
			c0-0.2,0.1-0.3,0.1-0.3c0-0.1,0-0.2-0.1-0.2c0,0-0.1,0-0.3,0.1c-0.2,0-0.5,0.1-0.8,0.1c-0.2,0-1.7,0-4.5,0c-0.1,0-0.5,0-1.1,0
			c-0.6,0-1.1,0-1.5,0c-0.3,0-0.4,0.1-0.4,0.2c0,0.1,0.1,0.2,0.3,0.2c0.3,0,0.5,0,0.7,0.1c0.5,0.1,0.7,0.5,0.8,1c0,0.4,0,1.7,0,3.8
			v3.2c0,2.1,0,3.4-0.1,3.8c-0.1,0.6-0.2,0.9-0.5,1c-0.2,0-0.4,0-0.5,0.1c-0.1,0-0.1,0-0.2,0c0,0-0.1,0-0.2,0c-0.1,0-0.3,0-0.4,0
			c-0.7-0.1-1.4-0.5-2-1.2c-0.5-0.5-1.1-1.2-1.7-2c-0.1-0.1-0.9-1-2.2-2.7c1.6-1.3,2.4-2.6,2.4-4c0-0.6-0.1-1.1-0.4-1.6
			c-0.2-0.4-0.5-0.7-0.8-0.9c-0.8-0.5-1.9-0.8-3.3-0.8c-0.2,0-0.6,0-1.3,0c-0.7,0-1.1,0-1.3,0c-0.1,0-0.4,0-1,0c-0.6,0-1.1,0-1.5,0
			c-0.3,0-0.4,0.1-0.4,0.2c0,0.1,0.1,0.2,0.3,0.2c0.3,0,0.5,0,0.7,0.1c0.5,0.1,0.7,0.5,0.8,1c0,0.4,0,1.7,0,3.8v3.2
			c0,2.1,0,3.4-0.1,3.8c-0.1,0.6-0.2,0.9-0.5,1c-0.2,0-0.4,0-0.5,0.1c-0.3,0-0.4,0.1-0.4,0.2c0,0.1,0.1,0.2,0.4,0.2
			c0.3,0,0.7,0,1.2,0c0.6,0,0.9,0,1,0c0,0,0.4,0,1,0c0.7,0,1.2,0,1.6,0c0.2,0,0.4-0.1,0.4-0.2c0-0.1-0.1-0.1-0.2-0.1
			c-0.2,0-0.5,0-0.9-0.1c-0.4,0-0.6-0.4-0.7-1c-0.1-0.5-0.1-1.8-0.1-3.8v-0.3c0-0.1,0-0.1,0.1-0.1h1.6c0.1,0,0.3,0,0.3,0.1
			c0.7,0.9,1.3,1.8,1.8,2.5c1.1,1.5,1.9,2.3,2.5,2.7c0.4,0.2,1.1,0.3,1.9,0.3h1.7c0.1,0,0.1,0,0.2,0c0.1,0,0.1,0,0.2,0
			c0.3,0,0.7,0,1.3,0c0.6,0,0.9,0,1,0c0.2,0,0.8,0,1.9,0.1c1,0,2.1,0.1,3.1,0.1c0.4,0,0.6,0,0.7-0.1c0.1,0,0.2-0.2,0.3-0.4
			c0.2-0.6,0.2-1.3,0.2-2C490.2,827.6,490.2,827.5,490.1,827.5z M474.3,823.4c-0.3,0.2-0.7,0.3-1.3,0.3c-0.6,0-1-0.1-1.4-0.2
			c-0.1,0-0.2-0.1-0.2-0.3v-5.5c0-0.1,0-0.2,0.1-0.2c0.1-0.1,0.5-0.1,1-0.1c0.7,0,1.3,0.2,1.8,0.7c0.6,0.6,1,1.5,1,2.6
			C475.3,822,475,822.9,474.3,823.4z"/>
		<linearGradient id="SVGID_49_" gradientUnits="userSpaceOnUse" x1="492.2485" y1="823.3514" x2="507.4133" y2="823.3514">
			<stop  offset="2.150540e-002" style="stop-color:#BF8D33"/>
			<stop  offset="0.5054" style="stop-color:#F7E679"/>
			<stop  offset="1" style="stop-color:#BF8D33"/>
		</linearGradient>
		<path fill="url(#SVGID_49_)" d="M507,816.6c-0.3,0-0.7,0-1.1,0c-0.4,0-0.6,0-0.6,0c-0.1,0-0.4,0-0.9,0c-0.5,0-0.9,0-1.3,0
			c-0.3,0-0.5,0.1-0.5,0.2c0,0.1,0.1,0.2,0.3,0.2c0.5,0,0.8,0,1,0.1c0.3,0.1,0.4,0.3,0.5,0.7c0,0.2,0.1,0.5,0.1,0.9l0.2,8.1h-0.1
			c-1.4-1.5-2.7-2.8-4-4.1c-2.7-2.8-4.6-4.7-5.6-5.8c-0.3-0.4-0.6-0.6-0.7-0.6c-0.1,0-0.2,0.2-0.2,0.6l-0.2,10.7
			c0,0.8,0,1.4-0.1,1.7c-0.1,0.3-0.2,0.5-0.5,0.6c-0.2,0-0.4,0-0.6,0.1c-0.3,0-0.5,0.1-0.5,0.2c0,0.1,0.1,0.2,0.4,0.2
			c0.4,0,0.8,0,1.3,0c0.5,0,0.7,0,0.7,0c0,0,0.3,0,0.8,0c0.5,0,1,0,1.4,0c0.3,0,0.4-0.1,0.4-0.2c0-0.1-0.2-0.1-0.5-0.2
			c-0.4,0-0.7-0.1-0.7-0.1c-0.4-0.1-0.6-0.8-0.6-2l-0.2-7.6h0.1c0.5,0.6,1,1.1,1.5,1.7c1,1.1,1.9,2.1,2.8,2.9
			c2.4,2.4,4.2,4.2,5.3,5.3c0.3,0.3,0.5,0.4,0.6,0.4c0.1,0,0.2-0.2,0.2-0.6l0.2-11.4c0-0.4,0-0.8,0.1-1c0.1-0.4,0.5-0.6,1.1-0.6
			c0.2,0,0.3-0.1,0.3-0.2C507.4,816.6,507.3,816.6,507,816.6z"/>
		<linearGradient id="SVGID_50_" gradientUnits="userSpaceOnUse" x1="509.4497" y1="823.3965" x2="524.1816" y2="823.3965">
			<stop  offset="2.150540e-002" style="stop-color:#BF8D33"/>
			<stop  offset="0.5054" style="stop-color:#F7E679"/>
			<stop  offset="1" style="stop-color:#BF8D33"/>
		</linearGradient>
		<path fill="url(#SVGID_50_)" d="M516.9,816.3c-2.5,0-4.4,0.8-5.8,2.4c-1.1,1.3-1.7,2.9-1.7,4.7c0,1.8,0.6,3.4,1.7,4.7
			c1.3,1.6,3.2,2.3,5.6,2.3c2.2,0,4.1-0.7,5.4-2.1c1.3-1.4,2-3.1,2-5.2c0-2.1-0.7-3.7-2-4.9C520.9,816.9,519.1,816.3,516.9,816.3z
			 M520,828.6c-0.7,0.6-1.6,1-2.6,1c-1.7,0-3-0.7-4.1-2c-1-1.2-1.5-2.8-1.5-4.8c0-2,0.5-3.5,1.4-4.5c0.8-0.8,1.8-1.1,3-1.1
			c1.5,0,2.8,0.6,3.8,1.7c1,1.2,1.5,2.8,1.5,4.8C521.7,826,521.1,827.6,520,828.6z"/>
		<linearGradient id="SVGID_51_" gradientUnits="userSpaceOnUse" x1="524.1816" y1="823.5228" x2="539.2553" y2="823.5228">
			<stop  offset="2.150540e-002" style="stop-color:#BF8D33"/>
			<stop  offset="0.5054" style="stop-color:#F7E679"/>
			<stop  offset="1" style="stop-color:#BF8D33"/>
		</linearGradient>
		<path fill="url(#SVGID_51_)" d="M538.1,817.1c0.2-0.1,0.5-0.2,0.9-0.2c0.2,0,0.3-0.1,0.3-0.2c0-0.1-0.1-0.2-0.4-0.2
			c-0.2,0-0.5,0-0.9,0c-0.4,0-0.7,0-0.8,0c0,0-0.3,0-0.7,0c-0.4,0-0.8,0-1.2,0c-0.3,0-0.5,0.1-0.5,0.2c0,0.1,0.1,0.1,0.3,0.1
			c0.3,0,0.5,0,0.7,0.1c0.2,0.1,0.3,0.2,0.3,0.4c0,0.1-0.1,0.4-0.2,0.7c-1.3,3.4-2.5,6.4-3.6,9h-0.1l-3.1-8.2
			c-0.3-0.7-0.4-1.2-0.4-1.4c0-0.2,0.1-0.3,0.2-0.4c0.1-0.1,0.4-0.1,0.7-0.1c0.2,0,0.3-0.1,0.3-0.2c0-0.1-0.1-0.2-0.4-0.2
			c-0.3,0-0.8,0-1.3,0c-0.5,0-0.8,0-0.9,0c-0.2,0-0.6,0-1.2,0c-0.6,0-1.1,0-1.4,0c-0.3,0-0.5,0.1-0.5,0.2c0,0.1,0.1,0.2,0.2,0.2
			c0.3,0,0.5,0,0.7,0.1c0.3,0.1,0.6,0.2,0.8,0.4c0.2,0.2,0.4,0.5,0.6,1l4.5,11c0.2,0.5,0.3,0.8,0.4,0.9c0.1,0.2,0.2,0.2,0.3,0.2
			c0.1,0,0.2-0.1,0.3-0.3c0.1-0.1,0.2-0.5,0.5-1.1l2.4-5.5c1-2.4,1.8-4,2.1-4.9C537.5,817.9,537.8,817.3,538.1,817.1z"/>
		<linearGradient id="SVGID_52_" gradientUnits="userSpaceOnUse" x1="537.0906" y1="823.1981" x2="551.9302" y2="823.1981">
			<stop  offset="2.150540e-002" style="stop-color:#BF8D33"/>
			<stop  offset="0.5054" style="stop-color:#F7E679"/>
			<stop  offset="1" style="stop-color:#BF8D33"/>
		</linearGradient>
		<path fill="url(#SVGID_52_)" d="M551.7,829.9c-0.3,0-0.5,0-0.8-0.1c-0.6-0.1-1.1-0.8-1.6-2c-1.9-4.6-3.4-8.3-4.5-11.1
			c-0.2-0.4-0.3-0.6-0.5-0.6c-0.1,0-0.3,0.2-0.5,0.7l-4.5,11.3c-0.2,0.5-0.4,0.9-0.6,1.1c-0.2,0.3-0.6,0.5-0.9,0.5
			c-0.2,0-0.4,0-0.6,0c-0.1,0-0.2,0-0.2,0.1c0,0.1,0.1,0.2,0.3,0.2c0.4,0,1.1,0,2.1-0.1c0.2,0,0.5,0,0.9,0c0.5,0,0.8,0,1,0
			c0.2,0,0.3-0.1,0.3-0.2c0-0.1-0.1-0.1-0.3-0.1h-0.3c-0.5,0-0.7-0.2-0.7-0.6c0-0.3,0.1-0.6,0.3-1.1l1-2.6c0-0.1,0.1-0.1,0.2-0.1h4
			c0.1,0,0.1,0,0.2,0.1l1.4,3.8c0.1,0.2,0,0.4-0.2,0.4c-0.2,0-0.3,0.1-0.3,0.2c0,0.1,0.2,0.1,0.5,0.1c0.8,0,1.9,0,3.4,0
			c0.3,0,0.5,0,0.6,0c0.1,0,0.2-0.1,0.2-0.1C551.9,829.9,551.9,829.9,551.7,829.9z M545.6,824.6h-3.3c-0.1,0-0.1,0-0.1-0.1l1.7-4.4
			c0-0.1,0.1-0.2,0.1-0.2c0,0,0.1,0.1,0.1,0.2l1.6,4.5C545.7,824.6,545.7,824.6,545.6,824.6z"/>
		<linearGradient id="SVGID_53_" gradientUnits="userSpaceOnUse" x1="551.1182" y1="823.2701" x2="563.3072" y2="823.2701">
			<stop  offset="2.150540e-002" style="stop-color:#BF8D33"/>
			<stop  offset="0.5054" style="stop-color:#F7E679"/>
			<stop  offset="1" style="stop-color:#BF8D33"/>
		</linearGradient>
		<path fill="url(#SVGID_53_)" d="M563.2,816.5c-0.2,0-0.5,0-0.8,0.1c-0.4,0.1-0.7,0.1-0.9,0.1h-7.1c-0.6,0-1.2,0-1.8-0.1
			c-0.2,0-0.3-0.1-0.5-0.1c-0.2-0.1-0.3-0.1-0.3-0.1c-0.1,0-0.2,0.1-0.2,0.3c-0.3,1.1-0.4,1.7-0.4,2.1c0,0.2,0.1,0.3,0.2,0.3
			c0.1,0,0.2-0.1,0.2-0.2c0-0.2,0.2-0.4,0.3-0.6c0.2-0.3,0.8-0.5,1.7-0.5l2.7-0.1v7.4c0,2,0,3.3-0.1,3.8c-0.1,0.6-0.2,0.9-0.5,1
			c-0.2,0-0.4,0-0.5,0.1c-0.3,0-0.4,0.1-0.4,0.2c0,0.1,0.1,0.2,0.4,0.2c0.3,0,0.7,0,1.3,0c0.6,0,0.9,0,1,0c0.1,0,0.5,0,1.2,0
			c0.7,0,1.2,0,1.7,0c0.2,0,0.3-0.1,0.3-0.2c0-0.1-0.1-0.1-0.3-0.1c-0.3,0-0.6,0-0.9-0.1c-0.4-0.1-0.6-0.4-0.7-1
			c-0.1-0.5-0.1-1.8-0.1-3.9v-7.4l2.3,0.1c1.4,0,2.1,0.4,2.1,1l0,0.2c0,0.2,0.1,0.4,0.2,0.4c0.1,0,0.1-0.1,0.1-0.3
			c0-0.2,0-0.5,0-1.1c0-0.5,0-0.9,0-1C563.3,816.6,563.3,816.5,563.2,816.5z"/>
		<linearGradient id="SVGID_54_" gradientUnits="userSpaceOnUse" x1="565.0204" y1="823.3965" x2="570.8446" y2="823.3965">
			<stop  offset="2.150540e-002" style="stop-color:#BF8D33"/>
			<stop  offset="0.5054" style="stop-color:#F7E679"/>
			<stop  offset="1" style="stop-color:#BF8D33"/>
		</linearGradient>
		<path fill="url(#SVGID_54_)" d="M570.6,829.9c-0.3,0-0.6,0-0.9-0.1c-0.4-0.1-0.7-0.4-0.7-0.9c0-0.5-0.1-1.8-0.1-3.9v-3.2
			c0-2.2,0-3.4,0-3.8c0-0.6,0.3-1,0.7-1c0.2,0,0.4-0.1,0.6-0.1c0.2,0,0.3-0.1,0.3-0.2c0-0.1-0.1-0.1-0.4-0.1c-0.3,0-0.6,0-1.2,0
			c-0.5,0-0.9,0-1,0c-0.2,0-0.5,0-1.1,0c-0.6,0-1,0-1.2,0c-0.3,0-0.4,0-0.4,0.1c0,0.1,0.1,0.2,0.3,0.2c0.2,0,0.4,0,0.6,0.1
			c0.4,0.1,0.6,0.4,0.6,1c0,0.4,0,1.7,0,3.8v3.2c0,2.1,0,3.4-0.1,3.9c-0.1,0.5-0.2,0.8-0.5,0.9c-0.2,0-0.4,0-0.5,0.1
			c-0.3,0-0.4,0.1-0.4,0.2c0,0.1,0.1,0.2,0.4,0.2c0.3,0,0.7,0,1.3,0c0.6,0,0.9,0,1,0c0.1,0,0.5,0,1.1,0c0.7,0,1.2,0,1.7,0
			c0.2,0,0.3-0.1,0.3-0.2C570.8,829.9,570.7,829.9,570.6,829.9z"/>
		<linearGradient id="SVGID_55_" gradientUnits="userSpaceOnUse" x1="572.7908" y1="823.3965" x2="587.5228" y2="823.3965">
			<stop  offset="2.150540e-002" style="stop-color:#BF8D33"/>
			<stop  offset="0.5054" style="stop-color:#F7E679"/>
			<stop  offset="1" style="stop-color:#BF8D33"/>
		</linearGradient>
		<path fill="url(#SVGID_55_)" d="M580.2,816.3c-2.5,0-4.4,0.8-5.8,2.4c-1.1,1.3-1.7,2.9-1.7,4.7c0,1.8,0.6,3.4,1.7,4.7
			c1.3,1.6,3.2,2.3,5.6,2.3c2.2,0,4.1-0.7,5.4-2.1c1.3-1.4,2-3.1,2-5.2c0-2.1-0.7-3.7-2-4.9C584.2,816.9,582.5,816.3,580.2,816.3z
			 M583.4,828.6c-0.7,0.6-1.6,1-2.6,1c-1.7,0-3-0.7-4.1-2c-1-1.2-1.5-2.8-1.5-4.8c0-2,0.5-3.5,1.4-4.5c0.8-0.8,1.8-1.1,3-1.1
			c1.5,0,2.8,0.6,3.8,1.7c1,1.2,1.5,2.8,1.5,4.8C585,826,584.5,827.6,583.4,828.6z"/>
		<linearGradient id="SVGID_56_" gradientUnits="userSpaceOnUse" x1="589.3799" y1="823.3514" x2="604.5438" y2="823.3514">
			<stop  offset="2.150540e-002" style="stop-color:#BF8D33"/>
			<stop  offset="0.5054" style="stop-color:#F7E679"/>
			<stop  offset="1" style="stop-color:#BF8D33"/>
		</linearGradient>
		<path fill="url(#SVGID_56_)" d="M604.1,816.6c-0.3,0-0.7,0-1.1,0c-0.4,0-0.6,0-0.6,0c-0.1,0-0.4,0-0.9,0c-0.5,0-0.9,0-1.3,0
			c-0.3,0-0.5,0.1-0.5,0.2c0,0.1,0.1,0.2,0.3,0.2c0.5,0,0.8,0,1,0.1c0.3,0.1,0.4,0.3,0.5,0.7c0,0.2,0.1,0.5,0.1,0.9l0.2,8.1h-0.1
			c-1.4-1.5-2.7-2.8-4-4.1c-2.7-2.8-4.6-4.7-5.6-5.8c-0.3-0.4-0.6-0.6-0.7-0.6c-0.1,0-0.2,0.2-0.2,0.6l-0.2,10.7
			c0,0.8,0,1.4-0.1,1.7c-0.1,0.3-0.2,0.5-0.5,0.6c-0.2,0-0.4,0-0.6,0.1c-0.3,0-0.5,0.1-0.5,0.2c0,0.1,0.1,0.2,0.4,0.2
			c0.4,0,0.8,0,1.3,0c0.5,0,0.7,0,0.7,0c0,0,0.3,0,0.8,0c0.5,0,1,0,1.4,0c0.3,0,0.4-0.1,0.4-0.2c0-0.1-0.2-0.1-0.5-0.2
			c-0.4,0-0.7-0.1-0.7-0.1c-0.4-0.1-0.6-0.8-0.6-2l-0.2-7.6h0.1c0.5,0.6,1,1.1,1.5,1.7c1,1.1,1.9,2.1,2.8,2.9
			c2.4,2.4,4.2,4.2,5.3,5.3c0.3,0.3,0.5,0.4,0.6,0.4c0.1,0,0.2-0.2,0.2-0.6l0.2-11.4c0-0.4,0-0.8,0.1-1c0.1-0.4,0.5-0.6,1.1-0.6
			c0.2,0,0.3-0.1,0.3-0.2C604.5,816.6,604.4,816.6,604.1,816.6z"/>
		<linearGradient id="SVGID_57_" gradientUnits="userSpaceOnUse" x1="612.135" y1="823.3245" x2="621.0603" y2="823.3245">
			<stop  offset="2.150540e-002" style="stop-color:#BF8D33"/>
			<stop  offset="0.5054" style="stop-color:#F7E679"/>
			<stop  offset="1" style="stop-color:#BF8D33"/>
		</linearGradient>
		<path fill="url(#SVGID_57_)" d="M620.9,816.4c0,0-0.1,0-0.3,0.1c-0.3,0-0.5,0.1-0.7,0.1c-0.3,0-1.8,0-4.8,0c-0.1,0-0.5,0-1.1,0
			c-0.6,0-1.1,0-1.5,0c-0.3,0-0.4,0.1-0.4,0.2c0,0.1,0.1,0.1,0.3,0.1c0.3,0,0.5,0,0.7,0.1c0.5,0.1,0.7,0.5,0.8,1c0,0.4,0,1.7,0,3.8
			v3.2c0,2.1,0,3.4-0.1,3.8c-0.1,0.6-0.2,0.9-0.5,1c-0.2,0-0.4,0-0.5,0.1c-0.3,0-0.4,0.1-0.4,0.2c0,0.1,0.1,0.2,0.4,0.2
			c0.3,0,0.7,0,1.2,0c0.6,0,0.9,0,1.1,0c0.1,0,0.5,0,1.1,0c0.6,0,1.2,0,1.6,0c0.3,0,0.4-0.1,0.4-0.2c0-0.1-0.1-0.1-0.3-0.1
			c-0.3,0-0.6,0-0.9-0.1c-0.4-0.1-0.6-0.4-0.7-1c-0.1-0.5-0.1-1.8-0.1-3.8v-1.5c0-0.1,0-0.2,0.1-0.2c1.5,0,2.4,0,2.7,0.1
			c0.5,0.1,0.8,0.3,0.9,0.6c0,0.2,0.1,0.3,0.1,0.5c0,0.2,0.1,0.3,0.2,0.3c0.1,0,0.2-0.1,0.2-0.3c0-0.4,0-0.8,0.1-1.3
			c0-0.2,0.1-0.4,0.1-0.7c0-0.2,0.1-0.4,0.1-0.4c0-0.1,0-0.2-0.1-0.2c-0.1,0-0.1,0.1-0.2,0.2c-0.1,0.2-0.4,0.3-0.7,0.3
			c-0.1,0-0.3,0-0.9,0h-2.3c-0.1,0-0.1-0.1-0.1-0.2v-4.5c0-0.2,0.1-0.3,0.2-0.3l2.8,0.1c0.6,0,1,0.2,1.2,0.5
			c0.1,0.2,0.1,0.4,0.1,0.7c0,0.2,0.1,0.3,0.2,0.3c0.1,0,0.2-0.1,0.2-0.3c0-0.6,0.1-1.1,0.1-1.5c0-0.2,0.1-0.4,0.1-0.5
			c0-0.1,0.1-0.2,0.1-0.3C621.1,816.5,621,816.4,620.9,816.4z"/>
		<linearGradient id="SVGID_58_" gradientUnits="userSpaceOnUse" x1="623.5835" y1="823.3965" x2="629.4077" y2="823.3965">
			<stop  offset="2.150540e-002" style="stop-color:#BF8D33"/>
			<stop  offset="0.5054" style="stop-color:#F7E679"/>
			<stop  offset="1" style="stop-color:#BF8D33"/>
		</linearGradient>
		<path fill="url(#SVGID_58_)" d="M629.1,829.9c-0.3,0-0.6,0-0.9-0.1c-0.4-0.1-0.7-0.4-0.7-0.9c0-0.5-0.1-1.8-0.1-3.9v-3.2
			c0-2.2,0-3.4,0-3.8c0-0.6,0.3-1,0.7-1c0.2,0,0.4-0.1,0.6-0.1c0.2,0,0.3-0.1,0.3-0.2c0-0.1-0.1-0.1-0.4-0.1c-0.3,0-0.6,0-1.2,0
			c-0.5,0-0.9,0-1,0c-0.2,0-0.5,0-1.1,0c-0.6,0-1,0-1.2,0c-0.3,0-0.4,0-0.4,0.1c0,0.1,0.1,0.2,0.3,0.2c0.2,0,0.4,0,0.6,0.1
			c0.4,0.1,0.6,0.4,0.6,1c0,0.4,0,1.7,0,3.8v3.2c0,2.1,0,3.4-0.1,3.9c-0.1,0.5-0.2,0.8-0.5,0.9c-0.2,0-0.4,0-0.5,0.1
			c-0.3,0-0.4,0.1-0.4,0.2c0,0.1,0.1,0.2,0.4,0.2c0.3,0,0.7,0,1.3,0c0.6,0,0.9,0,1,0c0.1,0,0.5,0,1.1,0c0.7,0,1.2,0,1.7,0
			c0.2,0,0.3-0.1,0.3-0.2C629.4,829.9,629.3,829.9,629.1,829.9z"/>
		<linearGradient id="SVGID_59_" gradientUnits="userSpaceOnUse" x1="631.2296" y1="823.3514" x2="646.3934" y2="823.3514">
			<stop  offset="2.150540e-002" style="stop-color:#BF8D33"/>
			<stop  offset="0.5054" style="stop-color:#F7E679"/>
			<stop  offset="1" style="stop-color:#BF8D33"/>
		</linearGradient>
		<path fill="url(#SVGID_59_)" d="M646.4,816.7c0-0.1-0.1-0.2-0.4-0.2c-0.3,0-0.7,0-1.1,0c-0.4,0-0.6,0-0.6,0c-0.1,0-0.4,0-0.9,0
			c-0.5,0-0.9,0-1.3,0c-0.3,0-0.5,0.1-0.5,0.2c0,0.1,0.1,0.2,0.3,0.2c0.5,0,0.8,0,1,0.1c0.3,0.1,0.4,0.3,0.5,0.7
			c0,0.2,0.1,0.5,0.1,0.9l0.2,8.1h-0.1c-1.4-1.5-2.7-2.8-4-4.1c-2.7-2.8-4.6-4.7-5.6-5.8c-0.3-0.4-0.6-0.6-0.7-0.6
			c-0.1,0-0.2,0.2-0.2,0.6l-0.2,10.7c0,0.8,0,1.4-0.1,1.7c-0.1,0.3-0.2,0.5-0.5,0.6c-0.2,0-0.4,0-0.6,0.1c-0.3,0-0.5,0.1-0.5,0.2
			c0,0.1,0.1,0.2,0.4,0.2c0.4,0,0.8,0,1.3,0c0.5,0,0.7,0,0.7,0c0,0,0.3,0,0.8,0c0.5,0,1,0,1.4,0c0.3,0,0.4-0.1,0.4-0.2
			c0-0.1-0.2-0.1-0.5-0.2c-0.4,0-0.7-0.1-0.7-0.1c-0.4-0.1-0.6-0.8-0.6-2l-0.2-7.6h0.1c0.5,0.6,1,1.1,1.5,1.7c1,1.1,1.9,2.1,2.8,2.9
			c2.4,2.4,4.2,4.2,5.3,5.3c0.3,0.3,0.5,0.4,0.6,0.4c0.1,0,0.2-0.2,0.2-0.6l0.2-11.4c0-0.4,0-0.8,0.1-1c0.1-0.4,0.5-0.6,1.1-0.6
			C646.3,816.9,646.4,816.9,646.4,816.7z"/>
		<linearGradient id="SVGID_60_" gradientUnits="userSpaceOnUse" x1="646.3023" y1="823.1981" x2="661.142" y2="823.1981">
			<stop  offset="2.150540e-002" style="stop-color:#BF8D33"/>
			<stop  offset="0.5054" style="stop-color:#F7E679"/>
			<stop  offset="1" style="stop-color:#BF8D33"/>
		</linearGradient>
		<path fill="url(#SVGID_60_)" d="M660.9,829.9c-0.3,0-0.5,0-0.8-0.1c-0.6-0.1-1.1-0.8-1.6-2c-1.9-4.6-3.4-8.3-4.5-11.1
			c-0.2-0.4-0.3-0.6-0.5-0.6c-0.1,0-0.3,0.2-0.5,0.7l-4.5,11.3c-0.2,0.5-0.4,0.9-0.6,1.1c-0.2,0.3-0.6,0.5-0.9,0.5
			c-0.2,0-0.4,0-0.6,0c-0.1,0-0.2,0-0.2,0.1c0,0.1,0.1,0.2,0.3,0.2c0.4,0,1.1,0,2.1-0.1c0.2,0,0.5,0,0.9,0c0.5,0,0.8,0,1,0
			c0.2,0,0.3-0.1,0.3-0.2c0-0.1-0.1-0.1-0.3-0.1h-0.3c-0.5,0-0.7-0.2-0.7-0.6c0-0.3,0.1-0.6,0.3-1.1l1-2.6c0-0.1,0.1-0.1,0.2-0.1h4
			c0.1,0,0.1,0,0.2,0.1l1.4,3.8c0.1,0.2,0,0.4-0.2,0.4c-0.2,0-0.3,0.1-0.3,0.2c0,0.1,0.2,0.1,0.5,0.1c0.8,0,1.9,0,3.4,0
			c0.3,0,0.5,0,0.6,0c0.1,0,0.2-0.1,0.2-0.1C661.1,829.9,661.1,829.9,660.9,829.9z M654.8,824.6h-3.3c-0.1,0-0.1,0-0.1-0.1l1.7-4.4
			c0-0.1,0.1-0.2,0.1-0.2c0,0,0.1,0.1,0.1,0.2l1.6,4.5C654.9,824.6,654.9,824.6,654.8,824.6z"/>
		<linearGradient id="SVGID_61_" gradientUnits="userSpaceOnUse" x1="661.3046" y1="823.4234" x2="670.753" y2="823.4234">
			<stop  offset="2.150540e-002" style="stop-color:#BF8D33"/>
			<stop  offset="0.5054" style="stop-color:#F7E679"/>
			<stop  offset="1" style="stop-color:#BF8D33"/>
		</linearGradient>
		<path fill="url(#SVGID_61_)" d="M670.6,827.4c-0.1,0-0.2,0.1-0.2,0.3c0,0.4-0.2,0.8-0.5,1.1c-0.3,0.3-1,0.5-2.1,0.5
			c-1.2,0-1.9-0.1-2.2-0.4c-0.2-0.1-0.3-0.5-0.3-1.2c0-0.4-0.1-1.3-0.1-2.7v-3.2c0-2.2,0-3.4,0-3.8c0-0.6,0.3-1,0.7-1
			c0.2,0,0.4-0.1,0.7-0.1c0.2,0,0.3-0.1,0.3-0.2c0-0.1-0.1-0.2-0.4-0.2c-0.3,0-0.7,0-1.3,0c-0.6,0-1,0-1.1,0c-0.1,0-0.5,0-1.1,0
			c-0.6,0-1.1,0-1.4,0c-0.3,0-0.4,0.1-0.4,0.2c0,0.1,0.1,0.2,0.3,0.2c0.5,0,0.8,0.1,1,0.2c0.2,0.2,0.4,0.5,0.4,0.9
			c0,0.4,0,1.7,0,3.8v3.2c0,2.1,0,3.4-0.1,3.8c-0.1,0.6-0.2,0.9-0.5,1c-0.2,0-0.4,0-0.5,0.1c-0.3,0-0.4,0.1-0.4,0.2
			c0,0.1,0.1,0.2,0.4,0.2c0.3,0,0.7,0,1.3,0c0.6,0,0.9,0,1,0c0.4,0,1.1,0,2.2,0.1c1.1,0,2.1,0.1,3,0.1c0.4,0,0.6,0,0.7,0
			c0.2,0,0.4-0.2,0.4-0.5c0.2-0.7,0.3-1.4,0.3-2.1C670.8,827.5,670.7,827.4,670.6,827.4z"/>
		<linearGradient id="SVGID_62_" gradientUnits="userSpaceOnUse" x1="677.3695" y1="823.3965" x2="689.9014" y2="823.3965">
			<stop  offset="2.150540e-002" style="stop-color:#BF8D33"/>
			<stop  offset="0.5054" style="stop-color:#F7E679"/>
			<stop  offset="1" style="stop-color:#BF8D33"/>
		</linearGradient>
		<path fill="url(#SVGID_62_)" d="M685,817.2c0.8,0,1.6,0.1,2.2,0.3c0.6,0.2,1.1,0.5,1.4,0.8c0.5,0.5,0.7,1,0.7,1.7
			c0,0.3,0.1,0.4,0.2,0.4c0.1,0,0.2-0.1,0.2-0.4c0-0.8,0.1-1.4,0.1-1.9c0-0.2,0-0.5,0.1-0.7c0-0.2,0-0.3,0-0.3
			c0-0.1-0.1-0.2-0.3-0.2c-0.8-0.1-1.4-0.2-1.8-0.3c-0.9-0.1-1.8-0.2-2.6-0.2c-2.4,0-4.3,0.6-5.7,1.9c-1.4,1.3-2.1,2.9-2.1,4.9
			c0,2.2,0.7,4,2.2,5.3c1.5,1.3,3.6,2,6.2,2c1.5,0,2.6-0.1,3.2-0.4c0.2-0.1,0.4-0.3,0.5-0.5c0.1-0.3,0.2-0.7,0.3-1.3
			c0.1-0.6,0.1-0.9,0.1-1c0-0.2-0.1-0.3-0.2-0.3c-0.1,0-0.2,0.1-0.2,0.4c-0.1,0.4-0.3,0.8-0.6,1.2c-0.4,0.4-0.9,0.7-1.5,0.9
			c-0.4,0.1-1,0.1-1.8,0.1c-1.4,0-2.6-0.5-3.7-1.6c-1.3-1.2-1.9-2.8-1.9-4.8c0-2.1,0.6-3.7,1.7-4.7
			C682.4,817.6,683.5,817.2,685,817.2z"/>
		<linearGradient id="SVGID_63_" gradientUnits="userSpaceOnUse" x1="692.0466" y1="823.4234" x2="701.4949" y2="823.4234">
			<stop  offset="2.150540e-002" style="stop-color:#BF8D33"/>
			<stop  offset="0.5054" style="stop-color:#F7E679"/>
			<stop  offset="1" style="stop-color:#BF8D33"/>
		</linearGradient>
		<path fill="url(#SVGID_63_)" d="M701.4,827.4c-0.1,0-0.2,0.1-0.2,0.3c0,0.4-0.2,0.8-0.5,1.1c-0.3,0.3-1,0.5-2.1,0.5
			c-1.2,0-1.9-0.1-2.2-0.4c-0.2-0.1-0.3-0.5-0.3-1.2c0-0.4-0.1-1.3-0.1-2.7v-3.2c0-2.2,0-3.4,0-3.8c0-0.6,0.3-1,0.7-1
			c0.2,0,0.4-0.1,0.7-0.1c0.2,0,0.3-0.1,0.3-0.2c0-0.1-0.1-0.2-0.4-0.2c-0.3,0-0.7,0-1.3,0c-0.6,0-1,0-1.1,0c-0.1,0-0.5,0-1.1,0
			c-0.6,0-1.1,0-1.4,0c-0.3,0-0.4,0.1-0.4,0.2c0,0.1,0.1,0.2,0.3,0.2c0.5,0,0.8,0.1,1,0.2c0.2,0.2,0.4,0.5,0.4,0.9
			c0,0.4,0,1.7,0,3.8v3.2c0,2.1,0,3.4-0.1,3.8c-0.1,0.6-0.2,0.9-0.5,1c-0.2,0-0.4,0-0.5,0.1c-0.3,0-0.4,0.1-0.4,0.2
			c0,0.1,0.1,0.2,0.4,0.2c0.3,0,0.7,0,1.3,0c0.6,0,0.9,0,1,0c0.4,0,1.1,0,2.2,0.1c1.1,0,2.1,0.1,3,0.1c0.4,0,0.6,0,0.7,0
			c0.2,0,0.4-0.2,0.4-0.5c0.2-0.7,0.3-1.4,0.3-2.1C701.5,827.5,701.4,827.4,701.4,827.4z"/>
		<linearGradient id="SVGID_64_" gradientUnits="userSpaceOnUse" x1="702.8466" y1="823.3514" x2="711.9522" y2="823.3514">
			<stop  offset="2.150540e-002" style="stop-color:#BF8D33"/>
			<stop  offset="0.5054" style="stop-color:#F7E679"/>
			<stop  offset="1" style="stop-color:#BF8D33"/>
		</linearGradient>
		<path fill="url(#SVGID_64_)" d="M711.8,827.5c-0.1,0-0.2,0.1-0.2,0.3c-0.1,0.7-0.4,1.1-0.8,1.3c-0.3,0.1-0.9,0.2-1.7,0.2
			c-0.9,0-1.5-0.1-1.7-0.3c-0.3-0.2-0.4-0.6-0.4-1.2v-4.2c0-0.1,0-0.2,0.1-0.2c1.4,0,2.2,0,2.6,0.1c0.6,0.1,0.9,0.3,1,0.7
			c0,0.3,0.1,0.5,0.1,0.6c0,0.1,0.1,0.2,0.2,0.2c0.1,0,0.2-0.1,0.2-0.3c0-0.1,0-0.5,0.1-1.2c0-0.4,0.1-0.7,0.1-1
			c0-0.2,0.1-0.3,0.1-0.4c0-0.1,0-0.1-0.1-0.1c0,0-0.1,0.1-0.3,0.2c-0.1,0.1-0.2,0.2-0.4,0.2c-0.1,0-0.3,0-0.5,0.1
			c-0.3,0-1.2,0-2.9,0c-0.1,0-0.1-0.1-0.1-0.2v-4.6c0-0.1,0-0.2,0.1-0.2c1.3,0,2.2,0,2.6,0.1c0.7,0.1,1.1,0.3,1.2,0.6
			c0,0.1,0.1,0.2,0.1,0.3c0,0.1,0,0.2,0,0.4c0,0.1,0.1,0.2,0.2,0.2c0.1,0,0.2-0.1,0.2-0.2c0-0.5,0.1-0.9,0.1-1.2
			c0-0.3,0-0.6,0.1-0.8c0-0.2,0.1-0.3,0.1-0.3c0-0.1,0-0.2-0.1-0.2c0,0-0.1,0-0.3,0.1c-0.2,0-0.5,0.1-0.8,0.1c-0.2,0-1.7,0-4.5,0
			c-0.1,0-0.5,0-1.1,0c-0.6,0-1.1,0-1.5,0c-0.3,0-0.4,0.1-0.4,0.2c0,0.1,0.1,0.2,0.3,0.2c0.3,0,0.5,0,0.7,0.1c0.5,0.1,0.7,0.5,0.8,1
			c0,0.4,0,1.7,0,3.8v3.2c0,2.1,0,3.4-0.1,3.8c-0.1,0.6-0.2,0.9-0.5,1c-0.2,0-0.4,0-0.5,0.1c-0.3,0-0.4,0.1-0.4,0.2
			c0,0.1,0.1,0.2,0.4,0.2c0.3,0,0.7,0,1.3,0c0.6,0,0.9,0,1,0c0.2,0,0.8,0,1.9,0.1c1,0,2.1,0.1,3.1,0.1c0.4,0,0.6,0,0.7-0.1
			c0.1,0,0.2-0.2,0.3-0.4c0.2-0.6,0.2-1.3,0.2-2C712,827.6,711.9,827.5,711.8,827.5z"/>
		<linearGradient id="SVGID_65_" gradientUnits="userSpaceOnUse" x1="711.9698" y1="823.3064" x2="741.7579" y2="823.3064">
			<stop  offset="2.150540e-002" style="stop-color:#BF8D33"/>
			<stop  offset="0.5054" style="stop-color:#F7E679"/>
			<stop  offset="1" style="stop-color:#BF8D33"/>
		</linearGradient>
		<path fill="url(#SVGID_65_)" d="M741.3,816.6c-0.3,0-0.7,0-1.1,0c-0.4,0-0.6,0-0.6,0c-0.1,0-0.4,0-0.9,0c-0.5,0-0.9,0-1.3,0
			c-0.3,0-0.5,0.1-0.5,0.2c0,0.1,0.1,0.2,0.3,0.2c0.5,0,0.8,0,1,0.1c0.3,0.1,0.4,0.3,0.5,0.7c0,0.2,0.1,0.5,0.1,0.9l0.2,8.1h-0.1
			c-1.4-1.5-2.7-2.8-4-4.1c-2.7-2.8-4.6-4.7-5.6-5.8c-0.3-0.4-0.6-0.6-0.7-0.6c-0.1,0-0.2,0.2-0.2,0.6l-0.2,10.7
			c0,0.8,0,1.4-0.1,1.7c-0.1,0.3-0.2,0.5-0.5,0.6c-0.2,0-0.4,0-0.6,0.1c-0.1,0-0.2,0-0.3,0.1c0,0-0.1,0-0.2,0c-0.3,0-0.5,0-0.8-0.1
			c-0.6-0.1-1.1-0.8-1.6-2c-1.9-4.6-3.4-8.3-4.5-11.1c-0.2-0.4-0.3-0.6-0.5-0.6c-0.1,0-0.3,0.2-0.5,0.7l-4.5,11.3
			c-0.2,0.5-0.4,0.9-0.6,1.1c-0.2,0.3-0.6,0.5-0.9,0.5c-0.2,0-0.4,0-0.6,0c-0.1,0-0.2,0-0.2,0.1c0,0.1,0.1,0.2,0.3,0.2
			c0.4,0,1.1,0,2.1-0.1c0.2,0,0.5,0,0.9,0c0.5,0,0.8,0,1,0c0.2,0,0.3-0.1,0.3-0.2c0-0.1-0.1-0.1-0.3-0.1h-0.3
			c-0.5,0-0.7-0.2-0.7-0.6c0-0.3,0.1-0.6,0.3-1.1l1-2.6c0-0.1,0.1-0.1,0.2-0.1h4c0.1,0,0.1,0,0.2,0.1l1.4,3.8c0.1,0.2,0,0.4-0.2,0.4
			c-0.2,0-0.3,0.1-0.3,0.2c0,0.1,0.2,0.1,0.5,0.1c0.8,0,1.9,0,3.4,0c0.3,0,0.5,0,0.6,0c0,0,0,0,0.1,0c0.1,0,0.2,0.1,0.3,0.1
			c0.4,0,0.8,0,1.3,0c0.5,0,0.7,0,0.7,0c0,0,0.3,0,0.8,0c0.5,0,1,0,1.4,0c0.3,0,0.4-0.1,0.4-0.2c0-0.1-0.2-0.1-0.5-0.2
			c-0.4,0-0.7-0.1-0.7-0.1c-0.4-0.1-0.6-0.8-0.6-2l-0.2-7.6h0.1c0.5,0.6,1,1.1,1.5,1.7c1,1.1,1.9,2.1,2.8,2.9
			c2.4,2.4,4.2,4.2,5.3,5.3c0.3,0.3,0.5,0.4,0.6,0.4c0.1,0,0.2-0.2,0.2-0.6l0.2-11.4c0-0.4,0-0.8,0.1-1c0.1-0.4,0.5-0.6,1.1-0.6
			c0.2,0,0.3-0.1,0.3-0.2C741.8,816.6,741.6,816.6,741.3,816.6z M720.5,824.6h-3.3c-0.1,0-0.1,0-0.1-0.1l1.7-4.4
			c0-0.1,0.1-0.2,0.1-0.2c0,0,0.1,0.1,0.1,0.2l1.6,4.5C720.6,824.6,720.6,824.6,720.5,824.6z"/>
		<linearGradient id="SVGID_66_" gradientUnits="userSpaceOnUse" x1="744.426" y1="823.3965" x2="751.9623" y2="823.3965">
			<stop  offset="2.150540e-002" style="stop-color:#BF8D33"/>
			<stop  offset="0.5054" style="stop-color:#F7E679"/>
			<stop  offset="1" style="stop-color:#BF8D33"/>
		</linearGradient>
		<path fill="url(#SVGID_66_)" d="M751.3,824.3c-0.4-0.7-1.2-1.4-2.3-2.3l-0.5-0.4c-0.7-0.6-1.2-1-1.5-1.4c-0.3-0.4-0.4-0.8-0.4-1.2
			c0-0.6,0.2-1,0.6-1.3c0.4-0.3,0.9-0.5,1.6-0.5c0.8,0,1.5,0.3,2,0.9c0.3,0.4,0.5,0.8,0.5,1.2c0,0.2,0.1,0.3,0.2,0.3
			c0.1,0,0.2-0.2,0.2-0.5c0-0.6,0-1.1,0-1.5c0-0.5,0-0.7,0-0.6c0-0.1-0.1-0.2-0.3-0.2c-0.8-0.2-1.6-0.3-2.4-0.3c-1.2,0-2.2,0.3-3,1
			c-0.8,0.6-1.2,1.5-1.2,2.5c0,1.5,0.9,2.9,2.7,4.3l0.8,0.6c1.2,0.9,1.8,1.9,1.8,2.9c0,0.5-0.2,1-0.6,1.4c-0.5,0.4-1.1,0.7-1.8,0.7
			c-1.4,0-2.2-0.6-2.6-1.8c-0.1-0.4-0.2-0.7-0.2-0.9c0-0.2-0.1-0.3-0.2-0.3c-0.1,0-0.2,0.2-0.2,0.5c-0.1,0.9-0.1,1.7-0.1,2.4
			c0,0.3,0.1,0.5,0.3,0.6c0.7,0.3,1.6,0.5,2.6,0.5c1.2,0,2.1-0.2,2.9-0.7c1.1-0.7,1.7-1.8,1.7-3.1
			C752,825.7,751.7,824.9,751.3,824.3z"/>
	</g>
	<linearGradient id="SVGID_67_" gradientUnits="userSpaceOnUse" x1="301.0531" y1="561.0598" x2="951.3957" y2="561.0598">
		<stop  offset="2.150540e-002" style="stop-color:#BF8D33"/>
		<stop  offset="0.5054" style="stop-color:#F7E679"/>
		<stop  offset="1" style="stop-color:#BF8D33"/>
	</linearGradient>
	<path fill="url(#SVGID_67_)" d="M943.8,634.3L943.8,634.3L818,634.4v-97.2h-1.3v-0.2H722v-59.7h26.8l-37.8-37.8v-43.4h-33.4v5.5
		l-19.4-19.4l-19.5,19.5c0.2-17.6,0.2-39.4-0.1-64.9c0-1.9,0.1-3.8,0.2-5.4c0.2-3.6-1.2-6.2-3.9-7.2c-1.3-0.5-2.8-0.2-3.7,0.9
		c-2.4,2.5-2.2,10.9-1.8,15.8c-0.1,2.1-0.9,31.1-5.1,59.2l-91.5-94.6l-25.6,25.6v-8h-41.3v55.1l-47.3,47.3h33.3v99.8
		c-0.4,3.6-0.4,10.8-0.6,25c0,14.6-0.6,29.7-0.8,33.4c-0.6,7.1-1.7,53.4-1.7,70.8l0.1,2.1c0.1,2.6,0.1,5.1-0.1,6.1
		c-0.1,0-0.1,0-0.2,0c-0.8,0-1.9-0.2-3.4-0.4c-0.6-0.1-1.2-0.2-1.8-0.2c-14.4-1.7-29.3-2.6-44.3-2.6c-8.6,0-17.5,0.3-25.6,0.9
		c-10.7,0.9-36.2,4.3-41.3,5.4c-1.9,0.5-3.4,0.8-4.5,1c-0.1-6.6-0.2-24-0.2-44.1c-0.2-31.2-0.7-104-2.4-107.9
		c-0.9-2.2-2.5-3.3-4.9-3.3c-1.5,0-3.1,0.8-4,2c-1,1.2-1.3,2.8-1,4.4c0,0.8,0.1,2.8,0.1,5.8c0.1,5.2,0.3,13.2,0.4,21.8
		c0,14.3,0.3,34,0.8,43.3c0.3,11.2,0.3,25.2,0,43.9c-0.3,13.8-0.3,27.5-0.3,32.8c0,1.6-0.1,3-0.2,3.8c-1.9,0.6-6.3,1.6-8.5,1.9
		c-2.1,0-4,0.9-4.4,1.1l-0.3,0.1l-0.2,0.2c-1.4,1.2-1.9,3.2-1.1,5.3c0.9,2.5,3.5,5.1,6.5,5.1c0.3,0,0.6,0,0.9-0.1c0.1,0,0.2,0,0.3,0
		c0.4,0,1.6,0,3.9,2.6c2.5,3,2.5,3,2.5,11.6c-0.6,17.3-0.3,53.4,0,58.7l0,0.2c1.1,9.3,1.7,13.9,2.3,16.5c2.3,8.3,4.6,12.2,7.8,13.7
		c1.3,0.7,2.5,1.1,4.2,1.1c1.8,0,3.5-0.7,4.8-2.1c4.3-4.4,6.1-16.8,5.6-40c-0.3-28.3-2.3-38.6-11-55c-2.5-5.2-3.5-9.7-2.8-12
		c1.3-1,10.6-2.4,23.3-4.4c1,0,2.5-0.2,4.4-0.4c2.1-0.3,4.4-0.5,6.5-0.7l0.1,0c2.7-0.3,5.5-0.7,7.9-0.9c1.6-0.2,3-0.4,4-0.5
		c3.5-0.5,16.4-0.8,30.1-0.8c7.2,0,13.1,0.1,16.5,0.3c15.3,1.1,25.5,2.2,28.9,2.8c0.2,2.9,0.4,11.3,0.7,34.3
		c0.1,8.7,0.2,20.3,0.4,33.4c0.1,4.8,0.1,15.8,0.2,20.9h11.5c0-0.2,0-0.4,0-0.5c-1.2-12.6-1.8-73.9-1.2-85.9
		c0.3,0.1,0.5,0.1,0.8,0.1l0.1,0c3.8,0.5,10,2.9,11,3.8c1.2,1.2,2.7,1.9,4.3,1.9c1.9,0,3.7-1.1,4.5-2.9c1-2,0.6-4.3-0.9-6.2
		c-2.9-3.7-8.7-5.5-17.6-7.4l-2.3-0.5l-0.2-6.7c0-7.3,0.6-38.5,2.3-88.9c0.3-14,0.4-23.4,0.3-30.2l0.7-0.2V414.4h-17.7l31.7-31.7
		v-48.6h19.2v23.6l36.6-36.6l89.3,92.4c0,0.1-0.1,0.3-0.1,0.4l-0.6,3h2.2l-29.3,29.3l-22.2,21.9l-9,9h26.7v37.3h6.8
		c1.2,0,2.2,0.3,2.9,0.9v-47.9h-12.9l1.8-1.8l0.1,0.1l69.8-69.8l29.2,29.2v-19.3h13.9v37.7l24,24h-13.1v77.1h98.1v97h1.6v0.4h131.9
		v167H810.6v7.6h140.8V634.3H943.8z M328.6,769.5c-2-9.3-2.7-25.2-2.5-53.6l0.1-2.7C329.5,728.6,330.6,754.6,328.6,769.5z"/>
</g>
</svg>
