<?xml version="1.0" encoding="utf-8"?>
<!-- Generator: Adobe Illustrator 17.1.0, SVG Export Plug-In . SVG Version: 6.00 Build 0)  -->
<!DOCTYPE svg PUBLIC "-//W3C//DTD SVG 1.1//EN" "http://www.w3.org/Graphics/SVG/1.1/DTD/svg11.dtd">
<svg version="1.1" id="Layer_1" xmlns="http://www.w3.org/2000/svg" xmlns:xlink="http://www.w3.org/1999/xlink" x="0px" y="0px"
	 viewBox="0 0 1180 1180" enable-background="new 0 0 1180 1180" xml:space="preserve">
<rect x="-25.2" y="-31.1" width="1248.1" height="1256.9"/>
<g>
	<linearGradient id="SVGID_1_" gradientUnits="userSpaceOnUse" x1="158.9189" y1="713.4368" x2="227.5781" y2="713.4368">
		<stop  offset="2.150540e-002" style="stop-color:#BF8D33"/>
		<stop  offset="0.5054" style="stop-color:#F7E679"/>
		<stop  offset="1" style="stop-color:#BF8D33"/>
	</linearGradient>
	<path fill="url(#SVGID_1_)" d="M171.8,743.5c0.5,0,2.2,0,5.1,0.1c2.9,0.1,5.4,0.1,7.4,0.1c1.1,0,1.6-0.3,1.6-0.8
		c0-0.4-0.4-0.6-1.3-0.6c-1.2,0-2.5-0.1-4.1-0.3c-1.8-0.3-2.8-1.7-3.1-4.3c-0.3-2.4-0.4-8.1-0.4-17.2v-7.1c0-0.3,0.2-0.5,0.5-0.5
		h30.6c0.3,0,0.5,0.2,0.5,0.5v7.1c0,9.3-0.1,15-0.4,17.1c-0.3,2.7-1.1,4.1-2.3,4.4c-0.8,0.1-1.6,0.1-2.4,0.2
		c-1.2,0.1-1.8,0.3-1.8,0.7c0,0.5,0.6,0.8,1.7,0.8c1.2,0,3,0,5.5-0.1c2.5-0.1,4-0.1,4.5-0.1s2.2,0,5.1,0.1c2.9,0.1,5.4,0.1,7.4,0.1
		c1.1,0,1.6-0.3,1.6-0.8c0-0.4-0.4-0.6-1.3-0.6c-1.2,0-2.5-0.1-4.1-0.3c-1.8-0.3-2.8-1.7-3.1-4.3c-0.3-2.4-0.4-8.1-0.4-17.2v-14.1
		c0-9.6,0.1-15.2,0.2-17c0.2-2.7,1.1-4.3,3-4.6c0.9-0.2,1.7-0.2,2.3-0.2c1,0,1.4-0.2,1.4-0.7s-0.6-0.7-1.7-0.7s-3,0-5.5,0.1
		c-2.5,0.1-4.1,0.1-4.6,0.1c-0.5,0-2.2,0-5-0.1c-2.8-0.1-5-0.1-6.6-0.1c-1.1,0-1.7,0.2-1.7,0.7s0.5,0.7,1.4,0.7
		c1.3,0,2.4,0.1,3.1,0.2c2.1,0.5,3.3,2,3.4,4.6c0.1,1.8,0.2,7.4,0.2,17v1.7c0,0.4-0.2,0.6-0.5,0.6h-30.6c-0.3,0-0.5-0.2-0.5-0.6
		v-1.7c0-9.6,0.1-15.2,0.2-17c0.2-2.7,1.1-4.3,3-4.6c0.9-0.2,1.7-0.2,2.3-0.2c1,0,1.4-0.2,1.4-0.7s-0.6-0.7-1.7-0.7
		c-1.1,0-3,0-5.5,0.1c-2.5,0.1-4.1,0.1-4.6,0.1c-0.5,0-2.2,0-5-0.1c-2.8-0.1-5-0.1-6.6-0.1c-1.1,0-1.7,0.2-1.7,0.7s0.5,0.7,1.4,0.7
		c1.3,0,2.4,0.1,3.1,0.2c2.1,0.5,3.3,2,3.4,4.6c0.1,1.8,0.2,7.4,0.2,17v14.1c0,9.3-0.1,15-0.4,17.1c-0.3,2.7-1.1,4.1-2.3,4.4
		c-0.8,0.1-1.6,0.1-2.4,0.2c-1.2,0.1-1.8,0.3-1.8,0.7c0,0.5,0.5,0.8,1.6,0.8c1.2,0,3,0,5.6-0.1C169.8,743.6,171.4,743.5,171.8,743.5
		z"/>
	<linearGradient id="SVGID_2_" gradientUnits="userSpaceOnUse" x1="236.2397" y1="713.4368" x2="301.771" y2="713.4368">
		<stop  offset="2.150540e-002" style="stop-color:#BF8D33"/>
		<stop  offset="0.5054" style="stop-color:#F7E679"/>
		<stop  offset="1" style="stop-color:#BF8D33"/>
	</linearGradient>
	<path fill="url(#SVGID_2_)" d="M268.6,744.9c10,0,18.1-3.2,24.2-9.5c6-6.1,9-13.9,9-23.3c0-9.2-2.9-16.5-8.7-21.9
		c-5.8-5.4-13.7-8.1-23.7-8.1c-11,0-19.5,3.5-25.6,10.6c-5,5.8-7.5,12.8-7.5,20.9c0,8.2,2.5,15.2,7.5,21
		C249.7,741.4,258,744.9,268.6,744.9z M253.7,690.9c3.4-3.4,7.8-5.1,13.3-5.1c6.7,0,12.3,2.6,16.7,7.8c4.5,5.5,6.8,12.6,6.8,21.3
		c0,10.1-2.4,17.3-7.2,21.7c-3.1,2.8-6.9,4.3-11.4,4.3c-7.5,0-13.5-2.9-18-8.7c-4.4-5.5-6.6-12.6-6.6-21.2
		C247.3,701.9,249.4,695.2,253.7,690.9z"/>
	<linearGradient id="SVGID_3_" gradientUnits="userSpaceOnUse" x1="311.7163" y1="713.5574" x2="353.7461" y2="713.5574">
		<stop  offset="2.150540e-002" style="stop-color:#BF8D33"/>
		<stop  offset="0.5054" style="stop-color:#F7E679"/>
		<stop  offset="1" style="stop-color:#BF8D33"/>
	</linearGradient>
	<path fill="url(#SVGID_3_)" d="M318.9,737.6c-0.3,2.7-1.1,4.1-2.3,4.4c-0.8,0.1-1.6,0.1-2.4,0.2c-1.2,0.1-1.8,0.3-1.8,0.7
		c0,0.5,0.5,0.8,1.6,0.8c1.2,0,3,0,5.6-0.1c2.5-0.1,4.1-0.1,4.5-0.1c1.8,0,5,0.1,9.8,0.2c4.8,0.2,9.3,0.2,13.6,0.2
		c1.7,0,2.8-0.1,3.1-0.2c1-0.2,1.6-0.9,1.9-2c0.8-2.9,1.2-6,1.2-9.2c0-0.9-0.2-1.4-0.6-1.4c-0.5,0-0.8,0.4-0.9,1.2
		c-0.2,1.9-0.9,3.5-2.1,4.8c-1.4,1.5-4.5,2.2-9.4,2.2c-5.1,0-8.4-0.6-9.7-1.8c-0.7-0.6-1.2-2.4-1.4-5.3c-0.2-1.9-0.2-5.9-0.2-12
		v-14.1c0-9.6,0.1-15.2,0.2-17c0.2-2.7,1.1-4.3,3-4.6c0.9-0.2,2-0.2,3.1-0.2c1,0,1.4-0.2,1.4-0.7s-0.6-0.7-1.7-0.7s-3.1,0-5.9,0.1
		c-2.8,0.1-4.5,0.1-5,0.1c-0.6,0-2.2,0-4.9-0.1c-2.7-0.1-4.7-0.1-6.1-0.1c-1.2,0-1.8,0.2-1.8,0.7s0.5,0.7,1.4,0.7
		c2,0,3.5,0.3,4.3,0.8c1.1,0.7,1.7,2,1.8,4c0.1,1.8,0.2,7.4,0.2,17v14.1C319.3,729.8,319.2,735.5,318.9,737.6z"/>
	<linearGradient id="SVGID_4_" gradientUnits="userSpaceOnUse" x1="360.2427" y1="713.5574" x2="402.2725" y2="713.5574">
		<stop  offset="2.150540e-002" style="stop-color:#BF8D33"/>
		<stop  offset="0.5054" style="stop-color:#F7E679"/>
		<stop  offset="1" style="stop-color:#BF8D33"/>
	</linearGradient>
	<path fill="url(#SVGID_4_)" d="M367.5,737.6c-0.3,2.7-1.1,4.1-2.3,4.4c-0.8,0.1-1.6,0.1-2.4,0.2c-1.2,0.1-1.8,0.3-1.8,0.7
		c0,0.5,0.5,0.8,1.6,0.8c1.2,0,3,0,5.6-0.1c2.5-0.1,4.1-0.1,4.5-0.1c1.8,0,5,0.1,9.8,0.2c4.8,0.2,9.3,0.2,13.6,0.2
		c1.7,0,2.8-0.1,3.1-0.2c1-0.2,1.6-0.9,1.9-2c0.8-2.9,1.2-6,1.2-9.2c0-0.9-0.2-1.4-0.6-1.4c-0.5,0-0.8,0.4-0.9,1.2
		c-0.2,1.9-0.9,3.5-2.1,4.8c-1.4,1.5-4.5,2.2-9.4,2.2c-5.1,0-8.4-0.6-9.7-1.8c-0.7-0.6-1.2-2.4-1.4-5.3c-0.2-1.9-0.2-5.9-0.2-12
		v-14.1c0-9.6,0.1-15.2,0.2-17c0.2-2.7,1.1-4.3,3-4.6c0.9-0.2,2-0.2,3.1-0.2c1,0,1.4-0.2,1.4-0.7s-0.6-0.7-1.7-0.7s-3.1,0-5.9,0.1
		c-2.8,0.1-4.5,0.1-5,0.1c-0.6,0-2.2,0-4.9-0.1c-2.7-0.1-4.7-0.1-6.1-0.1c-1.2,0-1.8,0.2-1.8,0.7s0.5,0.7,1.4,0.7
		c2,0,3.5,0.3,4.3,0.8c1.1,0.7,1.7,2,1.8,4c0.1,1.8,0.2,7.4,0.2,17v14.1C367.9,729.8,367.7,735.5,367.5,737.6z"/>
	<linearGradient id="SVGID_5_" gradientUnits="userSpaceOnUse" x1="399.3042" y1="713.4368" x2="461.3862" y2="713.4368">
		<stop  offset="2.150540e-002" style="stop-color:#BF8D33"/>
		<stop  offset="0.5054" style="stop-color:#F7E679"/>
		<stop  offset="1" style="stop-color:#BF8D33"/>
	</linearGradient>
	<path fill="url(#SVGID_5_)" d="M459.8,684.6c1,0,1.6-0.3,1.6-0.8c0-0.4-0.5-0.6-1.4-0.6c-0.5,0-1.9,0-4.2,0.1s-3.8,0.1-4.4,0.1
		c-0.7,0-2,0-3.6-0.1c-1.7-0.1-3-0.1-3.9-0.1c-0.9,0-1.4,0.2-1.4,0.7c0,0.3,0.5,0.6,1.6,0.8c1,0.2,1.6,0.9,1.6,2
		c0,1.1-0.4,2.5-1.1,4.2c-4.4,8.2-8.4,15.5-12,22.1c-8.9-15.5-13.4-23.5-13.6-24c-0.6-1.3-1-2.2-1-2.7c0-0.8,0.4-1.3,1.1-1.4
		c1.2-0.3,1.8-0.6,1.8-0.9c0-0.5-0.4-0.7-1.2-0.7c-1.3,0-3,0-5,0.1c-2,0.1-3.2,0.1-3.6,0.1c-1,0-2.8,0-5.5-0.1
		c-2.7-0.1-4.2-0.1-4.6-0.1c-1,0-1.5,0.2-1.5,0.7s0.4,0.7,1.2,0.7c1,0,2.1,0.3,3.4,1c1.7,1,3.6,2.9,5.5,5.9c1.3,2,3.9,6.2,7.8,12.6
		c3.9,6.4,6,9.9,6.3,10.5c1.2,2.8,1.8,5.6,1.8,8.4v6.6c0,3-0.1,5.7-0.2,8c-0.2,2.6-1,4.1-2.5,4.4c-0.8,0.1-1.6,0.1-2.3,0.2
		c-1.2,0.2-1.8,0.4-1.8,0.7c0,0.5,0.6,0.8,1.8,0.8c1.1,0,2.9,0,5.4-0.1c2.5-0.1,4.1-0.1,4.7-0.1c0.5,0,2.2,0,5.1,0.1
		s5.3,0.1,7.2,0.1c1.1,0,1.7-0.3,1.7-0.8c0-0.4-0.4-0.6-1.3-0.6c-1.1,0-2.5-0.1-4-0.3c-1.8-0.2-2.8-1.3-3.2-3.3
		c-0.3-1.4-0.4-4.4-0.4-9.1V723c0-3.4,0.4-6.1,1.2-8c0.8-1.8,3.2-6.1,7.3-12.9c4.1-6.8,6.8-11,8.1-12.6c1.7-2,3.1-3.3,4.4-3.9
		S458.8,684.6,459.8,684.6z"/>
	<linearGradient id="SVGID_6_" gradientUnits="userSpaceOnUse" x1="460.4238" y1="688.5721" x2="471.0112" y2="688.5721">
		<stop  offset="2.150540e-002" style="stop-color:#BF8D33"/>
		<stop  offset="0.5054" style="stop-color:#F7E679"/>
		<stop  offset="1" style="stop-color:#BF8D33"/>
	</linearGradient>
	<path fill="url(#SVGID_6_)" d="M460.4,698.9c0,0.3,0.2,0.5,0.5,0.5c0.4,0,0.9-0.2,1.3-0.6c2-2,4-4.7,5.8-8.1c2-3.7,3-6.8,3-9.1
		c0-1.1-0.8-1.8-2.3-2.3c-3.4-1-5.6-1.5-6.7-1.5c-0.6,0-0.9,0.2-0.9,0.6c0,0.4,0.3,0.9,0.9,1.4c1.3,1.3,1.9,3.1,1.9,5.5
		c0,4.3-1,8.5-3.1,12.5C460.6,698.4,460.4,698.8,460.4,698.9z"/>
	<linearGradient id="SVGID_7_" gradientUnits="userSpaceOnUse" x1="481.6782" y1="713.4368" x2="515.2061" y2="713.4368">
		<stop  offset="2.150540e-002" style="stop-color:#BF8D33"/>
		<stop  offset="0.5054" style="stop-color:#F7E679"/>
		<stop  offset="1" style="stop-color:#BF8D33"/>
	</linearGradient>
	<path fill="url(#SVGID_7_)" d="M507.7,741.6c5-3.3,7.5-7.9,7.5-14c0-3.8-1-7.3-3-10.4c-2-3.1-5.4-6.4-10.2-10.1l-2.2-1.7
		c-3.3-2.5-5.5-4.5-6.7-6.2s-1.8-3.5-1.8-5.3c0-2.5,0.9-4.5,2.6-6c1.7-1.5,4-2.3,7-2.3c3.7,0,6.7,1.3,8.7,3.9
		c1.4,1.8,2.1,3.5,2.1,5.3c0,1,0.3,1.4,0.8,1.4c0.6,0,0.9-0.8,0.9-2.4c0-2.5,0.1-4.8,0.2-6.8c0.1-2,0.2-3,0.2-2.8
		c0-0.4-0.4-0.7-1.1-1c-3.6-0.9-7.2-1.4-10.7-1.4c-5.5,0-10,1.4-13.4,4.3c-3.4,2.8-5.1,6.5-5.1,10.9c0,6.5,4,12.8,11.9,19l3.7,2.9
		c5.2,4.1,7.9,8.4,7.9,12.8c0,2.4-0.9,4.4-2.6,6.2c-2,2-4.7,3-8.1,3c-6,0-9.9-2.7-11.5-8.1c-0.5-1.6-0.7-3-0.7-4.1
		c0-0.9-0.3-1.4-0.8-1.4c-0.5,0-0.9,0.7-1,2.1c-0.3,4.1-0.4,7.6-0.4,10.5c0,1.4,0.5,2.3,1.5,2.7c3.2,1.4,7.1,2.1,11.7,2.1
		C500,744.9,504.3,743.8,507.7,741.6z"/>
	<linearGradient id="SVGID_8_" gradientUnits="userSpaceOnUse" x1="549.6138" y1="713.4368" x2="605.3594" y2="713.4368">
		<stop  offset="2.150540e-002" style="stop-color:#BF8D33"/>
		<stop  offset="0.5054" style="stop-color:#F7E679"/>
		<stop  offset="1" style="stop-color:#BF8D33"/>
	</linearGradient>
	<path fill="url(#SVGID_8_)" d="M568.3,690.9c3.6-3.3,8.7-5,15.1-5c3.6,0,6.9,0.5,9.9,1.4c2.8,0.9,4.9,2.1,6.3,3.5
		c2,2.1,3.1,4.6,3.1,7.4c0,1.2,0.3,1.8,0.8,1.8c0.5,0,0.9-0.6,1-1.8c0.1-3.4,0.2-6.3,0.3-8.7c0.1-1.1,0.2-2.1,0.3-3
		c0.1-0.7,0.2-1.2,0.2-1.4c0-0.6-0.4-0.9-1.2-1c-3.5-0.5-6.2-1-8-1.4c-4.1-0.5-8-0.8-11.7-0.8c-10.7,0-19.2,2.8-25.5,8.5
		c-6.2,5.7-9.4,13-9.4,21.9c0,10,3.3,17.9,10,23.7c6.7,5.8,15.8,8.7,27.5,8.7c6.6,0,11.4-0.6,14.4-1.8c1.1-0.4,1.8-1.2,2.1-2.4
		c0.3-1.2,0.7-3.2,1.2-5.9c0.4-2.5,0.6-4.1,0.6-4.7c0-0.8-0.2-1.2-0.7-1.2s-0.8,0.5-1,1.6c-0.4,1.9-1.3,3.7-2.7,5.3
		c-1.7,1.9-3.9,3.2-6.7,3.8c-1.9,0.4-4.5,0.6-7.9,0.6c-6.1,0-11.7-2.4-16.7-7.1c-5.7-5.5-8.6-12.6-8.6-21.4
		C560.9,702.3,563.4,695.4,568.3,690.9z"/>
	<linearGradient id="SVGID_9_" gradientUnits="userSpaceOnUse" x1="614.9033" y1="713.5574" x2="656.9336" y2="713.5574">
		<stop  offset="2.150540e-002" style="stop-color:#BF8D33"/>
		<stop  offset="0.5054" style="stop-color:#F7E679"/>
		<stop  offset="1" style="stop-color:#BF8D33"/>
	</linearGradient>
	<path fill="url(#SVGID_9_)" d="M656.3,731.2c-0.5,0-0.8,0.4-0.9,1.2c-0.2,1.9-0.9,3.5-2.1,4.8c-1.4,1.5-4.5,2.2-9.4,2.2
		c-5.1,0-8.4-0.6-9.7-1.8c-0.8-0.6-1.2-2.4-1.4-5.3c-0.2-1.9-0.2-5.9-0.2-12v-14.1c0-9.6,0.1-15.2,0.2-17c0.2-2.7,1.1-4.3,3-4.6
		c0.9-0.2,2-0.2,3.1-0.2c1,0,1.4-0.2,1.4-0.7s-0.6-0.7-1.7-0.7s-3.1,0-5.9,0.1s-4.5,0.1-5,0.1c-0.6,0-2.2,0-4.9-0.1
		s-4.7-0.1-6.1-0.1c-1.2,0-1.8,0.2-1.8,0.7s0.5,0.7,1.4,0.7c2,0,3.5,0.3,4.3,0.8c1.1,0.7,1.7,2,1.8,4c0.1,1.8,0.2,7.4,0.2,17v14.1
		c0,9.3-0.1,15-0.4,17.1c-0.3,2.7-1.1,4.1-2.3,4.4c-0.8,0.1-1.6,0.1-2.4,0.2c-1.2,0.1-1.8,0.3-1.8,0.7c0,0.5,0.5,0.8,1.6,0.8
		c1.2,0,3,0,5.6-0.1c2.5-0.1,4-0.1,4.5-0.1c1.8,0,5,0.1,9.8,0.2c4.8,0.2,9.3,0.2,13.6,0.2c1.7,0,2.8-0.1,3.1-0.2
		c1-0.2,1.6-0.9,1.9-2c0.8-2.9,1.2-6,1.2-9.2C656.9,731.7,656.7,731.2,656.3,731.2z"/>
	<linearGradient id="SVGID_10_" gradientUnits="userSpaceOnUse" x1="662.9482" y1="713.2366" x2="703.4541" y2="713.2366">
		<stop  offset="2.150540e-002" style="stop-color:#BF8D33"/>
		<stop  offset="0.5054" style="stop-color:#F7E679"/>
		<stop  offset="1" style="stop-color:#BF8D33"/>
	</linearGradient>
	<path fill="url(#SVGID_10_)" d="M702.4,741.9c0.7-2.7,1-5.6,1-8.9c0-1-0.2-1.4-0.6-1.4c-0.4,0-0.7,0.4-0.9,1.2
		c-0.5,3.1-1.7,5.1-3.6,5.9c-1.4,0.6-3.9,1-7.6,1c-4,0-6.6-0.4-7.8-1.2c-1.2-0.8-1.8-2.7-1.9-5.5v-18.8c0-0.5,0.2-0.8,0.5-0.8
		c6.1,0,9.9,0.1,11.4,0.2c2.6,0.3,4.1,1.3,4.5,3.1c0.2,1.3,0.3,2.2,0.3,2.8s0.2,0.8,0.7,0.8c0.5,0,0.7-0.5,0.7-1.5
		c0-0.5,0.1-2.3,0.3-5.4c0.1-1.6,0.2-3,0.4-4.3c0.2-1,0.2-1.5,0.2-1.6c0-0.4-0.2-0.6-0.6-0.6c-0.2,0-0.6,0.3-1.3,1
		c-0.4,0.4-1,0.8-1.8,1c-0.5,0.1-1.2,0.2-2.1,0.2c-1.2,0.1-5.5,0.2-12.9,0.2c-0.4,0-0.6-0.3-0.6-0.9v-20.3c0-0.5,0.2-0.8,0.6-0.8
		c5.8,0,9.6,0.1,11.4,0.3c3,0.4,4.8,1.3,5.4,2.9c0.2,0.4,0.3,0.9,0.3,1.4c0.1,0.5,0.1,1.1,0.2,1.7c0.1,0.6,0.3,0.9,0.7,0.9
		c0.4,0,0.7-0.3,0.8-0.9c0.2-2.1,0.4-3.8,0.4-5.3c0.1-1.4,0.2-2.7,0.4-3.8c0.2-0.9,0.2-1.4,0.2-1.4c0-0.5-0.2-0.7-0.5-0.7
		c0.1,0-0.4,0.1-1.3,0.3c-0.9,0.2-2.1,0.4-3.4,0.5c-0.7,0.1-7.4,0.1-20.1,0.1c-0.6,0-2.3,0-5-0.1s-4.9-0.1-6.5-0.1
		c-1.2,0-1.8,0.2-1.8,0.7s0.5,0.7,1.4,0.7c1.3,0,2.4,0.1,3.1,0.2c2.1,0.5,3.3,2,3.4,4.6c0.1,1.8,0.2,7.4,0.2,17v14.1
		c0,9.3-0.1,15-0.4,17.1c-0.3,2.7-1.1,4.1-2.3,4.4c-0.8,0.1-1.6,0.1-2.4,0.2c-1.2,0.1-1.8,0.3-1.8,0.7c0,0.5,0.5,0.8,1.6,0.8
		c1.2,0,3,0,5.6-0.1c2.5-0.1,4-0.1,4.5-0.1c1,0,3.7,0.1,8.3,0.2c4.6,0.2,9.2,0.2,13.9,0.2c1.7,0,2.7-0.1,3.2-0.3
		S702.1,742.9,702.4,741.9z"/>
	<linearGradient id="SVGID_11_" gradientUnits="userSpaceOnUse" x1="703.5342" y1="713.0359" x2="836.04" y2="713.0359">
		<stop  offset="2.150540e-002" style="stop-color:#BF8D33"/>
		<stop  offset="0.5054" style="stop-color:#F7E679"/>
		<stop  offset="1" style="stop-color:#BF8D33"/>
	</linearGradient>
	<path fill="url(#SVGID_11_)" d="M788.6,706.6c4.5,4.9,8.6,9.2,12.3,12.8c10.6,10.6,18.5,18.5,23.7,23.6c1.2,1.2,2.1,1.8,2.7,1.8
		c0.6,0,1-0.8,1-2.5l0.9-50.6c0.1-2,0.2-3.4,0.5-4.4c0.6-1.8,2.2-2.6,4.9-2.6c1,0,1.4-0.2,1.4-0.7s-0.6-0.7-1.8-0.7
		c-1.6,0-3.2,0-5.1,0.1c-1.8,0.1-2.8,0.1-2.8,0.1c-0.4,0-1.7,0-3.9-0.1s-4.2-0.1-5.8-0.1c-1.4,0-2.1,0.2-2.1,0.7s0.4,0.7,1.3,0.7
		c2,0,3.4,0.2,4.3,0.5c1.2,0.5,2,1.5,2.4,3.1c0.2,0.8,0.3,2.1,0.3,4.1l0.8,36h-0.4c-6.3-6.5-12.2-12.6-17.6-18.3
		c-12.2-12.5-20.5-21-24.9-25.7c-1.6-1.7-2.5-2.5-3-2.5c-0.6,0-1,0.9-1,2.7L776,732c-0.1,3.7-0.2,6.1-0.5,7.4c-0.3,1.4-1,2.2-2,2.6
		c-0.9,0.1-1.8,0.2-2.8,0.3c-0.6,0-1.1,0.1-1.4,0.2c-0.2-0.1-0.4-0.1-0.7-0.1c-1.3,0-2.4-0.1-3.4-0.3c-2.5-0.5-4.8-3.4-7.1-8.7
		c-8.3-20.5-15-36.9-19.9-49.3c-0.8-1.7-1.4-2.6-2-2.6c-0.6,0-1.4,1.1-2.2,3.2l-20.1,50.4c-0.9,2.3-1.8,4-2.6,5
		c-1.1,1.3-2.5,2-4.2,2.2c-0.8,0.1-1.6,0.2-2.5,0.2c-0.6,0-1,0.2-1,0.6c0,0.5,0.5,0.8,1.5,0.8c1.7,0,4.8-0.1,9.5-0.2
		c0.8,0,2.2,0,4.2,0.1s3.4,0.1,4.3,0.1c0.9,0,1.4-0.3,1.4-0.8c0-0.4-0.4-0.6-1.2-0.6H722c-2.1,0-3.2-0.8-3.2-2.5
		c0-1.1,0.4-2.8,1.2-4.9l4.3-11.5c0.2-0.4,0.4-0.6,0.7-0.6h17.9c0.4,0,0.6,0.2,0.8,0.6l6.4,17c0.4,1,0.1,1.6-0.7,1.8
		c-0.8,0.1-1.1,0.3-1.1,0.7c0,0.4,0.8,0.6,2.4,0.6c3.5,0.1,8.5,0.2,15.2,0.2c1.4,0,2.4-0.1,2.9-0.2c0.1,0,0.2,0,0.2-0.1
		c0.3,0.1,0.7,0.2,1.4,0.2c1.7,0,3.5,0,5.6-0.1c2.1-0.1,3.1-0.1,3-0.1c0.2,0,1.4,0,3.6,0.1c2.2,0.1,4.3,0.1,6.3,0.1
		c1.2,0,1.8-0.3,1.8-0.8c0-0.3-0.8-0.6-2.4-0.8c-1.9-0.2-3-0.3-3.1-0.4c-1.7-0.6-2.6-3.6-2.8-8.9l-0.9-33.7h0.2
		C784.1,701.6,786.3,704.1,788.6,706.6z M741.4,718.8h-14.8c-0.3,0-0.4-0.2-0.3-0.6l7.4-19.7c0.1-0.5,0.3-0.7,0.5-0.7
		c0.2,0,0.3,0.2,0.4,0.7l7.2,19.8C741.9,718.7,741.8,718.8,741.4,718.8z"/>
	<linearGradient id="SVGID_12_" gradientUnits="userSpaceOnUse" x1="846.7871" y1="713.4368" x2="872.6953" y2="713.4368">
		<stop  offset="2.150540e-002" style="stop-color:#BF8D33"/>
		<stop  offset="0.5054" style="stop-color:#F7E679"/>
		<stop  offset="1" style="stop-color:#BF8D33"/>
	</linearGradient>
	<path fill="url(#SVGID_12_)" d="M853.4,738c-0.3,2.4-1,3.7-2.3,4c-0.8,0.1-1.6,0.1-2.4,0.2c-1.2,0.1-1.8,0.3-1.8,0.7
		c0,0.5,0.5,0.8,1.6,0.8c1.2,0,3,0,5.6-0.1c2.5-0.1,4-0.1,4.5-0.1s2.2,0,5.1,0.1c2.9,0.1,5.4,0.1,7.4,0.1c1,0,1.5-0.3,1.5-0.8
		c0-0.4-0.4-0.6-1.3-0.6c-1.2,0-2.5-0.1-4.1-0.3c-1.9-0.3-3-1.6-3.2-3.9c-0.2-2.1-0.3-8-0.3-17.6v-14.1c0-9.6,0.1-15.2,0.2-17
		c0.2-2.7,1.1-4.3,2.9-4.6c0.9-0.2,1.7-0.2,2.5-0.2s1.1-0.3,1.1-0.8c0-0.4-0.6-0.6-1.7-0.6c-1.1,0-2.9,0-5.3,0.1
		c-2.4,0.1-3.9,0.1-4.5,0.1c-0.7,0-2.3,0-4.9-0.1c-2.6-0.1-4.4-0.1-5.5-0.1c-1.3,0-1.9,0.2-1.9,0.6c0,0.5,0.5,0.8,1.4,0.8
		c0.9,0,1.9,0.1,2.8,0.3c1.7,0.4,2.6,1.9,2.7,4.5c0.1,1.8,0.2,7.4,0.2,17v14.1C853.8,729.8,853.7,735.6,853.4,738z"/>
	<linearGradient id="SVGID_13_" gradientUnits="userSpaceOnUse" x1="880.7949" y1="713.2361" x2="948.252" y2="713.2361">
		<stop  offset="2.150540e-002" style="stop-color:#BF8D33"/>
		<stop  offset="0.5054" style="stop-color:#F7E679"/>
		<stop  offset="1" style="stop-color:#BF8D33"/>
	</linearGradient>
	<path fill="url(#SVGID_13_)" d="M882.6,743.8c1.7,0,3.5,0,5.6-0.1c2.1-0.1,3.1-0.1,3-0.1c0.2,0,1.4,0,3.6,0.1
		c2.2,0.1,4.3,0.1,6.3,0.1c1.2,0,1.8-0.3,1.8-0.8c0-0.3-0.8-0.6-2.4-0.8c-1.9-0.2-3-0.3-3.1-0.4c-1.7-0.6-2.6-3.6-2.8-8.9l-0.9-33.7
		h0.2c2.2,2.5,4.5,4.9,6.8,7.5c4.5,4.9,8.6,9.2,12.3,12.8c10.6,10.6,18.5,18.5,23.7,23.6c1.2,1.2,2.1,1.8,2.7,1.8c0.6,0,1-0.8,1-2.5
		l0.9-50.6c0.1-2,0.2-3.4,0.5-4.4c0.6-1.8,2.2-2.6,4.9-2.6c1,0,1.4-0.2,1.4-0.7s-0.6-0.7-1.8-0.7c-1.6,0-3.2,0-5.1,0.1
		c-1.8,0.1-2.8,0.1-2.8,0.1c-0.4,0-1.7,0-3.9-0.1s-4.2-0.1-5.8-0.1c-1.4,0-2.1,0.2-2.1,0.7s0.4,0.7,1.3,0.7c2,0,3.4,0.2,4.3,0.5
		c1.2,0.5,2,1.5,2.4,3.1c0.2,0.8,0.3,2.1,0.3,4.1l0.8,36h-0.4c-6.3-6.5-12.2-12.6-17.6-18.3c-12.2-12.5-20.5-21-24.9-25.7
		c-1.6-1.7-2.5-2.5-3-2.5c-0.6,0-1,0.9-1,2.7l-0.7,47.5c-0.1,3.7-0.2,6.1-0.5,7.4c-0.3,1.4-1,2.2-2,2.6c-0.9,0.1-1.8,0.2-2.8,0.3
		c-1.4,0.1-2.1,0.3-2.1,0.7C880.8,743.5,881.4,743.8,882.6,743.8z"/>
	<linearGradient id="SVGID_14_" gradientUnits="userSpaceOnUse" x1="957.3145" y1="713.4368" x2="1021.0811" y2="713.4368">
		<stop  offset="2.150540e-002" style="stop-color:#BF8D33"/>
		<stop  offset="0.5054" style="stop-color:#F7E679"/>
		<stop  offset="1" style="stop-color:#BF8D33"/>
	</linearGradient>
	<path fill="url(#SVGID_14_)" d="M1019.5,713.7c-0.9,0-2.5,0-4.8,0.1c-2.3,0.1-3.8,0.1-4.6,0.1c-0.6,0-2.4,0-5.1-0.1
		s-4.9-0.1-6.5-0.1c-1.1,0-1.7,0.3-1.7,0.8c0,0.4,0.4,0.6,1.2,0.6c1.3,0,2.4,0.1,3.1,0.2c2.2,0.5,3.4,2,3.4,4.6
		c0.1,1.7,0.1,4.9,0.1,9.4v7.5c0,1-0.2,1.7-0.6,2.2c-0.8,1.1-3.3,1.7-7.8,1.7c-8.3,0-15.1-2.8-20.2-8.5c-5.1-5.7-7.7-12.9-7.7-21.6
		c0-9,2.5-15.5,7.4-19.6c4-3.3,9.3-5,15.9-5c4.1,0,7.9,0.7,11.5,2.2c2.8,1.2,5,2.5,6.4,4.1c1.4,1.6,2.4,3.8,2.7,6.7
		c0.1,0.7,0.4,1,0.8,1c0.6,0,0.9-0.6,0.9-1.7c0-4.1,0.1-7.5,0.3-10c0.1-2,0.2-3.1,0.3-3.2c0-0.5-0.4-0.8-1.1-0.9
		c-1.7-0.1-3.8-0.4-6.3-0.9c-4.4-0.9-9.1-1.3-14.2-1.3c-8.6,0-15.8,1.7-21.6,5.2c-4,2.4-7.2,5.7-9.7,9.9c-2.8,4.8-4.3,10.2-4.3,16.3
		c0,10.4,3.7,18.4,11.1,24c6.6,5,15.2,7.5,25.9,7.5c8.3,0,14.8-1.2,19.3-3.6c0.7-0.4,1-1.3,1-2.9v-8.8c0-4.7,0-7.9,0.1-9.6
		c0.1-2.7,1.1-4.2,3.1-4.6c0.9-0.2,1.7-0.2,2.3-0.2s0.9-0.2,0.9-0.6C1021.1,713.9,1020.5,713.7,1019.5,713.7z"/>
	<linearGradient id="SVGID_15_" gradientUnits="userSpaceOnUse" x1="1014.4891" y1="685.0704" x2="1014.5039" y2="685.0704">
		<stop  offset="2.150540e-002" style="stop-color:#BF8D33"/>
		<stop  offset="0.5054" style="stop-color:#F7E679"/>
		<stop  offset="1" style="stop-color:#BF8D33"/>
	</linearGradient>
	<path fill="url(#SVGID_15_)" d="M1014.5,685C1014.5,685.1,1014.5,685.1,1014.5,685C1014.5,685,1014.5,685,1014.5,685z"/>
	<linearGradient id="SVGID_16_" gradientUnits="userSpaceOnUse" x1="469.1523" y1="776.9598" x2="487.9629" y2="776.9598">
		<stop  offset="2.150540e-002" style="stop-color:#BF8D33"/>
		<stop  offset="0.5054" style="stop-color:#F7E679"/>
		<stop  offset="1" style="stop-color:#BF8D33"/>
	</linearGradient>
	<path fill="url(#SVGID_16_)" d="M470,793.4c1.8,0.8,4,1.2,6.6,1.2c2.9,0,5.3-0.6,7.2-1.8c2.8-1.8,4.2-4.4,4.2-7.8
		c0-2.2-0.6-4.1-1.7-5.8c-1.1-1.7-3-3.6-5.7-5.6l-1.3-0.9c-1.8-1.4-3.1-2.5-3.8-3.5c-0.7-0.9-1-1.9-1-3c0-1.4,0.5-2.5,1.4-3.4
		c1-0.9,2.3-1.3,3.9-1.3c2.1,0,3.7,0.7,4.9,2.2c0.8,1,1.2,2,1.2,3c0,0.5,0.1,0.8,0.5,0.8c0.3,0,0.5-0.5,0.5-1.3c0-1.4,0-2.7,0.1-3.8
		c0.1-1.1,0.1-1.7,0.1-1.6c0-0.2-0.2-0.4-0.6-0.5c-2-0.5-4-0.8-6-0.8c-3.1,0-5.6,0.8-7.5,2.4c-1.9,1.6-2.9,3.6-2.9,6.1
		c0,3.6,2.2,7.2,6.7,10.7l2.1,1.6c2.9,2.3,4.4,4.7,4.4,7.2c0,1.3-0.5,2.5-1.5,3.5c-1.1,1.1-2.7,1.7-4.5,1.7c-3.4,0-5.5-1.5-6.4-4.5
		c-0.3-0.9-0.4-1.7-0.4-2.3c0-0.5-0.2-0.8-0.4-0.8c-0.3,0-0.5,0.4-0.5,1.2c-0.2,2.3-0.2,4.3-0.2,5.9
		C469.2,792.7,469.4,793.2,470,793.4z"/>
	<linearGradient id="SVGID_17_" gradientUnits="userSpaceOnUse" x1="494.127" y1="776.847" x2="516.8516" y2="776.847">
		<stop  offset="2.150540e-002" style="stop-color:#BF8D33"/>
		<stop  offset="0.5054" style="stop-color:#F7E679"/>
		<stop  offset="1" style="stop-color:#BF8D33"/>
	</linearGradient>
	<path fill="url(#SVGID_17_)" d="M513.8,794.1c0.9,0,1.5-0.1,1.8-0.2c0.3-0.1,0.5-0.4,0.6-1c0.4-1.5,0.6-3.2,0.6-5
		c0-0.5-0.1-0.8-0.4-0.8c-0.2,0-0.4,0.2-0.5,0.7c-0.3,1.7-1,2.8-2,3.3c-0.8,0.4-2.2,0.5-4.2,0.5c-2.3,0-3.7-0.2-4.4-0.7
		c-0.6-0.5-1-1.5-1.1-3.1v-10.5c0-0.3,0.1-0.5,0.3-0.5c3.4,0,5.6,0,6.4,0.1c1.4,0.2,2.3,0.7,2.5,1.8c0.1,0.7,0.2,1.2,0.2,1.6
		c0,0.3,0.1,0.5,0.4,0.5s0.4-0.3,0.4-0.9c0-0.3,0.1-1.3,0.2-3c0.1-0.9,0.1-1.7,0.2-2.4c0.1-0.6,0.1-0.9,0.1-0.9
		c0-0.2-0.1-0.4-0.3-0.4c-0.1,0-0.4,0.2-0.7,0.6c-0.2,0.2-0.5,0.4-1,0.5c-0.3,0.1-0.7,0.1-1.2,0.1c-0.7,0.1-3.1,0.1-7.2,0.1
		c-0.2,0-0.3-0.2-0.3-0.5v-11.4c0-0.3,0.1-0.5,0.3-0.5c3.3,0,5.4,0.1,6.4,0.2c1.7,0.2,2.7,0.8,3,1.6c0.1,0.2,0.2,0.5,0.2,0.8
		s0.1,0.6,0.1,0.9s0.2,0.5,0.4,0.5c0.2,0,0.4-0.2,0.5-0.5c0.1-1.2,0.2-2.2,0.2-3c0-0.8,0.1-1.5,0.2-2.1c0.1-0.5,0.1-0.8,0.1-0.8
		c0-0.3-0.1-0.4-0.3-0.4c0,0-0.2,0.1-0.7,0.2c-0.5,0.1-1.2,0.2-1.9,0.3c-0.4,0-4.1,0-11.3,0c-0.3,0-1.3,0-2.8-0.1s-2.8-0.1-3.7-0.1
		c-0.7,0-1,0.1-1,0.4c0,0.3,0.3,0.4,0.8,0.4c0.8,0,1.3,0,1.8,0.1c1.2,0.3,1.8,1.1,1.9,2.6c0.1,1,0.1,4.2,0.1,9.5v7.9
		c0,5.2-0.1,8.4-0.2,9.6c-0.2,1.5-0.6,2.3-1.3,2.5c-0.4,0-0.9,0.1-1.3,0.1c-0.7,0.1-1,0.2-1,0.4c0,0.3,0.3,0.4,0.9,0.4
		c0.7,0,1.7,0,3.1-0.1s2.3-0.1,2.5-0.1c0.5,0,2.1,0,4.7,0.1S511.2,794.1,513.8,794.1z"/>
	<linearGradient id="SVGID_18_" gradientUnits="userSpaceOnUse" x1="522.5664" y1="776.9598" x2="558.0713" y2="776.9598">
		<stop  offset="2.150540e-002" style="stop-color:#BF8D33"/>
		<stop  offset="0.5054" style="stop-color:#F7E679"/>
		<stop  offset="1" style="stop-color:#BF8D33"/>
	</linearGradient>
	<path fill="url(#SVGID_18_)" d="M557.3,793.1c-0.3,0-0.7-0.1-1-0.1c-1.7-0.3-3.4-1.4-5-3.1c-1.2-1.2-2.6-2.9-4.4-5.1
		c-0.3-0.4-2.1-2.6-5.4-6.8c4-3.2,5.9-6.6,5.9-10.1c0-1.4-0.4-2.7-1.1-3.9c-0.6-1-1.2-1.8-2-2.3c-1.9-1.3-4.7-1.9-8.3-1.9
		c-0.5,0-1.5,0-3.1,0.1s-2.7,0.1-3.2,0.1c-0.2,0-1,0-2.5-0.1s-2.7-0.1-3.6-0.1c-0.7,0-1,0.1-1,0.4c0,0.3,0.3,0.4,0.8,0.4
		c0.8,0,1.3,0,1.8,0.1c1.2,0.3,1.8,1.1,1.9,2.6c0.1,1,0.1,4.2,0.1,9.5v7.9c0,5.2-0.1,8.4-0.2,9.6c-0.2,1.5-0.6,2.3-1.3,2.5
		c-0.4,0-0.9,0.1-1.3,0.1c-0.7,0.1-1,0.2-1,0.4c0,0.3,0.3,0.4,0.9,0.4c0.7,0,1.7,0,3.1-0.1s2.2-0.1,2.4-0.1c0.1,0,0.9,0,2.6,0.1
		s3,0.1,4,0.1c0.6,0,0.9-0.1,0.9-0.4c0-0.2-0.2-0.4-0.5-0.4c-0.6,0-1.3-0.1-2.2-0.2c-1-0.1-1.6-0.9-1.8-2.5
		c-0.2-1.3-0.2-4.5-0.2-9.6v-0.6c0-0.2,0.1-0.4,0.4-0.4h3.9c0.4,0,0.6,0.1,0.8,0.3c1.7,2.3,3.2,4.4,4.5,6.2c2.6,3.6,4.7,5.8,6.2,6.6
		c1,0.6,2.7,0.9,4.8,0.9h4.3c0.6,0,0.9-0.1,0.9-0.4C558.1,793.3,557.8,793.2,557.3,793.1z M539.4,777c-0.7,0.5-1.8,0.8-3.2,0.8
		c-1.4,0-2.6-0.2-3.4-0.5c-0.3-0.1-0.4-0.4-0.4-0.8v-13.7c0-0.3,0.1-0.5,0.2-0.5c0.3-0.2,1.1-0.3,2.6-0.3c1.7,0,3.2,0.6,4.5,1.7
		c1.6,1.5,2.4,3.7,2.4,6.5C542.1,773.5,541.2,775.8,539.4,777z"/>
	<linearGradient id="SVGID_19_" gradientUnits="userSpaceOnUse" x1="551.2314" y1="777.2747" x2="588.8506" y2="777.2747">
		<stop  offset="2.150540e-002" style="stop-color:#BF8D33"/>
		<stop  offset="0.5054" style="stop-color:#F7E679"/>
		<stop  offset="1" style="stop-color:#BF8D33"/>
	</linearGradient>
	<path fill="url(#SVGID_19_)" d="M564.8,760.8c0.5,0,0.7-0.1,0.7-0.4c0-0.3-0.3-0.4-1-0.4c-0.8,0-1.9,0-3.2,0.1s-2.1,0.1-2.3,0.1
		c-0.5,0-1.4,0-2.9-0.1c-1.5,0-2.7-0.1-3.6-0.1c-0.8,0-1.2,0.1-1.2,0.4c0,0.3,0.2,0.4,0.5,0.4c0.7,0,1.3,0.1,1.8,0.2
		c0.9,0.2,1.5,0.6,1.9,0.9c0.5,0.5,1,1.3,1.5,2.5l11.3,27.5c0.5,1.2,0.8,1.9,0.9,2.2c0.2,0.4,0.5,0.6,0.8,0.6c0.3,0,0.6-0.2,0.9-0.7
		c0.2-0.3,0.6-1.2,1.2-2.7l6-13.7c2.6-5.9,4.4-10,5.4-12.2c1-2.2,1.8-3.6,2.5-4.1c0.5-0.4,1.3-0.5,2.2-0.5c0.5,0,0.7-0.1,0.7-0.4
		c0-0.3-0.3-0.4-0.9-0.4c-0.5,0-1.3,0-2.3,0.1c-1.1,0-1.7,0.1-1.9,0.1c-0.1,0-0.6,0-1.7-0.1c-1.1,0-2.1-0.1-3-0.1
		c-0.8,0-1.3,0.2-1.3,0.5c0,0.2,0.3,0.4,0.8,0.4c0.8,0,1.3,0.1,1.8,0.2s0.6,0.4,0.6,0.9c0,0.4-0.1,0.9-0.4,1.7
		c-3.3,8.5-6.3,15.9-8.9,22.4h-0.2l-7.7-20.4c-0.7-1.8-1-3-1-3.5c0-0.4,0.1-0.7,0.5-0.9C563.4,760.9,564,760.8,564.8,760.8z"/>
	<linearGradient id="SVGID_20_" gradientUnits="userSpaceOnUse" x1="589.7061" y1="776.9598" x2="604.2412" y2="776.9598">
		<stop  offset="2.150540e-002" style="stop-color:#BF8D33"/>
		<stop  offset="0.5054" style="stop-color:#F7E679"/>
		<stop  offset="1" style="stop-color:#BF8D33"/>
	</linearGradient>
	<path fill="url(#SVGID_20_)" d="M596.4,793.8c0.3,0,1.2,0,2.9,0.1c1.6,0,3,0.1,4.2,0.1c0.6,0,0.9-0.1,0.9-0.4
		c0-0.2-0.2-0.4-0.7-0.4c-0.7,0-1.4-0.1-2.3-0.2c-1.1-0.2-1.7-0.9-1.8-2.2c-0.1-1.2-0.2-4.5-0.2-9.9V773c0-5.4,0-8.5,0.1-9.5
		c0.1-1.5,0.6-2.4,1.6-2.6c0.5-0.1,1-0.1,1.4-0.1c0.4,0,0.6-0.1,0.6-0.4c0-0.2-0.3-0.4-0.9-0.4s-1.6,0-3,0.1c-1.4,0-2.2,0.1-2.5,0.1
		c-0.4,0-1.3,0-2.8-0.1s-2.5-0.1-3.1-0.1c-0.7,0-1.1,0.1-1.1,0.4c0,0.3,0.3,0.4,0.8,0.4c0.5,0,1,0.1,1.6,0.2
		c0.9,0.2,1.4,1.1,1.5,2.5c0.1,1,0.1,4.2,0.1,9.5v7.9c0,5.2-0.1,8.5-0.2,9.8c-0.2,1.3-0.6,2.1-1.3,2.2c-0.4,0-0.9,0.1-1.3,0.1
		c-0.7,0.1-1,0.2-1,0.4c0,0.3,0.3,0.4,0.9,0.4c0.7,0,1.7,0,3.1-0.1S596.1,793.8,596.4,793.8z"/>
	<linearGradient id="SVGID_21_" gradientUnits="userSpaceOnUse" x1="609.1006" y1="776.9598" x2="640.376" y2="776.9598">
		<stop  offset="2.150540e-002" style="stop-color:#BF8D33"/>
		<stop  offset="0.5054" style="stop-color:#F7E679"/>
		<stop  offset="1" style="stop-color:#BF8D33"/>
	</linearGradient>
	<path fill="url(#SVGID_21_)" d="M638.2,793.6c0.6-0.2,1-0.7,1.2-1.4c0.2-0.7,0.4-1.8,0.7-3.3c0.2-1.4,0.3-2.3,0.3-2.6
		c0-0.5-0.1-0.7-0.4-0.7c-0.3,0-0.5,0.3-0.6,0.9c-0.2,1.1-0.7,2.1-1.5,3c-0.9,1.1-2.2,1.8-3.8,2.2c-1.1,0.2-2.5,0.4-4.5,0.4
		c-3.5,0-6.6-1.3-9.4-4c-3.2-3.1-4.8-7.1-4.8-12c0-5.2,1.4-9.1,4.1-11.7c2-1.9,4.9-2.8,8.5-2.8c2,0,3.9,0.3,5.6,0.8
		c1.6,0.5,2.8,1.2,3.6,2c1.1,1.2,1.7,2.6,1.8,4.1c0,0.7,0.2,1,0.5,1s0.5-0.3,0.5-1c0.1-1.9,0.1-3.5,0.2-4.9c0-0.6,0.1-1.2,0.2-1.7
		c0.1-0.4,0.1-0.7,0.1-0.8c0-0.3-0.2-0.5-0.7-0.5c-2-0.3-3.5-0.6-4.5-0.8c-2.3-0.3-4.5-0.5-6.5-0.5c-6,0-10.8,1.6-14.3,4.8
		c-3.5,3.2-5.3,7.3-5.3,12.3c0,5.6,1.9,10,5.6,13.3c3.7,3.3,8.9,4.9,15.4,4.9C633.8,794.6,636.5,794.3,638.2,793.6z"/>
	<linearGradient id="SVGID_22_" gradientUnits="userSpaceOnUse" x1="645.46" y1="776.847" x2="668.1846" y2="776.847">
		<stop  offset="2.150540e-002" style="stop-color:#BF8D33"/>
		<stop  offset="0.5054" style="stop-color:#F7E679"/>
		<stop  offset="1" style="stop-color:#BF8D33"/>
	</linearGradient>
	<path fill="url(#SVGID_22_)" d="M655.9,762.3c3.3,0,5.4,0.1,6.4,0.2c1.7,0.2,2.7,0.8,3,1.6c0.1,0.2,0.2,0.5,0.2,0.8
		s0.1,0.6,0.1,0.9s0.2,0.5,0.4,0.5c0.2,0,0.4-0.2,0.5-0.5c0.1-1.2,0.2-2.2,0.2-3c0-0.8,0.1-1.5,0.2-2.1c0.1-0.5,0.1-0.8,0.1-0.8
		c0-0.3-0.1-0.4-0.3-0.4c0,0-0.2,0.1-0.7,0.2c-0.5,0.1-1.2,0.2-1.9,0.3c-0.4,0-4.1,0-11.3,0c-0.3,0-1.3,0-2.8-0.1s-2.8-0.1-3.7-0.1
		c-0.7,0-1,0.1-1,0.4c0,0.3,0.3,0.4,0.8,0.4c0.8,0,1.3,0,1.8,0.1c1.2,0.3,1.8,1.1,1.9,2.6c0.1,1,0.1,4.2,0.1,9.5v7.9
		c0,5.2-0.1,8.4-0.2,9.6c-0.2,1.5-0.6,2.3-1.3,2.5c-0.4,0-0.9,0.1-1.3,0.1c-0.7,0.1-1,0.2-1,0.4c0,0.3,0.3,0.4,0.9,0.4
		c0.7,0,1.7,0,3.1-0.1s2.3-0.1,2.5-0.1c0.5,0,2.1,0,4.7,0.1s5.2,0.1,7.8,0.1c0.9,0,1.5-0.1,1.8-0.2c0.3-0.1,0.5-0.4,0.6-1
		c0.4-1.5,0.6-3.2,0.6-5c0-0.5-0.1-0.8-0.4-0.8c-0.2,0-0.4,0.2-0.5,0.7c-0.3,1.7-1,2.8-2,3.3c-0.8,0.4-2.2,0.5-4.2,0.5
		c-2.3,0-3.7-0.2-4.4-0.7c-0.6-0.5-1-1.5-1.1-3.1v-10.5c0-0.3,0.1-0.5,0.3-0.5c3.4,0,5.6,0,6.4,0.1c1.4,0.2,2.3,0.7,2.5,1.8
		c0.1,0.7,0.2,1.2,0.2,1.6c0,0.3,0.1,0.5,0.4,0.5s0.4-0.3,0.4-0.9c0-0.3,0.1-1.3,0.2-3c0.1-0.9,0.1-1.7,0.2-2.4
		c0.1-0.6,0.1-0.9,0.1-0.9c0-0.2-0.1-0.4-0.3-0.4c-0.1,0-0.4,0.2-0.7,0.6c-0.2,0.2-0.5,0.4-1,0.5c-0.3,0.1-0.7,0.1-1.2,0.1
		c-0.7,0.1-3.1,0.1-7.2,0.1c-0.2,0-0.3-0.2-0.3-0.5v-11.4C655.6,762.5,655.7,762.3,655.9,762.3z"/>
	<linearGradient id="SVGID_23_" gradientUnits="userSpaceOnUse" x1="675.1143" y1="776.9598" x2="693.9248" y2="776.9598">
		<stop  offset="2.150540e-002" style="stop-color:#BF8D33"/>
		<stop  offset="0.5054" style="stop-color:#F7E679"/>
		<stop  offset="1" style="stop-color:#BF8D33"/>
	</linearGradient>
	<path fill="url(#SVGID_23_)" d="M683.2,792.4c-3.4,0-5.5-1.5-6.4-4.5c-0.3-0.9-0.4-1.7-0.4-2.3c0-0.5-0.2-0.8-0.4-0.8
		c-0.3,0-0.5,0.4-0.5,1.2c-0.2,2.3-0.2,4.3-0.2,5.9c0,0.8,0.3,1.3,0.9,1.5c1.8,0.8,4,1.2,6.6,1.2c2.9,0,5.3-0.6,7.2-1.8
		c2.8-1.8,4.2-4.4,4.2-7.8c0-2.2-0.6-4.1-1.7-5.8c-1.1-1.7-3-3.6-5.7-5.6l-1.3-0.9c-1.8-1.4-3.1-2.5-3.8-3.5c-0.7-0.9-1-1.9-1-3
		c0-1.4,0.5-2.5,1.4-3.4c1-0.9,2.3-1.3,3.9-1.3c2.1,0,3.7,0.7,4.9,2.2c0.8,1,1.2,2,1.2,3c0,0.5,0.1,0.8,0.5,0.8
		c0.3,0,0.5-0.5,0.5-1.3c0-1.4,0-2.7,0.1-3.8c0.1-1.1,0.1-1.7,0.1-1.6c0-0.2-0.2-0.4-0.6-0.5c-2-0.5-4-0.8-6-0.8
		c-3.1,0-5.6,0.8-7.5,2.4c-1.9,1.6-2.9,3.6-2.9,6.1c0,3.6,2.2,7.2,6.7,10.7l2.1,1.6c2.9,2.3,4.4,4.7,4.4,7.2c0,1.3-0.5,2.5-1.5,3.5
		C686.6,791.9,685.1,792.4,683.2,792.4z"/>
	<linearGradient id="SVGID_24_" gradientUnits="userSpaceOnUse" x1="162.8064" y1="775.9904" x2="447.1989" y2="775.9904">
		<stop  offset="2.150540e-002" style="stop-color:#BF8D33"/>
		<stop  offset="0.5054" style="stop-color:#F7E679"/>
		<stop  offset="1" style="stop-color:#BF8D33"/>
	</linearGradient>
	<rect x="162.8" y="774.9" fill="url(#SVGID_24_)" width="284.4" height="2.2"/>
	<linearGradient id="SVGID_25_" gradientUnits="userSpaceOnUse" x1="717.545" y1="774.2748" x2="1001.9374" y2="774.2748">
		<stop  offset="2.150540e-002" style="stop-color:#BF8D33"/>
		<stop  offset="0.5054" style="stop-color:#F7E679"/>
		<stop  offset="1" style="stop-color:#BF8D33"/>
	</linearGradient>
	<rect x="717.5" y="773.2" fill="url(#SVGID_25_)" width="284.4" height="2.2"/>
	<linearGradient id="SVGID_26_" gradientUnits="userSpaceOnUse" x1="307.3469" y1="507.1182" x2="809.0399" y2="507.1182">
		<stop  offset="2.150540e-002" style="stop-color:#BF8D33"/>
		<stop  offset="0.5054" style="stop-color:#F7E679"/>
		<stop  offset="1" style="stop-color:#BF8D33"/>
	</linearGradient>
	<path fill="url(#SVGID_26_)" d="M348.2,656.8h-23v5.7h23h8.3H706h6.5h55.1h24.6h13.3c1.2-1.8,2.4-3.7,3.6-5.7h-16.6
		c1.1-24.1,1.7-65.7,1-135.4c0-2.5,0.1-5.1,0.2-7.6c0.1-2.2-0.2-5.4-3.1-6.5c-4.5-1.7-3,19.7-3,19.7s-2,84.5-17.9,129.9h-57.3v-77.3
		h32L738,573l-40.6-40.6v-57.6h-39v12.4l-30.1-30.1L592.4,493L455.8,351.8l-38.5,38.5v-15.9h-49.8V448l-60.1,60.1h40.9V656.8z
		 M327.4,499.9l48.4-48.4v-68.8H409v27.6l46.8-46.8l130.7,135.3l-43.9,43.9l-30.4,30.1L512,573l-6.3,6.3h9.1h22.8v59.8
		c2.2,0.1,4.3,0.2,6.5,0.3v-66.6h-22.7l10.9-10.8l0.1,0.1l95.9-95.9l36.6,36.6v-21.6h26v53.8l37.9,37.9H706v83.8H356.5V499.9H327.4z
		"/>
	<linearGradient id="SVGID_27_" gradientUnits="userSpaceOnUse" x1="464.6237" y1="520.8541" x2="504.7894" y2="520.8541">
		<stop  offset="2.150540e-002" style="stop-color:#BF8D33"/>
		<stop  offset="0.5054" style="stop-color:#F7E679"/>
		<stop  offset="1" style="stop-color:#BF8D33"/>
	</linearGradient>
	<rect x="464.6" y="500.8" fill="url(#SVGID_27_)" width="40.2" height="40.2"/>
	<linearGradient id="SVGID_28_" gradientUnits="userSpaceOnUse" x1="409.1168" y1="520.8541" x2="449.2825" y2="520.8541">
		<stop  offset="2.150540e-002" style="stop-color:#BF8D33"/>
		<stop  offset="0.5054" style="stop-color:#F7E679"/>
		<stop  offset="1" style="stop-color:#BF8D33"/>
	</linearGradient>
	<rect x="409.1" y="500.8" fill="url(#SVGID_28_)" width="40.2" height="40.2"/>
	<linearGradient id="SVGID_29_" gradientUnits="userSpaceOnUse" x1="464.6237" y1="467.8576" x2="504.7894" y2="467.8576">
		<stop  offset="2.150540e-002" style="stop-color:#BF8D33"/>
		<stop  offset="0.5054" style="stop-color:#F7E679"/>
		<stop  offset="1" style="stop-color:#BF8D33"/>
	</linearGradient>
	<rect x="464.6" y="447.8" fill="url(#SVGID_29_)" width="40.2" height="40.2"/>
	<linearGradient id="SVGID_30_" gradientUnits="userSpaceOnUse" x1="409.1168" y1="467.8576" x2="449.2825" y2="467.8576">
		<stop  offset="2.150540e-002" style="stop-color:#BF8D33"/>
		<stop  offset="0.5054" style="stop-color:#F7E679"/>
		<stop  offset="1" style="stop-color:#BF8D33"/>
	</linearGradient>
	<rect x="409.1" y="447.8" fill="url(#SVGID_30_)" width="40.2" height="40.2"/>
	<linearGradient id="SVGID_31_" gradientUnits="userSpaceOnUse" x1="589.9153" y1="603.9" x2="621.3574" y2="603.9">
		<stop  offset="2.150540e-002" style="stop-color:#BF8D33"/>
		<stop  offset="0.5054" style="stop-color:#F7E679"/>
		<stop  offset="1" style="stop-color:#BF8D33"/>
	</linearGradient>
	<rect x="589.9" y="588.2" fill="url(#SVGID_31_)" width="31.4" height="31.4"/>
	<linearGradient id="SVGID_32_" gradientUnits="userSpaceOnUse" x1="633.3665" y1="603.9" x2="664.8086" y2="603.9">
		<stop  offset="2.150540e-002" style="stop-color:#BF8D33"/>
		<stop  offset="0.5054" style="stop-color:#F7E679"/>
		<stop  offset="1" style="stop-color:#BF8D33"/>
	</linearGradient>
	<rect x="633.4" y="588.2" fill="url(#SVGID_32_)" width="31.4" height="31.4"/>
	<linearGradient id="SVGID_33_" gradientUnits="userSpaceOnUse" x1="589.9153" y1="562.4139" x2="621.3574" y2="562.4139">
		<stop  offset="2.150540e-002" style="stop-color:#BF8D33"/>
		<stop  offset="0.5054" style="stop-color:#F7E679"/>
		<stop  offset="1" style="stop-color:#BF8D33"/>
	</linearGradient>
	<rect x="589.9" y="546.7" fill="url(#SVGID_33_)" width="31.4" height="31.4"/>
	<linearGradient id="SVGID_34_" gradientUnits="userSpaceOnUse" x1="633.3665" y1="562.4139" x2="664.8086" y2="562.4139">
		<stop  offset="2.150540e-002" style="stop-color:#BF8D33"/>
		<stop  offset="0.5054" style="stop-color:#F7E679"/>
		<stop  offset="1" style="stop-color:#BF8D33"/>
	</linearGradient>
	<rect x="633.4" y="546.7" fill="url(#SVGID_34_)" width="31.4" height="31.4"/>
	<linearGradient id="SVGID_35_" gradientUnits="userSpaceOnUse" x1="707.6755" y1="460.6062" x2="872.6532" y2="460.6062">
		<stop  offset="2.150540e-002" style="stop-color:#BF8D33"/>
		<stop  offset="0.5054" style="stop-color:#F7E679"/>
		<stop  offset="1" style="stop-color:#BF8D33"/>
	</linearGradient>
	<path fill="url(#SVGID_35_)" d="M781,509.6c-6.5-1.9-24.1-6.9-35.2-8.2c1.6-0.1,26.2-1,39.7,3.4c0.2,0,0.3,0.1,0.4,0.1
		c0.2-0.4,0.4-0.9,0.6-1.3c23.3-48.5,59.2-67.1,59.2-67.1c-37.2,29.3-47.3,56-50,68.5c46.9-4,61.4-25.9,68.8-44.6
		c11.9-29.9,7.2-55.9,7.2-55.9c-22.1,22.6-43.3,21.3-61.8,35.8c-19.6,15.5-25.5,31.4-26.3,43.7c-6.7-26-21.8-67.9-50.1-72.6
		c-2.9-1.2-4,11.5,3.5,8.2c1.2-0.5,2.6-2.8,5.4-1.7c2.8,1.1,25.3,9.3,42.1,83c-6-5.9-19.6-16.3-38.7-13.8c-26.4,3.5-27,5.3-38.2,0.9
		C707.7,488,739.7,534,781,509.6z"/>
	<linearGradient id="SVGID_36_" gradientUnits="userSpaceOnUse" x1="614.5561" y1="409.5551" x2="633.8405" y2="409.5551">
		<stop  offset="2.150540e-002" style="stop-color:#BF8D33"/>
		<stop  offset="0.5054" style="stop-color:#F7E679"/>
		<stop  offset="1" style="stop-color:#BF8D33"/>
	</linearGradient>
	<path fill="url(#SVGID_36_)" d="M615.2,406.1l-0.3,1.1c-0.1,0.4-0.3,0.7-0.4,1.1c0,0.1,0.3,0.2,0.6,0.3c6,1.8,12.2,3.3,18.4,4.4
		c0.4,0.1,0.5-0.1,0.1-0.3c-5.8-2.5-11.7-4.7-17.7-6.6C615.6,406.1,615.2,406,615.2,406.1z"/>
	<linearGradient id="SVGID_37_" gradientUnits="userSpaceOnUse" x1="613.0001" y1="415.5877" x2="635.0848" y2="415.5877">
		<stop  offset="2.150540e-002" style="stop-color:#BF8D33"/>
		<stop  offset="0.5054" style="stop-color:#F7E679"/>
		<stop  offset="1" style="stop-color:#BF8D33"/>
	</linearGradient>
	<path fill="url(#SVGID_37_)" d="M634.7,421.5c0.5,0.2,0.6,0,0.1-0.3c-6.5-4.2-13.2-7.9-20-11.4c-0.3-0.2-0.7-0.3-0.8-0.3l-0.5,1
		l-0.2,0.5c-0.1,0.2-0.2,0.3-0.3,0.5c0,0,0.3,0.3,0.6,0.5c3.4,1.7,6.9,3.4,10.4,5C627.5,418.6,631.1,420.1,634.7,421.5z"/>
	<linearGradient id="SVGID_38_" gradientUnits="userSpaceOnUse" x1="615.5252" y1="403.8813" x2="628.4882" y2="403.8813">
		<stop  offset="2.150540e-002" style="stop-color:#BF8D33"/>
		<stop  offset="0.5054" style="stop-color:#F7E679"/>
		<stop  offset="1" style="stop-color:#BF8D33"/>
	</linearGradient>
	<path fill="url(#SVGID_38_)" d="M628.3,405.3c0.3,0,0.3-0.2,0-0.2c-2-0.6-4-1-6-1.5c-2-0.4-4.1-0.8-6.1-1.2c-0.2,0-0.4,0-0.4,0
		l0,0.6l-0.1,0.6l-0.2,1.1c0,0.1,0.2,0.1,0.4,0.1C620,405.3,624.1,405.4,628.3,405.3z"/>
	<linearGradient id="SVGID_39_" gradientUnits="userSpaceOnUse" x1="608.0726" y1="423.6039" x2="622.4139" y2="423.6039">
		<stop  offset="2.150540e-002" style="stop-color:#BF8D33"/>
		<stop  offset="0.5054" style="stop-color:#F7E679"/>
		<stop  offset="1" style="stop-color:#BF8D33"/>
	</linearGradient>
	<path fill="url(#SVGID_39_)" d="M622.3,430.9c-3.8-5.1-7.7-9.9-12-14.5c-0.2-0.2-0.5-0.4-0.5-0.4c-0.2,0.3-0.5,0.5-0.8,0.8
		l-0.8,0.8c0,0,0.1,0.3,0.4,0.5c4.3,4.5,8.9,8.9,13.6,13C622.4,431.4,622.5,431.2,622.3,430.9z"/>
	<linearGradient id="SVGID_40_" gradientUnits="userSpaceOnUse" x1="605.0076" y1="428.8544" x2="619.2682" y2="428.8544">
		<stop  offset="2.150540e-002" style="stop-color:#BF8D33"/>
		<stop  offset="0.5054" style="stop-color:#F7E679"/>
		<stop  offset="1" style="stop-color:#BF8D33"/>
	</linearGradient>
	<path fill="url(#SVGID_40_)" d="M619.2,438.9c-3.5-6.8-7.5-13.5-11.7-19.9c-0.2-0.3-0.5-0.6-0.5-0.6c-0.6,0.5-1.3,0.9-1.9,1.3
		c0,0,0.1,0.4,0.3,0.7c4.2,6.4,8.7,12.6,13.6,18.6C619.2,439.4,619.4,439.3,619.2,438.9z"/>
	<linearGradient id="SVGID_41_" gradientUnits="userSpaceOnUse" x1="610.6846" y1="417.51" x2="621.6557" y2="417.51">
		<stop  offset="2.150540e-002" style="stop-color:#BF8D33"/>
		<stop  offset="0.5054" style="stop-color:#F7E679"/>
		<stop  offset="1" style="stop-color:#BF8D33"/>
	</linearGradient>
	<path fill="url(#SVGID_41_)" d="M621.4,421.8c0.2,0.1,0.3,0,0.1-0.2c-2.9-3-5.9-5.7-9.1-8.4c-0.2-0.1-0.4-0.2-0.4-0.2l-0.7,0.9
		c-0.2,0.3-0.4,0.6-0.7,0.9c0,0,0.1,0.2,0.3,0.3C614.4,417.7,617.8,419.8,621.4,421.8z"/>
	<linearGradient id="SVGID_42_" gradientUnits="userSpaceOnUse" x1="597.8066" y1="431.5727" x2="603.4553" y2="431.5727">
		<stop  offset="2.150540e-002" style="stop-color:#BF8D33"/>
		<stop  offset="0.5054" style="stop-color:#F7E679"/>
		<stop  offset="1" style="stop-color:#BF8D33"/>
	</linearGradient>
	<path fill="url(#SVGID_42_)" d="M600.1,421.8l-1.1,0.3c-0.2,0-0.4,0.1-0.6,0.1l-0.6,0.1c-0.1,0,0,0.3,0,0.6
		c1.4,6.1,3.2,12.2,5.3,18.1c0.1,0.4,0.3,0.4,0.3-0.1c-0.7-6.3-1.8-12.5-3.1-18.6C600.2,422.1,600.1,421.8,600.1,421.8z"/>
	<linearGradient id="SVGID_43_" gradientUnits="userSpaceOnUse" x1="594.0366" y1="434.6177" x2="596.9631" y2="434.6177">
		<stop  offset="2.150540e-002" style="stop-color:#BF8D33"/>
		<stop  offset="0.5054" style="stop-color:#F7E679"/>
		<stop  offset="1" style="stop-color:#BF8D33"/>
	</linearGradient>
	<path fill="url(#SVGID_43_)" d="M594.1,422.7c-0.1,0-0.1,0.4-0.1,0.8c0.4,7.6,1.2,15.3,2.4,22.9c0.1,0.5,0.3,0.5,0.3,0
		c0.3-7.7,0.3-15.3-0.2-23c0-0.4-0.1-0.8-0.2-0.8C595.7,422.6,594.9,422.6,594.1,422.7z"/>
	<linearGradient id="SVGID_44_" gradientUnits="userSpaceOnUse" x1="601.3541" y1="426.6925" x2="607.4728" y2="426.6925">
		<stop  offset="2.150540e-002" style="stop-color:#BF8D33"/>
		<stop  offset="0.5054" style="stop-color:#F7E679"/>
		<stop  offset="1" style="stop-color:#BF8D33"/>
	</linearGradient>
	<path fill="url(#SVGID_44_)" d="M607.5,432.7c-1-4-2.3-8-3.7-11.8c-0.1-0.2-0.2-0.4-0.2-0.3c-0.3,0.2-0.7,0.3-1,0.5l-1.1,0.4
		c-0.1,0,0,0.2,0.1,0.4c1.7,3.7,3.7,7.4,5.8,10.9C607.4,433,607.5,432.9,607.5,432.7z"/>
	<linearGradient id="SVGID_45_" gradientUnits="userSpaceOnUse" x1="581.8054" y1="430.9661" x2="588.7681" y2="430.9661">
		<stop  offset="2.150540e-002" style="stop-color:#BF8D33"/>
		<stop  offset="0.5054" style="stop-color:#F7E679"/>
		<stop  offset="1" style="stop-color:#BF8D33"/>
	</linearGradient>
	<path fill="url(#SVGID_45_)" d="M582.1,440.3c2.5-5.8,4.7-11.7,6.6-17.7c0.1-0.3,0.1-0.6,0.1-0.6l-1.1-0.3
		c-0.4-0.1-0.7-0.3-1.1-0.4c-0.1,0-0.2,0.3-0.3,0.6c-1.8,6-3.3,12.2-4.4,18.4C581.7,440.7,581.9,440.7,582.1,440.3z"/>
	<linearGradient id="SVGID_46_" gradientUnits="userSpaceOnUse" x1="573.2675" y1="430.8104" x2="585.2399" y2="430.8104">
		<stop  offset="2.150540e-002" style="stop-color:#BF8D33"/>
		<stop  offset="0.5054" style="stop-color:#F7E679"/>
		<stop  offset="1" style="stop-color:#BF8D33"/>
	</linearGradient>
	<path fill="url(#SVGID_46_)" d="M573.6,441.6c4.2-6.5,7.9-13.2,11.4-20c0.2-0.3,0.3-0.7,0.2-0.8l-1-0.5l-0.5-0.2
		c-0.2-0.1-0.3-0.2-0.5-0.3c0,0-0.3,0.3-0.5,0.6c-1.7,3.4-3.4,6.9-5,10.4c-1.6,3.5-3,7-4.4,10.6C573.2,441.9,573.3,442,573.6,441.6z
		"/>
	<linearGradient id="SVGID_47_" gradientUnits="userSpaceOnUse" x1="589.4899" y1="428.7744" x2="592.4307" y2="428.7744">
		<stop  offset="2.150540e-002" style="stop-color:#BF8D33"/>
		<stop  offset="0.5054" style="stop-color:#F7E679"/>
		<stop  offset="1" style="stop-color:#BF8D33"/>
	</linearGradient>
	<path fill="url(#SVGID_47_)" d="M591.2,422.5l-1.1-0.2c-0.1,0-0.1,0.2-0.1,0.4c-0.4,4.1-0.5,8.2-0.4,12.3c0,0.3,0.2,0.3,0.2,0
		c0.6-2,1-4,1.5-6c0.4-2,0.8-4.1,1.2-6.1c0-0.2,0-0.4,0-0.4l-0.6,0L591.2,422.5z"/>
	<linearGradient id="SVGID_48_" gradientUnits="userSpaceOnUse" x1="563.6078" y1="422.011" x2="578.8672" y2="422.011">
		<stop  offset="2.150540e-002" style="stop-color:#BF8D33"/>
		<stop  offset="0.5054" style="stop-color:#F7E679"/>
		<stop  offset="1" style="stop-color:#BF8D33"/>
	</linearGradient>
	<path fill="url(#SVGID_48_)" d="M563.9,429.1c5.1-3.8,9.9-7.7,14.5-12c0.2-0.2,0.4-0.5,0.4-0.5c-0.3-0.2-0.5-0.5-0.8-0.8l-0.8-0.8
		c0,0-0.3,0.1-0.5,0.4c-4.5,4.3-8.9,8.9-13,13.6C563.5,429.2,563.6,429.3,563.9,429.1z"/>
	<linearGradient id="SVGID_49_" gradientUnits="userSpaceOnUse" x1="555.5562" y1="418.9059" x2="576.4183" y2="418.9059">
		<stop  offset="2.150540e-002" style="stop-color:#BF8D33"/>
		<stop  offset="0.5054" style="stop-color:#F7E679"/>
		<stop  offset="1" style="stop-color:#BF8D33"/>
	</linearGradient>
	<path fill="url(#SVGID_49_)" d="M556,425.9c6.8-3.5,13.5-7.5,19.9-11.7c0.3-0.2,0.6-0.5,0.6-0.5c-0.5-0.6-0.9-1.3-1.3-1.9
		c0,0-0.4,0.1-0.7,0.3c-6.4,4.2-12.6,8.7-18.6,13.6C555.4,426,555.5,426.2,556,425.9z"/>
	<linearGradient id="SVGID_50_" gradientUnits="userSpaceOnUse" x1="572.9415" y1="422.938" x2="581.7217" y2="422.938">
		<stop  offset="2.150540e-002" style="stop-color:#BF8D33"/>
		<stop  offset="0.5054" style="stop-color:#F7E679"/>
		<stop  offset="1" style="stop-color:#BF8D33"/>
	</linearGradient>
	<path fill="url(#SVGID_50_)" d="M573.2,428.3c3-2.9,5.7-5.9,8.4-9.1c0.1-0.2,0.2-0.4,0.2-0.4l-0.9-0.7c-0.3-0.2-0.6-0.4-0.9-0.7
		c0,0-0.2,0.1-0.3,0.3c-2.4,3.4-4.6,6.8-6.6,10.5C572.9,428.4,573,428.5,573.2,428.3z"/>
	<linearGradient id="SVGID_51_" gradientUnits="userSpaceOnUse" x1="553.5019" y1="407.3989" x2="573.0358" y2="407.3989">
		<stop  offset="2.150540e-002" style="stop-color:#BF8D33"/>
		<stop  offset="0.5054" style="stop-color:#F7E679"/>
		<stop  offset="1" style="stop-color:#BF8D33"/>
	</linearGradient>
	<path fill="url(#SVGID_51_)" d="M553.8,409.9c-0.4,0.1-0.4,0.3,0.1,0.3c6.3-0.7,12.5-1.8,18.6-3.1c0.3-0.1,0.6-0.2,0.6-0.3
		l-0.3-1.1c0-0.2-0.1-0.4-0.1-0.6l-0.1-0.6c0-0.1-0.3,0-0.6,0C565.8,406.1,559.7,407.9,553.8,409.9z"/>
	<linearGradient id="SVGID_52_" gradientUnits="userSpaceOnUse" x1="548.1437" y1="402.2677" x2="572.3042" y2="402.2677">
		<stop  offset="2.150540e-002" style="stop-color:#BF8D33"/>
		<stop  offset="0.5054" style="stop-color:#F7E679"/>
		<stop  offset="1" style="stop-color:#BF8D33"/>
	</linearGradient>
	<path fill="url(#SVGID_52_)" d="M571.5,403.3c0.4,0,0.8-0.1,0.8-0.2c-0.1-0.8-0.1-1.5-0.1-2.3c0-0.1-0.4-0.1-0.8-0.1
		c-7.6,0.4-15.3,1.2-22.9,2.4c-0.5,0.1-0.5,0.3,0,0.3C556.2,403.8,563.9,403.8,571.5,403.3z"/>
	<linearGradient id="SVGID_53_" gradientUnits="userSpaceOnUse" x1="561.9479" y1="411.1814" x2="574.3505" y2="411.1814">
		<stop  offset="2.150540e-002" style="stop-color:#BF8D33"/>
		<stop  offset="0.5054" style="stop-color:#F7E679"/>
		<stop  offset="1" style="stop-color:#BF8D33"/>
	</linearGradient>
	<path fill="url(#SVGID_53_)" d="M573,408.2c-3.7,1.7-7.4,3.7-10.9,5.8c-0.2,0.1-0.2,0.3,0.1,0.2c4-1,8-2.3,11.8-3.7
		c0.2-0.1,0.4-0.2,0.3-0.2c-0.2-0.3-0.3-0.7-0.5-1l-0.4-1.1C573.4,408.1,573.2,408.1,573,408.2z"/>
	<linearGradient id="SVGID_54_" gradientUnits="userSpaceOnUse" x1="554.2332" y1="392.0543" x2="573.5176" y2="392.0543">
		<stop  offset="2.150540e-002" style="stop-color:#BF8D33"/>
		<stop  offset="0.5054" style="stop-color:#F7E679"/>
		<stop  offset="1" style="stop-color:#BF8D33"/>
	</linearGradient>
	<path fill="url(#SVGID_54_)" d="M572.9,393c-6-1.8-12.2-3.3-18.4-4.4c-0.4-0.1-0.5,0.1-0.1,0.3c5.8,2.5,11.7,4.7,17.7,6.6
		c0.3,0.1,0.6,0.1,0.6,0.1l0.3-1.1c0.1-0.4,0.3-0.7,0.4-1.1C573.5,393.3,573.2,393.1,572.9,393z"/>
	<linearGradient id="SVGID_55_" gradientUnits="userSpaceOnUse" x1="552.9889" y1="386.0215" x2="575.0736" y2="386.0215">
		<stop  offset="2.150540e-002" style="stop-color:#BF8D33"/>
		<stop  offset="0.5054" style="stop-color:#F7E679"/>
		<stop  offset="1" style="stop-color:#BF8D33"/>
	</linearGradient>
	<path fill="url(#SVGID_55_)" d="M553.3,380.4c6.5,4.2,13.2,7.9,20,11.4c0.3,0.2,0.7,0.3,0.8,0.2l0.5-1l0.2-0.5
		c0.1-0.2,0.2-0.3,0.3-0.5c0,0-0.3-0.3-0.6-0.5c-3.4-1.7-6.9-3.4-10.4-5c-3.5-1.6-7-3-10.6-4.4C552.9,379.9,552.8,380.1,553.3,380.4
		z"/>
	<linearGradient id="SVGID_56_" gradientUnits="userSpaceOnUse" x1="559.5855" y1="397.7283" x2="572.5485" y2="397.7283">
		<stop  offset="2.150540e-002" style="stop-color:#BF8D33"/>
		<stop  offset="0.5054" style="stop-color:#F7E679"/>
		<stop  offset="1" style="stop-color:#BF8D33"/>
	</linearGradient>
	<path fill="url(#SVGID_56_)" d="M559.8,396.5c2,0.6,4,1,6,1.5c2,0.4,4.1,0.8,6.1,1.2c0.2,0,0.4,0,0.4,0l0-0.6l0.1-0.6l0.2-1.1
		c0-0.1-0.2-0.1-0.4-0.1c-4.1-0.4-8.2-0.5-12.3-0.4C559.5,396.3,559.5,396.4,559.8,396.5z"/>
	<linearGradient id="SVGID_57_" gradientUnits="userSpaceOnUse" x1="565.6599" y1="378.0051" x2="580.0012" y2="378.0051">
		<stop  offset="2.150540e-002" style="stop-color:#BF8D33"/>
		<stop  offset="0.5054" style="stop-color:#F7E679"/>
		<stop  offset="1" style="stop-color:#BF8D33"/>
	</linearGradient>
	<path fill="url(#SVGID_57_)" d="M577.8,385.2c0.2,0.2,0.5,0.4,0.5,0.4c0.2-0.3,0.5-0.5,0.8-0.8l0.8-0.8c0,0-0.1-0.3-0.4-0.5
		c-4.3-4.5-8.9-8.9-13.6-13c-0.3-0.3-0.5-0.2-0.2,0.2C569.5,375.8,573.5,380.6,577.8,385.2z"/>
	<linearGradient id="SVGID_58_" gradientUnits="userSpaceOnUse" x1="568.8054" y1="372.7552" x2="583.066" y2="372.7552">
		<stop  offset="2.150540e-002" style="stop-color:#BF8D33"/>
		<stop  offset="0.5054" style="stop-color:#F7E679"/>
		<stop  offset="1" style="stop-color:#BF8D33"/>
	</linearGradient>
	<path fill="url(#SVGID_58_)" d="M580.6,382.6c0.2,0.3,0.5,0.6,0.5,0.6c0.6-0.5,1.3-0.9,1.9-1.3c0,0-0.1-0.4-0.3-0.7
		c-4.2-6.4-8.7-12.6-13.6-18.6c-0.3-0.4-0.5-0.3-0.3,0.2C572.5,369.5,576.4,376.2,580.6,382.6z"/>
	<linearGradient id="SVGID_59_" gradientUnits="userSpaceOnUse" x1="566.4182" y1="384.0996" x2="577.3891" y2="384.0996">
		<stop  offset="2.150540e-002" style="stop-color:#BF8D33"/>
		<stop  offset="0.5054" style="stop-color:#F7E679"/>
		<stop  offset="1" style="stop-color:#BF8D33"/>
	</linearGradient>
	<path fill="url(#SVGID_59_)" d="M576,388.5l0.7-0.9c0.2-0.3,0.4-0.6,0.7-0.9c0,0-0.1-0.2-0.3-0.3c-3.4-2.4-6.8-4.6-10.5-6.6
		c-0.2-0.1-0.3,0-0.1,0.2c2.9,3,5.9,5.7,9.1,8.4C575.7,388.4,575.9,388.5,576,388.5z"/>
	<linearGradient id="SVGID_60_" gradientUnits="userSpaceOnUse" x1="584.6183" y1="370.0367" x2="590.267" y2="370.0367">
		<stop  offset="2.150540e-002" style="stop-color:#BF8D33"/>
		<stop  offset="0.5054" style="stop-color:#F7E679"/>
		<stop  offset="1" style="stop-color:#BF8D33"/>
	</linearGradient>
	<path fill="url(#SVGID_60_)" d="M588,379.8l1.1-0.3c0.2,0,0.4-0.1,0.6-0.1l0.6-0.1c0.1,0,0-0.3,0-0.6c-1.4-6.1-3.2-12.2-5.3-18.1
		c-0.1-0.4-0.3-0.4-0.3,0.1c0.7,6.3,1.8,12.5,3.1,18.6C587.8,379.5,588,379.8,588,379.8z"/>
	<linearGradient id="SVGID_61_" gradientUnits="userSpaceOnUse" x1="591.1106" y1="366.9918" x2="594.037" y2="366.9918">
		<stop  offset="2.150540e-002" style="stop-color:#BF8D33"/>
		<stop  offset="0.5054" style="stop-color:#F7E679"/>
		<stop  offset="1" style="stop-color:#BF8D33"/>
	</linearGradient>
	<path fill="url(#SVGID_61_)" d="M591.7,379.1c0.8-0.1,1.5-0.1,2.3-0.1c0.1,0,0.1-0.4,0.1-0.8c-0.4-7.6-1.2-15.3-2.4-22.9
		c-0.1-0.5-0.3-0.5-0.3,0c-0.3,7.7-0.3,15.3,0.2,23C591.5,378.7,591.6,379.1,591.7,379.1z"/>
	<linearGradient id="SVGID_62_" gradientUnits="userSpaceOnUse" x1="580.6011" y1="374.917" x2="586.7196" y2="374.917">
		<stop  offset="2.150540e-002" style="stop-color:#BF8D33"/>
		<stop  offset="0.5054" style="stop-color:#F7E679"/>
		<stop  offset="1" style="stop-color:#BF8D33"/>
	</linearGradient>
	<path fill="url(#SVGID_62_)" d="M584.3,380.8c0.1,0.2,0.2,0.4,0.2,0.3c0.3-0.2,0.7-0.3,1-0.5l1.1-0.4c0.1,0,0-0.2-0.1-0.4
		c-1.7-3.7-3.7-7.4-5.8-10.9c-0.1-0.2-0.3-0.2-0.2,0.1C581.7,373,582.9,376.9,584.3,380.8z"/>
	<linearGradient id="SVGID_63_" gradientUnits="userSpaceOnUse" x1="599.3055" y1="370.6431" x2="606.2683" y2="370.6431">
		<stop  offset="2.150540e-002" style="stop-color:#BF8D33"/>
		<stop  offset="0.5054" style="stop-color:#F7E679"/>
		<stop  offset="1" style="stop-color:#BF8D33"/>
	</linearGradient>
	<path fill="url(#SVGID_63_)" d="M600.4,379.9c0.4,0.1,0.7,0.3,1.1,0.4c0.1,0,0.2-0.3,0.3-0.6c1.8-6,3.3-12.2,4.4-18.4
		c0.1-0.4-0.1-0.5-0.3-0.1c-2.5,5.8-4.7,11.7-6.6,17.7c-0.1,0.3-0.1,0.6-0.1,0.6L600.4,379.9z"/>
	<linearGradient id="SVGID_64_" gradientUnits="userSpaceOnUse" x1="602.8338" y1="370.7992" x2="614.8062" y2="370.7992">
		<stop  offset="2.150540e-002" style="stop-color:#BF8D33"/>
		<stop  offset="0.5054" style="stop-color:#F7E679"/>
		<stop  offset="1" style="stop-color:#BF8D33"/>
	</linearGradient>
	<path fill="url(#SVGID_64_)" d="M602.8,380.8l1,0.5l0.5,0.2c0.2,0.1,0.3,0.2,0.5,0.3c0,0,0.3-0.3,0.5-0.6c1.7-3.4,3.4-6.9,5-10.4
		c1.6-3.5,3-7,4.4-10.6c0.2-0.5,0-0.6-0.3-0.1c-4.2,6.5-7.9,13.2-11.4,20C602.9,380.4,602.8,380.8,602.8,380.8z"/>
	<linearGradient id="SVGID_65_" gradientUnits="userSpaceOnUse" x1="595.6428" y1="372.8351" x2="598.5839" y2="372.8351">
		<stop  offset="2.150540e-002" style="stop-color:#BF8D33"/>
		<stop  offset="0.5054" style="stop-color:#F7E679"/>
		<stop  offset="1" style="stop-color:#BF8D33"/>
	</linearGradient>
	<path fill="url(#SVGID_65_)" d="M596.3,379l0.6,0.1l1.1,0.2c0.1,0,0.1-0.2,0.1-0.4c0.4-4.1,0.5-8.2,0.4-12.3c0-0.3-0.2-0.3-0.2,0
		c-0.6,2-1,4-1.5,6c-0.4,2-0.8,4.1-1.2,6.1c0,0.2,0,0.4,0,0.4L596.3,379z"/>
	<linearGradient id="SVGID_66_" gradientUnits="userSpaceOnUse" x1="609.2065" y1="379.5981" x2="624.4659" y2="379.5981">
		<stop  offset="2.150540e-002" style="stop-color:#BF8D33"/>
		<stop  offset="0.5054" style="stop-color:#F7E679"/>
		<stop  offset="1" style="stop-color:#BF8D33"/>
	</linearGradient>
	<path fill="url(#SVGID_66_)" d="M609.2,385.1c0.3,0.2,0.5,0.5,0.8,0.8l0.8,0.8c0,0,0.3-0.1,0.5-0.4c4.5-4.3,8.9-8.9,13-13.6
		c0.3-0.3,0.2-0.5-0.2-0.2c-5.1,3.8-9.9,7.7-14.5,12C609.4,384.8,609.2,385.1,609.2,385.1z"/>
	<linearGradient id="SVGID_67_" gradientUnits="userSpaceOnUse" x1="611.6553" y1="382.7036" x2="632.5175" y2="382.7036">
		<stop  offset="2.150540e-002" style="stop-color:#BF8D33"/>
		<stop  offset="0.5054" style="stop-color:#F7E679"/>
		<stop  offset="1" style="stop-color:#BF8D33"/>
	</linearGradient>
	<path fill="url(#SVGID_67_)" d="M611.7,387.9c0.5,0.6,0.9,1.3,1.3,1.9c0,0,0.4-0.1,0.7-0.3c6.4-4.2,12.6-8.7,18.6-13.6
		c0.4-0.3,0.3-0.5-0.2-0.3c-6.8,3.5-13.5,7.5-19.9,11.7C611.9,387.6,611.6,387.9,611.7,387.9z"/>
	<linearGradient id="SVGID_68_" gradientUnits="userSpaceOnUse" x1="606.352" y1="378.6714" x2="615.1322" y2="378.6714">
		<stop  offset="2.150540e-002" style="stop-color:#BF8D33"/>
		<stop  offset="0.5054" style="stop-color:#F7E679"/>
		<stop  offset="1" style="stop-color:#BF8D33"/>
	</linearGradient>
	<path fill="url(#SVGID_68_)" d="M606.4,382.7l0.9,0.7c0.3,0.2,0.6,0.4,0.9,0.7c0,0,0.2-0.1,0.3-0.3c2.4-3.4,4.6-6.8,6.6-10.5
		c0.1-0.2,0-0.3-0.2-0.1c-3,2.9-5.7,5.9-8.4,9.1C606.4,382.5,606.3,382.7,606.4,382.7z"/>
	<linearGradient id="SVGID_69_" gradientUnits="userSpaceOnUse" x1="615.0379" y1="394.2104" x2="634.5718" y2="394.2104">
		<stop  offset="2.150540e-002" style="stop-color:#BF8D33"/>
		<stop  offset="0.5054" style="stop-color:#F7E679"/>
		<stop  offset="1" style="stop-color:#BF8D33"/>
	</linearGradient>
	<path fill="url(#SVGID_69_)" d="M615,394.8l0.3,1.1c0,0.2,0.1,0.4,0.1,0.6l0.1,0.6c0,0.1,0.3,0,0.6,0c6.1-1.5,12.2-3.2,18.1-5.3
		c0.4-0.1,0.4-0.3-0.1-0.3c-6.3,0.7-12.5,1.8-18.6,3.1C615.3,394.6,615,394.7,615,394.8z"/>
	<linearGradient id="SVGID_70_" gradientUnits="userSpaceOnUse" x1="615.7695" y1="399.3419" x2="639.9301" y2="399.3419">
		<stop  offset="2.150540e-002" style="stop-color:#BF8D33"/>
		<stop  offset="0.5054" style="stop-color:#F7E679"/>
		<stop  offset="1" style="stop-color:#BF8D33"/>
	</linearGradient>
	<path fill="url(#SVGID_70_)" d="M616.5,398.3c-0.4,0-0.8,0.1-0.8,0.2c0.1,0.8,0.1,1.5,0.1,2.3c0,0.1,0.4,0.1,0.8,0.1
		c7.6-0.4,15.3-1.2,22.9-2.4c0.5-0.1,0.5-0.3,0-0.3C631.8,397.8,624.2,397.8,616.5,398.3z"/>
	<linearGradient id="SVGID_71_" gradientUnits="userSpaceOnUse" x1="613.7233" y1="390.4282" x2="626.1258" y2="390.4282">
		<stop  offset="2.150540e-002" style="stop-color:#BF8D33"/>
		<stop  offset="0.5054" style="stop-color:#F7E679"/>
		<stop  offset="1" style="stop-color:#BF8D33"/>
	</linearGradient>
	<path fill="url(#SVGID_71_)" d="M625.9,387.4c-4,1-8,2.3-11.8,3.7c-0.2,0.1-0.4,0.2-0.3,0.2c0.2,0.3,0.3,0.7,0.5,1l0.4,1.1
		c0,0.1,0.2,0,0.4-0.1c3.7-1.7,7.4-3.7,10.9-5.8C626.2,387.5,626.2,387.3,625.9,387.4z"/>
	<linearGradient id="SVGID_72_" gradientUnits="userSpaceOnUse" x1="575.6985" y1="400.4277" x2="612.8477" y2="400.4277">
		<stop  offset="2.150540e-002" style="stop-color:#BF8D33"/>
		<stop  offset="0.5054" style="stop-color:#F7E679"/>
		<stop  offset="1" style="stop-color:#BF8D33"/>
	</linearGradient>
	<circle fill="url(#SVGID_72_)" cx="594.3" cy="400.4" r="18.6"/>
	<linearGradient id="SVGID_73_" gradientUnits="userSpaceOnUse" x1="241.5607" y1="818.7251" x2="254.6886" y2="818.7251">
		<stop  offset="2.150540e-002" style="stop-color:#BF8D33"/>
		<stop  offset="0.5054" style="stop-color:#F7E679"/>
		<stop  offset="1" style="stop-color:#BF8D33"/>
	</linearGradient>
	<path fill="url(#SVGID_73_)" d="M249,809.7c-0.4,0-1,0-1.8,0c-0.8,0-1.4,0-1.7,0c-0.2,0-0.7,0-1.5,0c-0.8,0-1.5,0-2,0
		c-0.4,0-0.5,0.1-0.5,0.2c0,0.1,0.1,0.2,0.4,0.2c0.4,0,0.7,0,0.9,0.1c0.6,0.1,1,0.6,1,1.4c0,0.5,0,2.2,0,5.1v4.2
		c0,2.8,0,4.5-0.1,5.1c-0.1,0.8-0.3,1.2-0.7,1.3c-0.2,0-0.5,0-0.7,0.1c-0.4,0-0.5,0.1-0.5,0.2c0,0.2,0.2,0.2,0.5,0.2
		c0.4,0,0.9,0,1.7,0c0.8,0,1.2,0,1.4,0c0.1,0,0.6,0,1.5,0c0.9,0,1.6,0,2.2,0c0.3,0,0.5-0.1,0.5-0.2c0-0.1-0.1-0.2-0.4-0.2
		c-0.4,0-0.8,0-1.2-0.1c-0.5-0.1-0.8-0.5-0.9-1.3c-0.1-0.7-0.1-2.4-0.1-5.1v-9.6c0-0.3,0.1-0.4,0.2-0.5c0.2-0.1,0.5-0.1,0.9-0.1
		c0.9,0,1.7,0.3,2.4,0.9c0.9,0.8,1.4,2,1.4,3.6c0,1.1-0.4,2.1-1.1,2.9c-0.7,0.7-1.4,1.1-2.1,1.1c-0.4,0-0.7,0.1-0.7,0.3
		c0,0.1,0.1,0.2,0.3,0.2c0.1,0,0.2,0,0.5,0c1.7,0,3.1-0.5,4.2-1.6c1.1-1.1,1.7-2.5,1.7-4.2c0-1.2-0.4-2.1-1.2-2.9
		C252.5,810.1,251,809.7,249,809.7z"/>
	<linearGradient id="SVGID_74_" gradientUnits="userSpaceOnUse" x1="257.0885" y1="818.7246" x2="276.6969" y2="818.7246">
		<stop  offset="2.150540e-002" style="stop-color:#BF8D33"/>
		<stop  offset="0.5054" style="stop-color:#F7E679"/>
		<stop  offset="1" style="stop-color:#BF8D33"/>
	</linearGradient>
	<path fill="url(#SVGID_74_)" d="M267,809.3c-3.3,0-5.8,1.1-7.7,3.2c-1.5,1.7-2.3,3.8-2.3,6.2c0,2.4,0.8,4.5,2.3,6.3
		c1.8,2.1,4.2,3.1,7.4,3.1c3,0,5.4-1,7.2-2.9c1.8-1.8,2.7-4.2,2.7-7c0-2.8-0.9-4.9-2.6-6.6C272.3,810.1,270,809.3,267,809.3z
		 M271.2,825.7c-0.9,0.8-2.1,1.3-3.4,1.3c-2.2,0-4-0.9-5.4-2.6c-1.3-1.6-2-3.8-2-6.3c0-2.7,0.6-4.7,1.9-6c1-1,2.3-1.5,4-1.5
		c2,0,3.7,0.8,5,2.3c1.4,1.6,2,3.8,2,6.4C273.3,822.2,272.6,824.4,271.2,825.7z"/>
	<linearGradient id="SVGID_75_" gradientUnits="userSpaceOnUse" x1="280.1764" y1="818.7246" x2="290.2081" y2="818.7246">
		<stop  offset="2.150540e-002" style="stop-color:#BF8D33"/>
		<stop  offset="0.5054" style="stop-color:#F7E679"/>
		<stop  offset="1" style="stop-color:#BF8D33"/>
	</linearGradient>
	<path fill="url(#SVGID_75_)" d="M286.3,816.9l-0.7-0.5c-1-0.7-1.6-1.4-2-1.9c-0.4-0.5-0.5-1-0.5-1.6c0-0.7,0.3-1.3,0.8-1.8
		c0.5-0.5,1.2-0.7,2.1-0.7c1.1,0,2,0.4,2.6,1.2c0.4,0.5,0.6,1.1,0.6,1.6c0,0.3,0.1,0.4,0.2,0.4c0.2,0,0.3-0.2,0.3-0.7
		c0-0.8,0-1.4,0-2c0-0.6,0-0.9,0-0.9c0-0.1-0.1-0.2-0.3-0.3c-1.1-0.3-2.2-0.4-3.2-0.4c-1.6,0-3,0.4-4,1.3c-1,0.8-1.5,1.9-1.5,3.3
		c0,1.9,1.2,3.8,3.6,5.7l1.1,0.9c1.6,1.2,2.4,2.5,2.4,3.8c0,0.7-0.3,1.3-0.8,1.8c-0.6,0.6-1.4,0.9-2.4,0.9c-1.8,0-3-0.8-3.4-2.4
		c-0.1-0.5-0.2-0.9-0.2-1.2c0-0.3-0.1-0.4-0.2-0.4c-0.2,0-0.3,0.2-0.3,0.6c-0.1,1.2-0.1,2.3-0.1,3.1c0,0.4,0.2,0.7,0.5,0.8
		c0.9,0.4,2.1,0.6,3.5,0.6c1.5,0,2.8-0.3,3.8-1c1.5-1,2.3-2.4,2.3-4.2c0-1.2-0.3-2.2-0.9-3.1C288.7,818.9,287.7,817.9,286.3,816.9z"
		/>
	<linearGradient id="SVGID_76_" gradientUnits="userSpaceOnUse" x1="292.3439" y1="818.5566" x2="308.5675" y2="818.5566">
		<stop  offset="2.150540e-002" style="stop-color:#BF8D33"/>
		<stop  offset="0.5054" style="stop-color:#F7E679"/>
		<stop  offset="1" style="stop-color:#BF8D33"/>
	</linearGradient>
	<path fill="url(#SVGID_76_)" d="M308.4,809.5c-0.2,0-0.6,0-1.1,0.1c-0.5,0.1-0.9,0.1-1.2,0.1h-9.5c-0.7,0-1.5,0-2.4-0.1
		c-0.2,0-0.4-0.1-0.6-0.2s-0.3-0.1-0.4-0.1c-0.1,0-0.2,0.2-0.3,0.5c-0.3,1.4-0.5,2.3-0.5,2.8c0,0.3,0.1,0.4,0.2,0.4
		c0.1,0,0.2-0.1,0.3-0.3c0.1-0.3,0.2-0.5,0.4-0.8c0.3-0.4,1.1-0.7,2.3-0.7l3.6-0.1v9.8c0,2.7,0,4.4-0.1,5.1
		c-0.1,0.8-0.3,1.2-0.7,1.3c-0.2,0-0.5,0-0.7,0.1c-0.4,0-0.5,0.1-0.5,0.2c0,0.2,0.2,0.2,0.5,0.2c0.4,0,0.9,0,1.7,0
		c0.8,0,1.2,0,1.4,0c0.1,0,0.7,0,1.5,0c0.9,0,1.6,0,2.2,0c0.3,0,0.5-0.1,0.5-0.2c0-0.1-0.1-0.2-0.4-0.2c-0.4,0-0.8,0-1.2-0.1
		c-0.5-0.1-0.8-0.5-0.9-1.3c-0.1-0.7-0.1-2.4-0.1-5.1V811l3,0.1c1.8,0,2.8,0.5,2.8,1.3l0,0.3c0,0.3,0.1,0.5,0.3,0.5
		c0.1,0,0.2-0.1,0.2-0.4c0-0.2,0-0.7,0.1-1.5c0-0.7,0-1.2,0-1.3C308.6,809.7,308.5,809.5,308.4,809.5z"/>
	<linearGradient id="SVGID_77_" gradientUnits="userSpaceOnUse" x1="309.8636" y1="818.4849" x2="318.4073" y2="818.4849">
		<stop  offset="2.150540e-002" style="stop-color:#BF8D33"/>
		<stop  offset="0.5054" style="stop-color:#F7E679"/>
		<stop  offset="1" style="stop-color:#BF8D33"/>
	</linearGradient>
	<path fill="url(#SVGID_77_)" d="M317.6,817.3h-6.8c-0.3,0-0.5,0.1-0.6,0.3l-0.4,1.7c-0.1,0.3,0,0.4,0.2,0.4c0.1,0,0.2-0.1,0.5-0.2
		c0.2-0.1,0.4-0.2,0.6-0.2c0.9-0.2,3-0.6,6.2-1.2c0.7-0.1,1.1-0.3,1.1-0.5C318.4,817.4,318.2,817.3,317.6,817.3z"/>
	<linearGradient id="SVGID_78_" gradientUnits="userSpaceOnUse" x1="320.5431" y1="818.7246" x2="337.2228" y2="818.7246">
		<stop  offset="2.150540e-002" style="stop-color:#BF8D33"/>
		<stop  offset="0.5054" style="stop-color:#F7E679"/>
		<stop  offset="1" style="stop-color:#BF8D33"/>
	</linearGradient>
	<path fill="url(#SVGID_78_)" d="M330.6,810.5c1.1,0,2.1,0.1,3,0.4c0.8,0.3,1.5,0.6,1.9,1.1c0.6,0.6,0.9,1.4,0.9,2.2
		c0,0.4,0.1,0.5,0.2,0.5s0.3-0.2,0.3-0.6c0-1,0.1-1.9,0.1-2.6c0-0.3,0-0.6,0.1-0.9c0-0.2,0.1-0.4,0.1-0.4c0-0.2-0.1-0.3-0.4-0.3
		c-1-0.2-1.8-0.3-2.4-0.4c-1.2-0.2-2.4-0.2-3.5-0.2c-3.2,0-5.7,0.9-7.6,2.6s-2.8,3.9-2.8,6.6c0,3,1,5.4,3,7.1c2,1.7,4.7,2.6,8.2,2.6
		c2,0,3.4-0.2,4.3-0.6c0.3-0.1,0.5-0.4,0.6-0.7c0.1-0.4,0.2-0.9,0.3-1.8c0.1-0.8,0.2-1.2,0.2-1.4c0-0.2-0.1-0.4-0.2-0.4
		c-0.1,0-0.2,0.2-0.3,0.5c-0.1,0.6-0.4,1.1-0.8,1.6c-0.5,0.6-1.2,1-2,1.2c-0.6,0.1-1.4,0.2-2.4,0.2c-1.8,0-3.5-0.7-5-2.1
		c-1.7-1.6-2.6-3.8-2.6-6.4c0-2.8,0.7-4.9,2.2-6.2C327.2,811,328.7,810.5,330.6,810.5z"/>
	<linearGradient id="SVGID_79_" gradientUnits="userSpaceOnUse" x1="339.7433" y1="818.7246" x2="359.3507" y2="818.7246">
		<stop  offset="2.150540e-002" style="stop-color:#BF8D33"/>
		<stop  offset="0.5054" style="stop-color:#F7E679"/>
		<stop  offset="1" style="stop-color:#BF8D33"/>
	</linearGradient>
	<path fill="url(#SVGID_79_)" d="M349.7,809.3c-3.3,0-5.8,1.1-7.7,3.2c-1.5,1.7-2.3,3.8-2.3,6.2c0,2.4,0.8,4.5,2.3,6.3
		c1.8,2.1,4.2,3.1,7.4,3.1c3,0,5.4-1,7.2-2.9c1.8-1.8,2.7-4.2,2.7-7c0-2.8-0.9-4.9-2.6-6.6C355,810.1,352.6,809.3,349.7,809.3z
		 M353.8,825.7c-0.9,0.8-2.1,1.3-3.4,1.3c-2.2,0-4-0.9-5.4-2.6c-1.3-1.6-2-3.8-2-6.3c0-2.7,0.6-4.7,1.9-6c1-1,2.3-1.5,4-1.5
		c2,0,3.7,0.8,5,2.3c1.4,1.6,2,3.8,2,6.4C356,822.2,355.3,824.4,353.8,825.7z"/>
	<linearGradient id="SVGID_80_" gradientUnits="userSpaceOnUse" x1="361.8234" y1="818.665" x2="382.007" y2="818.665">
		<stop  offset="2.150540e-002" style="stop-color:#BF8D33"/>
		<stop  offset="0.5054" style="stop-color:#F7E679"/>
		<stop  offset="1" style="stop-color:#BF8D33"/>
	</linearGradient>
	<path fill="url(#SVGID_80_)" d="M381.5,809.7c-0.5,0-1,0-1.5,0c-0.5,0-0.8,0-0.8,0c-0.1,0-0.5,0-1.2,0c-0.7,0-1.2,0-1.7,0
		c-0.4,0-0.6,0.1-0.6,0.2c0,0.1,0.1,0.2,0.4,0.2c0.6,0,1,0,1.3,0.1c0.4,0.1,0.6,0.5,0.7,0.9c0,0.2,0.1,0.6,0.1,1.2l0.2,10.8h-0.1
		c-1.9-2-3.6-3.8-5.3-5.5c-3.6-3.7-6.1-6.3-7.4-7.7c-0.5-0.5-0.8-0.7-0.9-0.7c-0.2,0-0.3,0.3-0.3,0.8l-0.2,14.2
		c0,1.1-0.1,1.8-0.1,2.2c-0.1,0.4-0.3,0.7-0.6,0.8c-0.3,0-0.6,0.1-0.8,0.1c-0.4,0-0.6,0.1-0.6,0.2c0,0.2,0.2,0.2,0.5,0.2
		c0.5,0,1.1,0,1.7,0c0.6,0,0.9,0,0.9,0c0.1,0,0.4,0,1.1,0c0.7,0,1.3,0,1.9,0c0.4,0,0.6-0.1,0.6-0.2c0-0.1-0.2-0.2-0.7-0.2
		c-0.6-0.1-0.9-0.1-0.9-0.1c-0.5-0.2-0.8-1.1-0.8-2.7l-0.3-10.1h0.1c0.7,0.7,1.4,1.5,2,2.2c1.4,1.5,2.6,2.7,3.7,3.8
		c3.2,3.2,5.5,5.5,7.1,7.1c0.4,0.4,0.6,0.5,0.8,0.5c0.2,0,0.3-0.2,0.3-0.7l0.3-15.1c0-0.6,0.1-1,0.1-1.3c0.2-0.5,0.7-0.8,1.5-0.8
		c0.3,0,0.4-0.1,0.4-0.2C382,809.7,381.8,809.7,381.5,809.7z"/>
	<linearGradient id="SVGID_81_" gradientUnits="userSpaceOnUse" x1="385.5587" y1="818.7246" x2="395.5909" y2="818.7246">
		<stop  offset="2.150540e-002" style="stop-color:#BF8D33"/>
		<stop  offset="0.5054" style="stop-color:#F7E679"/>
		<stop  offset="1" style="stop-color:#BF8D33"/>
	</linearGradient>
	<path fill="url(#SVGID_81_)" d="M391.7,816.9l-0.7-0.5c-1-0.7-1.6-1.4-2-1.9c-0.4-0.5-0.5-1-0.5-1.6c0-0.7,0.3-1.3,0.8-1.8
		c0.5-0.5,1.2-0.7,2.1-0.7c1.1,0,2,0.4,2.6,1.2c0.4,0.5,0.6,1.1,0.6,1.6c0,0.3,0.1,0.4,0.2,0.4c0.2,0,0.3-0.2,0.3-0.7
		c0-0.8,0-1.4,0-2c0-0.6,0-0.9,0-0.9c0-0.1-0.1-0.2-0.3-0.3c-1.1-0.3-2.2-0.4-3.2-0.4c-1.6,0-3,0.4-4,1.3c-1,0.8-1.5,1.9-1.5,3.3
		c0,1.9,1.2,3.8,3.6,5.7l1.1,0.9c1.6,1.2,2.4,2.5,2.4,3.8c0,0.7-0.3,1.3-0.8,1.8c-0.6,0.6-1.4,0.9-2.4,0.9c-1.8,0-3-0.8-3.4-2.4
		c-0.1-0.5-0.2-0.9-0.2-1.2c0-0.3-0.1-0.4-0.2-0.4c-0.2,0-0.3,0.2-0.3,0.6c-0.1,1.2-0.1,2.3-0.1,3.1c0,0.4,0.2,0.7,0.5,0.8
		c0.9,0.4,2.1,0.6,3.5,0.6c1.5,0,2.8-0.3,3.8-1c1.5-1,2.3-2.4,2.3-4.2c0-1.2-0.3-2.2-0.9-3.1S393.1,817.9,391.7,816.9z"/>
	<linearGradient id="SVGID_82_" gradientUnits="userSpaceOnUse" x1="397.7267" y1="818.5566" x2="413.9503" y2="818.5566">
		<stop  offset="2.150540e-002" style="stop-color:#BF8D33"/>
		<stop  offset="0.5054" style="stop-color:#F7E679"/>
		<stop  offset="1" style="stop-color:#BF8D33"/>
	</linearGradient>
	<path fill="url(#SVGID_82_)" d="M413.8,809.5c-0.2,0-0.6,0-1.1,0.1c-0.5,0.1-0.9,0.1-1.2,0.1H402c-0.7,0-1.5,0-2.4-0.1
		c-0.2,0-0.4-0.1-0.6-0.2s-0.3-0.1-0.4-0.1c-0.1,0-0.2,0.2-0.3,0.5c-0.3,1.4-0.5,2.3-0.5,2.8c0,0.3,0.1,0.4,0.2,0.4
		c0.1,0,0.2-0.1,0.3-0.3c0.1-0.3,0.2-0.5,0.4-0.8c0.3-0.4,1.1-0.7,2.3-0.7l3.6-0.1v9.8c0,2.7,0,4.4-0.1,5.1
		c-0.1,0.8-0.3,1.2-0.7,1.3c-0.2,0-0.5,0-0.7,0.1c-0.4,0-0.5,0.1-0.5,0.2c0,0.2,0.2,0.2,0.5,0.2c0.4,0,0.9,0,1.7,0
		c0.8,0,1.2,0,1.4,0c0.1,0,0.7,0,1.5,0c0.9,0,1.6,0,2.2,0c0.3,0,0.5-0.1,0.5-0.2c0-0.1-0.1-0.2-0.4-0.2c-0.4,0-0.8,0-1.2-0.1
		c-0.5-0.1-0.8-0.5-0.9-1.3c-0.1-0.7-0.1-2.4-0.1-5.1V811l3,0.1c1.8,0,2.8,0.5,2.8,1.3l0,0.3c0,0.3,0.1,0.5,0.3,0.5
		c0.1,0,0.2-0.1,0.2-0.4c0-0.2,0-0.7,0.1-1.5c0-0.7,0-1.2,0-1.3C414,809.7,413.9,809.5,413.8,809.5z"/>
	<linearGradient id="SVGID_83_" gradientUnits="userSpaceOnUse" x1="415.9181" y1="818.7251" x2="434.8546" y2="818.7251">
		<stop  offset="2.150540e-002" style="stop-color:#BF8D33"/>
		<stop  offset="0.5054" style="stop-color:#F7E679"/>
		<stop  offset="1" style="stop-color:#BF8D33"/>
	</linearGradient>
	<path fill="url(#SVGID_83_)" d="M434.4,827.3c-0.2,0-0.4,0-0.6,0c-0.9-0.2-1.8-0.7-2.7-1.6c-0.6-0.6-1.4-1.5-2.3-2.7
		c-0.2-0.2-1.1-1.4-2.9-3.6c2.1-1.7,3.2-3.5,3.2-5.4c0-0.7-0.2-1.4-0.6-2.1c-0.3-0.5-0.7-1-1.1-1.2c-1-0.7-2.5-1-4.4-1
		c-0.2,0-0.8,0-1.7,0c-0.9,0-1.4,0-1.7,0c-0.1,0-0.5,0-1.3,0c-0.8,0-1.4,0-1.9,0c-0.4,0-0.5,0.1-0.5,0.2c0,0.1,0.1,0.2,0.4,0.2
		c0.4,0,0.7,0,0.9,0.1c0.6,0.1,1,0.6,1,1.4c0,0.5,0,2.2,0,5.1v4.2c0,2.8,0,4.5-0.1,5.1c-0.1,0.8-0.3,1.2-0.7,1.3
		c-0.2,0-0.5,0-0.7,0.1c-0.4,0-0.5,0.1-0.5,0.2c0,0.2,0.2,0.2,0.5,0.2c0.4,0,0.9,0,1.7,0c0.7,0,1.2,0,1.3,0c0,0,0.5,0,1.4,0
		c0.9,0,1.6,0,2.1,0c0.3,0,0.5-0.1,0.5-0.2c0-0.1-0.1-0.2-0.3-0.2c-0.3,0-0.7,0-1.2-0.1c-0.5-0.1-0.8-0.5-0.9-1.3
		c-0.1-0.7-0.1-2.4-0.1-5.1v-0.3c0-0.1,0.1-0.2,0.2-0.2h2.1c0.2,0,0.3,0.1,0.4,0.2c0.9,1.2,1.7,2.3,2.4,3.3c1.4,1.9,2.5,3.1,3.3,3.5
		c0.6,0.3,1.4,0.5,2.6,0.5h2.3c0.3,0,0.5-0.1,0.5-0.2C434.9,827.4,434.7,827.4,434.4,827.3z M424.9,818.8c-0.4,0.3-0.9,0.4-1.7,0.4
		c-0.8,0-1.4-0.1-1.8-0.2c-0.1,0-0.2-0.2-0.2-0.4v-7.3c0-0.1,0-0.2,0.1-0.3c0.1-0.1,0.6-0.1,1.4-0.1c0.9,0,1.7,0.3,2.4,0.9
		c0.9,0.8,1.3,2,1.3,3.5C426.3,816.9,425.9,818.1,424.9,818.8z"/>
	<linearGradient id="SVGID_84_" gradientUnits="userSpaceOnUse" x1="433.0294" y1="818.8931" x2="452.2531" y2="818.8931">
		<stop  offset="2.150540e-002" style="stop-color:#BF8D33"/>
		<stop  offset="0.5054" style="stop-color:#F7E679"/>
		<stop  offset="1" style="stop-color:#BF8D33"/>
	</linearGradient>
	<path fill="url(#SVGID_84_)" d="M451.7,809.7c-0.4,0-0.9,0-1.6,0c-0.7,0-1.1,0-1.1,0c-1.1,0-2.1-0.1-2.8-0.1
		c-0.3,0-0.5,0.1-0.5,0.2c0,0.1,0.1,0.2,0.4,0.2c0.4,0,0.6,0,0.9,0.1c0.6,0.1,1,0.6,1,1.4c0,0.5,0,2.2,0,5.1v3
		c0,1.5-0.1,2.7-0.2,3.4c-0.2,1.1-0.6,2-1.2,2.5c-0.9,0.9-2,1.3-3.3,1.3c-1.2,0-2.2-0.3-3-1c-1.2-1-1.9-3-1.9-5.9v-3.4
		c0-2.9,0-4.6,0-5.1c0-0.8,0.3-1.3,0.9-1.4c0.3,0,0.5-0.1,0.7-0.1c0.3,0,0.4-0.1,0.4-0.2c0-0.1-0.2-0.2-0.5-0.2c-0.3,0-0.8,0-1.6,0
		c-0.7,0-1.2,0-1.4,0c-0.2,0-0.7,0-1.5,0c-0.8,0-1.5,0-2,0c-0.4,0-0.5,0.1-0.5,0.2c0,0.1,0.1,0.2,0.4,0.2c0.4,0,0.7,0,0.9,0.1
		c0.6,0.1,1,0.6,1,1.4c0,0.5,0,2.2,0,5.1v3.5c0,3,0.7,5.1,2.1,6.4c1.2,1.1,3,1.7,5.3,1.7c2,0,3.6-0.6,5-1.7c0.9-0.8,1.5-1.9,1.9-3.3
		c0.3-1,0.4-2.3,0.4-4v-2.6c0-2.9,0-4.6,0-5.1c0-0.8,0.3-1.3,0.9-1.4c0.3,0,0.5-0.1,0.7-0.1c0.3,0,0.4-0.1,0.4-0.2
		C452.3,809.7,452.1,809.7,451.7,809.7z"/>
	<linearGradient id="SVGID_85_" gradientUnits="userSpaceOnUse" x1="454.2941" y1="818.7246" x2="470.9738" y2="818.7246">
		<stop  offset="2.150540e-002" style="stop-color:#BF8D33"/>
		<stop  offset="0.5054" style="stop-color:#F7E679"/>
		<stop  offset="1" style="stop-color:#BF8D33"/>
	</linearGradient>
	<path fill="url(#SVGID_85_)" d="M464.4,810.5c1.1,0,2.1,0.1,3,0.4c0.8,0.3,1.5,0.6,1.9,1.1c0.6,0.6,0.9,1.4,0.9,2.2
		c0,0.4,0.1,0.5,0.2,0.5s0.3-0.2,0.3-0.6c0-1,0.1-1.9,0.1-2.6c0-0.3,0-0.6,0.1-0.9c0-0.2,0.1-0.4,0.1-0.4c0-0.2-0.1-0.3-0.4-0.3
		c-1-0.2-1.8-0.3-2.4-0.4c-1.2-0.2-2.4-0.2-3.5-0.2c-3.2,0-5.7,0.9-7.6,2.6s-2.8,3.9-2.8,6.6c0,3,1,5.4,3,7.1c2,1.7,4.7,2.6,8.2,2.6
		c2,0,3.4-0.2,4.3-0.6c0.3-0.1,0.5-0.4,0.6-0.7c0.1-0.4,0.2-0.9,0.3-1.8c0.1-0.8,0.2-1.2,0.2-1.4c0-0.2-0.1-0.4-0.2-0.4
		c-0.1,0-0.2,0.2-0.3,0.5c-0.1,0.6-0.4,1.1-0.8,1.6c-0.5,0.6-1.2,1-2,1.2c-0.6,0.1-1.4,0.2-2.4,0.2c-1.8,0-3.5-0.7-5-2.1
		c-1.7-1.6-2.6-3.8-2.6-6.4c0-2.8,0.7-4.9,2.2-6.2C461,811,462.5,810.5,464.4,810.5z"/>
	<linearGradient id="SVGID_86_" gradientUnits="userSpaceOnUse" x1="472.5333" y1="818.5566" x2="488.757" y2="818.5566">
		<stop  offset="2.150540e-002" style="stop-color:#BF8D33"/>
		<stop  offset="0.5054" style="stop-color:#F7E679"/>
		<stop  offset="1" style="stop-color:#BF8D33"/>
	</linearGradient>
	<path fill="url(#SVGID_86_)" d="M488.6,809.5c-0.2,0-0.6,0-1.1,0.1c-0.5,0.1-0.9,0.1-1.2,0.1h-9.5c-0.7,0-1.5,0-2.4-0.1
		c-0.2,0-0.4-0.1-0.6-0.2s-0.3-0.1-0.4-0.1c-0.1,0-0.2,0.2-0.3,0.5c-0.3,1.4-0.5,2.3-0.5,2.8c0,0.3,0.1,0.4,0.2,0.4
		c0.1,0,0.2-0.1,0.3-0.3c0.1-0.3,0.2-0.5,0.4-0.8c0.3-0.4,1.1-0.7,2.3-0.7l3.6-0.1v9.8c0,2.7,0,4.4-0.1,5.1
		c-0.1,0.8-0.3,1.2-0.7,1.3c-0.2,0-0.5,0-0.7,0.1c-0.4,0-0.5,0.1-0.5,0.2c0,0.2,0.2,0.2,0.5,0.2c0.4,0,0.9,0,1.7,0
		c0.8,0,1.2,0,1.4,0c0.1,0,0.7,0,1.5,0c0.9,0,1.6,0,2.2,0c0.3,0,0.5-0.1,0.5-0.2c0-0.1-0.1-0.2-0.4-0.2c-0.4,0-0.8,0-1.2-0.1
		c-0.5-0.1-0.8-0.5-0.9-1.3c-0.1-0.7-0.1-2.4-0.1-5.1V811l3,0.1c1.8,0,2.8,0.5,2.8,1.3l0,0.3c0,0.3,0.1,0.5,0.3,0.5
		c0.1,0,0.2-0.1,0.2-0.4c0-0.2,0-0.7,0.1-1.5c0-0.7,0-1.2,0-1.3C488.8,809.7,488.7,809.5,488.6,809.5z"/>
	<linearGradient id="SVGID_87_" gradientUnits="userSpaceOnUse" x1="491.0372" y1="818.7251" x2="498.7892" y2="818.7251">
		<stop  offset="2.150540e-002" style="stop-color:#BF8D33"/>
		<stop  offset="0.5054" style="stop-color:#F7E679"/>
		<stop  offset="1" style="stop-color:#BF8D33"/>
	</linearGradient>
	<path fill="url(#SVGID_87_)" d="M498.4,827.4c-0.3,0-0.8,0-1.2-0.1c-0.6-0.1-0.9-0.5-1-1.2c-0.1-0.6-0.1-2.4-0.1-5.3v-4.2
		c0-2.9,0-4.6,0-5.1c0-0.8,0.3-1.3,0.9-1.4c0.3,0,0.5-0.1,0.7-0.1c0.2,0,0.3-0.1,0.3-0.2c0-0.1-0.2-0.2-0.5-0.2s-0.9,0-1.6,0
		c-0.7,0-1.2,0-1.3,0c-0.2,0-0.7,0-1.5,0c-0.8,0-1.3,0-1.6,0c-0.4,0-0.6,0.1-0.6,0.2c0,0.2,0.1,0.2,0.4,0.2c0.3,0,0.6,0,0.8,0.1
		c0.5,0.1,0.8,0.6,0.8,1.3c0,0.5,0,2.2,0,5.1v4.2c0,2.8,0,4.5-0.1,5.2c-0.1,0.7-0.3,1.1-0.7,1.2c-0.2,0-0.5,0-0.7,0.1
		c-0.4,0-0.5,0.1-0.5,0.2c0,0.2,0.2,0.2,0.5,0.2c0.4,0,0.9,0,1.7,0c0.8,0,1.2,0,1.4,0s0.7,0,1.5,0c0.9,0,1.6,0,2.2,0
		c0.3,0,0.5-0.1,0.5-0.2C498.8,827.4,498.7,827.4,498.4,827.4z"/>
	<linearGradient id="SVGID_88_" gradientUnits="userSpaceOnUse" x1="501.381" y1="818.7246" x2="520.9884" y2="818.7246">
		<stop  offset="2.150540e-002" style="stop-color:#BF8D33"/>
		<stop  offset="0.5054" style="stop-color:#F7E679"/>
		<stop  offset="1" style="stop-color:#BF8D33"/>
	</linearGradient>
	<path fill="url(#SVGID_88_)" d="M511.3,809.3c-3.3,0-5.8,1.1-7.7,3.2c-1.5,1.7-2.3,3.8-2.3,6.2c0,2.4,0.8,4.5,2.3,6.3
		c1.8,2.1,4.2,3.1,7.4,3.1c3,0,5.4-1,7.2-2.9c1.8-1.8,2.7-4.2,2.7-7c0-2.8-0.9-4.9-2.6-6.6C516.6,810.1,514.3,809.3,511.3,809.3z
		 M515.5,825.7c-0.9,0.8-2.1,1.3-3.4,1.3c-2.2,0-4-0.9-5.4-2.6c-1.3-1.6-2-3.8-2-6.3c0-2.7,0.6-4.7,1.9-6c1-1,2.3-1.5,4-1.5
		c2,0,3.7,0.8,5,2.3c1.4,1.6,2,3.8,2,6.4C517.6,822.2,516.9,824.4,515.5,825.7z"/>
	<linearGradient id="SVGID_89_" gradientUnits="userSpaceOnUse" x1="523.4611" y1="818.665" x2="543.6447" y2="818.665">
		<stop  offset="2.150540e-002" style="stop-color:#BF8D33"/>
		<stop  offset="0.5054" style="stop-color:#F7E679"/>
		<stop  offset="1" style="stop-color:#BF8D33"/>
	</linearGradient>
	<path fill="url(#SVGID_89_)" d="M543.1,809.7c-0.5,0-1,0-1.5,0c-0.5,0-0.8,0-0.8,0c-0.1,0-0.5,0-1.2,0c-0.7,0-1.2,0-1.7,0
		c-0.4,0-0.6,0.1-0.6,0.2c0,0.1,0.1,0.2,0.4,0.2c0.6,0,1,0,1.3,0.1c0.4,0.1,0.6,0.5,0.7,0.9c0,0.2,0.1,0.6,0.1,1.2l0.2,10.8h-0.1
		c-1.9-2-3.6-3.8-5.3-5.5c-3.6-3.7-6.1-6.3-7.4-7.7c-0.5-0.5-0.8-0.7-0.9-0.7c-0.2,0-0.3,0.3-0.3,0.8l-0.2,14.2
		c0,1.1-0.1,1.8-0.1,2.2c-0.1,0.4-0.3,0.7-0.6,0.8c-0.3,0-0.6,0.1-0.8,0.1c-0.4,0-0.6,0.1-0.6,0.2c0,0.2,0.2,0.2,0.5,0.2
		c0.5,0,1.1,0,1.7,0c0.6,0,0.9,0,0.9,0c0.1,0,0.4,0,1.1,0c0.7,0,1.3,0,1.9,0c0.4,0,0.6-0.1,0.6-0.2c0-0.1-0.2-0.2-0.7-0.2
		c-0.6-0.1-0.9-0.1-0.9-0.1c-0.5-0.2-0.8-1.1-0.8-2.7l-0.3-10.1h0.1c0.7,0.7,1.4,1.5,2,2.2c1.4,1.5,2.6,2.7,3.7,3.8
		c3.2,3.2,5.5,5.5,7.1,7.1c0.4,0.4,0.6,0.5,0.8,0.5c0.2,0,0.3-0.2,0.3-0.7l0.3-15.1c0-0.6,0.1-1,0.1-1.3c0.2-0.5,0.7-0.8,1.5-0.8
		c0.3,0,0.4-0.1,0.4-0.2C543.6,809.7,543.5,809.7,543.1,809.7z"/>
	<linearGradient id="SVGID_90_" gradientUnits="userSpaceOnUse" x1="545.3844" y1="818.7543" x2="557.6906" y2="818.7543">
		<stop  offset="2.150540e-002" style="stop-color:#BF8D33"/>
		<stop  offset="0.5054" style="stop-color:#F7E679"/>
		<stop  offset="1" style="stop-color:#BF8D33"/>
	</linearGradient>
	<path fill="url(#SVGID_90_)" d="M556.7,809.3c-0.1-0.1-0.2,0-0.3,0.1l-10.9,17.8c-0.1,0.2-0.1,0.3,0,0.4l0.8,0.6
		c0.1,0.1,0.2,0,0.3-0.1l11-17.9c0.1-0.1,0.1-0.2,0-0.3L556.7,809.3z"/>
	<linearGradient id="SVGID_91_" gradientUnits="userSpaceOnUse" x1="559.5558" y1="818.665" x2="589.796" y2="818.665">
		<stop  offset="2.150540e-002" style="stop-color:#BF8D33"/>
		<stop  offset="0.5054" style="stop-color:#F7E679"/>
		<stop  offset="1" style="stop-color:#BF8D33"/>
	</linearGradient>
	<path fill="url(#SVGID_91_)" d="M589.6,824.1c-0.1,0-0.2,0.1-0.3,0.4c-0.2,0.9-0.5,1.5-1.1,1.8c-0.4,0.2-1.2,0.3-2.3,0.3
		c-1.2,0-2-0.1-2.3-0.4s-0.5-0.8-0.6-1.6v-5.6c0-0.2,0-0.2,0.1-0.2c1.8,0,3,0,3.4,0.1c0.8,0.1,1.2,0.4,1.3,0.9
		c0.1,0.4,0.1,0.7,0.1,0.8s0.1,0.3,0.2,0.3s0.2-0.2,0.2-0.5c0-0.2,0-0.7,0.1-1.6c0-0.5,0.1-0.9,0.1-1.3c0-0.3,0.1-0.5,0.1-0.5
		c0-0.1-0.1-0.2-0.2-0.2c-0.1,0-0.2,0.1-0.4,0.3c-0.1,0.1-0.3,0.2-0.5,0.3c-0.1,0-0.4,0.1-0.6,0.1c-0.4,0-1.7,0-3.9,0
		c-0.1,0-0.2-0.1-0.2-0.3v-6.1c0-0.2,0.1-0.2,0.2-0.2c1.7,0,2.9,0,3.4,0.1c0.9,0.1,1.4,0.4,1.6,0.9c0,0.1,0.1,0.3,0.1,0.4
		c0,0.2,0,0.3,0.1,0.5c0,0.2,0.1,0.3,0.2,0.3c0.1,0,0.2-0.1,0.2-0.3c0.1-0.6,0.1-1.2,0.1-1.6c0-0.4,0.1-0.8,0.1-1.1
		c0-0.3,0.1-0.4,0.1-0.4c0-0.1,0-0.2-0.1-0.2c0,0-0.1,0-0.4,0.1c-0.3,0.1-0.6,0.1-1,0.1c-0.2,0-2.2,0-6,0c-0.2,0-0.7,0-1.5,0
		c-0.8,0-1.5,0-2,0c-0.4,0-0.5,0.1-0.5,0.2c0,0.1,0.1,0.2,0.4,0.2c0.4,0,0.7,0,0.9,0.1c0.6,0.1,1,0.6,1,1.4c0,0.5,0,2.2,0,5.1v4.2
		c0,2.8,0,4.5-0.1,5.1c-0.1,0.8-0.3,1.2-0.7,1.3c-0.2,0-0.5,0-0.7,0.1c-0.1,0-0.2,0-0.3,0c-0.1,0-0.1,0-0.2,0c-0.2,0-0.4,0-0.6,0
		c-0.9-0.2-1.8-0.7-2.7-1.6c-0.6-0.6-1.4-1.5-2.3-2.7c-0.2-0.2-1.1-1.4-2.9-3.6c2.1-1.7,3.2-3.5,3.2-5.4c0-0.7-0.2-1.4-0.6-2.1
		c-0.3-0.5-0.7-1-1.1-1.2c-1-0.7-2.5-1-4.4-1c-0.2,0-0.8,0-1.7,0c-0.9,0-1.4,0-1.7,0c-0.1,0-0.5,0-1.3,0c-0.8,0-1.4,0-1.9,0
		c-0.4,0-0.5,0.1-0.5,0.2c0,0.1,0.1,0.2,0.4,0.2c0.4,0,0.7,0,0.9,0.1c0.6,0.1,1,0.6,1,1.4c0,0.5,0,2.2,0,5.1v4.2
		c0,2.8,0,4.5-0.1,5.1c-0.1,0.8-0.3,1.2-0.7,1.3c-0.2,0-0.5,0-0.7,0.1c-0.4,0-0.5,0.1-0.5,0.2c0,0.2,0.2,0.2,0.5,0.2
		c0.4,0,0.9,0,1.7,0c0.7,0,1.2,0,1.3,0c0,0,0.5,0,1.4,0c0.9,0,1.6,0,2.1,0c0.3,0,0.5-0.1,0.5-0.2c0-0.1-0.1-0.2-0.3-0.2
		c-0.3,0-0.7,0-1.2-0.1c-0.5-0.1-0.8-0.5-0.9-1.3c-0.1-0.7-0.1-2.4-0.1-5.1v-0.3c0-0.1,0.1-0.2,0.2-0.2h2.1c0.2,0,0.3,0.1,0.4,0.2
		c0.9,1.2,1.7,2.3,2.4,3.3c1.4,1.9,2.5,3.1,3.3,3.5c0.6,0.3,1.4,0.5,2.6,0.5h2.3c0.1,0,0.2,0,0.2,0c0.1,0,0.1,0,0.2,0
		c0.4,0,0.9,0,1.7,0c0.8,0,1.2,0,1.4,0c0.3,0,1.1,0,2.5,0.1s2.8,0.1,4.2,0.1c0.5,0,0.8,0,1-0.1c0.1-0.1,0.3-0.2,0.3-0.5
		c0.2-0.8,0.3-1.7,0.3-2.7C589.8,824.3,589.7,824.1,589.6,824.1z M568.6,818.8c-0.4,0.3-0.9,0.4-1.7,0.4c-0.8,0-1.4-0.1-1.8-0.2
		c-0.1,0-0.2-0.2-0.2-0.4v-7.3c0-0.1,0-0.2,0.1-0.3c0.1-0.1,0.6-0.1,1.4-0.1c0.9,0,1.7,0.3,2.4,0.9c0.9,0.8,1.3,2,1.3,3.5
		C570,816.9,569.5,818.1,568.6,818.8z"/>
	<linearGradient id="SVGID_92_" gradientUnits="userSpaceOnUse" x1="592.4835" y1="818.665" x2="612.6676" y2="818.665">
		<stop  offset="2.150540e-002" style="stop-color:#BF8D33"/>
		<stop  offset="0.5054" style="stop-color:#F7E679"/>
		<stop  offset="1" style="stop-color:#BF8D33"/>
	</linearGradient>
	<path fill="url(#SVGID_92_)" d="M612.1,809.7c-0.5,0-1,0-1.5,0c-0.5,0-0.8,0-0.8,0c-0.1,0-0.5,0-1.2,0c-0.7,0-1.2,0-1.7,0
		c-0.4,0-0.6,0.1-0.6,0.2c0,0.1,0.1,0.2,0.4,0.2c0.6,0,1,0,1.3,0.1c0.4,0.1,0.6,0.5,0.7,0.9c0,0.2,0.1,0.6,0.1,1.2l0.2,10.8h-0.1
		c-1.9-2-3.6-3.8-5.3-5.5c-3.6-3.7-6.1-6.3-7.4-7.7c-0.5-0.5-0.8-0.7-0.9-0.7c-0.2,0-0.3,0.3-0.3,0.8l-0.2,14.2
		c0,1.1-0.1,1.8-0.1,2.2c-0.1,0.4-0.3,0.7-0.6,0.8c-0.3,0-0.6,0.1-0.8,0.1c-0.4,0-0.6,0.1-0.6,0.2c0,0.2,0.2,0.2,0.5,0.2
		c0.5,0,1.1,0,1.7,0c0.6,0,0.9,0,0.9,0c0.1,0,0.4,0,1.1,0c0.7,0,1.3,0,1.9,0c0.4,0,0.6-0.1,0.6-0.2c0-0.1-0.2-0.2-0.7-0.2
		c-0.6-0.1-0.9-0.1-0.9-0.1c-0.5-0.2-0.8-1.1-0.8-2.7l-0.3-10.1h0.1c0.7,0.7,1.4,1.5,2,2.2c1.4,1.5,2.6,2.7,3.7,3.8
		c3.2,3.2,5.5,5.5,7.1,7.1c0.4,0.4,0.6,0.5,0.8,0.5c0.2,0,0.3-0.2,0.3-0.7l0.3-15.1c0-0.6,0.1-1,0.1-1.3c0.2-0.5,0.7-0.8,1.5-0.8
		c0.3,0,0.4-0.1,0.4-0.2C612.7,809.7,612.5,809.7,612.1,809.7z"/>
	<linearGradient id="SVGID_93_" gradientUnits="userSpaceOnUse" x1="615.3805" y1="818.7246" x2="634.9879" y2="818.7246">
		<stop  offset="2.150540e-002" style="stop-color:#BF8D33"/>
		<stop  offset="0.5054" style="stop-color:#F7E679"/>
		<stop  offset="1" style="stop-color:#BF8D33"/>
	</linearGradient>
	<path fill="url(#SVGID_93_)" d="M625.3,809.3c-3.3,0-5.8,1.1-7.7,3.2c-1.5,1.7-2.3,3.8-2.3,6.2c0,2.4,0.8,4.5,2.3,6.3
		c1.8,2.1,4.2,3.1,7.4,3.1c3,0,5.4-1,7.2-2.9c1.8-1.8,2.7-4.2,2.7-7c0-2.8-0.9-4.9-2.6-6.6C630.6,810.1,628.3,809.3,625.3,809.3z
		 M629.5,825.7c-0.9,0.8-2.1,1.3-3.4,1.3c-2.2,0-4-0.9-5.4-2.6c-1.3-1.6-2-3.8-2-6.3c0-2.7,0.6-4.7,1.9-6c1-1,2.3-1.5,4-1.5
		c2,0,3.7,0.8,5,2.3c1.4,1.6,2,3.8,2,6.4C631.6,822.2,630.9,824.4,629.5,825.7z"/>
	<linearGradient id="SVGID_94_" gradientUnits="userSpaceOnUse" x1="634.9869" y1="818.8931" x2="655.0514" y2="818.8931">
		<stop  offset="2.150540e-002" style="stop-color:#BF8D33"/>
		<stop  offset="0.5054" style="stop-color:#F7E679"/>
		<stop  offset="1" style="stop-color:#BF8D33"/>
	</linearGradient>
	<path fill="url(#SVGID_94_)" d="M653.5,810.4c0.3-0.2,0.7-0.3,1.2-0.3c0.3,0,0.4-0.1,0.4-0.2c0-0.1-0.2-0.2-0.5-0.2
		c-0.3,0-0.7,0-1.2,0c-0.6,0-0.9,0-1,0c0,0-0.3,0-0.9,0c-0.6,0-1.1,0-1.6,0c-0.4,0-0.7,0.1-0.7,0.2c0,0.1,0.1,0.2,0.4,0.2
		c0.4,0,0.7,0,0.9,0.1c0.2,0.1,0.3,0.2,0.3,0.5c0,0.2-0.1,0.5-0.2,0.9c-1.8,4.5-3.4,8.5-4.7,12h-0.1l-4.1-10.9
		c-0.4-1-0.6-1.6-0.6-1.8c0-0.2,0.1-0.4,0.2-0.5c0.2-0.1,0.5-0.2,0.9-0.2c0.2,0,0.4-0.1,0.4-0.2c0-0.1-0.2-0.2-0.6-0.2
		c-0.4,0-1,0-1.7,0c-0.7,0-1.1,0-1.2,0c-0.2,0-0.8,0-1.6,0c-0.8,0-1.4,0-1.9,0c-0.4,0-0.6,0.1-0.6,0.2c0,0.1,0.1,0.2,0.3,0.2
		c0.4,0,0.7,0,0.9,0.1c0.5,0.1,0.8,0.3,1,0.5c0.3,0.3,0.5,0.7,0.8,1.3l6,14.7c0.3,0.6,0.4,1,0.5,1.2c0.1,0.2,0.3,0.3,0.4,0.3
		c0.2,0,0.3-0.1,0.5-0.4c0.1-0.2,0.3-0.6,0.6-1.4l3.2-7.3c1.4-3.2,2.3-5.3,2.9-6.5C652.7,811.3,653.1,810.6,653.5,810.4z"/>
	<linearGradient id="SVGID_95_" gradientUnits="userSpaceOnUse" x1="652.1715" y1="818.4609" x2="671.9235" y2="818.4609">
		<stop  offset="2.150540e-002" style="stop-color:#BF8D33"/>
		<stop  offset="0.5054" style="stop-color:#F7E679"/>
		<stop  offset="1" style="stop-color:#BF8D33"/>
	</linearGradient>
	<path fill="url(#SVGID_95_)" d="M671.6,827.4c-0.4,0-0.7,0-1-0.1c-0.7-0.2-1.4-1-2.1-2.6c-2.5-6.1-4.5-11-6-14.8
		c-0.2-0.5-0.4-0.8-0.6-0.8c-0.2,0-0.4,0.3-0.7,1l-6,15.1c-0.3,0.7-0.5,1.2-0.8,1.5c-0.3,0.4-0.7,0.6-1.2,0.7c-0.2,0-0.5,0-0.7,0
		c-0.2,0-0.3,0.1-0.3,0.2c0,0.2,0.2,0.2,0.5,0.2c0.5,0,1.4,0,2.8-0.1c0.2,0,0.7,0,1.3,0c0.6,0,1,0,1.3,0c0.3,0,0.4-0.1,0.4-0.2
		c0-0.1-0.1-0.2-0.4-0.2h-0.4c-0.6,0-1-0.2-1-0.7c0-0.3,0.1-0.8,0.4-1.5l1.3-3.4c0-0.1,0.1-0.2,0.2-0.2h5.4c0.1,0,0.2,0.1,0.2,0.2
		l1.9,5.1c0.1,0.3,0,0.5-0.2,0.6c-0.2,0-0.3,0.1-0.3,0.2c0,0.1,0.2,0.2,0.7,0.2c1,0,2.6,0,4.5,0c0.4,0,0.7,0,0.9,0
		c0.2,0,0.2-0.1,0.2-0.2C671.9,827.4,671.8,827.4,671.6,827.4z M663.5,820.3h-4.4c-0.1,0-0.1-0.1-0.1-0.2l2.2-5.9
		c0-0.1,0.1-0.2,0.1-0.2c0,0,0.1,0.1,0.1,0.2l2.2,5.9C663.7,820.3,663.6,820.3,663.5,820.3z"/>
	<linearGradient id="SVGID_96_" gradientUnits="userSpaceOnUse" x1="670.8434" y1="818.5566" x2="687.067" y2="818.5566">
		<stop  offset="2.150540e-002" style="stop-color:#BF8D33"/>
		<stop  offset="0.5054" style="stop-color:#F7E679"/>
		<stop  offset="1" style="stop-color:#BF8D33"/>
	</linearGradient>
	<path fill="url(#SVGID_96_)" d="M686.9,809.5c-0.2,0-0.6,0-1.1,0.1c-0.5,0.1-0.9,0.1-1.2,0.1h-9.5c-0.7,0-1.5,0-2.4-0.1
		c-0.2,0-0.4-0.1-0.6-0.2s-0.3-0.1-0.4-0.1c-0.1,0-0.2,0.2-0.3,0.5c-0.3,1.4-0.5,2.3-0.5,2.8c0,0.3,0.1,0.4,0.2,0.4
		c0.1,0,0.2-0.1,0.3-0.3c0.1-0.3,0.2-0.5,0.4-0.8c0.3-0.4,1.1-0.7,2.3-0.7l3.6-0.1v9.8c0,2.7,0,4.4-0.1,5.1
		c-0.1,0.8-0.3,1.2-0.7,1.3c-0.2,0-0.5,0-0.7,0.1c-0.4,0-0.5,0.1-0.5,0.2c0,0.2,0.2,0.2,0.5,0.2c0.4,0,0.9,0,1.7,0
		c0.8,0,1.2,0,1.4,0c0.1,0,0.7,0,1.5,0c0.9,0,1.6,0,2.2,0c0.3,0,0.5-0.1,0.5-0.2c0-0.1-0.1-0.2-0.4-0.2c-0.4,0-0.8,0-1.2-0.1
		c-0.5-0.1-0.8-0.5-0.9-1.3c-0.1-0.7-0.1-2.4-0.1-5.1V811l3,0.1c1.8,0,2.8,0.5,2.8,1.3l0,0.3c0,0.3,0.1,0.5,0.3,0.5
		c0.1,0,0.2-0.1,0.2-0.4c0-0.2,0-0.7,0.1-1.5c0-0.7,0-1.2,0-1.3C687.1,809.7,687,809.5,686.9,809.5z"/>
	<linearGradient id="SVGID_97_" gradientUnits="userSpaceOnUse" x1="689.3473" y1="818.7251" x2="697.0992" y2="818.7251">
		<stop  offset="2.150540e-002" style="stop-color:#BF8D33"/>
		<stop  offset="0.5054" style="stop-color:#F7E679"/>
		<stop  offset="1" style="stop-color:#BF8D33"/>
	</linearGradient>
	<path fill="url(#SVGID_97_)" d="M696.7,827.4c-0.3,0-0.8,0-1.2-0.1c-0.6-0.1-0.9-0.5-1-1.2c-0.1-0.6-0.1-2.4-0.1-5.3v-4.2
		c0-2.9,0-4.6,0-5.1c0-0.8,0.3-1.3,0.9-1.4c0.3,0,0.5-0.1,0.7-0.1c0.2,0,0.3-0.1,0.3-0.2c0-0.1-0.2-0.2-0.5-0.2s-0.9,0-1.6,0
		c-0.7,0-1.2,0-1.3,0c-0.2,0-0.7,0-1.5,0c-0.8,0-1.3,0-1.6,0c-0.4,0-0.6,0.1-0.6,0.2c0,0.2,0.1,0.2,0.4,0.2c0.3,0,0.6,0,0.8,0.1
		c0.5,0.1,0.8,0.6,0.8,1.3c0,0.5,0,2.2,0,5.1v4.2c0,2.8,0,4.5-0.1,5.2c-0.1,0.7-0.3,1.1-0.7,1.2c-0.2,0-0.5,0-0.7,0.1
		c-0.4,0-0.5,0.1-0.5,0.2c0,0.2,0.2,0.2,0.5,0.2c0.4,0,0.9,0,1.7,0c0.8,0,1.2,0,1.4,0s0.7,0,1.5,0c0.9,0,1.6,0,2.2,0
		c0.3,0,0.5-0.1,0.5-0.2C697.1,827.4,697,827.4,696.7,827.4z"/>
	<linearGradient id="SVGID_98_" gradientUnits="userSpaceOnUse" x1="699.691" y1="818.7246" x2="719.2985" y2="818.7246">
		<stop  offset="2.150540e-002" style="stop-color:#BF8D33"/>
		<stop  offset="0.5054" style="stop-color:#F7E679"/>
		<stop  offset="1" style="stop-color:#BF8D33"/>
	</linearGradient>
	<path fill="url(#SVGID_98_)" d="M709.6,809.3c-3.3,0-5.8,1.1-7.7,3.2c-1.5,1.7-2.3,3.8-2.3,6.2c0,2.4,0.8,4.5,2.3,6.3
		c1.8,2.1,4.2,3.1,7.4,3.1c3,0,5.4-1,7.2-2.9c1.8-1.8,2.7-4.2,2.7-7c0-2.8-0.9-4.9-2.6-6.6C714.9,810.1,712.6,809.3,709.6,809.3z
		 M713.8,825.7c-0.9,0.8-2.1,1.3-3.4,1.3c-2.2,0-4-0.9-5.4-2.6c-1.3-1.6-2-3.8-2-6.3c0-2.7,0.6-4.7,1.9-6c1-1,2.3-1.5,4-1.5
		c2,0,3.7,0.8,5,2.3c1.4,1.6,2,3.8,2,6.4C715.9,822.2,715.2,824.4,713.8,825.7z"/>
	<linearGradient id="SVGID_99_" gradientUnits="userSpaceOnUse" x1="721.7711" y1="818.665" x2="741.9547" y2="818.665">
		<stop  offset="2.150540e-002" style="stop-color:#BF8D33"/>
		<stop  offset="0.5054" style="stop-color:#F7E679"/>
		<stop  offset="1" style="stop-color:#BF8D33"/>
	</linearGradient>
	<path fill="url(#SVGID_99_)" d="M741.4,809.7c-0.5,0-1,0-1.5,0c-0.5,0-0.8,0-0.8,0c-0.1,0-0.5,0-1.2,0c-0.7,0-1.2,0-1.7,0
		c-0.4,0-0.6,0.1-0.6,0.2c0,0.1,0.1,0.2,0.4,0.2c0.6,0,1,0,1.3,0.1c0.4,0.1,0.6,0.5,0.7,0.9c0,0.2,0.1,0.6,0.1,1.2l0.2,10.8h-0.1
		c-1.9-2-3.6-3.8-5.3-5.5c-3.6-3.7-6.1-6.3-7.4-7.7c-0.5-0.5-0.8-0.7-0.9-0.7c-0.2,0-0.3,0.3-0.3,0.8l-0.2,14.2
		c0,1.1-0.1,1.8-0.1,2.2c-0.1,0.4-0.3,0.7-0.6,0.8c-0.3,0-0.6,0.1-0.8,0.1c-0.4,0-0.6,0.1-0.6,0.2c0,0.2,0.2,0.2,0.5,0.2
		c0.5,0,1.1,0,1.7,0c0.6,0,0.9,0,0.9,0c0.1,0,0.4,0,1.1,0c0.7,0,1.3,0,1.9,0c0.4,0,0.6-0.1,0.6-0.2c0-0.1-0.2-0.2-0.7-0.2
		c-0.6-0.1-0.9-0.1-0.9-0.1c-0.5-0.2-0.8-1.1-0.8-2.7l-0.3-10.1h0.1c0.7,0.7,1.4,1.5,2,2.2c1.4,1.5,2.6,2.7,3.7,3.8
		c3.2,3.2,5.5,5.5,7.1,7.1c0.4,0.4,0.6,0.5,0.8,0.5c0.2,0,0.3-0.2,0.3-0.7l0.3-15.1c0-0.6,0.1-1,0.1-1.3c0.2-0.5,0.7-0.8,1.5-0.8
		c0.3,0,0.4-0.1,0.4-0.2C742,809.7,741.8,809.7,741.4,809.7z"/>
	<linearGradient id="SVGID_100_" gradientUnits="userSpaceOnUse" x1="752.0582" y1="818.6289" x2="763.9381" y2="818.6289">
		<stop  offset="2.150540e-002" style="stop-color:#BF8D33"/>
		<stop  offset="0.5054" style="stop-color:#F7E679"/>
		<stop  offset="1" style="stop-color:#BF8D33"/>
	</linearGradient>
	<path fill="url(#SVGID_100_)" d="M763.8,809.5c0,0-0.1,0-0.4,0.1c-0.4,0.1-0.7,0.1-1,0.1c-0.3,0-2.4,0-6.3,0c-0.2,0-0.7,0-1.5,0
		c-0.8,0-1.5,0-1.9,0c-0.4,0-0.6,0.1-0.6,0.2c0,0.1,0.1,0.2,0.4,0.2c0.4,0,0.7,0,0.9,0.1c0.6,0.1,1,0.6,1,1.4c0,0.5,0,2.2,0,5.1v4.2
		c0,2.8,0,4.5-0.1,5.1c-0.1,0.8-0.3,1.2-0.7,1.3c-0.2,0-0.5,0-0.7,0.1c-0.4,0-0.5,0.1-0.5,0.2c0,0.2,0.2,0.2,0.5,0.2s0.9,0,1.6,0
		c0.8,0,1.2,0,1.4,0c0.1,0,0.6,0,1.5,0c0.9,0,1.6,0,2.2,0c0.4,0,0.5-0.1,0.5-0.2c0-0.1-0.1-0.2-0.4-0.2c-0.3,0-0.7,0-1.2-0.1
		c-0.5-0.1-0.8-0.5-0.9-1.3c-0.1-0.7-0.1-2.4-0.1-5.1v-1.9c0-0.1,0.1-0.2,0.2-0.2c2,0,3.2,0,3.6,0.1c0.6,0.1,1.1,0.4,1.2,0.9
		c0,0.2,0.1,0.4,0.1,0.6c0,0.3,0.1,0.5,0.2,0.5c0.2,0,0.2-0.2,0.2-0.5c0-0.5,0-1.1,0.1-1.8c0-0.3,0.1-0.6,0.1-1
		c0-0.3,0.1-0.5,0.1-0.5c0-0.1,0-0.2-0.1-0.2c-0.1,0-0.2,0.1-0.3,0.2c-0.2,0.2-0.5,0.4-1,0.4c-0.1,0-0.5,0-1.1,0h-3.1
		c-0.1,0-0.2-0.1-0.2-0.2v-6c0-0.2,0.1-0.3,0.2-0.3l3.7,0.1c0.9,0,1.4,0.3,1.6,0.7c0.1,0.2,0.1,0.5,0.1,0.9c0,0.3,0.1,0.4,0.2,0.4
		c0.1,0,0.2-0.1,0.2-0.3c0-0.8,0.1-1.4,0.1-1.9c0-0.2,0.1-0.5,0.1-0.7c0-0.2,0.1-0.3,0.1-0.4C763.9,809.5,763.9,809.5,763.8,809.5z"
		/>
	<linearGradient id="SVGID_101_" gradientUnits="userSpaceOnUse" x1="767.2985" y1="818.7251" x2="775.0504" y2="818.7251">
		<stop  offset="2.150540e-002" style="stop-color:#BF8D33"/>
		<stop  offset="0.5054" style="stop-color:#F7E679"/>
		<stop  offset="1" style="stop-color:#BF8D33"/>
	</linearGradient>
	<path fill="url(#SVGID_101_)" d="M774.7,827.4c-0.3,0-0.8,0-1.2-0.1c-0.6-0.1-0.9-0.5-1-1.2c-0.1-0.6-0.1-2.4-0.1-5.3v-4.2
		c0-2.9,0-4.6,0-5.1c0-0.8,0.3-1.3,0.9-1.4c0.3,0,0.5-0.1,0.7-0.1c0.2,0,0.3-0.1,0.3-0.2c0-0.1-0.2-0.2-0.5-0.2s-0.9,0-1.6,0
		c-0.7,0-1.2,0-1.3,0c-0.2,0-0.7,0-1.5,0c-0.8,0-1.3,0-1.6,0c-0.4,0-0.6,0.1-0.6,0.2c0,0.2,0.1,0.2,0.4,0.2c0.3,0,0.6,0,0.8,0.1
		c0.5,0.1,0.8,0.6,0.8,1.3c0,0.5,0,2.2,0,5.1v4.2c0,2.8,0,4.5-0.1,5.2c-0.1,0.7-0.3,1.1-0.7,1.2c-0.2,0-0.5,0-0.7,0.1
		c-0.4,0-0.5,0.1-0.5,0.2c0,0.2,0.2,0.2,0.5,0.2c0.4,0,0.9,0,1.7,0c0.8,0,1.2,0,1.4,0s0.7,0,1.5,0c0.9,0,1.6,0,2.2,0
		c0.3,0,0.5-0.1,0.5-0.2C775.1,827.4,774.9,827.4,774.7,827.4z"/>
	<linearGradient id="SVGID_102_" gradientUnits="userSpaceOnUse" x1="777.4742" y1="818.665" x2="797.6578" y2="818.665">
		<stop  offset="2.150540e-002" style="stop-color:#BF8D33"/>
		<stop  offset="0.5054" style="stop-color:#F7E679"/>
		<stop  offset="1" style="stop-color:#BF8D33"/>
	</linearGradient>
	<path fill="url(#SVGID_102_)" d="M797.7,809.9c0-0.1-0.2-0.2-0.6-0.2c-0.5,0-1,0-1.5,0c-0.5,0-0.8,0-0.8,0c-0.1,0-0.5,0-1.2,0
		c-0.7,0-1.2,0-1.7,0c-0.4,0-0.6,0.1-0.6,0.2c0,0.1,0.1,0.2,0.4,0.2c0.6,0,1,0,1.3,0.1c0.4,0.1,0.6,0.5,0.7,0.9
		c0,0.2,0.1,0.6,0.1,1.2l0.2,10.8h-0.1c-1.9-2-3.6-3.8-5.3-5.5c-3.6-3.7-6.1-6.3-7.4-7.7c-0.5-0.5-0.8-0.7-0.9-0.7
		c-0.2,0-0.3,0.3-0.3,0.8l-0.2,14.2c0,1.1-0.1,1.8-0.1,2.2c-0.1,0.4-0.3,0.7-0.6,0.8c-0.3,0-0.6,0.1-0.8,0.1c-0.4,0-0.6,0.1-0.6,0.2
		c0,0.2,0.2,0.2,0.5,0.2c0.5,0,1.1,0,1.7,0c0.6,0,0.9,0,0.9,0c0.1,0,0.4,0,1.1,0c0.7,0,1.3,0,1.9,0c0.4,0,0.6-0.1,0.6-0.2
		c0-0.1-0.2-0.2-0.7-0.2c-0.6-0.1-0.9-0.1-0.9-0.1c-0.5-0.2-0.8-1.1-0.8-2.7l-0.3-10.1h0.1c0.7,0.7,1.4,1.5,2,2.2
		c1.4,1.5,2.6,2.7,3.7,3.8c3.2,3.2,5.5,5.5,7.1,7.1c0.4,0.4,0.6,0.5,0.8,0.5c0.2,0,0.3-0.2,0.3-0.7l0.3-15.1c0-0.6,0.1-1,0.1-1.3
		c0.2-0.5,0.7-0.8,1.5-0.8C797.5,810.1,797.7,810,797.7,809.9z"/>
	<linearGradient id="SVGID_103_" gradientUnits="userSpaceOnUse" x1="797.5377" y1="818.4609" x2="817.2897" y2="818.4609">
		<stop  offset="2.150540e-002" style="stop-color:#BF8D33"/>
		<stop  offset="0.5054" style="stop-color:#F7E679"/>
		<stop  offset="1" style="stop-color:#BF8D33"/>
	</linearGradient>
	<path fill="url(#SVGID_103_)" d="M817,827.4c-0.4,0-0.7,0-1-0.1c-0.7-0.2-1.4-1-2.1-2.6c-2.5-6.1-4.5-11-6-14.8
		c-0.2-0.5-0.4-0.8-0.6-0.8c-0.2,0-0.4,0.3-0.7,1l-6,15.1c-0.3,0.7-0.5,1.2-0.8,1.5c-0.3,0.4-0.7,0.6-1.2,0.7c-0.2,0-0.5,0-0.7,0
		c-0.2,0-0.3,0.1-0.3,0.2c0,0.2,0.2,0.2,0.5,0.2c0.5,0,1.4,0,2.8-0.1c0.2,0,0.7,0,1.3,0c0.6,0,1,0,1.3,0c0.3,0,0.4-0.1,0.4-0.2
		c0-0.1-0.1-0.2-0.4-0.2h-0.4c-0.6,0-1-0.2-1-0.7c0-0.3,0.1-0.8,0.4-1.5l1.3-3.4c0-0.1,0.1-0.2,0.2-0.2h5.4c0.1,0,0.2,0.1,0.2,0.2
		l1.9,5.1c0.1,0.3,0,0.5-0.2,0.6c-0.2,0-0.3,0.1-0.3,0.2c0,0.1,0.2,0.2,0.7,0.2c1,0,2.6,0,4.5,0c0.4,0,0.7,0,0.9,0
		c0.2,0,0.2-0.1,0.2-0.2C817.3,827.4,817.2,827.4,817,827.4z M808.9,820.3h-4.4c-0.1,0-0.1-0.1-0.1-0.2l2.2-5.9
		c0-0.1,0.1-0.2,0.1-0.2c0,0,0.1,0.1,0.1,0.2l2.2,5.9C809,820.3,809,820.3,808.9,820.3z"/>
	<linearGradient id="SVGID_104_" gradientUnits="userSpaceOnUse" x1="817.5065" y1="818.7612" x2="830.0826" y2="818.7612">
		<stop  offset="2.150540e-002" style="stop-color:#BF8D33"/>
		<stop  offset="0.5054" style="stop-color:#F7E679"/>
		<stop  offset="1" style="stop-color:#BF8D33"/>
	</linearGradient>
	<path fill="url(#SVGID_104_)" d="M829.9,824.1c-0.1,0-0.2,0.1-0.3,0.4c-0.1,0.6-0.3,1.1-0.6,1.4c-0.4,0.4-1.4,0.7-2.8,0.7
		c-1.5,0-2.5-0.2-2.9-0.5c-0.2-0.2-0.4-0.7-0.4-1.6c0-0.6-0.1-1.8-0.1-3.6v-4.2c0-2.9,0-4.6,0-5.1c0-0.8,0.3-1.3,0.9-1.4
		c0.3,0,0.6-0.1,0.9-0.1c0.3,0,0.4-0.1,0.4-0.2c0-0.1-0.2-0.2-0.5-0.2s-0.9,0-1.8,0c-0.8,0-1.3,0-1.5,0c-0.2,0-0.7,0-1.5,0
		c-0.8,0-1.4,0-1.8,0c-0.4,0-0.5,0.1-0.5,0.2c0,0.1,0.1,0.2,0.4,0.2c0.6,0,1,0.1,1.3,0.2c0.3,0.2,0.5,0.6,0.5,1.2c0,0.5,0,2.2,0,5.1
		v4.2c0,2.8,0,4.5-0.1,5.1c-0.1,0.8-0.3,1.2-0.7,1.3c-0.2,0-0.5,0-0.7,0.1c-0.4,0-0.5,0.1-0.5,0.2c0,0.2,0.2,0.2,0.5,0.2
		c0.4,0,0.9,0,1.7,0c0.8,0,1.2,0,1.4,0c0.5,0,1.5,0,2.9,0.1s2.8,0.1,4.1,0.1c0.5,0,0.8,0,0.9,0c0.3-0.1,0.5-0.3,0.6-0.6
		c0.2-0.9,0.4-1.8,0.4-2.8C830.1,824.2,830,824.1,829.9,824.1z"/>
	<linearGradient id="SVGID_105_" gradientUnits="userSpaceOnUse" x1="838.8893" y1="818.7246" x2="855.569" y2="818.7246">
		<stop  offset="2.150540e-002" style="stop-color:#BF8D33"/>
		<stop  offset="0.5054" style="stop-color:#F7E679"/>
		<stop  offset="1" style="stop-color:#BF8D33"/>
	</linearGradient>
	<path fill="url(#SVGID_105_)" d="M849,810.5c1.1,0,2.1,0.1,3,0.4c0.8,0.3,1.5,0.6,1.9,1.1c0.6,0.6,0.9,1.4,0.9,2.2
		c0,0.4,0.1,0.5,0.2,0.5s0.3-0.2,0.3-0.6c0-1,0.1-1.9,0.1-2.6c0-0.3,0-0.6,0.1-0.9c0-0.2,0.1-0.4,0.1-0.4c0-0.2-0.1-0.3-0.4-0.3
		c-1-0.2-1.8-0.3-2.4-0.4c-1.2-0.2-2.4-0.2-3.5-0.2c-3.2,0-5.7,0.9-7.6,2.6s-2.8,3.9-2.8,6.6c0,3,1,5.4,3,7.1c2,1.7,4.7,2.6,8.2,2.6
		c2,0,3.4-0.2,4.3-0.6c0.3-0.1,0.5-0.4,0.6-0.7c0.1-0.4,0.2-0.9,0.3-1.8c0.1-0.8,0.2-1.2,0.2-1.4c0-0.2-0.1-0.4-0.2-0.4
		c-0.1,0-0.2,0.2-0.3,0.5c-0.1,0.6-0.4,1.1-0.8,1.6c-0.5,0.6-1.2,1-2,1.2c-0.6,0.1-1.4,0.2-2.4,0.2c-1.8,0-3.5-0.7-5-2.1
		c-1.7-1.6-2.6-3.8-2.6-6.4c0-2.8,0.7-4.9,2.2-6.2C845.6,811,847.1,810.5,849,810.5z"/>
	<linearGradient id="SVGID_106_" gradientUnits="userSpaceOnUse" x1="858.4254" y1="818.7612" x2="871.0016" y2="818.7612">
		<stop  offset="2.150540e-002" style="stop-color:#BF8D33"/>
		<stop  offset="0.5054" style="stop-color:#F7E679"/>
		<stop  offset="1" style="stop-color:#BF8D33"/>
	</linearGradient>
	<path fill="url(#SVGID_106_)" d="M870.8,824.1c-0.1,0-0.2,0.1-0.3,0.4c-0.1,0.6-0.3,1.1-0.6,1.4c-0.4,0.4-1.4,0.7-2.8,0.7
		c-1.5,0-2.5-0.2-2.9-0.5c-0.2-0.2-0.4-0.7-0.4-1.6c0-0.6-0.1-1.8-0.1-3.6v-4.2c0-2.9,0-4.6,0-5.1c0-0.8,0.3-1.3,0.9-1.4
		c0.3,0,0.6-0.1,0.9-0.1c0.3,0,0.4-0.1,0.4-0.2c0-0.1-0.2-0.2-0.5-0.2s-0.9,0-1.8,0c-0.8,0-1.3,0-1.5,0c-0.2,0-0.7,0-1.5,0
		c-0.8,0-1.4,0-1.8,0c-0.4,0-0.5,0.1-0.5,0.2c0,0.1,0.1,0.2,0.4,0.2c0.6,0,1,0.1,1.3,0.2c0.3,0.2,0.5,0.6,0.5,1.2c0,0.5,0,2.2,0,5.1
		v4.2c0,2.8,0,4.5-0.1,5.1c-0.1,0.8-0.3,1.2-0.7,1.3c-0.2,0-0.5,0-0.7,0.1c-0.4,0-0.5,0.1-0.5,0.2c0,0.2,0.2,0.2,0.5,0.2
		c0.4,0,0.9,0,1.7,0c0.8,0,1.2,0,1.4,0c0.5,0,1.5,0,2.9,0.1s2.8,0.1,4.1,0.1c0.5,0,0.8,0,0.9,0c0.3-0.1,0.5-0.3,0.6-0.6
		c0.2-0.9,0.4-1.8,0.4-2.8C871,824.2,870.9,824.1,870.8,824.1z"/>
	<linearGradient id="SVGID_107_" gradientUnits="userSpaceOnUse" x1="872.8004" y1="818.665" x2="884.9205" y2="818.665">
		<stop  offset="2.150540e-002" style="stop-color:#BF8D33"/>
		<stop  offset="0.5054" style="stop-color:#F7E679"/>
		<stop  offset="1" style="stop-color:#BF8D33"/>
	</linearGradient>
	<path fill="url(#SVGID_107_)" d="M884.7,824.1c-0.1,0-0.2,0.1-0.3,0.4c-0.2,0.9-0.5,1.5-1.1,1.8c-0.4,0.2-1.2,0.3-2.3,0.3
		c-1.2,0-2-0.1-2.3-0.4s-0.5-0.8-0.6-1.6v-5.6c0-0.2,0-0.2,0.1-0.2c1.8,0,3,0,3.4,0.1c0.8,0.1,1.2,0.4,1.3,0.9
		c0.1,0.4,0.1,0.7,0.1,0.8s0.1,0.3,0.2,0.3s0.2-0.2,0.2-0.5c0-0.2,0-0.7,0.1-1.6c0-0.5,0.1-0.9,0.1-1.3c0-0.3,0.1-0.5,0.1-0.5
		c0-0.1-0.1-0.2-0.2-0.2c-0.1,0-0.2,0.1-0.4,0.3c-0.1,0.1-0.3,0.2-0.5,0.3c-0.1,0-0.4,0.1-0.6,0.1c-0.4,0-1.7,0-3.9,0
		c-0.1,0-0.2-0.1-0.2-0.3v-6.1c0-0.2,0.1-0.2,0.2-0.2c1.7,0,2.9,0,3.4,0.1c0.9,0.1,1.4,0.4,1.6,0.9c0,0.1,0.1,0.3,0.1,0.4
		c0,0.2,0,0.3,0.1,0.5c0,0.2,0.1,0.3,0.2,0.3c0.1,0,0.2-0.1,0.2-0.3c0.1-0.6,0.1-1.2,0.1-1.6c0-0.4,0.1-0.8,0.1-1.1
		c0-0.3,0.1-0.4,0.1-0.4c0-0.1,0-0.2-0.1-0.2c0,0-0.1,0-0.4,0.1c-0.3,0.1-0.6,0.1-1,0.1c-0.2,0-2.2,0-6,0c-0.2,0-0.7,0-1.5,0
		c-0.8,0-1.5,0-2,0c-0.4,0-0.5,0.1-0.5,0.2c0,0.1,0.1,0.2,0.4,0.2c0.4,0,0.7,0,0.9,0.1c0.6,0.1,1,0.6,1,1.4c0,0.5,0,2.2,0,5.1v4.2
		c0,2.8,0,4.5-0.1,5.1c-0.1,0.8-0.3,1.2-0.7,1.3c-0.2,0-0.5,0-0.7,0.1c-0.4,0-0.5,0.1-0.5,0.2c0,0.2,0.2,0.2,0.5,0.2
		c0.4,0,0.9,0,1.7,0c0.8,0,1.2,0,1.4,0c0.3,0,1.1,0,2.5,0.1s2.8,0.1,4.2,0.1c0.5,0,0.8,0,1-0.1c0.1-0.1,0.3-0.2,0.3-0.5
		c0.2-0.8,0.3-1.7,0.3-2.7C884.9,824.3,884.9,824.1,884.7,824.1z"/>
	<linearGradient id="SVGID_108_" gradientUnits="userSpaceOnUse" x1="884.9449" y1="818.605" x2="924.5924" y2="818.605">
		<stop  offset="2.150540e-002" style="stop-color:#BF8D33"/>
		<stop  offset="0.5054" style="stop-color:#F7E679"/>
		<stop  offset="1" style="stop-color:#BF8D33"/>
	</linearGradient>
	<path fill="url(#SVGID_108_)" d="M924,809.7c-0.5,0-1,0-1.5,0c-0.5,0-0.8,0-0.8,0c-0.1,0-0.5,0-1.2,0c-0.7,0-1.2,0-1.7,0
		c-0.4,0-0.6,0.1-0.6,0.2c0,0.1,0.1,0.2,0.4,0.2c0.6,0,1,0,1.3,0.1c0.4,0.1,0.6,0.5,0.7,0.9c0,0.2,0.1,0.6,0.1,1.2l0.2,10.8h-0.1
		c-1.9-2-3.6-3.8-5.3-5.5c-3.6-3.7-6.1-6.3-7.4-7.7c-0.5-0.5-0.8-0.7-0.9-0.7c-0.2,0-0.3,0.3-0.3,0.8l-0.2,14.2
		c0,1.1-0.1,1.8-0.1,2.2c-0.1,0.4-0.3,0.7-0.6,0.8c-0.3,0-0.6,0.1-0.8,0.1c-0.2,0-0.3,0-0.4,0.1c-0.1,0-0.1,0-0.2,0
		c-0.4,0-0.7,0-1-0.1c-0.7-0.2-1.4-1-2.1-2.6c-2.5-6.1-4.5-11-6-14.8c-0.2-0.5-0.4-0.8-0.6-0.8c-0.2,0-0.4,0.3-0.7,1l-6,15.1
		c-0.3,0.7-0.5,1.2-0.8,1.5c-0.3,0.4-0.7,0.6-1.2,0.7c-0.2,0-0.5,0-0.7,0c-0.2,0-0.3,0.1-0.3,0.2c0,0.2,0.2,0.2,0.5,0.2
		c0.5,0,1.4,0,2.8-0.1c0.2,0,0.7,0,1.3,0c0.6,0,1,0,1.3,0c0.3,0,0.4-0.1,0.4-0.2c0-0.1-0.1-0.2-0.4-0.2h-0.4c-0.6,0-1-0.2-1-0.7
		c0-0.3,0.1-0.8,0.4-1.5l1.3-3.4c0-0.1,0.1-0.2,0.2-0.2h5.4c0.1,0,0.2,0.1,0.2,0.2l1.9,5.1c0.1,0.3,0,0.5-0.2,0.6
		c-0.2,0-0.3,0.1-0.3,0.2c0,0.1,0.2,0.2,0.7,0.2c1,0,2.6,0,4.5,0c0.4,0,0.7,0,0.9,0c0,0,0,0,0.1,0c0.1,0,0.2,0.1,0.4,0.1
		c0.5,0,1.1,0,1.7,0c0.6,0,0.9,0,0.9,0c0.1,0,0.4,0,1.1,0c0.7,0,1.3,0,1.9,0c0.4,0,0.6-0.1,0.6-0.2c0-0.1-0.2-0.2-0.7-0.2
		c-0.6-0.1-0.9-0.1-0.9-0.1c-0.5-0.2-0.8-1.1-0.8-2.7l-0.3-10.1h0.1c0.7,0.7,1.4,1.5,2,2.2c1.4,1.5,2.6,2.7,3.7,3.8
		c3.2,3.2,5.5,5.5,7.1,7.1c0.4,0.4,0.6,0.5,0.8,0.5c0.2,0,0.3-0.2,0.3-0.7l0.3-15.1c0-0.6,0.1-1,0.1-1.3c0.2-0.5,0.7-0.8,1.5-0.8
		c0.3,0,0.4-0.1,0.4-0.2C924.6,809.7,924.4,809.7,924,809.7z M896.3,820.3h-4.4c-0.1,0-0.1-0.1-0.1-0.2l2.2-5.9
		c0-0.1,0.1-0.2,0.1-0.2c0,0,0.1,0.1,0.1,0.2l2.2,5.9C896.4,820.3,896.4,820.3,896.3,820.3z"/>
	<linearGradient id="SVGID_109_" gradientUnits="userSpaceOnUse" x1="928.1442" y1="818.7246" x2="938.1764" y2="818.7246">
		<stop  offset="2.150540e-002" style="stop-color:#BF8D33"/>
		<stop  offset="0.5054" style="stop-color:#F7E679"/>
		<stop  offset="1" style="stop-color:#BF8D33"/>
	</linearGradient>
	<path fill="url(#SVGID_109_)" d="M934.2,816.9l-0.7-0.5c-1-0.7-1.6-1.4-2-1.9c-0.4-0.5-0.5-1-0.5-1.6c0-0.7,0.3-1.3,0.8-1.8
		c0.5-0.5,1.2-0.7,2.1-0.7c1.1,0,2,0.4,2.6,1.2c0.4,0.5,0.6,1.1,0.6,1.6c0,0.3,0.1,0.4,0.2,0.4c0.2,0,0.3-0.2,0.3-0.7
		c0-0.8,0-1.4,0-2c0-0.6,0-0.9,0-0.9c0-0.1-0.1-0.2-0.3-0.3c-1.1-0.3-2.2-0.4-3.2-0.4c-1.6,0-3,0.4-4,1.3c-1,0.8-1.5,1.9-1.5,3.3
		c0,1.9,1.2,3.8,3.6,5.7l1.1,0.9c1.6,1.2,2.4,2.5,2.4,3.8c0,0.7-0.3,1.3-0.8,1.8c-0.6,0.6-1.4,0.9-2.4,0.9c-1.8,0-3-0.8-3.4-2.4
		c-0.1-0.5-0.2-0.9-0.2-1.2c0-0.3-0.1-0.4-0.2-0.4c-0.2,0-0.3,0.2-0.3,0.6c-0.1,1.2-0.1,2.3-0.1,3.1c0,0.4,0.2,0.7,0.5,0.8
		c0.9,0.4,2.1,0.6,3.5,0.6c1.5,0,2.8-0.3,3.8-1c1.5-1,2.3-2.4,2.3-4.2c0-1.2-0.3-2.2-0.9-3.1S935.7,817.9,934.2,816.9z"/>
</g>
</svg>
